<svg xmlns="http://www.w3.org/2000/svg" viewBox="0 0 620 440"><path d="M256,234.2a19.3,19.3,0,0,1-7.2-.2c-1.3-.1-2.4-.5-3.6-.7l-3.6-.9c-4.7-1.4-9.3-2.9-13.9-4.5-9.1-3.1-18.3-6.2-27.5-8.9-18.4-5.3-37.3-8.6-56.1-7.7a133,133,0,0,0-14,1.5,134.9,134.9,0,0,0-13.7,3.1l-6.7,2-6.7,2.2c-4.4,1.7-8.8,3.4-13.1,5.3-8.7,3.6-17.4,7.6-26.6,10L56.4,237l-7,1.2-7.1.7-7,.5v-.2l7.1-1,7-1.2a131.5,131.5,0,0,0,13.7-3.6c9-2.8,17.4-7.2,26.1-11.2,4.3-2.1,8.7-3.9,13.2-5.7s9.1-3.3,13.7-4.6a116.5,116.5,0,0,1,28.7-4.8,133,133,0,0,1,28.9,2,192.7,192.7,0,0,1,28.1,7.1c9.1,3,18.1,6.5,27,10,4.4,1.8,8.9,3.6,13.4,5.1,2.2.8,4.5,1.5,6.8,2.1a20.8,20.8,0,0,0,7,.6Z" fill="#9b9b9a"/><path d="M196,221.9a348,348,0,0,0-50.9-1.3A209.2,209.2,0,0,0,96,228.8v-.2c15.2-7.4,32.2-11.3,49.3-12.2a169.7,169.7,0,0,1,50.7,5.3Z" fill="#ccc"/><path d="M206.7,225.7c-17.6-.1-34.9.7-51.9,2.2a471.6,471.6,0,0,0-50.5,6.9v-.3A206.1,206.1,0,0,1,154.9,224a236.2,236.2,0,0,1,51.8,1.4Z" fill="#ccc"/><path d="M217.4,229.4l-52.9,5.9-51.9,5.4v-.2a432.3,432.3,0,0,1,51.9-8.7,405.7,405.7,0,0,1,52.9-2.5Z" fill="#ccc"/><path d="M228.1,233.2c-17.9,4.1-35.9,7.2-53.8,9.5a483,483,0,0,1-53.4,3.9v-.2c17.9-2.2,35.7-4.6,53.5-6.9s35.8-4.4,53.8-6.4Z" fill="#ccc"/><path d="M238.8,237a239.6,239.6,0,0,1-27.1,8c-9.1,2.1-18.3,3.8-27.5,5.1s-18.4,2.2-27.6,2.6a210.2,210.2,0,0,1-27.5-.2v-.2c9.3-.1,18.5-.8,27.6-1.7s18.4-2,27.5-3.3,18.3-2.8,27.4-4.5,18.2-3.6,27.2-5.9Z" fill="#ccc"/><path d="M249.5,240.8a139.8,139.8,0,0,1-27.1,10.6,211.6,211.6,0,0,1-28.2,6.1,210.9,210.9,0,0,1-28.5,2.5,148.4,148.4,0,0,1-28.3-1.6v-.2a193.7,193.7,0,0,0,28.5,0c9.5-.7,18.9-1.7,28.3-3.1s18.8-3.3,28-5.6a169.3,169.3,0,0,0,27.2-8.8Z" fill="#ccc"/><path d="M260.2,244.6c-8.2,5.9-17.5,10-26.9,13.3a185.8,185.8,0,0,1-29,7.1,195.6,195.6,0,0,1-29.5,2.4,133.7,133.7,0,0,1-29.1-3.1h0a144.6,144.6,0,0,0,29.4,1.5,221.9,221.9,0,0,0,29.3-2.9,233.6,233.6,0,0,0,28.7-6.5c9.4-3,18.7-6.5,27-11.8Z" fill="#ccc"/><path d="M258.7,225.2l5.8-.3h2.8l2.9-.3c3.8-.4,7.6-.7,11.4-1.3,7.6-.9,15.1-2.1,22.6-3.2,15.1-2.4,30.2-4.9,45.2-7,7.5-1.1,15.1-2,22.6-3s15.1-1.7,22.7-2.3c3.7-.3,7.5-.7,11.3-.9l11.3-.7,2.9-.2H423l5.7-.2H457l5.7.3,5.6.3h2.8l2.9.3,11.2,1.1q22.5,2.5,44.4,7.2c7.3,1.5,14.6,3.2,21.8,4.8s14.6,3.1,21.9,4.3a433.5,433.5,0,0,0,44.1,4.6v.3a398.6,398.6,0,0,1-45-3.1c-7.5-1-14.9-2.2-22.3-3.7L528,218c-14.7-2.7-29.6-4.9-44.5-6.3l-11.1-1h-5.6l-5.6-.3c-7.5-.5-15-.3-22.5-.4-15,.2-30,.7-45,2l-5.6.4-5.6.6-11.2,1-22.5,2.6L303.9,222c-7.5.9-15,1.8-22.5,2.4-3.8.4-7.6.6-11.3.8H258.7Z" fill="#9b9b9a"/><path d="M277.7,231.2c41.7-7.4,83.3-13.8,124.9-16.2a478.2,478.2,0,0,1,62.2-.1c20.6,1.3,41.1,4.2,60.8,9.9v.2c-20.2-4.4-40.9-6.3-61.5-7s-41.4-.1-62.1,1.2c-41.4,2.5-82.7,7.5-124.2,12.2Z" fill="#ccc"/><path d="M279.3,235.2c19.9-2.3,39.7-4.8,59.5-6.8s39.5-3.7,59.1-4.7a578.7,578.7,0,0,1,58.9-.1c19.5,1,38.9,3.2,57.7,7.6v.3c-19.3-3.3-38.9-4.6-58.5-5s-39.1.1-58.8,1.1c-39.2,1.9-78.4,5.6-117.9,7.8Z" fill="#ccc"/><path d="M280.9,239.2c18.9-.9,37.7-2.3,56.4-3.6s37.3-2.4,55.9-3.1,37.1-.9,55.6-.3a399.1,399.1,0,0,1,54.7,5.5v.2a485.4,485.4,0,0,0-55.3-3c-18.5-.1-37,.4-55.6,1.1l-55.7,2.3c-18.6.7-37.2,1.3-55.9,1.1Z" fill="#ccc"/><path d="M282.5,243.2c17.9.5,35.6.2,53.2-.3s35.2-1.2,52.7-1.6,35-.7,52.3-.4,34.7,1.3,51.7,3.3v.2c-17.4-1.1-34.8-1.2-52.3-1.1s-34.9.7-52.4,1.1-35,.9-52.5.9-35.2-.4-52.7-1.9Z" fill="#ccc"/><path d="M284.2,247.2a491,491,0,0,0,49.8,3c16.6.2,33.1.1,49.6-.1,32.9-.5,65.5-1.2,97.8.6h0c-32.8,0-65.6,1.7-98.5,2-16.5.3-33,.2-49.5-.5a371,371,0,0,1-49.3-5Z" fill="#ccc"/><path d="M285.8,251.2c15.3,3.5,30.9,5.2,46.4,6.3s31,1.4,46.4,1.4c30.9,0,61.4-1.3,91.7-1.8v.2c-30.7,2-61.4,4-92.4,4-15.4,0-30.9-.5-46.4-2a255.4,255.4,0,0,1-45.8-8Z" fill="#ccc"/><path d="M287.4,255.2a211.1,211.1,0,0,0,42.7,9.7,396.8,396.8,0,0,0,43.4,2.8c28.9.4,57.5-1.5,85.8-4.1h0c-28.5,4-57.4,6.5-86.5,6.1a316,316,0,0,1-43.4-3.4,192.2,192.2,0,0,1-42.1-11.1Z" fill="#ccc"/><path d="M446.4,259.6l-95.2-4.5h-.7l-87.2,16.2c-2.6.5-2.5,3.7.1,4.1l91.1,14.6a45.6,45.6,0,0,0,22.9-2l69.8-24.5C449.6,262.8,449,259.7,446.4,259.6Z" fill="#ebeae4" stroke="#8e8e8d" stroke-linecap="round" stroke-miterlimit="10" stroke-width="2"/><path d="M446.4,245.8l-95.2-4.1h-.7l-87.2,14.8c-2.6.4-2.5,3.3.1,3.7l91.1,13.3a50.5,50.5,0,0,0,22.9-1.8l69.8-22.3C449.6,248.6,449,245.9,446.4,245.8Z" fill="#ebeae4" stroke="#8e8e8d" stroke-linecap="round" stroke-miterlimit="10" stroke-width="2"/><path d="M388.2,252h-.3l-67-7.6a1.9,1.9,0,0,1-1.8-1.9V230.2a7.6,7.6,0,0,1,7.6-7.5h.2l35.1-1.6,45,1.7a6.3,6.3,0,0,1,6.2,6.4v14.2a2.2,2.2,0,0,1-1.4,2l-23.1,6.5Z" fill="#c6c6c5"/><path d="M362,223.1l44.9,1.7a4.4,4.4,0,0,1,4.3,4.4v14.2l-23,6.6-67.1-7.6V230.2a5.5,5.5,0,0,1,5.6-5.5h.2l35.1-1.6m0-4h-.1l-35,1.6h-.2a9.5,9.5,0,0,0-6.7,2.8,9.2,9.2,0,0,0-2.9,6.7v12.2a4,4,0,0,0,3.6,3.9l67,7.6h.5l1.1-.2,23-6.5a4.1,4.1,0,0,0,2.9-3.9V229.2a8.4,8.4,0,0,0-8.1-8.4l-44.9-1.7Z" fill="#8e8e8d"/><path d="M388.1,251,321,243.3a.9.9,0,0,1-.9-.9V230.2a6.6,6.6,0,0,1,6.6-6.5h.2l56,2a6.5,6.5,0,0,1,6.3,6.6V250a.9.9,0,0,1-.4.7.7.7,0,0,1-.6.3Z" fill="#c6c6c5"/><path d="M326.7,224.7h.2l55.9,2a5.6,5.6,0,0,1,5.4,5.6V250l-67.1-7.6V230.2a5.5,5.5,0,0,1,5.6-5.5m0-2h0a7.6,7.6,0,0,0-7.6,7.5v12.2a1.9,1.9,0,0,0,1.8,1.9l67,7.6h.3a1.8,1.8,0,0,0,1.3-.6,1.9,1.9,0,0,0,.7-1.4V232.3a7.6,7.6,0,0,0-7.3-7.6l-55.9-2Z" fill="#8e8e8d"/><path d="M366.2,223.8q-5.7,0-5.7-2.1V183.3a1.1,1.1,0,0,1,1-1h9.3a1,1,0,0,1,1,1v38.4C371.8,223.1,369.9,223.8,366.2,223.8Z" fill="#c6c6c5"/><path d="M370.8,183.3v38.4c0,.8-2.3,1.1-4.6,1.1s-4.7-.3-4.7-1.1V183.3h9.3m0-2h-9.3a2,2,0,0,0-2,2v38.4c0,2.1,2.2,3.1,6.7,3.1s6.6-1,6.6-3.1V183.3a2,2,0,0,0-2-2Z" fill="#8e8e8d"/><path d="M318.3,214.9a2,2,0,0,1-1.4-.6,1.7,1.7,0,0,1-.5-1.5l3.1-59.9a1.9,1.9,0,0,1,1.7-1.9L411,140.1h.2a2.4,2.4,0,0,1,1.4.5,2.3,2.3,0,0,1,.6,1.6L410.1,214a2,2,0,0,1-2,2Z" fill="#c6c6c5"/><path d="M411.2,142.1,408.1,214l-89.7-1.1,3.1-59.9,89.7-10.9m0-4h-.5L321,149a4,4,0,0,0-3.5,3.8l-3.1,59.9a3.6,3.6,0,0,0,1.1,2.9,3.7,3.7,0,0,0,2.8,1.3l89.8,1.1h0a4,4,0,0,0,4-3.9l3.1-71.9a3.8,3.8,0,0,0-1.3-3.1,3.8,3.8,0,0,0-2.7-1Z" fill="#8e8e8d"/><polygon points="404.8 211 321 210.9 323.9 155 407.7 145.1 404.8 211" fill="#8f0000"/><path d="M364.3,194.2l-3.5-.2h-.6l.2-.6c0-.1.1-.2.1-.4l-4.5.5h-.1l-2.8-.5h-.4v-.4c-.2-1.9-.4-4.1-.5-6.1h-1c-1.6-.3-2.4-2.7-2.5-5.1s.6-5.1,2.4-5.3h.4l-.3-7.8V168l.4-.2,2-.8h1.9v-.7h.3l2.4-.7h2.2v-.7h.4l2.8-.6h.1l8.3.4v.5c.2,2.9.3,5.7.4,8.6h2.6c2.5,1,3.1,4.3,3.2,5.7.1,3-.9,6.1-3.7,6.6h-1.8c.1,2.3.1,4.7,0,6.7v.4l-8.3.9Z" fill="#8e8e8d"/><path d="M363.6,164.7l7.8.4c.2,3.1.3,6.1.4,9.1h2.9c2,.8,2.7,3.2,2.9,5.2s-.6,5.7-3.2,6.1h-2.3c.1,2.5.1,5,0,7.2l-7.8.8-3.4-.2a3.6,3.6,0,0,0,.2-1l-5.1.5-2.8-.5c-.2-2-.4-4.2-.6-6.5h-1c-3,0-3.3-9.3-.4-9.5h.9c-.2-2.8-.3-5.5-.4-8.3l2-.8h2.2v-.8l2.4-.7h2.6v-.8l2.8-.6m-12.4,11.9h0m12.3-12.9h-.1l-2.8.6-.8.2v.5H358l-2.4.7-.7.3v.5h-1.5l-2.1.9-.7.2v.7c.1,2.7.2,5.1.3,7.3-2.1.3-2.9,3.1-2.8,5.9s.8,4.8,2.5,5.4v.2h.9c.1,1.8.3,3.8.5,5.5v.8h.8l2.8.5h.3l3.7-.4-.3.8h1.3l3.5.2h.1l7.8-.8h.9v-.9c.1-1.9.1-4.1,0-6.3h1.4c3-.4,4.2-3.8,4.1-7-.1-1.5-.7-5-3.6-6.1a3.5,3.5,0,0,0-1.7-.2h-.5c-.1-2.5-.2-5.2-.4-8.1v-1h-.9l-7.9-.4Z" fill="#8e8e8d"/><path d="M364.3,194l-3.5-.2h-.2v-.3c.9-3.5.5-6.6-.8-8.4a2.7,2.7,0,0,0-1.9-1.1,1.9,1.9,0,0,0-1.5.8c-.5.7-1.6,2.9-.2,8.1v.4h-.4l-2.8-.4h-.2v-.2c-.2-2.1-.3-4.2-.5-6.8a1.8,1.8,0,0,1-1.1.5c-1.5,0-2.3-2.7-2.3-5.4s.5-4.5,2.1-4.5l.7.2c-.1-2.7-.3-5.5-.4-8.3v-.2h.2l2-.9h.3l.2,4.6,1.8-.4-.3-4.8h.2l2.4-.8h.3l.2,5,2.1-.5-.2-5h.2l2.7-.6h.3v.3c.2,3.5.3,6.8.5,10a2.1,2.1,0,0,1,1.6-.7c1.6,0,3.1,1.8,3.4,3.5s.5,5.4-.8,7.4a2.6,2.6,0,0,1-2.1,1.4h0a2.9,2.9,0,0,1-1.8-.8V194Z" fill="#fff"/><path d="M363.6,164.7c.2,3.6.3,7.2.4,10.7a2.4,2.4,0,0,1,1.9-1.2c1.4,0,2.8,1.6,3.1,3.3s.1,8.6-2.6,8.6a3.3,3.3,0,0,1-2.1-1.2c0,3.2.1,6,0,8.8l-3.4-.2c1.5-6.2-.9-9.7-3-9.7s-3.6,2.9-1.9,9.2l-2.8-.5c-.3-2.2-.4-4.6-.6-7.2a1.9,1.9,0,0,1-1.3.7c-2.5,0-3-9.3-.2-9.3a1.6,1.6,0,0,1,1,.4c-.2-2.9-.3-5.9-.4-8.8l2-.8.2,4.5,2.2-.5-.2-4.8,2.4-.7.2,4.9,2.6-.6-.3-5,2.8-.6m.5-.6h-.6l-2.8.6h-.4v.4l.2,4.6-1.5.4-.2-4.4v-.6l-.6.2-2.4.7h-.3v.4l.2,4.4-1.2.2-.2-3.8v-.7l-.7.2-2,.8-.4.2v.3c.1,2.9.2,5.5.3,8h-.4a2,2,0,0,0-1.7,1.1c-1,1.8-.9,6,.2,8a2.1,2.1,0,0,0,1.7,1.2l.9-.2c.1,2.3.3,4.4.5,6.3v.4h.4l2.8.5h.7l-.2-.7c-1.3-5.1-.3-7.2.2-7.9a1.5,1.5,0,0,1,1.3-.7,2.4,2.4,0,0,1,1.7,1c1.3,1.7,1.6,4.7.8,8.1l-.2.6h.6l3.5.2h.5v-.6c.1-2.4.1-5,0-7.7a2.9,2.9,0,0,0,1.6.6,2.8,2.8,0,0,0,2.3-1.6,9.5,9.5,0,0,0,.8-7.7c-.3-1.7-1.9-3.6-3.6-3.6a2.2,2.2,0,0,0-1.4.5c-.1-3-.3-6.2-.4-9.5v-.6Z" fill="#8e8e8d"/><path d="M310.8,340.4c0-4.8-17.8-8.7-39.7-8.7s-39.7,3.9-39.7,8.7h0V353c0,4.9,17.8,8.7,39.7,8.7s39.7-3.8,39.7-8.7V340.4Z" fill="#ebeae4" stroke="#8e8e8d" stroke-linecap="round" stroke-miterlimit="10" stroke-width="2"/><path d="M243.1,346.6c-7.2-1.6-11.7-3.8-11.7-6.2,0-4.8,17.8-8.7,39.7-8.7s39.7,3.9,39.7,8.7" fill="#ebeae4" stroke="#8e8e8d" stroke-linecap="round" stroke-miterlimit="10" stroke-width="2"/><path d="M267.4,363.5l-1.5,15.3,64.5,3.4s5.9-28,10.6-61.7-7.8-28.8-14.4-28.8-32.2,2.8-39.8,4.6l-2.3.4c-.7-3.4-1.6-7.3.5-12.3,3.7-8.7,2-15.6,2-15.6h0c3.9.6,7.6,1,10.5,1.2,10.3.6,25-3,37-10.3a5.9,5.9,0,0,0,3-4.5,19.6,19.6,0,0,0,6.7-2c3.9-1.8,4.7-3.9,11.3-7.9s10.6-2.7,9.1-7.7a50.1,50.1,0,0,0-17.6.7,52.8,52.8,0,0,0-14.9,6,4.3,4.3,0,0,0-3.6-.6,122.2,122.2,0,0,1-31,6.3l-3-1.3c6-3.3,9.7-2.5,8.3-7.4a48.9,48.9,0,0,0-17.6.8l-1.7.4a37.8,37.8,0,0,1-5.6-4.9c-2.8-3.1-6.6-5.6-12.8-7.1l-.9-6.7h0a29,29,0,0,0,4.1.6c8.3.5,8.6-3.1,11-13a15.9,15.9,0,0,1,4.1-2.6c2.9-1.3-.7-3.3-2.4-9.9a83.3,83.3,0,0,0-.3-10.1c2.5-2.2,4-4.8,3.2-7.6-1.4-5.3-7.5-12.7-22.4-14.1s-20.3,4.1-23.6,8c-4.7,5.8-8.7,6.7-11.1,19.5s-10.9,30.7-10.6,45.1a59.7,59.7,0,0,0,6.9,26.6c1.1,14.2,2.5,31.7,1.9,37.3a15.6,15.6,0,0,0,1.8,8.1,34,34,0,0,0,1.1,7.4,32.3,32.3,0,0,0,8.8,14.8c14.8,14.7,41.1,13.5,57.9,8.3l2.9-1" fill="#ebeae4" stroke="#8e8e8d" stroke-linecap="round" stroke-miterlimit="10" stroke-width="6"/><path d="M360.9,262.8h-.5l-65.3-8.5a4.1,4.1,0,0,1-1.5-7.7l17.5-9.8a4.6,4.6,0,0,1,2-.5h.3l65.5,5a4.2,4.2,0,0,1,3.6,3,4,4,0,0,1-1.5,4.4L363.4,262A4.4,4.4,0,0,1,360.9,262.8Z" fill="#c6c6c5"/><path d="M313.1,238.3h.1l65.5,5a2.1,2.1,0,0,1,1.1,3.8l-17.6,13.3a2,2,0,0,1-1.3.4h-.2l-65.3-8.5a2.2,2.2,0,0,1-.8-4l17.4-9.7a2.3,2.3,0,0,1,1.1-.3m0-4a6.1,6.1,0,0,0-3,.8l-17.4,9.7a6.1,6.1,0,0,0-3,6.5,6.3,6.3,0,0,0,5.2,5l65.2,8.5h.8a5.9,5.9,0,0,0,3.7-1.2l17.6-13.3a5.8,5.8,0,0,0,2.2-6.6,6.1,6.1,0,0,0-5.4-4.4l-65.4-5Z" fill="#8e8e8d"/><path d="M280.8,198.1c1.6,7.3,5.6,9.4,2.6,10.7a15.2,15.2,0,0,0-4.4,2.9" fill="#ebeae4" stroke="#8e8e8d" stroke-linecap="round" stroke-miterlimit="10" stroke-width="2"/><path d="M330.9,316.4c-5.4,7-17.2,19.8-36.3,25.8-16.8,5.2-43.1,6.4-57.9-8.3a32.3,32.3,0,0,1-8.8-14.8c-3.1-11.4,1.4-21.2,2.9-24.2,4.2-8.1,29.9-10.7,35.6-6.1s12.8,9.4,20.4,7.5,33.2-4.7,39.8-4.6,19.1-4.9,14.4,28.8-10.6,61.7-10.6,61.7l-64.5-3.4,1.5-15.3" fill="#ebeae4" stroke="#8e8e8d" stroke-linecap="round" stroke-miterlimit="10" stroke-width="2"/><path d="M326.6,247.8c4.1-2.9,12-7.7,20.4-9.5a50.1,50.1,0,0,1,17.6-.7c1.5,5-2.6,3.9-9.1,7.7s-7.4,6.1-11.3,7.9-6.6,2.8-14.2,1.4" fill="#ebeae4" stroke="#8e8e8d" stroke-linecap="round" stroke-miterlimit="10" stroke-width="2"/><path d="M264.8,251.6c4.1-2.9,12-7.7,20.4-9.5a48.9,48.9,0,0,1,17.6-.8c1.5,5.1-2.6,4-9.1,7.8s-7.4,6.1-11.3,7.9-6.6,2.8-14.2,1.4" fill="#ebeae4" stroke="#8e8e8d" stroke-linecap="round" stroke-miterlimit="10" stroke-width="2"/><path d="M248,214.6a30.9,30.9,0,0,0,20.3,9.8c8.4.5,8.6-3.1,11.1-13.2,2.9-12,2-28.8-2.3-34.5s-20.1-10.9-32.6-4.5-13,21.3-10.3,29.9,5.5,16.2,4.9,20.7-1.2,12.7-1.2,12.7l28.2,3.1-1.9-14.8" fill="#ebeae4" stroke="#8e8e8d" stroke-linecap="round" stroke-miterlimit="10" stroke-width="2"/><path d="M238.9,225.6c-13.9.4-17.4,14.4-16.6,28.3s3.5,42.3,2.7,49.7,5.6,17.3,21,21.1,35.1-13.8,38.4-20.8c2.5-5.2-3.1-10.8.6-19.5s2-15.6,2-15.6l-21.1-3.4s21.3,4,31.6,4.6,25-3,37-10.3c7.6-4.7-.7-17.8-6-16a122.2,122.2,0,0,1-31,6.3s-12.5-4.6-19.6-12.4c-5-5.6-13.1-9.1-32.4-8.7A8.6,8.6,0,0,1,238.9,225.6Z" fill="#ebeae4" stroke="#8e8e8d" stroke-linecap="round" stroke-miterlimit="10" stroke-width="2"/><path d="M283.9,181.2c-1.4-5.3-7.5-12.7-22.4-14.1s-20.3,4.1-23.6,8c-4.7,5.8-8.7,6.7-11.1,19.5s-10.9,30.7-10.6,45.1c.5,21.2,11.7,33.8,11.7,33.8a11.5,11.5,0,0,0,7.6-6.2s1.7,6,3.7,5.1c5.4-2.6,11.6-9.7,13.7-19.5,3.4-15.8,3.2-26,4.9-36.6s10.1-19.4,15.4-22.4S285.4,186.5,283.9,181.2Z" fill="#ebeae4" stroke="#8e8e8d" stroke-linecap="round" stroke-miterlimit="10" stroke-width="2"/><path d="M485.2,283.7c-2.9-2.1-14.5-9.8-21.4-13.5a1.4,1.4,0,0,0,.4-1.1c-.4-10.3,5.9-11.3,7.9-19.5,2.7-11,1.2-19-2-24.2-5.4-8.9-16.9-13.6-31.8-6.8-8.3,3.8-9.5,12.2-10.2,20.4-1.8,5.7-4.3,7-2.4,8.7a17,17,0,0,1,1.9,2c-.1,6,.4,14.2,4.2,14.9a55.3,55.3,0,0,0,13.3.3l-3.4,1.7a5.3,5.3,0,0,0-.7.9c-8,.7-16.3,2.5-21.2,6.7-8.8,7.5-4.7,14-12.9,20.2-8.3.3-13.6-5.9-25.8-1.7a7.6,7.6,0,0,1,3.2,1.1c-9.8-.9-13.9-2.6-19,3.3-3.4,3.9-3.9,5.9-3.8,7.9l-2.8-.4,8.5,31c-4.6.2-9.2,1.3-10.4,3.2s-2,13.1-1.1,14.1c4.2,4.4,10.5,6.9,19.4,9.4a2.5,2.5,0,0,1-.4.7l-16-3.4c-7-2-19.1,3.5-19.1,3.5s-6.3,4.3-2.6,9.4,6.6,8.9,14.7,8.9c5.7,0,13.3-1.1,18.6-1.5a5.4,5.4,0,0,0,2,2.7c8.5,6.3,45.3,18,45.3,18a162,162,0,0,0,37.1-9.5c18.8-7.3,21.3-11.6,22.1-20.2.2-2.9.3-12.5.4-24,11.4-3.2,11.7-.7,12.8-8C494.2,310.5,488.9,286.4,485.2,283.7Z" fill="#ebeae4" stroke="#8e8e8d" stroke-linecap="round" stroke-miterlimit="10" stroke-width="6"/><path d="M358.7,359.6c-7-2-19.1,3.5-19.1,3.5s-6.3,4.3-2.6,9.4,6.6,8.9,14.7,8.9,20.2-2.3,23.9-1.5,12.1-14.1,12.1-14.1Z" fill="#ebeae4" stroke="#8e8e8d" stroke-linecap="round" stroke-miterlimit="10" stroke-width="2"/><path d="M477.1,294.8s.4,67.5-.3,76.1-3.3,12.9-22.1,20.2a162,162,0,0,1-37.1,9.5s-36.8-11.7-45.3-18c-6.2-4.6,1.8-18.3,1.8-18.3s39.5-80.3,47.2-81.5" fill="#ebeae4" stroke="#8e8e8d" stroke-linecap="round" stroke-miterlimit="10" stroke-width="2"/><path d="M375.5,336c-4.7-1.2-16.7-.5-18.7,2.8s-2,13.1-1.1,14.1c7.8,8.2,22.9,9.6,48.7,17,22,6.3,26.8-4.6,39-8.9Z" fill="#ebeae4" stroke="#8e8e8d" stroke-linecap="round" stroke-miterlimit="10" stroke-width="2"/><path d="M429.7,362.7h-.4L372.6,351a2,2,0,0,1-1.6-2,2,2,0,0,1,1.6-1.9l34.6-7.3h.9L462.5,351a2,2,0,0,1,0,3.9l-32.3,7.7Z" fill="#c6c6c5"/><path d="M407.7,341.7l54.4,11.2-32.4,7.8L373,349l34.7-7.3m0-4h-.9l-34.6,7.3A4.1,4.1,0,0,0,369,349a4,4,0,0,0,3.2,3.9l56.7,11.7h1.7l32.4-7.8a4,4,0,0,0-.1-7.8l-54.4-11.2Z" fill="#8e8e8d"/><path d="M427.9,363.8h-.4l-56.6-11.6a2,2,0,0,1-1.6-1.5l-12.5-45.5a1.7,1.7,0,0,1,.4-1.8,1.8,1.8,0,0,1,1.5-.7h.2l61.4,8a1.8,1.8,0,0,1,1.7,1.6l7.9,49.3a1.8,1.8,0,0,1-.6,1.7A2,2,0,0,1,427.9,363.8Z" fill="#c6c6c5"/><path d="M358.7,304.6l61.4,7.9,7.8,49.3-56.6-11.7-12.6-45.5m0-4a3.7,3.7,0,0,0-3,1.4,4.1,4.1,0,0,0-.9,3.7l12.6,45.5a4,4,0,0,0,3.1,2.8l56.6,11.7h.8a4.3,4.3,0,0,0,2.8-1.1,4.4,4.4,0,0,0,1.2-3.6L424,311.9a4,4,0,0,0-3.4-3.3l-61.4-8Z" fill="#8e8e8d"/><path d="M465,302.3c2.4,7.3.8,10.2,4,20.2-7,9-26.6,5.7-35.7,13.3,10,2,9.2,14.6,9.2,14.6,11.6,1.6,21.3.9,29.1-1.8,16.9-5.8,17.1-1.3,18.4-9.7,4.2-28.4-1.1-52.5-4.8-55.2s-21.6-14.6-25.7-15.5c-6.8-1.5-30-2.2-39.7,6s-4.7,14-12.9,20.2c-8.3.3-13.6-5.9-25.8-1.7,5.1.6,10.2,7,9.5,12.9l29.2,3.2c1.3-9.6,2.5-19.1,2.5-19.1" fill="#ebeae4" stroke="#8e8e8d" stroke-linecap="round" stroke-miterlimit="10" stroke-width="2"/><path d="M384.3,293.8c-9.8-.9-13.8-2.6-19,3.3s-3.6,7.5-3.6,11.2,6.5,7.7,6.5,7.7,6.5-11.6,11.2-12.8c2.4-.7,11.2,2.4,11.2,2.4S390.9,294.4,384.3,293.8Z" fill="#ebeae4" stroke="#8e8e8d" stroke-linecap="round" stroke-miterlimit="10" stroke-width="2"/><path d="M435.1,336.3c-6.9.5-8.7,1.5-8.7,1.5l2.8,16s10-.1,13.3-3.4S438.6,336,435.1,336.3Z" fill="#ebeae4" stroke="#8e8e8d" stroke-linecap="round" stroke-miterlimit="10" stroke-width="2"/><path d="M470.1,225.4c-5.4-8.9-16.9-13.6-31.8-6.8-8.3,3.8-9.5,12.2-10.2,20.4-1.8,5.7-4.3,7-2.4,8.7a17,17,0,0,1,1.9,2c-.1,6,.4,14.2,4.2,14.9a55.3,55.3,0,0,0,13.3.3l-3.4,1.7s-4.8,4.7,3.9,6.9,18.8-1.4,18.6-4.4c-.4-10.3,5.9-11.3,7.9-19.5C474.8,238.6,473.3,230.6,470.1,225.4Z" fill="#ebeae4" stroke="#8e8e8d" stroke-linecap="round" stroke-miterlimit="10" stroke-width="2"/><path d="M213.4,401.8c-.9,2-3.1,5.4-3.1,7.8s5.5,7.5,7.7,9.4c5.6,4.8,11.3,9.5,18,12.3a41.7,41.7,0,0,0,35.2-1.1,42.3,42.3,0,0,0,14.3-12.4c2.7-3.6,4.1-7.8,8.1-9.7,7.4-3.4,16.6-1.9,24.3-1.6,5.4.1,14.7,1.5,18.2-4.3,1.7-2.8,2.8-6.2,4.1-9.2s2.3-4.4,2.6-6.8c.5-4.2-2.3-9.1-4.7-12.1a20.8,20.8,0,0,0-12.5-7.2,12.2,12.2,0,0,0-7.4-4.7h0l-15.5-3.1-2.2-6.1a6.5,6.5,0,0,0-7.9-3.8l-39.1,11.3c-2.7.8-13.6,27.9-11.3,31l1.1,1.3c-5.3-1.2-10.6-2.3-16-1.8-2.9.3-7.7.4-10.1,2.8Zm38.1-32,4.8,13.3c-3.1-1.6-6.1-3.3-6.7-4.6S250.4,374.1,251.5,369.8Zm48.6,23.8c-4,1.8-5.3,5.7-8,9.4A42.4,42.4,0,0,1,278,415.6a41.1,41.1,0,0,1-34.1,2c-7.1-2.6-13.1-7.3-19-12.3,5.1.1,10.1,1.3,15.1,2.5s12.8,3.3,18-.3a7.4,7.4,0,0,0,1.9-2.1l.2-.4,2.7-6.4a6.5,6.5,0,0,0,7,1l3.6-1.5a4.5,4.5,0,0,0,2.7-4.4l15.5-6.6a11.3,11.3,0,0,0,5,2.2l12,2.4A30,30,0,0,0,300.1,393.6Zm23.6-1.5-4.8-.2a15,15,0,0,0,8.2-7.7l2.5,1.8a26.8,26.8,0,0,1,4.9,6.2C330.7,392.7,326.5,392.2,323.7,392.1Z" fill="#ebeae4" stroke="#8e8e8d" stroke-linecap="round" stroke-linejoin="round" stroke-width="6"/><path d="M342.8,386.2c.5-4.2-2.3-9.1-4.7-12.1-7.3-8.9-19.5-8.5-29.3-7.3-2.8.3-19,5.1-20.1.6.3,1.1-2.7,6-3.2,7.1s-3.4,5.8-3.1,7.2c.9,3.2,7.7,1.3,9.6,1,6.3-1,12.6-2.2,19-2.2s13.3,1,18.6,5.5a26.8,26.8,0,0,1,4.9,6.2c3.3-.4,6.2-1.5,7.7-4.1C342.1,388.3,342.8,386.2,342.8,386.2Z" fill="#ebeae4" stroke="#8e8e8d" stroke-linecap="round" stroke-linejoin="round" stroke-width="2"/><path d="M268.7,396.8l35.6-15a6.5,6.5,0,0,0,3.8-8L300.5,353a6.5,6.5,0,0,0-7.9-3.8L255.4,360a6.5,6.5,0,0,0-4.5,8.2l9.1,25.1C261.2,396.7,265.2,398.2,268.7,396.8Z" fill="#c6c6c5" stroke="#8e8e8d" stroke-linejoin="round" stroke-width="2"/><path d="M299.1,388.4h-.2l-13.1-2.6a12,12,0,0,1-7.9-5.9,14.3,14.3,0,0,1-1.6-10.4c1.3-6.7,6.7-11.5,12.8-11.5l2.3.2,13.1,2.7a1,1,0,0,1,.8,1.1l-5.2,25.6a1,1,0,0,1-.4.7Z" fill="#c6c6c5"/><path d="M289.1,359l2.1.2,13.1,2.6-5.2,25.6L286,384.8c-6.2-1.3-10.2-8-8.8-15.1s6.4-10.7,11.9-10.7m0-2c-6.6,0-12.4,5.2-13.8,12.3s3,16,10.3,17.4l13.1,2.7h.4a2,2,0,0,0,1.1-.3,2,2,0,0,0,.9-1.3l5.2-25.6a2,2,0,0,0-1.6-2.3l-13.1-2.7-2.5-.2Z" fill="#8e8e8d"/><path d="M312.1,393.5h-.2l-15.5-3.1c-8-1.6-13-10.1-11.2-19s7.9-13.4,15-13.4a12.3,12.3,0,0,1,2.7.2l15.5,3.1a1.2,1.2,0,0,1,.8,1.2l-6.1,30.2a1.2,1.2,0,0,1-.5.7Z" fill="#c6c6c5"/><path d="M300.2,358.9a10.1,10.1,0,0,1,2.5.2l15.5,3.1-6.1,30.3-15.5-3.2c-7.4-1.5-12.1-9.4-10.4-17.8s7.5-12.6,14-12.6m0-2c-7.6,0-14.3,6-16,14.2s3.5,18.5,12,20.2l15.5,3.1h.4a2.1,2.1,0,0,0,1.1-.4,2,2,0,0,0,.8-1.3l6.1-30.2a1.8,1.8,0,0,0-1.5-2.3l-15.5-3.2-2.9-.2Z" fill="#8e8e8d"/><path d="M314.5,393.7a11.5,11.5,0,0,1-2.6-.3c-8-1.6-13-10.1-11.2-19s7.9-13.4,15-13.4l2.7.2c7.9,1.6,12.9,10.2,11.1,19S321.7,393.7,314.5,393.7Z" fill="#c6c6c5"/><path d="M315.7,362l2.5.2c7.4,1.5,12,9.5,10.4,17.8s-7.5,12.7-14.1,12.7l-2.4-.2c-7.4-1.5-12.1-9.5-10.4-17.9s7.5-12.6,14-12.6m0-2h0c-7.6,0-14.3,6-16,14.2s3.5,18.5,12,20.2a13.3,13.3,0,0,0,2.8.3c7.6,0,14.4-6,16-14.3s-3.4-18.4-11.9-20.1a14.3,14.3,0,0,0-2.9-.3Z" fill="#8e8e8d"/><path d="M311.6,389.6a6.5,6.5,0,0,1-2-.2c-6.3-1.2-10.3-8-8.9-15s6.2-10.6,11.9-10.6l2.1.2c6.2,1.3,10.2,8,8.8,15S317.3,389.6,311.6,389.6Z" fill="#c6c6c5"/><path d="M312.6,364.8l1.9.2c5.7,1.2,9.3,7.4,8,13.8s-5.8,9.8-10.9,9.8a6.5,6.5,0,0,1-1.9-.2c-5.7-1.1-9.3-7.3-8-13.8s5.8-9.8,10.9-9.8m0-2h0c-6.1,0-11.5,4.8-12.9,11.4s2.8,14.8,9.7,16.2a8.2,8.2,0,0,0,2.2.2c6.1,0,11.5-4.8,12.9-11.4s-2.8-14.8-9.6-16.1l-2.3-.3Z" fill="#8e8e8d"/><path d="M270.9,368.5h-.8a3.8,3.8,0,0,1-2.6-1.9,5.3,5.3,0,0,1-.5-3.3,4.5,4.5,0,0,1,4.2-3.7h.7a4.6,4.6,0,0,1-1,8.9Z" fill="#c6c6c5"/><path d="M271.2,360.5h.5a3.3,3.3,0,0,1,2.4,4,3.5,3.5,0,0,1-3.2,2.9h-.6a3.3,3.3,0,0,1-2.3-4,3.4,3.4,0,0,1,3.2-2.9m0-2h0A5.4,5.4,0,0,0,266,363a5.4,5.4,0,0,0,3.9,6.4h1A5.4,5.4,0,0,0,276,365a5.5,5.5,0,0,0-.6-4,5.1,5.1,0,0,0-3.3-2.4Z" fill="#8e8e8d"/><path d="M269.2,373.8l6.6,18.7a4.5,4.5,0,0,1-2.4,5.6l-3.6,1.5a6.5,6.5,0,0,1-8.7-3.4l-10.2-28c-1.2-3.4,1.7-7.4,5.4-8.5" fill="#c6c6c5" stroke="#8e8e8d" stroke-linejoin="round" stroke-width="2"/><path d="M245.2,377c-2.8,3.1-.9,3.8,1.1-1.2Z" fill="none"/><path d="M247.2,372.9a14.2,14.2,0,0,0,.5-2.2A17.4,17.4,0,0,0,247.2,372.9Z" fill="none"/><path d="M259.8,400.9l.3-.5-.2.3Z" fill="#ebeae4" stroke="#8e8e8d" stroke-linecap="round" stroke-miterlimit="10" stroke-width="2"/><path d="M260.3,400a101.7,101.7,0,0,0,5.1-10.5c.1-.2.2-.3.2-.5l-5.5,11.4Z" fill="#ebeae4" stroke="#8e8e8d" stroke-linecap="round" stroke-miterlimit="10" stroke-width="2"/><path d="M224.9,405.3c5.9,5,11.9,9.7,19,12.3a41.1,41.1,0,0,0,34.1-2A42.4,42.4,0,0,0,292.1,403c2.7-3.7,4-7.6,8-9.4,7.3-3.1,16.1-1.7,23.6-1.5,2.8.1,7,.6,10.8.1s8.3-6,8.3-6c-.3,2.4-1.7,4.7-2.6,6.8s-2.4,6.4-4.1,9.2c-3.5,5.8-12.8,4.4-18.2,4.3-7.7-.3-16.9-1.8-24.3,1.6-4,1.9-5.4,6.1-8.1,9.7a42.3,42.3,0,0,1-14.3,12.4,41.7,41.7,0,0,1-35.2,1.1c-6.7-2.8-12.4-7.5-18-12.3-2.2-1.9-7.7-5.6-7.7-9.4s2.3-5.9,3.2-7.9,1.8-5.6,3.3-7.5A25.8,25.8,0,0,0,224.9,405.3Z" fill="#ebeae4" stroke="#8e8e8d" stroke-linecap="round" stroke-linejoin="round" stroke-width="2"/><path d="M252.9,361.3c-3.8,2.7-4.6,8.5-6.5,12.9s-7.5,12.7-4.2,17.3l1.1,1.3,6.6,1.4c3.9.8,13.1,2.5,15.9-2.4.5-2.3-.4-3.3-2.6-4.9s-12.5-6.1-13.6-8.4C249.6,378.5,251.6,362.2,252.9,361.3Z" fill="#ebeae4" stroke="#8e8e8d" stroke-linecap="round" stroke-linejoin="round" stroke-width="2"/><path d="M249.9,394.2l-6.6-1.4c-5.3-1.2-10.6-2.3-16-1.8-3.1.3-8.2.4-10.5,3.2v.4c-1.2,3.8,5.5,8.4,7.5,10.1l.7.6c5.1.1,10.1,1.3,15.1,2.5s12.8,3.3,18-.3a7.4,7.4,0,0,0,1.9-2.1l.2-.4,5.4-12.6C262.7,397.3,253.8,395,249.9,394.2Z" fill="#ebeae4" stroke="#8e8e8d" stroke-linecap="round" stroke-linejoin="round" stroke-width="2"/></svg>