<svg xmlns="http://www.w3.org/2000/svg" xmlns:xlink="http://www.w3.org/1999/xlink" viewBox="0 0 620 440"><defs><filter id="a" name="dropshadow"><feGaussianBlur stdDeviation="5" in="SourceAlpha"/><feOffset dx="2" dy="2"/><feComponentTransfer><feFuncA slope="0.3" type="linear"/></feComponentTransfer><feMerge><feMergeNode/><feMergeNode in="SourceGraphic"/></feMerge></filter><clipPath id="b"><path d="M391.8,109.6l2.8-.8,1.4-.3,2.8-.8,3-.8,1.5-.4,3.1-.8,3.2-.8,1.6-.5,3.3-.8,3.5-1,1.7-.4,3.6-1-2.4.8-2.3,1a9.4,9.4,0,0,0-2.2,1.2,16.4,16.4,0,0,0-2.2,1.4l-30.4,7.8,1.9-1.3,2-1,2-.9Z" fill="none"/></clipPath><clipPath id="c"><path d="M431.4,171.6l-32.8-1.7a27,27,0,0,1-4.1-.6l-3.9-1.2a25.3,25.3,0,0,1-3.7-1.8,26.2,26.2,0,0,1-3.4-2.4l30.8.7a31.6,31.6,0,0,0,3.9,2.8l4.2,2.1a22.5,22.5,0,0,0,4.4,1.4A24.4,24.4,0,0,0,431.4,171.6Z" fill="none"/></clipPath><clipPath id="d"><path d="M372.7,226.2l-25.9-10.1a36.7,36.7,0,0,0,2.7-5.2,37.3,37.3,0,0,0,2-5.6,51.3,51.3,0,0,0,1.2-5.9,60.8,60.8,0,0,0,.3-6.1,40.4,40.4,0,0,0-3.1-14.5,37.5,37.5,0,0,0-7.8-11.7,34.8,34.8,0,0,0-11.4-7.9,35.2,35.2,0,0,0-14.2-2.7l20.8-.5a39,39,0,0,1,16.4,3.2,40.7,40.7,0,0,1,13.3,9.2,46.4,46.4,0,0,1,9,13.8,47.9,47.9,0,0,1,3.6,17.1,42.9,42.9,0,0,1-.3,7.2,54,54,0,0,1-1.3,7,56.7,56.7,0,0,1-2.2,6.6A50,50,0,0,1,372.7,226.2Z" fill="none"/></clipPath><clipPath id="e"><path d="M245.3,99.5l-7,9.8c-.1-4.7-.2-9.5-.3-14.5s-.1-10-.2-15.3-.1-10.6-.2-16.1-.1-11.2-.1-17l6.7-21.7c.1,6.8.1,13.6.2,20.1s.1,13,.2,19.2.2,12.3.3,18.2S245.2,93.9,245.3,99.5Z" fill="none"/></clipPath><clipPath id="f"><path d="M252.9,234.9l-8.4-12.5c0-.2-.1-1.4-.4-3.6s-.5-5.5-.9-9.9-.8-9.8-1.2-16.4-.9-14.3-1.4-23.3l7.5,1.9c.6,10.7,1.1,20,1.7,27.9s1,14.5,1.5,19.7.8,9.2,1.1,11.8S252.8,234.6,252.9,234.9Z" fill="none"/></clipPath></defs><path d="M578.9,282.6a156.2,156.2,0,0,1-34-3.9,208,208,0,0,1-32.7-10.6c-21.1-8.7-40.8-20.5-59.9-32.7l-7.2-4.4c-2.4-1.4-4.8-2.8-7.3-4.1-4.9-2.6-10-4.9-15.1-7.1A269.4,269.4,0,0,0,391,208.9a262.8,262.8,0,0,0-65.8-9.5,201.9,201.9,0,0,0-33,2.2,173.2,173.2,0,0,0-31.9,8l-15.6,5.9c-5.2,2-10.3,4.2-15.4,6.3-10.2,4.4-20.4,8.8-30.4,13.6s-20,9.7-30.2,14.1a223.1,223.1,0,0,1-31.6,11l-8.1,2.1-8.1,1.7-4.1.8-4.1.7-8.2,1.3-16.5,2-16.4,1.5v-.3L88.2,268l16.5-2.7,8.2-1.7,4.1-.8,4-1,8.1-2,8-2.3a244.1,244.1,0,0,0,31.1-12.1c10-4.7,19.9-10,30-14.9,5-2.6,10.1-5,15.2-7.4l7.6-3.5,7.7-3.5,7.8-3.3,7.8-3.2,7.8-3.1,8-3.1c21.5-7.8,44.5-10.7,67.2-10.3a255.9,255.9,0,0,1,33.9,3.2,270,270,0,0,1,33.2,7.5,260.6,260.6,0,0,1,32,11.7c5.2,2.3,10.3,4.9,15.3,7.7l3.7,2.1,3.6,2.3c2.5,1.5,4.8,3.1,7.1,4.6,18.7,12.5,37.7,24.4,58.1,33.6s42.2,15.5,64.7,16.4Z" fill="#9b9b9a"/><path d="M434.3,232.7a109,109,0,0,0-21.7-8.6,218.8,218.8,0,0,0-22.6-5.5,353.6,353.6,0,0,0-45.6-6,330.5,330.5,0,0,0-45.6-.1,204.4,204.4,0,0,0-44.6,7.8v-.2c14.2-5.8,29.5-9.1,44.8-10.8a248,248,0,0,1,46.4-.8,272.7,272.7,0,0,1,45.8,7.1,190.8,190.8,0,0,1,22.3,6.7,101.1,101.1,0,0,1,20.9,10.2Z" fill="#ccc"/><path d="M454.3,243c-3.4-1.4-6.6-2.9-10-4l-2.5-.9-2.6-.8-5.1-1.5-2.6-.7-2.6-.7-5.2-1.2L413.3,231a354.2,354.2,0,0,0-42-5.2,344.9,344.9,0,0,0-41.9-.5,227.9,227.9,0,0,0-41.2,5.4v-.2a195.1,195.1,0,0,1,41.6-8.1,274,274,0,0,1,42.5-.2,270.5,270.5,0,0,1,42.1,6.2c3.5.9,6.9,1.6,10.4,2.6l5.1,1.6,2.5.7,2.5.9,5.1,1.9,4.9,2c3.3,1.3,6.4,3.1,9.6,4.7Z" fill="#ccc"/><path d="M474.3,253.3a201.5,201.5,0,0,0-37.7-9.9,358.6,358.6,0,0,0-38.4-4.5c-12.8-.9-25.6-1.2-38.3-.9a297.9,297.9,0,0,0-37.8,3.1v-.2a235.3,235.3,0,0,1,38.3-5.3,294.1,294.1,0,0,1,38.7.2,274.9,274.9,0,0,1,38.4,5.3c12.7,2.8,25.2,6.5,36.9,12.1Z" fill="#ccc"/><path d="M494.2,263.7a204.3,204.3,0,0,0-34.4-8c-11.5-1.8-23.2-2.9-34.7-3.7a590.8,590.8,0,0,0-69.1-.6h0a369.4,369.4,0,0,1,69.8-1.9,292.9,292.9,0,0,1,34.8,4.4,190.5,190.5,0,0,1,33.7,9.7Z" fill="#ccc"/><path d="M514.2,274c-20.5-5.6-41.6-7.6-62.3-9s-41.5-1.8-62-3.2h0c20.8,0,41.7,0,62.6,1.3,10.4.7,20.8,1.7,31.2,3.4a192.4,192.4,0,0,1,30.6,7.5Z" fill="#ccc"/><path d="M534.2,284.3a239.5,239.5,0,0,0-27.8-4.3c-9.3-.9-18.6-1.4-27.8-1.9s-18.5-1-27.6-1.9a269.9,269.9,0,0,1-27.2-4h0c9.2,1.3,18.4,2.3,27.6,2.9s18.4,1.1,27.7,1.6,18.5,1.1,27.7,2.2a192.4,192.4,0,0,1,27.4,5.4Z" fill="#ccc"/><path d="M554.2,294.6a205.6,205.6,0,0,0-24.6-2.7c-8.1-.5-16.3-.5-24.4-.8a161.3,161.3,0,0,1-24.2-2.2,140.4,140.4,0,0,1-23.3-6.3h0a151,151,0,0,0,23.7,5.6,217.3,217.3,0,0,0,24.2,2c8.1.2,16.2.4,24.4,1a180.9,180.9,0,0,1,24.2,3.5Z" fill="#ccc"/><path d="M485.5,364.9c-21,2.6-42.1,5.1-63.2,6.8-10.5,1-21,1.6-31.6,2.3s-21,1.1-31.5,1.2c-21.1.5-42.1.2-63-1.3l-7.9-.6-7.8-.9c-5.2-.5-10.4-1.3-15.5-2-10.4-1.6-20.7-3.4-30.8-6s-20.1-5.6-29.9-9.1-19.4-7.6-29-11.6A247,247,0,0,0,146.2,333a148.9,148.9,0,0,0-30.4-5.3c-10.3-.6-20.6-1-30.9-2.2s-20.5-2.7-30.2-5.9a88.4,88.4,0,0,1-26.8-15c-8-6.4-15.3-13.7-22.5-20.9h0c7.4,7.3,14.8,14.6,23,21a88.9,88.9,0,0,0,27.2,14.8c9.9,3.1,20.2,4.6,30.5,5.6l7.8.7,7.8.5,7.8.4,3.9.2,3.9.2a139.5,139.5,0,0,1,30.7,5.6c10,2.9,19.7,6.9,29.3,10.9s19.2,8,29.1,11.4a284.8,284.8,0,0,0,29.9,8.9c5,1.3,10.1,2.3,15.2,3.3l7.7,1.4,3.9.6,3.8.6,7.8,1c2.5.4,5.1.6,7.7.9l7.8.8,7.8.6c20.8,1.6,41.7,1.8,62.5,1.4l7.9-.2c2.6,0,5.2-.2,7.8-.3l15.6-.7,15.7-.9,3.9-.3,3.9-.3,7.8-.6c10.4-.7,20.8-1.8,31.2-2.8l15.6-1.7,15.6-1.7Z" fill="#ccc"/><path d="M457.4,350.9c-19,2.4-38,4.7-57,6.4-9.5.9-19,1.5-28.5,2.1s-19,1.1-28.5,1.3c-19,.5-38,.3-56.9-1l-7-.5-7.1-.7-3.5-.4-3.5-.4-7.1-1c-9.3-1.4-18.6-3-27.8-5.2s-18.2-4.9-27.1-8-17.6-6.6-26.2-10.1a236.1,236.1,0,0,0-26.4-9.2,142.2,142.2,0,0,0-27.5-4.5c-9.3-.5-18.6-.9-27.9-1.9s-18.5-2.4-27.3-5.2a80.4,80.4,0,0,1-24.4-13.3,226.2,226.2,0,0,1-20.5-18.6h0c6.8,6.4,13.6,12.9,21.1,18.6A78.5,78.5,0,0,0,69,312.1c8.9,2.7,18.2,4,27.6,4.9l7,.5,7,.5,14,.7a138.9,138.9,0,0,1,27.9,4.6,246.7,246.7,0,0,1,26.6,9.4c8.8,3.4,17.5,6.9,26.4,9.9a277.9,277.9,0,0,0,27,7.8,349.3,349.3,0,0,0,55.7,8c18.7,1.3,37.6,1.5,56.4,1.1,9.4-.1,18.8-.6,28.2-1.1s18.8-1.1,28.2-1.9c18.8-1.4,37.6-3.5,56.3-5.6Z" fill="#ccc"/><path d="M429.2,336.9c-16.9,2.3-33.9,4.4-50.8,5.9-8.5.9-17,1.5-25.4,2.1l-12.7.8-12.7.5c-17,.5-33.9.5-50.8-.6-8.4-.5-16.8-1.4-25.1-2.5s-16.7-2.6-24.9-4.5-16.3-4.1-24.3-6.8-15.8-5.6-23.6-8.6a224,224,0,0,0-23.6-7.7,137.1,137.1,0,0,0-24.5-3.8c-8.3-.4-16.6-.7-24.9-1.6a121.4,121.4,0,0,1-24.5-4.5,72.9,72.9,0,0,1-21.9-11.5A191.9,191.9,0,0,1,41,277.7h0a244.1,244.1,0,0,0,19.1,16.2A72.3,72.3,0,0,0,82.3,305c8,2.3,16.3,3.3,24.6,4l6.3.5,6.2.3,12.6.5a130.4,130.4,0,0,1,24.9,3.9,248.9,248.9,0,0,1,24,7.8c7.8,3,15.7,5.9,23.6,8.5s16,4.7,24.2,6.6,16.4,3.2,24.7,4.3c4.1.5,8.3,1.1,12.4,1.4l6.3.6,6.3.5c16.7,1.1,33.5,1.2,50.2.8,8.4-.2,16.8-.6,25.2-1s16.8-1.1,25.2-1.8c16.7-1.3,33.4-3.2,50.2-5.1Z" fill="#ccc"/><path d="M401,323c-14.9,2-29.7,4-44.6,5.4l-11.2,1.1-11.1.9-11.2.7-11.1.6c-14.9.5-29.8.6-44.6-.3a271.4,271.4,0,0,1-44.1-5.6c-7.3-1.6-14.4-3.5-21.5-5.7s-14-4.6-20.9-7a193,193,0,0,0-20.9-6.3,121.1,121.1,0,0,0-21.5-3.1c-7.3-.3-14.6-.5-21.9-1.2a112.3,112.3,0,0,1-21.6-3.8,70,70,0,0,1-19.5-9.8,185.8,185.8,0,0,1-16.5-14.1h.1c5.5,4.8,11,9.7,17.1,13.8a62.3,62.3,0,0,0,19.7,9.2,111.6,111.6,0,0,0,21.6,3.3c3.7.3,7.3.5,11,.6l11,.4a116.5,116.5,0,0,1,22,3,218,218,0,0,1,21.3,6.4c7,2.3,13.9,4.7,20.9,6.9s14.2,3.9,21.3,5.4,14.5,2.7,21.8,3.6,14.6,1.6,21.9,2c14.7.9,29.4.9,44.2.5l22.1-.9,22.1-1.6c14.7-1.2,29.4-2.8,44.1-4.5Z" fill="#ccc"/><path d="M372.9,309c-12.9,1.8-25.7,3.7-38.5,5s-25.6,2.6-38.5,3.1c-25.6,1.2-51.4.8-76.6-4.2-6.3-1.2-12.5-2.7-18.6-4.4l-18.2-5.6c-6-1.9-12.1-3.6-18.2-4.9a127.7,127.7,0,0,0-18.6-2.3c-6.2-.3-12.6-.4-18.8-.9a107.3,107.3,0,0,1-18.7-3.1,61.9,61.9,0,0,1-17-8.1,139.4,139.4,0,0,1-14.6-11.8h.1a153.1,153.1,0,0,0,15.1,11.4,59.7,59.7,0,0,0,17.2,7.4,97.8,97.8,0,0,0,18.7,2.5l9.5.4,9.5.2a120.2,120.2,0,0,1,19,2.2c6.3,1.3,12.5,3,18.6,4.9s12.1,3.7,18.2,5.4,12.2,3.1,18.5,4.3a279.4,279.4,0,0,0,37.6,4.4c12.7.6,25.4.6,38.1.2s25.4-1.3,38.1-2.3,25.4-2.5,38-3.9Z" fill="#ccc"/><path d="M344.7,295c-21.5,3.3-43.1,6.3-64.7,7.5-5.4.3-10.8.4-16.2.6H247.6l-8.1-.5-4-.2-4-.5-8.1-.9-7.9-1.3c-21.3-3.5-41.3-12.2-62.4-11.9-10.5-.1-21.3.1-31.7-2.7a52.7,52.7,0,0,1-14.5-6.6,146.7,146.7,0,0,1-12.5-9.5v-.2a116.9,116.9,0,0,0,13.1,9,49.8,49.8,0,0,0,14.6,5.9,74.8,74.8,0,0,0,15.7,1.7h7.9l8-.2a110.3,110.3,0,0,1,16.2,1.1c2.7.4,5.4.8,8,1.4l3.9.8,3.9,1c5.3,1.2,10.4,2.7,15.6,3.9l3.8.9,3.9.8c2.6.5,5.2,1.1,7.9,1.5l7.8,1.2,7.9,1,2,.2,2,.2,4,.2,7.9.6,8,.2c2.7,0,5.3.2,8,.1,5.3-.1,10.7-.1,16-.3l16-.8c5.4-.3,10.7-.8,16-1.2l8.1-.7,8-.8,16-1.7Z" fill="#ccc"/><path d="M316.5,281c-17.4,3.1-34.8,5.7-52.4,7.1a248.9,248.9,0,0,1-52.5-1.2c-8.7-1.2-17.2-3.1-25.6-4.8l-6.3-1.1-6.4-.8-6.3-.5h-6.4c-8.5.1-17.3.3-25.8-1.7a48.8,48.8,0,0,1-12-4.9,98.6,98.6,0,0,1-10.6-7.2v-.2a104.6,104.6,0,0,0,11.1,6.6,46.7,46.7,0,0,0,12.1,4.1,76,76,0,0,0,12.7.9h6.4c2.2-.1,4.3-.3,6.5-.3h6.6l3.3.2a18.3,18.3,0,0,1,3.3.2c4.4.4,8.7,1,13,1.8,8.6,1.5,17,3.3,25.6,4.5l6.4.7c2.1.3,4.2.4,6.4.6l3.2.3,3.2.2,6.5.3h13l12.9-.4c17.4-.8,34.7-2.5,52-4.4Z" fill="#ccc"/><path d="M288.3,267c-13.3,2.8-26.6,5.2-40.1,6.8a219.2,219.2,0,0,1-40.5,1.2c-6.7-.5-13.4-1.3-19.9-2.1a185.7,185.7,0,0,0-19.6-1.2c-6.6,0-13.4.1-20-1.1a46.2,46.2,0,0,1-9.6-2.9,65.3,65.3,0,0,1-8.6-4.8v-.2a60.8,60.8,0,0,0,9.1,3.9,39.5,39.5,0,0,0,9.5,2.1c6.6.7,13.1.2,19.8-.2a151,151,0,0,1,20.2.6c6.7.6,13.3,1.4,19.9,1.8,26.4,1.8,53.1-1.1,79.7-4.1Z" fill="#ccc"/><path d="M260.2,253c-9.3,2.6-18.7,4.9-28.1,6.6-4.7.9-9.4,1.6-14.2,2.2s-9.5.9-14.2,1.2c-9.5.4-18.9.2-28.2.7a110.9,110.9,0,0,1-14.1-.2,43.9,43.9,0,0,1-13.6-3.5v-.3a50.2,50.2,0,0,0,13.8,1.7c4.7-.1,9.3-.7,14-1.2,9.4-1.2,18.9-1.4,28.3-1.8,18.7-.8,37.4-3.3,56.2-5.7Z" fill="#ccc"/><path d="M232,239a187.9,187.9,0,0,1-32.4,13.1,136.9,136.9,0,0,1-34,4.9v-.3c11.1-3.3,22-6.4,33-9.5s22-6.1,33.4-8.5Z" fill="#ccc"/><g filter="url(#a)"><g style="isolation:isolate"><g style="isolation:isolate"><g clip-path="url(#b)"><g style="isolation:isolate"><path d="M414.2,105.6l-30.4,7.8a4.2,4.2,0,0,1,1.4-.9l1.4-.9,1.4-.7,1.5-.6,31.2-8.2-1.7.7-1.6.8-1.6.9-1.6,1.1" fill="#b6b6b6"/><path d="M420.7,102.1l-31.2,8.2.6-.2.6-.2.6-.2h.5l31.5-8.4-.6.2-.7.2-.6.2-.7.3" fill="#bebebe"/></g></g></g><g style="isolation:isolate"><g clip-path="url(#c)"><g style="isolation:isolate"><path d="M431.4,171.6l-32.8-1.7a27,27,0,0,1-4.1-.6l-3.9-1.2a25.3,25.3,0,0,1-3.7-1.8,26.2,26.2,0,0,1-3.4-2.4l30.8.7a31.6,31.6,0,0,0,3.9,2.8l4.2,2.1a22.5,22.5,0,0,0,4.4,1.4,24.4,24.4,0,0,0,4.6.7" fill="#b6b6b6"/></g></g></g><polygon points="383.7 68.4 357.1 81.8 356.4 53.8 382.7 35.7 383.7 68.4" fill="#adadad"/><polygon points="318.2 64.4 300.4 79 300 49 317.6 29 318.2 64.4" fill="#adadad"/><g style="isolation:isolate"><g clip-path="url(#d)"><g style="isolation:isolate"><path d="M372.7,226.2l-25.9-10.1a36.7,36.7,0,0,0,2.7-5.2,37.3,37.3,0,0,0,2-5.6,51.3,51.3,0,0,0,1.2-5.9,60.8,60.8,0,0,0,.3-6.1,40.4,40.4,0,0,0-3.1-14.5,37.5,37.5,0,0,0-7.8-11.7,34.8,34.8,0,0,0-11.4-7.9,35.2,35.2,0,0,0-14.2-2.7l20.8-.5a39,39,0,0,1,16.4,3.2,40.7,40.7,0,0,1,13.3,9.2,46.4,46.4,0,0,1,9,13.8,47.9,47.9,0,0,1,3.6,17.1,42.9,42.9,0,0,1-.3,7.2,54,54,0,0,1-1.3,7,56.7,56.7,0,0,1-2.2,6.6,50,50,0,0,1-3.1,6.1" fill="#b6b6b6"/></g></g></g><g style="isolation:isolate"><g clip-path="url(#e)"><g style="isolation:isolate"><path d="M245.3,99.5l-7,9.8c-.1-4.7-.2-9.5-.3-14.5s-.1-10-.2-15.3-.1-10.6-.2-16.1-.1-11.2-.1-17l6.7-21.7c.1,6.8.1,13.6.2,20.1s.1,13,.2,19.2.2,12.3.3,18.2.3,11.7.4,17.3" fill="#b6b6b6"/></g></g></g><g style="isolation:isolate"><g clip-path="url(#f)"><g style="isolation:isolate"><path d="M252.9,234.9l-8.4-12.5c0-.2-.1-1.4-.4-3.6s-.5-5.5-.9-9.9-.8-9.8-1.2-16.4-.9-14.3-1.4-23.3l7.5,1.9c.6,10.7,1.1,20,1.7,27.9s1,14.5,1.5,19.7.8,9.2,1.1,11.8.4,4.1.5,4.4" fill="#b6b6b6"/></g></g></g><path d="M337,30.7l3.6.3,3.6.4,3.5.3,3.5.4.8,34.4,31.7,1.9-1-32.7,7.7,1,7.6,1.1,7.3,1.1,7.2,1.1c.3,6.1.5,12,.6,17.8s.4,11.4.5,16.9.3,10.7.4,15.9.2,10.1.2,15a25.7,25.7,0,0,1,3.8-2.3,20.9,20.9,0,0,1,4.1-1.7,22.3,22.3,0,0,1,4.3-1,23.3,23.3,0,0,1,4.6-.2,26.6,26.6,0,0,1,11.8,3.1,33.1,33.1,0,0,1,9.8,7.7,41.1,41.1,0,0,1,6.7,11.1,42.2,42.2,0,0,1,2.9,13.4,39.4,39.4,0,0,1-1.7,13.5,35.6,35.6,0,0,1-5.8,11.3,27.9,27.9,0,0,1-9.2,7.9,27.2,27.2,0,0,1-11.7,3.2,31.4,31.4,0,0,1-5.3-.3,28.5,28.5,0,0,1-5-1.4,29.6,29.6,0,0,1-4.8-2.2,31.9,31.9,0,0,1-4.4-3.1c-.1,9.8-.3,18.1-.5,25.2s-.5,13-.7,17.7-.5,8.1-.6,10.4-.3,3.6-.3,3.8l-9.6,1.2-9.8,1.2-9.9,1-10.2,1.1a50,50,0,0,0,3.1-6.1,56.7,56.7,0,0,0,2.2-6.6,54,54,0,0,0,1.3-7,42.9,42.9,0,0,0,.3-7.2,47.9,47.9,0,0,0-3.6-17.1,46.4,46.4,0,0,0-9-13.8,40.7,40.7,0,0,0-13.3-9.2,39,39,0,0,0-16.4-3.2,41.8,41.8,0,0,0-16.8,3.9,47,47,0,0,0-14,10.3,50.4,50.4,0,0,0-9.5,15.4,51,51,0,0,0-3.4,18.8,64.8,64.8,0,0,0,.7,7.7,52.5,52.5,0,0,0,4.7,14,39.7,39.7,0,0,0,3.8,5.9l-12.1.8-12.3.8-12.6.7-12.9.6c-.1-.3-.2-1.7-.5-4.4s-.7-6.5-1.1-11.8-1-11.7-1.5-19.7-1.1-17.2-1.7-27.9a48,48,0,0,1-5.4,3.2,50.3,50.3,0,0,1-5.8,2.4,41.5,41.5,0,0,1-6.3,1.6,49,49,0,0,1-6.7.7,46.5,46.5,0,0,1-17.6-2.8,44.8,44.8,0,0,1-14.8-9.1,44,44,0,0,1-10.1-14,43.2,43.2,0,0,1-3.6-17.3,42.4,42.4,0,0,1,3.9-17.1,43.5,43.5,0,0,1,10.2-13.8,45.2,45.2,0,0,1,14.6-8.8,45.8,45.8,0,0,1,17.4-2.8,54.2,54.2,0,0,1,5.8.6,50.5,50.5,0,0,1,5.6,1.2l5.2,1.9a43.7,43.7,0,0,1,4.8,2.5c-.1-5.6-.3-11.4-.4-17.3s-.2-12-.3-18.2-.2-12.6-.2-19.2-.1-13.3-.2-20.1l9.9.4,9.5.4,9.4.5,9.1.5.4,35.7,35.7,2.2L317.6,29l4.9.4,4.9.4,4.8.5Z" fill="#fff" stroke="#c6c6c5" stroke-miterlimit="10"/></g></g><path d="M531.1,407.8c1.3-11.5,7.6-30.5,6.6-57.1,11.2-10.9,24-26,24-36.9,0-9.1-4.5-19.8-10.1-29.5a5.4,5.4,0,0,1,.5-1.1c3.2-6.4,6.1-9.9,9.3-15,5.5-9.1,2-23.8-7-33-12.8-13.1-24.1-15.3-31.8-14-9.2,1.6-15.2,2.5-17.5,6.7a8.4,8.4,0,0,0-.8,2l-3.7-2a5.7,5.7,0,0,0-2.2-.7h-.1l-12.2-.6a8,8,0,0,0-5.1,2.9h-.8a1.3,1.3,0,0,0-.1-.6v-.3a.9.9,0,0,0-.1-.5.4.4,0,0,0-.1-.3c0-.2,0-.3-.1-.4a1.4,1.4,0,0,0-.2-.7v-.2l-.3-.4v-.2l-.3-.4h-.2l-.5-.4-15.7-8.6-.5-.2-.6-.2h0a19.2,19.2,0,0,0,0-4.8h0c-.1-.5-.1-.9-.2-1.3H461l-.3-1v-.2a3.5,3.5,0,0,0-.5-.8v-.2l-.5-.6-.2-.2c-.3-.2-.5-.5-.9-.6l-13.3-7.4-.6-.2-.6-.2a5.8,5.8,0,0,0-3.6.3c-4.7,1.5-10.7,7.4-15.2,15.6-3.5,6.3-5.4,12.7-5.5,17.5a15.8,15.8,0,0,0,.3,3.2,8.1,8.1,0,0,0,.9,2.5l.9,1.3h.1l.9.6,13.3,7.4h0l1,.3h0l.8.2a.9.9,0,0,1-.1.5c-.3,7.4-.1,11.7-1.4,18.1a2.5,2.5,0,0,0-2,1.3c-2.9,6.3-16.4,37.5-18.8,50.9s-4.4,23.9,9.1,26.4a269.1,269.1,0,0,0,35.9,3.9h-2.1c-6.8,13.2-6.3,26.9-6.5,36.3-.4,19-.3,23.3-.3,23.3m-5.5-91.7s9.7-37.6,10.9-41.2c.3-1-1.3-2.6-3.8-4.1l4-4.7c2.9-3.4,5.4-10.7,6-12.6h1.5l.7-.2h.7l.5-.2.3-.2.5-.2h0l.3.3.2.2v.3a7.6,7.6,0,0,0,3,10.4l3.9,2.2a7.2,7.2,0,0,0,3.4.9l7-.4c-1.8,8.2-2.6,16.4-1.3,20,1.9,5.5,6.9,8,11.6,9.1-.8,2.5-1.9,6.4-2.9,10.3a46.8,46.8,0,0,0-7.9,1.5C471.1,310.8,446.1,316.1,446.1,316.1Z" fill="#ebeae4" stroke="#8e8e8d" stroke-linecap="round" stroke-miterlimit="10" stroke-width="6"/><g style="isolation:isolate"><path d="M477,260a2.8,2.8,0,0,1-1.3-.3l-8.6-4.8a6.9,6.9,0,0,1-3,.7,5.5,5.5,0,0,1-2.6-.6l-15.6-8.6a14.3,14.3,0,0,1-7.5,2.8,7.3,7.3,0,0,1-3.3-.8L421.7,241c-3.1-1.7-4.5-5.7-4-11.3a45.9,45.9,0,0,1,5.6-16.6c5.7-10.2,13.5-17.1,19.4-17.1a6,6,0,0,1,3.3.9l13.4,7.3c2.9,1.6,4.3,5.2,4,10.3l15.7,8.6a5.9,5.9,0,0,1,2.9,4.7l8.6,4.7c2.1,1.2,1.4,4.1,1.1,5-1.3,5.2-10,22.5-14.7,22.5Z" fill="#c6c6c5"/><path d="M442.7,198a4.8,4.8,0,0,1,2.4.6l13.3,7.4h0c2.6,1.4,3.5,5.1,2.9,9.8l1.1.4,15.7,8.6c1.3.7,2,2.3,2.1,4.5l.9.3,8.6,4.7h0c2.7,1.5-9.4,23.7-12.7,23.7-.2,0-.3,0-.3-.1l-8.6-4.7-.7-.6a7.7,7.7,0,0,1-3.3,1,2.7,2.7,0,0,1-1.6-.4l-15.7-8.6-.9-.8c-2.7,2.2-5.3,3.4-7.5,3.4a6,6,0,0,1-2.4-.5l-13.3-7.4c-4.9-2.7-3.8-14,2.4-25.2,5.3-9.6,12.6-16.1,17.6-16.1m0-4h0c-6.8,0-15.1,7.2-21.1,18.2a47.4,47.4,0,0,0-5.9,17.3c-.8,8.7,2.8,12.1,5,13.3l13.4,7.4a8.8,8.8,0,0,0,4.3,1,14.2,14.2,0,0,0,7.6-2.5l14.5,8a7.4,7.4,0,0,0,3.6.9,9.2,9.2,0,0,0,2.8-.5l7.8,4.3a4.6,4.6,0,0,0,2.3.6c2,0,4.6-.8,10.2-10.1,2.3-3.9,5.4-9.8,6.5-13.9s-.5-6.3-2.1-7.2l-7.8-4.3a8,8,0,0,0-3.8-5.2l-14.5-8c0-6.9-3.1-9.7-5.1-10.8L447,195.1a8.9,8.9,0,0,0-4.3-1.1Z" fill="#8e8e8d"/></g><path d="M436,247.7l-.5-.2-13.3-7.3c-2.7-1.5-4-5.2-3.5-10.4a43.8,43.8,0,0,1,5.5-16.2c5.4-9.7,13-16.6,18.5-16.6a6.9,6.9,0,0,1,2.9.7l13.3,7.4a1,1,0,0,1,.4,1.4l-22.4,40.6c-.1.3-.3.4-.6.5Z" fill="#c6c6c5"/><path d="M442.7,198a4.8,4.8,0,0,1,2.4.6l13.3,7.4L436,246.7l-13.3-7.4c-4.9-2.7-3.8-14,2.4-25.2,5.3-9.6,12.6-16.1,17.6-16.1m0-2c-5.9,0-13.7,6.9-19.4,17.1a45.9,45.9,0,0,0-5.6,16.6c-.5,5.6.9,9.6,4,11.3l13.4,7.4.9.3a2.1,2.1,0,0,0,1.8-1.1l22.4-40.7a1.9,1.9,0,0,0,.2-1.5,2.3,2.3,0,0,0-1-1.2L446,196.9a6,6,0,0,0-3.3-.9Z" fill="#8e8e8d"/><path d="M438.4,248.2a5.7,5.7,0,0,1-2.9-.7c-2.7-1.5-3.9-5.1-3.4-10.3a43.3,43.3,0,0,1,5.5-16.2c5.3-9.8,13-16.6,18.5-16.6a5.3,5.3,0,0,1,2.8.7c2.7,1.5,4,5.2,3.5,10.4a43.4,43.4,0,0,1-5.5,16.1C451.5,241.4,443.9,248.2,438.4,248.2Z" fill="#c6c6c5"/><path d="M456.1,205.4a4.4,4.4,0,0,1,2.3.6c4.9,2.7,3.8,13.9-2.4,25.2-5.3,9.6-12.6,16-17.6,16a6,6,0,0,1-2.4-.5c-4.8-2.7-3.7-14,2.4-25.2,5.3-9.6,12.7-16.1,17.7-16.1m0-2h0c-6,0-13.8,6.9-19.4,17.1a45.9,45.9,0,0,0-5.6,16.6c-.5,5.6.9,9.6,4,11.3a7.3,7.3,0,0,0,3.3.8c5.9,0,13.7-6.8,19.4-17.1,6.9-12.6,7.6-24.6,1.6-27.9a7.3,7.3,0,0,0-3.3-.8Z" fill="#8e8e8d"/><path d="M462.5,254.2H462l-15.7-8.6c-2-1.2-2.9-3.8-2.5-7.6a31.2,31.2,0,0,1,3.8-11.4c3.9-7,9.2-11.7,13.2-11.7a4.6,4.6,0,0,1,2.1.5l15.7,8.6.5.6a1.9,1.9,0,0,1-.1.8l-15.7,28.4A1,1,0,0,1,462.5,254.2Z" fill="#c6c6c5"/><path d="M460.8,215.8a2.7,2.7,0,0,1,1.6.4l15.7,8.6-15.6,28.4-15.7-8.6c-3.4-1.9-2.6-9.8,1.7-17.6s8.8-11.2,12.3-11.2m0-2c-4.4,0-10,4.9-14.1,12.2a32,32,0,0,0-3.9,11.8c-.4,4.2.7,7.2,3,8.5l15.7,8.7,1,.2h.5a1.9,1.9,0,0,0,1.2-.9l15.7-28.4a2,2,0,0,0,.1-1.5,1.6,1.6,0,0,0-.9-1.2l-15.7-8.7a5.5,5.5,0,0,0-2.6-.6Z" fill="#8e8e8d"/><path d="M464.1,254.6a4.6,4.6,0,0,1-2.1-.5c-2-1.1-2.9-3.8-2.6-7.5a30.2,30.2,0,0,1,3.9-11.5c3.8-7,9.1-11.7,13.2-11.7a5.4,5.4,0,0,1,2.1.5c2,1.1,2.9,3.8,2.5,7.6a31.2,31.2,0,0,1-3.8,11.4C473.4,249.9,468.1,254.6,464.1,254.6Z" fill="#c6c6c5"/><path d="M476.5,224.4a2.9,2.9,0,0,1,1.6.4c3.4,1.9,2.6,9.8-1.7,17.6s-8.8,11.2-12.3,11.2a2.7,2.7,0,0,1-1.6-.4c-3.4-1.9-2.7-9.7,1.6-17.6s8.8-11.2,12.4-11.2m0-2h0c-4.4,0-10.1,4.9-14.1,12.3-5,9.1-5.4,17.8-.9,20.3a5.5,5.5,0,0,0,2.6.6c4.4,0,10-4.9,14.1-12.2,5-9.1,5.4-17.9.9-20.3a4.8,4.8,0,0,0-2.6-.7Z" fill="#8e8e8d"/><path d="M476.7,258.9h-.5l-8.6-4.7c-1.8-1-2.5-3.3-2.2-6.5a23.8,23.8,0,0,1,3.2-9.5c3.2-5.9,7.7-9.9,11.1-9.9a4.1,4.1,0,0,1,1.9.5l8.6,4.7a1.1,1.1,0,0,1,.3,1.4l-13,23.6a1,1,0,0,1-.6.5Z" fill="#c6c6c5"/><path d="M479.7,229.2a2.3,2.3,0,0,1,1.4.4l8.6,4.7-13,23.6-8.6-4.7c-2.9-1.6-2.2-8.1,1.4-14.6s7.3-9.4,10.2-9.4m0-2c-3.8,0-8.6,4.2-12,10.4s-5.1,14.9-.6,17.3l8.6,4.8,1,.2a2.1,2.1,0,0,0,1.7-1l13-23.6a2.2,2.2,0,0,0,.2-1.6,2.3,2.3,0,0,0-1-1.2l-8.6-4.7a4.4,4.4,0,0,0-2.3-.6Z" fill="#8e8e8d"/><path d="M478,259.3a3.5,3.5,0,0,1-1.8-.5c-3.4-1.9-3-8.8,1-16s7.7-9.8,11.1-9.8a4.1,4.1,0,0,1,1.9.4c1.7,1,2.5,3.3,2.2,6.4a26.8,26.8,0,0,1-3.3,9.6C485.9,255.3,481.4,259.3,478,259.3Z" fill="#c6c6c5"/><path d="M488.3,234a3.2,3.2,0,0,1,1.4.3c2.8,1.6,2.2,8.1-1.4,14.6s-7.4,9.4-10.3,9.4a2.8,2.8,0,0,1-1.3-.4c-2.9-1.5-2.2-8.1,1.4-14.6s7.3-9.3,10.2-9.3m0-2h0c-3.8,0-8.6,4.1-12,10.3s-5.1,14.9-.6,17.4a4.6,4.6,0,0,0,2.3.6c3.8,0,8.6-4.2,12-10.4s5.1-14.9.6-17.4a5.9,5.9,0,0,0-2.3-.5Z" fill="#8e8e8d"/><g style="isolation:isolate"><path d="M478.1,268.9a8.9,8.9,0,0,1-4.3-1.1l-3.9-2.2a9.6,9.6,0,0,1-3.8-13.2l12.5-22.8a9.9,9.9,0,0,1,7.2-5h.2l12.5.6h.1a7.6,7.6,0,0,1,3,1l6,3.3a7.9,7.9,0,0,1,3.1,10.7l-13.1,23.9a7.9,7.9,0,0,1-5.5,3.9H491l-12.8.9Z" fill="#c6c6c5"/><path d="M486.1,226.6l12.2.6h.1a5.7,5.7,0,0,1,2.2.7l6.1,3.3a6.1,6.1,0,0,1,2.3,8.1l-13.2,23.8a5.8,5.8,0,0,1-4.1,2.9h-.8l-12.8.8a7.2,7.2,0,0,1-3.4-.9l-3.9-2.2a7.6,7.6,0,0,1-3-10.4l12.6-22.9a7.5,7.5,0,0,1,5.7-3.9m-.2-4h-.4a11.7,11.7,0,0,0-8.6,6l-12.6,22.8a11.8,11.8,0,0,0,4.6,16l3.9,2.1a10.4,10.4,0,0,0,5.2,1.4h.4l12.8-.8h1.2a9.4,9.4,0,0,0,6.9-5l13.2-23.8a9.4,9.4,0,0,0,.8-7.5,9.8,9.8,0,0,0-4.7-6l-6.1-3.3a10.9,10.9,0,0,0-3.6-1.2h-.4l-12.2-.6Z" fill="#8e8e8d"/></g><path d="M521.7,364.5c3.4-1.8,40-32.4,40-50.7s-18-42.9-27.3-52.9c-5.8-6.2-11.8-14.1-22.5-17.9-4.5-1.5-16.2,11-16.1,20.1.2,15.2,22.3,20.3,22.8,35.5.3,8.4-6.1,15.3-10.7,19.3" fill="#ebeae4" stroke="#8e8e8d" stroke-linecap="round" stroke-miterlimit="10" stroke-width="2"/><path d="M452.6,221.7c-6.8,4.6-14.5,16.8-14.9,26s0,13.6-2.6,23c-1.1,4.3,10.8,8.4,10.8,8.4l11.3-13c3.3-3.9,6.1-13.1,6.1-13.1l-2.1-4.7s.4-11.3.4-15.1C461.7,224.3,452.6,221.7,452.6,221.7Z" fill="#ebeae4" stroke="#8e8e8d" stroke-linecap="round" stroke-miterlimit="10" stroke-width="2"/><path d="M531.1,233.3c-19.9-7-31,.7-39.2,15.1-4.6,8-7.7,6.6-9,11s1.6,5.1,2.5,5.8c-2,8.7-2.9,17.6-1.6,21.3,1.9,5.5,6.9,8,11.6,9.1-2,6.5-6.2,22.6-6.2,22.6s33.6,10,33.8,4.2c1.3-28.7,10.9-25,18.2-36.5C551.6,269.4,556.2,242,531.1,233.3Z" fill="#ebeae4" stroke="#8e8e8d" stroke-linecap="round" stroke-miterlimit="10" stroke-width="2"/><path d="M522.6,221.2c-9.2,1.6-15.2,2.5-17.5,6.7s.7,12.3,4.4,13.9c5.7,2.5,5.1,11.5,5.3,14.2.6,6.4,9,7.8,10.2,12s-4.8,4.5-6.2,13.5c-.9,6.1,2.7,12.6,7.7,16.1,6.9,4.9,17.1,4.7,21.4-.1s-.2-5.7,4.2-14.3c3.2-6.4,6.1-9.9,9.3-15,5.5-9.1,2-23.8-7-33C541.6,222.1,530.3,219.9,522.6,221.2Z" fill="#ebeae4" stroke="#8e8e8d" stroke-linecap="round" stroke-miterlimit="10" stroke-width="2"/><path d="M531.1,407.8c1.7-14.5,11.3-47.1,4-77.2-2-8.6-15.9-21-23.5-22.7s-13.5-4-27-.5-38.5,8.7-38.5,8.7,9.7-37.6,10.9-41.2-20.3-12.8-22.7-7.8-16.4,37.5-18.8,50.9-4.4,23.9,9.1,26.4a248.6,248.6,0,0,0,50.6,3.9H458.4c-6.8,13.2-6.3,26.9-6.5,36.3-.4,19-.3,23.3-.3,23.3" fill="#ebeae4" stroke="#8e8e8d" stroke-linecap="round" stroke-miterlimit="10" stroke-width="2"/><path d="M312,248.9c-2.4-13.6-8.1-33.7-8.1-33.7s-4.2-7.9-14.9-3.7c-7.5,2.9-8.9,11-6.3,27.6,4,24.8,9.3,29.5,14.4,41.6" fill="#ebeae4" stroke="#8e8e8d" stroke-miterlimit="10" stroke-width="2"/><path d="M273.7,279.2a2,2,0,0,1-2-1.9l-4.2-68.1a2.1,2.1,0,0,1,1.9-2.1l30.1-1.8h.2a2.4,2.4,0,0,1,1.3.5,2.1,2.1,0,0,1,.7,1.4l4.1,68a2.1,2.1,0,0,1-1.9,2.2l-30.1,1.8Z" fill="#c6c6c5"/><path d="M299.7,207.3l4.1,68.1-30.1,1.8-4.2-68.1,30.2-1.8m0-4h-.3l-30.1,1.8a4.2,4.2,0,0,0-3.8,4.3l4.2,68a4.1,4.1,0,0,0,1.3,2.8,4.5,4.5,0,0,0,2.7,1h.2l30.2-1.8a4,4,0,0,0,3.7-4.3L303.7,207a4.2,4.2,0,0,0-1.4-2.7,3.7,3.7,0,0,0-2.6-1Z" fill="#8e8e8d"/><path d="M273.1,401.2l4.8-43h0c14.6,2.1,33.2,4,39.1,2.6,15.8-3.7,11.1-15.2,10.2-29.8s-9.8-40.2-10.2-45.6c0-1.1-1.2-1.7-2.9-1.9a128.3,128.3,0,0,1,2.5-16.3c2.1-9.5-4-32.7-4-32.7s-7.4,1.2-6.5,7.7a62.2,62.2,0,0,1-.1,13.5s-3.4,9.9-3.9,13.5-1.7,9.5-1.7,9.5l-6,.4.4,8.3c-2.5.9-4.2,1.8-4,2.3.4,2,4,33.5,4,33.5l13.4,5.5s-23.8-8.4-30.3-14.9a43.6,43.6,0,0,0-14.5-9.3,5.6,5.6,0,0,1,.5-.8c.9-1.3.8-2.9,0-4.6A20.5,20.5,0,0,0,269,296c4-3.2,7.2-6.7,9.5-17,1.1-5.3.6-10.9-6.6-17.1,0,0-.6,0,3-4.4,6.7-8,8-11.3,5.9-15.8-.6-1.1-7,4.9-11.2,9.3l-2.4,2.6c-.8-1.7-2.4-3.1-4.7-8.1a48.7,48.7,0,0,0-6.3-16.3,10.1,10.1,0,0,0,4.3-2.8c1.7-2.4,1.3-4.7-1-6.9s-3.4-1.3-4.4-2.6-.9-3.4-1.7-5-3.9-2.6-6.2-2.3-4.7,1-7,.7c-4.1-.7-7-4.9-11.1-5.4s-7.5,4.5-11.3,7-8.6,1.4-13,4a48.5,48.5,0,0,0-8.8,7.5,15.4,15.4,0,0,0-3.3,4.4c-2.4,5.7,2.7,12,2.2,18.1-.3,4.2-3.1,8.1-2.4,12.2a15.1,15.1,0,0,0,2.1,4.9c1.9,3.1,3.7,6.2,5.5,9.3s4.7,1.8,6.2,4.4.7,4.8-.3,7.1c1,.1,6.9.3,11.3.2,0,2.2-.6,4.9-2.3,9.2h0c-10.3,1.8-27.1,8.3-30.2,20.6s-4.3,20.7-3.9,33,6.4,45.8,6.4,45.8m27.1-97.3a4.2,4.2,0,0,1,.6-2.1Z" fill="#ebeae4" stroke="#8e8e8d" stroke-linecap="round" stroke-miterlimit="10" stroke-width="6"/><path d="M280.8,241.7c-.6-1.1-7,4.9-11.2,9.3-8.8,9.3-13.2,16.8-17.6,24.6s-3,8.4-7.8,14.7c-2.7,3.7,3.8,16.6,8.5,13.9,8.3-4.8,11.3-4.1,16.3-8.2s7.2-6.7,9.5-17c1.1-5.3.6-10.9-6.6-17.1,0,0-.6,0,3-4.4C281.6,249.5,282.9,246.2,280.8,241.7Z" fill="#ebeae4" stroke="#8e8e8d" stroke-miterlimit="10" stroke-width="2"/><path d="M312.6,234.5s-7.4,1.2-6.5,7.7a62.2,62.2,0,0,1-.1,13.5s-3.4,9.9-3.9,13.5-1.7,9.5-1.7,9.5l-6,.4.8,14.1,18.3-1.8s.9-14.8,3.1-24.2S312.6,234.5,312.6,234.5Z" fill="#ebeae4" stroke="#8e8e8d" stroke-miterlimit="10" stroke-width="2"/><path d="M218.1,313.8c3.7-4.5,23.3-23.4,28-26.4s21.9,10.5,17.8,16.3S244.5,336,244.5,336" fill="#ebeae4" stroke="#8e8e8d" stroke-linecap="round" stroke-miterlimit="10" stroke-width="2"/><path d="M267.8,257.2c.1-4.9-1.9-4.1-5.3-11.7-2.4-12.7-9.1-21.2-12.1-23.7-8.6-7.5-24.6-7.6-35.6-.6s-16.7,19.9-11.3,32.7,10.7,14,12,21.1,3.5,7.9-.5,18.2.9,23.8.9,23.8l36.6-6s-3.9-4-5.1-13,2-12.6,2-12.6a16.7,16.7,0,0,0,9.5-4c2.5-2.3,4.4-10.3,4.7-19.7C264.8,261.5,267.8,260.6,267.8,257.2Z" fill="#ebeae4" stroke="#8e8e8d" stroke-linecap="round" stroke-miterlimit="10" stroke-width="2"/><path d="M273.1,401.2l4.8-43-18.7-3.3c3.8,1.5,48,8.2,57.8,5.9,15.8-3.7,11.1-15.2,10.2-29.8s-9.8-40.2-10.2-45.6-26.7,2.3-26.2,4.3,4,33.5,4,33.5l13.4,5.5s-23.8-8.4-30.3-14.9-18.9-12.3-27.2-12.1-15.1,1.9-31-1.8c-7.9-1.8-4.7-6.7-4.7-6.7-10.3,1.8-27.1,8.3-30.2,20.6s-4.3,20.7-3.9,33,6.4,45.8,6.4,45.8" fill="#ebeae4" stroke="#8e8e8d" stroke-linecap="round" stroke-miterlimit="10" stroke-width="2"/><path d="M253.4,211.9c-1.1-2.1-3.9-2.6-6.2-2.3s-4.7,1-7,.7c-4.1-.7-7-4.9-11.1-5.4s-7.5,4.5-11.3,7-8.6,1.4-13,4a48.5,48.5,0,0,0-8.8,7.5,15.4,15.4,0,0,0-3.3,4.4c-2.4,5.7,2.7,12,2.2,18.1-.3,4.2-3.1,8.1-2.4,12.2a15.1,15.1,0,0,0,2.1,4.9l5.5,9.3c1.3,2.2,4.7,1.8,6.2,4.4s.7,4.8-.3,7.1c1.6.1,15.4.7,15.8-.4l3-6.3c1.2-1,2.7.8,3.8,2s4.4,1.9,6.7,1.1a16.8,16.8,0,0,0,6-3.9,26.5,26.5,0,0,1-1.5-10.5,3.5,3.5,0,0,1,.9-2.8,6.3,6.3,0,0,1,2-1c4.3-1.8,5.5-8.5,2.1-11.8-1.7-1.5-4.1-2.4-4.8-4.5s.9-4.3,2.9-5.2,4.2-.9,6.4-.8c-2.6-.1,2.3-7.9,2.9-8.4,2.2-2,6.5-2.4,8.3-4.9s1.3-4.7-1-6.9-3.4-1.3-4.4-2.6S254.2,213.5,253.4,211.9Z" fill="#ebeae4" stroke="#8e8e8d" stroke-linecap="round" stroke-miterlimit="10" stroke-width="2"/></svg>