<svg xmlns="http://www.w3.org/2000/svg" xmlns:xlink="http://www.w3.org/1999/xlink" viewBox="0 0 300 300"><defs><filter id="a" name="dropshadow"><feGaussianBlur stdDeviation="5" in="SourceAlpha"/><feOffset dx="2" dy="2"/><feComponentTransfer><feFuncA slope="0.3" type="linear"/></feComponentTransfer><feMerge><feMergeNode/><feMergeNode in="SourceGraphic"/></feMerge></filter><clipPath id="b"><path d="M140.5,76l1.6-.5.8-.2,1.7-.4,1.8-.5.9-.2,1.8-.5,1.9-.5,1-.3,2-.5,2-.5,1-.3,2.2-.6-1.4.5a3.5,3.5,0,0,0-1.4.6l-1.3.7a5.7,5.7,0,0,0-1.3.8l-18.1,4.6,1.1-.7,1.2-.6,1.2-.5Z" fill="none"/></clipPath><clipPath id="c"><path d="M164,112.8l-19.5-1-2.4-.3-2.4-.7-2.1-1.1-2.1-1.4,18.3.4a12.5,12.5,0,0,0,2.4,1.6,14.1,14.1,0,0,0,2.4,1.3,13.8,13.8,0,0,0,2.7.8A12.6,12.6,0,0,0,164,112.8Z" fill="none"/></clipPath><clipPath id="d"><path d="M129.1,145.3l-15.4-6a18.2,18.2,0,0,0,1.6-3.1,21.9,21.9,0,0,0,1.2-3.3c.3-1.1.5-2.3.7-3.5s.2-2.4.2-3.6a22.6,22.6,0,0,0-1.9-8.7,21.8,21.8,0,0,0-4.6-7,21.5,21.5,0,0,0-6.8-4.6,19.7,19.7,0,0,0-8.4-1.6l12.4-.4a24.4,24.4,0,0,1,9.7,2,23.7,23.7,0,0,1,7.9,5.4,28.5,28.5,0,0,1,5.4,8.2,30.9,30.9,0,0,1,2.1,10.2,20.3,20.3,0,0,1-.2,4.3,27,27,0,0,1-.7,4.1,22.4,22.4,0,0,1-1.4,3.9A25.3,25.3,0,0,1,129.1,145.3Z" fill="none"/></clipPath><clipPath id="e"><path d="M53.4,70l-4.2,5.8c0-2.8-.1-5.6-.1-8.6s-.1-6-.2-9.1-.1-6.3-.1-9.6v-10l4-13v12c.1,3.9.1,7.7.2,11.4s.1,7.3.2,10.8S53.3,66.6,53.4,70Z" fill="none"/></clipPath><clipPath id="f"><path d="M57.9,150.5l-5-7.5c0-.1-.1-.8-.2-2.1s-.3-3.3-.6-5.9-.4-5.8-.7-9.7-.5-8.6-.8-13.9l4.4,1.1c.4,6.4.7,11.9,1,16.6s.7,8.6.9,11.8.5,5.4.7,7S57.9,150.3,57.9,150.5Z" fill="none"/></clipPath></defs><path d="M239.8,176.8a84.1,84.1,0,0,1-15.8-1.2,102.8,102.8,0,0,1-15.4-4.1,164.4,164.4,0,0,1-28.7-13.7l-6.7-4.1-3.4-2.1-3.3-1.9-3.3-1.8-3.4-1.6-3.5-1.5-3.6-1.4a143.6,143.6,0,0,0-29.4-7.9,127.5,127.5,0,0,0-30.2-1.4,105.9,105.9,0,0,0-14.8,2.3l-1.8.4-1.8.5-3.6,1.1-1.8.6-1.8.6-3.6,1.3c-9.6,3.5-19.1,7.4-28.4,11.6s-18.7,8.4-28.6,10.9v-.3c9.7-3.5,18.6-8.6,27.8-13.4a304.5,304.5,0,0,1,28.2-13.5c2.4-1,4.7-2,7.3-2.8a51.5,51.5,0,0,1,7.6-2.4l3.9-1,1-.3h1l1.9-.4,4-.6,4-.4a120.1,120.1,0,0,1,31.7,1.3l2,.3,1.9.4,3.9.8,7.7,2c2.5.7,5.1,1.5,7.6,2.4l7.4,2.8a91.8,91.8,0,0,1,14.3,7.3l6.6,4.3,6.4,4.3a177.1,177.1,0,0,0,27,14.8,104.7,104.7,0,0,0,14.6,5,87.2,87.2,0,0,0,15.3,2.5Z" fill="#9b9b9a"/><path d="M44.4,150.5a75.2,75.2,0,0,1,15.5-7.2A134.8,134.8,0,0,1,76.5,139a133,133,0,0,1,33.9-1.9,137.1,137.1,0,0,1,63,20.6v.2a175.2,175.2,0,0,0-63.7-16.6,165.6,165.6,0,0,0-33,.9,151,151,0,0,0-16.3,3.1,81.9,81.9,0,0,0-15.8,5.4Z" fill="#ccc"/><path d="M38.7,153.5a83.1,83.1,0,0,1,14.6-5.6l3.8-1,3.8-.8c2.6-.6,5.2-.9,7.8-1.3a129.5,129.5,0,0,1,31.1-.4,145.6,145.6,0,0,1,30.1,6.6l7.2,2.5c2.4.9,4.7,2,7.1,3l3.5,1.5,3.3,1.8,6.7,3.4v.2l-7.2-2.8-3.5-1.4-3.6-1.2-3.6-1.2c-1.2-.4-2.4-.9-3.7-1.2l-7.3-2.1A216.9,216.9,0,0,0,99,148a171.5,171.5,0,0,0-30.4-.4c-2.5.3-5,.4-7.5.8l-3.8.5-3.8.7a103,103,0,0,0-14.7,4.1Z" fill="#ccc"/><path d="M32.9,156.6a92.2,92.2,0,0,1,27.9-6,133.6,133.6,0,0,1,28.3,1.1,164.7,164.7,0,0,1,27.3,6.6l6.6,2.2,6.5,2.6,3.2,1.3,3.1,1.5,6.3,2.9v.2l-6.6-2.3-3.3-1.2-3.3-1.1-6.6-2.1-6.7-1.8a234.9,234.9,0,0,0-27.2-5.7A160.5,160.5,0,0,0,60.6,153,111.9,111.9,0,0,0,33,156.7Z" fill="#ccc"/><path d="M27.2,159.6A89.3,89.3,0,0,1,39.9,157l3.2-.3,3.2-.2c2.2-.2,4.3-.1,6.5-.1a135.4,135.4,0,0,1,25.5,2.7,243,243,0,0,1,48.1,15.3h0c-16.2-5-32.4-9.7-48.9-12.9a192.3,192.3,0,0,0-25-3.3l-6.4-.2H39.8a90.2,90.2,0,0,0-12.6,1.5Z" fill="#ccc"/><path d="M21.4,162.7A77.4,77.4,0,0,1,33,161.5a114.6,114.6,0,0,1,11.7.6,193.5,193.5,0,0,1,22.7,4.4c14.8,3.8,29.2,8.5,43.4,13.4h-.1c-14.7-3.7-29.4-7.8-44.2-11.5-7.4-1.9-14.8-3.6-22.3-4.8a105.5,105.5,0,0,0-11.3-1.2,72.4,72.4,0,0,0-11.4.3Z" fill="#ccc"/><path d="M15.7,165.7a60,60,0,0,1,10.4.2,72.1,72.1,0,0,1,10.3,2c6.7,1.7,13.2,4,19.7,6,13,4.3,26,8.1,39,11.6h0a321.5,321.5,0,0,1-39.7-10.3c-6.6-2-13-4.4-19.6-6.3a79.4,79.4,0,0,0-9.9-2.4,58.4,58.4,0,0,0-10.2-.8Z" fill="#ccc"/><path d="M9.9,168.8h4.7l2.3.4,2.3.6a53.7,53.7,0,0,1,8.7,3.3l8.3,4.1c2.8,1.4,5.5,2.7,8.3,3.8a121.2,121.2,0,0,0,17.3,5.8c2.9.9,5.9,1.5,8.8,2.2l8.8,1.7h0c-3-.4-6-.8-9-1.4l-9-1.8a108.4,108.4,0,0,1-17.5-5.7c-2.9-1.2-5.6-2.5-8.4-3.9l-8.1-4.2a45.2,45.2,0,0,0-8.5-3.6l-2.1-.6-2.3-.5-1.1-.2H12.2l-2.3-.2Z" fill="#ccc"/><g filter="url(#a)"><g style="isolation:isolate"><g style="isolation:isolate"><g clip-path="url(#b)"><g style="isolation:isolate"><path d="M153.8,73.6l-18.1,4.6.8-.5.8-.5.9-.4.9-.4,18.5-4.9-1,.4-1,.5-.9.6-.9.6" fill="#b6b6b6"/><path d="M157.6,71.5l-18.5,4.9h1.4l18.7-5h-.8l-.4.2h-.4" fill="#bebebe"/></g></g></g><g style="isolation:isolate"><g clip-path="url(#c)"><g style="isolation:isolate"><path d="M164,112.8l-19.5-1-2.4-.3-2.4-.7-2.1-1.1-2.1-1.4,18.3.4a12.5,12.5,0,0,0,2.4,1.6,14.1,14.1,0,0,0,2.4,1.3,13.8,13.8,0,0,0,2.7.8,12.6,12.6,0,0,0,2.7.4" fill="#b6b6b6"/></g></g></g><polygon points="135.6 51.5 119.9 59.5 119.4 42.8 135 32.1 135.6 51.5" fill="#adadad"/><polygon points="96.7 49.1 86.1 57.8 85.9 40 96.3 28.1 96.7 49.1" fill="#adadad"/><g style="isolation:isolate"><g clip-path="url(#d)"><g style="isolation:isolate"><path d="M129.1,145.3l-15.4-6a18.2,18.2,0,0,0,1.6-3.1,21.9,21.9,0,0,0,1.2-3.3c.3-1.1.5-2.3.7-3.5s.2-2.4.2-3.6a22.6,22.6,0,0,0-1.9-8.7,21.8,21.8,0,0,0-4.6-7,21.5,21.5,0,0,0-6.8-4.6,19.7,19.7,0,0,0-8.4-1.6l12.4-.4a24.4,24.4,0,0,1,9.7,2,23.7,23.7,0,0,1,7.9,5.4,28.5,28.5,0,0,1,5.4,8.2,30.9,30.9,0,0,1,2.1,10.2,20.3,20.3,0,0,1-.2,4.3,27,27,0,0,1-.7,4.1,22.4,22.4,0,0,1-1.4,3.9,25.3,25.3,0,0,1-1.8,3.7" fill="#b6b6b6"/></g></g></g><g style="isolation:isolate"><g clip-path="url(#e)"><g style="isolation:isolate"><path d="M53.4,70l-4.2,5.8c0-2.8-.1-5.6-.1-8.6s-.1-6-.2-9.1-.1-6.3-.1-9.6v-10l4-13v12c.1,3.9.1,7.7.2,11.4s.1,7.3.2,10.8.1,6.9.2,10.3" fill="#b6b6b6"/></g></g></g><g style="isolation:isolate"><g clip-path="url(#f)"><g style="isolation:isolate"><path d="M57.9,150.5l-5-7.5c0-.1-.1-.8-.2-2.1s-.3-3.3-.6-5.9-.4-5.8-.7-9.7-.5-8.6-.8-13.9l4.4,1.1c.4,6.4.7,11.9,1,16.6s.7,8.6.9,11.8.5,5.4.7,7,.3,2.4.3,2.6" fill="#b6b6b6"/></g></g></g><path d="M107.9,29.1l2.1.2,2.1.2,2.1.2,2.1.2.5,20.5,18.8,1.1L135,32.1l4.6.6,4.5.6,4.4.7,4.3.6c.1,3.6.2,7.2.3,10.6s.2,6.8.3,10,.2,6.4.2,9.5.2,6,.2,8.9l2.2-1.4,2.5-1,2.5-.6h2.7a16,16,0,0,1,7.1,1.9,20.6,20.6,0,0,1,5.8,4.5,25.8,25.8,0,0,1,4,6.6,30,30,0,0,1,1.7,8,26.5,26.5,0,0,1-1,8.1,22,22,0,0,1-3.5,6.6,16.1,16.1,0,0,1-5.4,4.7,15.3,15.3,0,0,1-7,1.9,10.6,10.6,0,0,1-3.1-.2,16.3,16.3,0,0,1-3-.7,14.7,14.7,0,0,1-2.8-1.4,15.9,15.9,0,0,1-2.7-1.8c0,5.8-.2,10.8-.3,15s-.3,7.7-.4,10.5-.3,4.8-.4,6.2-.1,2.1-.1,2.2l-5.7.7-5.8.7-6,.7-6,.6a25.3,25.3,0,0,0,1.8-3.7,22.4,22.4,0,0,0,1.4-3.9,27,27,0,0,0,.7-4.1,20.3,20.3,0,0,0,.2-4.3,30.9,30.9,0,0,0-2.1-10.2,28.5,28.5,0,0,0-5.4-8.2,23.7,23.7,0,0,0-7.9-5.4,24.4,24.4,0,0,0-9.7-2,24.1,24.1,0,0,0-10,2.4,25.9,25.9,0,0,0-8.3,6.1,28,28,0,0,0-5.7,9.2,29.2,29.2,0,0,0-2,11.1,34.2,34.2,0,0,0,.4,4.6,27,27,0,0,0,1.1,4.3,28.3,28.3,0,0,0,1.7,4,22.1,22.1,0,0,0,2.3,3.6l-7.2.4-7.4.5-7.5.4-7.6.4c0-.2-.1-1-.3-2.6s-.4-3.9-.7-7-.5-7-.9-11.8-.6-10.2-1-16.6a19.8,19.8,0,0,1-3.1,1.9,26.3,26.3,0,0,1-3.5,1.5,23.4,23.4,0,0,1-3.8.9,26,26,0,0,1-3.9.5,27.9,27.9,0,0,1-10.5-1.7,28.2,28.2,0,0,1-8.8-5.4,27.1,27.1,0,0,1-6-8.3,25.6,25.6,0,0,1-2.1-10.3,23.1,23.1,0,0,1,2.3-10.2,25.6,25.6,0,0,1,6-8.2A28.4,28.4,0,0,1,30.3,68a27.7,27.7,0,0,1,10.4-1.7l3.4.4a17.6,17.6,0,0,1,3.3.7l3.1,1.1A15.9,15.9,0,0,1,53.4,70c-.1-3.4-.2-6.8-.2-10.3S53,52.6,53,48.9s-.1-7.5-.2-11.4v-12l5.8.3,5.7.2,5.5.3,5.5.3.2,21.2,21.2,1.3-.4-21,3,.2,2.9.3,2.9.2Z" fill="#fff" stroke="#c6c6c5" stroke-miterlimit="10"/></g></g><path d="M264.1,279.6c1.2-9.9,6.6-26.5,5.7-49.5,9.7-9.5,20.9-22.6,20.9-32s-3.9-17.3-8.8-25.7a10.4,10.4,0,0,0,.4-1c2.9-5.5,5.4-8.5,8.1-13,4.8-7.8,1.8-20.6-6-28.6-11.1-11.4-21-13.3-27.7-12.1s-13.2,2.1-15.2,5.7a13.4,13.4,0,0,0-.7,1.8l-3.1-1.8a7,7,0,0,0-1.9-.6h-.1l-10.7-.5a6.5,6.5,0,0,0-4.3,2.6l-.4-.2h-.4v-.7a.9.9,0,0,1-.1-.5c0-.1-.1-.2-.1-.3a.4.4,0,0,0-.1-.3,1.4,1.4,0,0,0-.2-.6V122l-.2-.3c0-.1-.1-.1-.1-.2l-.3-.3h-.1l-.5-.3-13.6-7.5-.5-.2h-.5a14.7,14.7,0,0,0,0-4.2h0a3.6,3.6,0,0,0-.2-1h0l-.3-.9c0-.1-.1-.1-.1-.2l-.4-.7v-.2l-.5-.5v-.2l-.7-.5L189.4,98l-.4-.2-.5-.2a6,6,0,0,0-3.2.3c-4.1,1.4-9.3,6.5-13.2,13.6-3,5.4-4.7,10.9-4.7,15.1a8.4,8.4,0,0,0,.2,2.8,4.8,4.8,0,0,0,.8,2.2,4.4,4.4,0,0,0,.8,1.1.1.1,0,0,0,.1.1,1.8,1.8,0,0,0,.7.5l11.6,6.4h0a1.1,1.1,0,0,0,.8.3h.7v.4c-.3,6.5-.2,10.2-1.3,15.7a2.5,2.5,0,0,0-1.7,1.2c-2.6,5.4-14.3,32.5-16.3,44.1s-3.9,20.8,7.9,23a220.2,220.2,0,0,0,31.1,3.3h-1.7c-6,11.4-5.5,23.3-5.7,31.5-.4,16.4-.3,20.2-.3,20.2M190.3,200s8.4-32.7,9.5-35.7c.3-1-1.1-2.3-3.3-3.6l3.4-4.1c2.6-2.9,4.7-9.3,5.3-10.9h2.5l.4-.2h.3l.4-.2h0l.3.2a.2.2,0,0,0,.2.2v.2a6.7,6.7,0,0,0,2.6,9.1l3.4,1.9a6,6,0,0,0,2.9.8l6.1-.4c-1.6,7.2-2.2,14.3-1.2,17.4,1.7,4.8,6.1,6.9,10.2,7.9-.7,2.2-1.7,5.6-2.6,8.9a53.3,53.3,0,0,0-6.8,1.3C212.1,195.4,190.3,200,190.3,200Z" fill="#ebeae4" stroke="#8e8e8d" stroke-linecap="round" stroke-miterlimit="10" stroke-width="6"/><g style="isolation:isolate"><path d="M217.1,151.6a1.9,1.9,0,0,1-1.2-.4l-7.3-4a7,7,0,0,1-2.7.6,4.6,4.6,0,0,1-2.3-.6l-13.4-7.4a12.2,12.2,0,0,1-6.6,2.4,6,6,0,0,1-3-.7L169,135.1c-2.8-1.6-4-5.1-3.5-10.1a38.6,38.6,0,0,1,4.8-14.5c5-9,11.8-15,17.1-15a6.1,6.1,0,0,1,3,.8l11.6,6.4c2.6,1.4,3.9,4.5,3.7,8.9l13.4,7.4a6,6,0,0,1,2.7,4.2l7.3,4c2,1.1,1.3,3.8,1.1,4.7-1,3.9-8.6,19.7-13.1,19.7Z" fill="#c6c6c5"/><path d="M187.4,97.5a4.2,4.2,0,0,1,2,.5l11.7,6.4h0c2.1,1.2,2.9,4.4,2.4,8.6a1.7,1.7,0,0,1,1,.3l13.6,7.5c1.1.6,1.7,2,1.8,3.8l.8.3,7.5,4.1h0c2.3,1.3-8.2,20.6-11.1,20.6h-.2l-7.5-4.1-.6-.5a6.7,6.7,0,0,1-2.8.8,3.7,3.7,0,0,1-1.5-.3l-13.6-7.5c-.3-.1-.5-.4-.7-.6-2.4,1.8-4.7,2.9-6.6,2.9a3.5,3.5,0,0,1-2-.5L170,133.3c-4.2-2.3-3.3-12.1,2.1-21.8s10.9-14,15.3-14m0-4h0c-6.1,0-13.5,6.3-18.8,16s-7.9,23.3-.5,27.3l11.6,6.4a7.6,7.6,0,0,0,3.9,1,12.5,12.5,0,0,0,6.6-2.1l12.4,6.8a6.3,6.3,0,0,0,3.4.8l2.4-.3,6.5,3.6a4.6,4.6,0,0,0,2.2.6c1.9,0,4.4-.7,9.4-9,2-3.4,4.7-8.7,5.6-12.2s-.5-6.1-2-6.9l-6.6-3.6a6.8,6.8,0,0,0-3.5-4.6l-12.3-6.9c-.1-6-2.9-8.5-4.7-9.5l-11.6-6.4a7.9,7.9,0,0,0-4-1Z" fill="#8e8e8d"/></g><path d="M181.6,140.7h-.5l-11.6-6.4c-4.8-2.6-4-12.8,1.7-23.2,4.7-8.5,11.4-14.5,16.2-14.5a5.1,5.1,0,0,1,2.5.6l11.6,6.4a1.3,1.3,0,0,1,.5.6.8.8,0,0,1-.1.8l-19.4,35.3A1.2,1.2,0,0,1,181.6,140.7Z" fill="#c6c6c5"/><path d="M187.4,97.5a4.2,4.2,0,0,1,2,.5l11.7,6.4-19.5,35.3L170,133.3c-4.2-2.3-3.3-12.1,2.1-21.8s10.9-14,15.3-14m0-2c-5.3,0-12.1,6-17.1,15-6.1,11.1-6.6,21.6-1.3,24.6l11.6,6.4,1,.2h.5a1.6,1.6,0,0,0,1.2-.9l19.5-35.3a2,2,0,0,0-.8-2.7l-11.6-6.4a6.1,6.1,0,0,0-3-.8Z" fill="#8e8e8d"/><path d="M183.6,141.2a5.4,5.4,0,0,1-2.5-.6c-2.4-1.3-3.5-4.6-3.1-9.1a40.7,40.7,0,0,1,4.8-14.1c4.7-8.5,11.4-14.5,16.2-14.5a5.1,5.1,0,0,1,2.5.6c2.4,1.4,3.5,4.6,3.1,9.1a36.9,36.9,0,0,1-4.8,14.1C195.1,135.3,188.5,141.2,183.6,141.2Z" fill="#c6c6c5"/><path d="M199,103.9a5,5,0,0,1,2.1.5c4.2,2.3,3.2,12.1-2.1,21.9s-11,13.9-15.4,13.9a3.5,3.5,0,0,1-2-.5c-4.2-2.3-3.3-12.1,2.1-21.8s10.9-14,15.3-14m0-2c-5.3,0-12.1,6-17.1,15-6.1,11.1-6.6,21.6-1.3,24.6a6,6,0,0,0,3,.7c5.3,0,12.2-6,17.1-15,6.1-11,6.7-21.6,1.3-24.5a6.1,6.1,0,0,0-3-.8Z" fill="#8e8e8d"/><path d="M204.5,146.4h-.4l-13.6-7.5c-1.8-1-2.6-3.4-2.3-6.7a28.1,28.1,0,0,1,3.3-9.9c3.4-6.2,8.1-10.3,11.6-10.3a4.1,4.1,0,0,1,1.9.5l13.6,7.5a1,1,0,0,1,.5.6,1.7,1.7,0,0,1-.1.7l-13.6,24.7a1,1,0,0,1-.6.5Z" fill="#c6c6c5"/><path d="M203.1,112.9a2.3,2.3,0,0,1,1.4.4l13.6,7.5-13.6,24.6-13.6-7.5c-2.9-1.6-2.2-8.4,1.5-15.2s7.6-9.8,10.7-9.8m0-2c-3.9,0-8.9,4.3-12.4,10.8s-5.4,15.4-.7,18l13.6,7.5.9.2a2.2,2.2,0,0,0,1.8-1l13.6-24.7a2.1,2.1,0,0,0-.8-2.7l-13.6-7.5a4.8,4.8,0,0,0-2.4-.6Z" fill="#8e8e8d"/><path d="M206,146.8a3.8,3.8,0,0,1-1.9-.5c-3.6-2-3.1-9.1,1-16.6s8-10.3,11.6-10.3a4.1,4.1,0,0,1,1.9.5c3.5,1.9,3.1,9.1-1.1,16.6S209.5,146.8,206,146.8Z" fill="#c6c6c5"/><path d="M216.7,120.4a2.3,2.3,0,0,1,1.4.4c3,1.6,2.3,8.4-1.4,15.2s-7.7,9.8-10.7,9.8a3.7,3.7,0,0,1-1.5-.4c-2.9-1.6-2.3-8.4,1.5-15.3s7.6-9.7,10.7-9.7m0-2h0c-3.9,0-8.9,4.3-12.5,10.8s-5.3,15.4-.6,18a4.8,4.8,0,0,0,2.4.6c3.9,0,8.9-4.4,12.4-10.8s5.3-15.4.7-18a4.8,4.8,0,0,0-2.4-.6Z" fill="#8e8e8d"/><path d="M216.9,150.5h-.5l-7.5-4.1c-1.5-.9-2.2-2.9-2-5.7a25.2,25.2,0,0,1,2.8-8.4c2.9-5.1,6.8-8.6,9.8-8.6a3.3,3.3,0,0,1,1.7.4l7.4,4.1a1,1,0,0,1,.4,1.4L217.7,150a1,1,0,0,1-.6.5Z" fill="#c6c6c5"/><path d="M219.5,124.6a2.7,2.7,0,0,1,1.2.3l7.5,4.1-11.3,20.5-7.5-4.1c-2.4-1.4-1.9-7,1.2-12.7s6.4-8.1,8.9-8.1m0-2c-3.4,0-7.6,3.6-10.6,9.1a23.6,23.6,0,0,0-3,8.8c-.4,4.3,1.4,6,2.5,6.6l7.5,4.1a1.7,1.7,0,0,0,1,.3h.5a1.9,1.9,0,0,0,1.2-.9L229.9,130a2.1,2.1,0,0,0-.8-2.8l-7.4-4.1a5.4,5.4,0,0,0-2.2-.5Z" fill="#8e8e8d"/><path d="M218,150.8a4.2,4.2,0,0,1-1.6-.4c-3-1.7-2.7-7.7.8-14.1s6.8-8.6,9.8-8.6a2.9,2.9,0,0,1,1.6.4c1.6.9,2.3,2.9,2,5.7a21.9,21.9,0,0,1-2.8,8.4C225,147.3,221.1,150.8,218,150.8Z" fill="#c6c6c5"/><path d="M227,128.7l1.2.3c2.4,1.3,1.9,7-1.3,12.7s-6.3,8.1-8.9,8.1a2,2,0,0,1-1.1-.3c-2.5-1.4-1.9-7,1.2-12.7s6.3-8.1,8.9-8.1m0-2h0c-3.4,0-7.6,3.6-10.7,9.1s-4.5,13.2-.4,15.4a3.9,3.9,0,0,0,2.1.6c3.5,0,7.6-3.6,10.7-9.1a23.3,23.3,0,0,0,2.9-8.8c.4-4.4-1.4-6-2.5-6.7a4.6,4.6,0,0,0-2.1-.5Z" fill="#8e8e8d"/><g style="isolation:isolate"><path d="M218.1,159.3a8.7,8.7,0,0,1-3.9-1l-3.4-1.9a8.7,8.7,0,0,1-3.4-11.8l11-19.9a8.5,8.5,0,0,1,6.3-4.4h.2l10.9.5h.1a6.1,6.1,0,0,1,2.7.8l5.3,2.9a7.2,7.2,0,0,1,2.8,9.7L235.3,155a7.5,7.5,0,0,1-5,3.5h-.9l-11.2.7Z" fill="#c6c6c5"/><path d="M225,122.3l10.7.5h.1a7,7,0,0,1,1.9.6l5.2,2.9a5.1,5.1,0,0,1,2,7L233.5,154a5.3,5.3,0,0,1-3.6,2.6h-.6l-11.2.7a6,6,0,0,1-2.9-.8l-3.4-1.9a6.7,6.7,0,0,1-2.6-9.1l10.9-19.8a6.8,6.8,0,0,1,4.9-3.4m-.2-4h-.3a10.2,10.2,0,0,0-7.9,5.4l-10.9,19.8a10.6,10.6,0,0,0-.9,8.2,10.4,10.4,0,0,0,5.1,6.3l3.4,1.9a9.5,9.5,0,0,0,4.7,1.3h.4l11.1-.7h1.1a9,9,0,0,0,6.4-4.6l11.4-20.7a8.8,8.8,0,0,0,.8-6.9,9,9,0,0,0-4.4-5.5l-5.2-2.9a10.2,10.2,0,0,0-3.4-1h-.3l-10.7-.5Z" fill="#8e8e8d"/></g><path d="M256,242c3-1.5,34.7-28.1,34.7-43.9s-15.7-37.3-23.8-46c-4.9-5.4-10.1-12.3-19.5-15.5-3.8-1.4-14,9.5-13.9,17.4.2,13.2,19.3,17.6,19.8,30.8.2,7.3-5.3,13.3-9.3,16.8" fill="#ebeae4" stroke="#8e8e8d" stroke-linecap="round" stroke-miterlimit="10" stroke-width="2"/><path d="M196,118.1c-5.9,4-12.6,14.6-12.9,22.5s-.1,11.8-2.3,20c-1,3.7,9.4,7.3,9.4,7.3s6.8-7.8,9.7-11.3,5.4-11.3,5.4-11.3l-1.9-4.1s.4-9.8.4-13.2C203.9,120.3,196,118.1,196,118.1Z" fill="#ebeae4" stroke="#8e8e8d" stroke-linecap="round" stroke-miterlimit="10" stroke-width="2"/><path d="M264.1,128.1c-17.3-6-26.9.7-34,13.1-4,7-6.7,5.8-7.8,9.6s1.4,4.4,2.2,5c-1.8,7.5-2.6,15.3-1.5,18.5,1.7,4.8,6.1,6.9,10.2,7.9-1.8,5.6-5.4,19.7-5.4,19.7s29.1,8.6,29.3,3.6c1.1-25,9.5-21.7,15.8-31.7C282,159.5,285.9,135.7,264.1,128.1Z" fill="#ebeae4" stroke="#8e8e8d" stroke-linecap="round" stroke-miterlimit="10" stroke-width="2"/><path d="M256.7,117.7c-7.9,1.3-13.2,2.1-15.2,5.7s.7,10.7,3.9,12.1c4.9,2.2,4.4,10,4.6,12.3.5,5.6,7.8,6.8,8.8,10.4s-4.2,4-5.4,11.8c-.8,5.3,2.4,10.9,6.7,14,6,4.2,14.9,4,18.6-.1s-.2-5,3.6-12.5c2.9-5.5,5.4-8.5,8.1-13,4.8-7.8,1.8-20.6-6-28.6C273.3,118.4,263.4,116.5,256.7,117.7Z" fill="#ebeae4" stroke="#8e8e8d" stroke-linecap="round" stroke-miterlimit="10" stroke-width="2"/><path d="M264.1,279.6c1.5-12.6,9.8-40.9,3.5-67-1.7-7.4-13.8-18.3-20.4-19.7s-11.7-3.5-23.4-.5-33.5,7.6-33.5,7.6,8.4-32.7,9.5-35.7-17.7-11.2-19.7-6.8-14.3,32.5-16.3,44.1-3.9,20.8,7.9,23a219.8,219.8,0,0,0,43.9,3.4H201.1c-6,11.4-5.5,23.3-5.7,31.5-.4,16.4-.3,20.2-.3,20.2" fill="#ebeae4" stroke="#8e8e8d" stroke-linecap="round" stroke-miterlimit="10" stroke-width="2"/></svg>