<svg xmlns="http://www.w3.org/2000/svg" xmlns:xlink="http://www.w3.org/1999/xlink" viewBox="0 0 300 225"><defs><linearGradient id="a" x1="151.79" y1="191.62" x2="151.79" y2="35.21" gradientUnits="userSpaceOnUse"><stop offset="0" stop-color="#ebeae4" stop-opacity="0"/><stop offset="0.44" stop-color="#ebeae4"/></linearGradient><clipPath id="b"><path d="M179.2,93.4l1.2-.3.6-.2,1.2-.3,1.2-.3.7-.2,1.3-.3,1.3-.4h.7l1.4-.4,1.5-.4.7-.2,1.5-.4-1,.3-1,.5-.9.4-.9.6-12.9,3.2.8-.5.9-.4.8-.4Z" fill="none"/></clipPath><clipPath id="c"><path d="M195.9,118.8l-13.8-.7-1.7-.2-1.7-.5-1.5-.8-1.5-.9,13,.3,1.7,1.1,1.7.9,1.9.5A6.3,6.3,0,0,0,195.9,118.8Z" fill="none"/></clipPath><clipPath id="d"><path d="M171.2,141.2l-11-4.1a22.5,22.5,0,0,0,1.2-2.1,20.9,20.9,0,0,0,.8-2.3,20.5,20.5,0,0,0,.5-2.4,11.3,11.3,0,0,0,.1-2.6,14.5,14.5,0,0,0-1.3-5.9,16.1,16.1,0,0,0-3.2-4.8,14.3,14.3,0,0,0-4.9-3.2,14.6,14.6,0,0,0-6-1.2l8.8-.2a17.3,17.3,0,0,1,6.9,1.3,16.8,16.8,0,0,1,5.6,3.8,17.3,17.3,0,0,1,3.8,5.7,18,18,0,0,1,1.6,7,15.1,15.1,0,0,1-.2,3,27.4,27.4,0,0,1-.5,2.8l-.9,2.7C172.1,139.6,171.6,140.4,171.2,141.2Z" fill="none"/></clipPath><clipPath id="e"><path d="M117.4,89.2l-3,4c0-1.9,0-3.9-.1-5.9s-.1-4.1-.1-6.3,0-4.3-.1-6.6v-7l2.8-8.9c.1,2.8.1,5.6.1,8.3s.1,5.3.1,7.8.1,5.1.1,7.5S117.3,86.9,117.4,89.2Z" fill="#8e8e8d" stroke="#8e8e8d" stroke-linecap="round" stroke-linejoin="round" stroke-width="2"/></clipPath><clipPath id="f"><path d="M120.6,144.8l-3.5-5.1a6.1,6.1,0,0,1-.2-1.5c-.1-.9-.2-2.3-.4-4.1s-.3-4-.5-6.7-.4-5.9-.6-9.6l3.2.8c.2,4.4.5,8.2.7,11.5s.4,5.9.6,8.1.4,3.7.5,4.8S120.6,144.7,120.6,144.8Z" fill="#8e8e8d" stroke="#8e8e8d" stroke-linecap="round" stroke-linejoin="round" stroke-width="2"/></clipPath></defs><polyline points="42.9 204.1 42.9 19.6 260.7 19.6 260.7 204.1" stroke="#8e8e8d" stroke-linecap="round" stroke-miterlimit="10" stroke-width="4" fill="url(#a)"/><g style="isolation:isolate"><g style="isolation:isolate"><g clip-path="url(#b)"><g style="isolation:isolate"><path d="M188.7,91.7l-12.9,3.2.6-.4.6-.3.6-.3.7-.2,13.1-3.4-.7.3-.7.3-.7.4-.6.4" fill="#b6b6b6"/><path d="M191.4,90.3l-13.1,3.4c0-.1.1-.1.2-.1h.7l13.3-3.5h-1.1" fill="#bebebe"/></g></g></g><g style="isolation:isolate"><g clip-path="url(#c)"><g style="isolation:isolate"><path d="M195.9,118.8l-13.8-.7-1.7-.2-1.7-.5-1.5-.8-1.5-.9,13,.3,1.7,1.1,1.7.9,1.9.5a6.3,6.3,0,0,0,1.9.3" fill="#b6b6b6"/></g></g></g><polygon points="175.8 76.5 164.6 82 164.3 70.5 175.4 63 175.8 76.5" fill="#8e8e8d" stroke="#8e8e8d" stroke-linecap="round" stroke-linejoin="round" stroke-width="2"/><polygon points="148.2 74.8 140.6 80.8 140.5 68.5 147.9 60.3 148.2 74.8" fill="#8e8e8d" stroke="#8e8e8d" stroke-linecap="round" stroke-linejoin="round" stroke-width="2"/><g style="isolation:isolate"><g clip-path="url(#d)"><g style="isolation:isolate"><path d="M171.2,141.2l-11-4.1a22.5,22.5,0,0,0,1.2-2.1,20.9,20.9,0,0,0,.8-2.3,20.5,20.5,0,0,0,.5-2.4,11.3,11.3,0,0,0,.1-2.6,14.5,14.5,0,0,0-1.3-5.9,16.1,16.1,0,0,0-3.2-4.8,14.3,14.3,0,0,0-4.9-3.2,14.6,14.6,0,0,0-6-1.2l8.8-.2a17.3,17.3,0,0,1,6.9,1.3,16.8,16.8,0,0,1,5.6,3.8,17.3,17.3,0,0,1,3.8,5.7,18,18,0,0,1,1.6,7,15.1,15.1,0,0,1-.2,3,27.4,27.4,0,0,1-.5,2.8l-.9,2.7c-.4.9-.9,1.7-1.3,2.5" fill="#8e8e8d" stroke="#8e8e8d" stroke-linecap="round" stroke-linejoin="round" stroke-width="2"/></g></g></g><g style="isolation:isolate"><path d="M117.4,89.2l-3,4c0-1.9,0-3.9-.1-5.9s-.1-4.1-.1-6.3,0-4.3-.1-6.6v-7l2.8-8.9c.1,2.8.1,5.6.1,8.3s.1,5.3.1,7.8.1,5.1.1,7.5S117.3,86.9,117.4,89.2Z" fill="#8e8e8d"/><g clip-path="url(#e)"><g style="isolation:isolate"><path d="M117.4,89.2l-3,4c0-1.9,0-3.9-.1-5.9s-.1-4.1-.1-6.3,0-4.3-.1-6.6v-7l2.8-8.9c.1,2.8.1,5.6.1,8.3s.1,5.3.1,7.8.1,5.1.1,7.5.1,4.8.2,7.1" fill="#b6b6b6"/></g></g><path d="M117.4,89.2l-3,4c0-1.9,0-3.9-.1-5.9s-.1-4.1-.1-6.3,0-4.3-.1-6.6v-7l2.8-8.9c.1,2.8.1,5.6.1,8.3s.1,5.3.1,7.8.1,5.1.1,7.5S117.3,86.9,117.4,89.2Z" fill="none" stroke="#8e8e8d" stroke-linecap="round" stroke-linejoin="round" stroke-width="2"/></g><g style="isolation:isolate"><path d="M120.6,144.8l-3.5-5.1a6.1,6.1,0,0,1-.2-1.5c-.1-.9-.2-2.3-.4-4.1s-.3-4-.5-6.7-.4-5.9-.6-9.6l3.2.8c.2,4.4.5,8.2.7,11.5s.4,5.9.6,8.1.4,3.7.5,4.8S120.6,144.7,120.6,144.8Z" fill="#8e8e8d"/><g clip-path="url(#f)"><g style="isolation:isolate"><path d="M120.6,144.8l-3.5-5.1a6.1,6.1,0,0,1-.2-1.5c-.1-.9-.2-2.3-.4-4.1s-.3-4-.5-6.7-.4-5.9-.6-9.6l3.2.8c.2,4.4.5,8.2.7,11.5s.4,5.9.6,8.1.4,3.7.5,4.8.2,1.7.2,1.8" fill="#b6b6b6"/></g></g><path d="M120.6,144.8l-3.5-5.1a6.1,6.1,0,0,1-.2-1.5c-.1-.9-.2-2.3-.4-4.1s-.3-4-.5-6.7-.4-5.9-.6-9.6l3.2.8c.2,4.4.5,8.2.7,11.5s.4,5.9.6,8.1.4,3.7.5,4.8S120.6,144.7,120.6,144.8Z" fill="none" stroke="#8e8e8d" stroke-linecap="round" stroke-linejoin="round" stroke-width="2"/></g><path d="M120.6,145.8a1,1,0,0,1-1-.9h0c0-.2-.1-.8-.2-1.8s-.3-2.7-.5-4.8-.4-5.2-.6-8.1-.4-6.4-.6-9.9a3.1,3.1,0,0,1-1,.5l-2.6,1.1-2.7.7-3,.3h-.7a18.7,18.7,0,0,1-7.1-1.3,18.3,18.3,0,0,1-6.6-3.9,18.9,18.9,0,0,1-4.5-6,17.9,17.9,0,0,1-1.6-7.6,15.9,15.9,0,0,1,1.8-7.4,17.6,17.6,0,0,1,4.5-6,20.2,20.2,0,0,1,6.5-3.8,20.6,20.6,0,0,1,7-1.2h.7l2.6.2,2.4.6,2.3.8.7.3c-.1-1.8-.1-3.6-.2-5.4s-.1-5-.1-7.5-.1-5.2-.1-7.9,0-5.5-.1-8.3a1.5,1.5,0,0,1,.3-.7,1.1,1.1,0,0,1,.7-.3l4.2.2,4.1.2,3.9.2,3.9.2a.9.9,0,0,1,.9,1l.2,13.7,13,.7-.2-13.4a1,1,0,0,1,1-1l2.2.2,4.1.3,3.5.3,4.5.5a.9.9,0,0,1,.9.9l.3,13.2,11.3.7-.3-12.3a1.1,1.1,0,0,1,.3-.8.9.9,0,0,1,.7-.3h.1l3.3.4,3.2.4,3.1.5,3,.4a1.1,1.1,0,0,1,.9,1c.1,2.5.2,4.9.2,7.3s.2,4.7.2,6.9.1,4.4.2,6.5,0,3,.1,4.5h.1l1.9-.8,2-.4h2.1a11.4,11.4,0,0,1,5.4,1.4,14.1,14.1,0,0,1,4.4,3.4,15,15,0,0,1,3,4.8,16.8,16.8,0,0,1,1.3,5.8,17.1,17.1,0,0,1-.7,6,15.7,15.7,0,0,1-2.7,4.9,12.5,12.5,0,0,1-4.1,3.5,11.4,11.4,0,0,1-5.4,1.4h-2.4a8.6,8.6,0,0,1-2.3-.6l-2.2-1-.4-.2c-.1,2.9-.1,5.8-.2,8.4s-.2,5.1-.3,7.3-.2,3.3-.3,4.3a12.6,12.6,0,0,1-.1,1.6c0,.5-.4.8-.9.9l-4,.5-4.1.5-4.3.4-4.2.4h-.1a1,1,0,0,1-.9-.4,1.1,1.1,0,0,1,0-1.1,10.8,10.8,0,0,0,1.2-2.4,12.5,12.5,0,0,0,.9-2.5,23,23,0,0,0,.6-2.8,25.3,25.3,0,0,0,.1-2.8,18.7,18.7,0,0,0-1.5-6.6,14.2,14.2,0,0,0-3.6-5.4,18.6,18.6,0,0,0-5.2-3.6,16.8,16.8,0,0,0-6.3-1.2h-.3a16.7,16.7,0,0,0-6.6,1.5A17.2,17.2,0,0,0,144,119a17.9,17.9,0,0,0-3.9,5.9,19,19,0,0,0-1.3,7.4,15.3,15.3,0,0,0,.3,3,14.3,14.3,0,0,0,.7,2.8,20.3,20.3,0,0,0,1.1,2.6,18.8,18.8,0,0,0,1.6,2.3,1.4,1.4,0,0,1,.1,1.1,1.1,1.1,0,0,1-.9.5l-5.1.4-5.2.3-5.3.2-5.5.3Z" fill="#fff"/><path d="M116.9,58.5l4.2.2,4,.2,4,.2,3.8.2.2,14.6,15.1.9-.3-14.5,2.1.2h2l2.1.2,2,.2h1.5l1.5.2h3l.3,14.2,13.4.8L175.4,63l3.2.5,3.2.4,3.1.4,3.1.5c.1,2.5.2,4.9.2,7.3s.2,4.7.2,6.9.1,4.5.2,6.6.1,4.1.1,6.1a8.3,8.3,0,0,1,1.6-.9l1.7-.7,1.8-.4h1.9a11.4,11.4,0,0,1,5.1,1.3,13.5,13.5,0,0,1,4.1,3.1,17.7,17.7,0,0,1,2.8,4.6,16.4,16.4,0,0,1,1.2,5.5,14.1,14.1,0,0,1-.7,5.5,14.9,14.9,0,0,1-2.4,4.7,13.4,13.4,0,0,1-3.9,3.2,10.6,10.6,0,0,1-5,1.3h-2.2a8.3,8.3,0,0,1-2.1-.6,7.2,7.2,0,0,1-2-.9,12.2,12.2,0,0,1-1.9-1.2c0,4-.1,7.4-.2,10.3s-.2,5.3-.3,7.2-.2,3.4-.3,4.3a12.6,12.6,0,0,1-.1,1.6l-4,.5-4.2.5-4.2.4-4.2.4c.4-.8.9-1.6,1.3-2.5l.9-2.7a27.4,27.4,0,0,0,.5-2.8,15.1,15.1,0,0,0,.2-3,18,18,0,0,0-1.6-7,17.3,17.3,0,0,0-3.8-5.7,16.8,16.8,0,0,0-5.6-3.8,17.6,17.6,0,0,0-6.6-1.3h-.3a18,18,0,0,0-13,5.9,20.5,20.5,0,0,0-4,6.3,19.9,19.9,0,0,0-1.4,7.7,17.3,17.3,0,0,0,.3,3.2,22.3,22.3,0,0,0,2,5.7,12.5,12.5,0,0,0,1.6,2.4l-5.1.4-5.2.3-5.4.2-5.4.3c0-.1-.1-.7-.2-1.8s-.3-2.7-.5-4.8-.4-4.9-.6-8.1-.5-7.1-.7-11.5l-2.3,1.3-2.5,1-2.6.7-2.8.3h-.7a19.1,19.1,0,0,1-6.8-1.2,18.6,18.6,0,0,1-6.2-3.7,18.3,18.3,0,0,1-4.3-5.7,17.2,17.2,0,0,1-1.5-7.2,15.1,15.1,0,0,1,1.7-7,16.8,16.8,0,0,1,4.2-5.6,20.4,20.4,0,0,1,6.2-3.7,21.4,21.4,0,0,1,6.7-1.1h.7l2.4.2,2.4.5,2.1.8,2.1,1c-.1-2.3-.1-4.6-.2-7.1s-.1-4.9-.1-7.5-.1-5.1-.1-7.8,0-5.5-.1-8.3m0-2a1.6,1.6,0,0,0-1.3.6,1.9,1.9,0,0,0-.7,1.4c.1,2.8.1,5.6.1,8.3s.1,5.3.1,7.9.1,5,.1,7.5.1,2.6.1,3.8l-1.6-.5-2.6-.6-2.7-.2h-.7a22.4,22.4,0,0,0-7.3,1.2A21.8,21.8,0,0,0,93.5,90a17.9,17.9,0,0,0-4.7,6.2,18.4,18.4,0,0,0-1.9,7.9,19.8,19.8,0,0,0,1.7,8,20.8,20.8,0,0,0,4.7,6.4,21.1,21.1,0,0,0,6.9,4.1,23.6,23.6,0,0,0,7.5,1.3h.7l3.1-.4a16.3,16.3,0,0,0,3-.7,10.2,10.2,0,0,0,2.2-.9c.2,2.9.4,5.7.6,8.3s.4,5.7.6,8.1.3,3.5.5,4.9.2,1.7.2,1.9a2,2,0,0,0,2,1.7h.1l5.4-.3,5.4-.2,5.2-.3,5.1-.4a1.9,1.9,0,0,0,1.4-3.2,16.4,16.4,0,0,1-1.4-2.2,25.6,25.6,0,0,1-1.1-2.4,26.8,26.8,0,0,1-.7-2.7,26.4,26.4,0,0,1-.2-2.8,18.5,18.5,0,0,1,1.3-7,17.2,17.2,0,0,1,3.6-5.7,16.6,16.6,0,0,1,5.3-3.8,15.1,15.1,0,0,1,6.2-1.4h.3a14.8,14.8,0,0,1,5.9,1.2,14.6,14.6,0,0,1,4.9,3.3,15.7,15.7,0,0,1,3.4,5.1,18.2,18.2,0,0,1,1.4,6.3,23.5,23.5,0,0,1-.1,2.6,20,20,0,0,1-.5,2.6,23.4,23.4,0,0,1-.9,2.4,10.1,10.1,0,0,1-1.2,2.3,2.2,2.2,0,0,0,.1,2.1,1.9,1.9,0,0,0,1.7.9h.2l4.2-.4,4.3-.5,4.1-.4,4.1-.5a2,2,0,0,0,1.7-1.8,12.6,12.6,0,0,0,.1-1.6c.1-1.3.2-2.7.3-4.4s.2-4.6.3-7.2.1-4.5.2-6.9l1.2.5,2.5.7H197a14.2,14.2,0,0,0,5.8-1.5,12.7,12.7,0,0,0,4.5-3.8,14.6,14.6,0,0,0,2.8-5.2,18.8,18.8,0,0,0,.8-6.3,19.1,19.1,0,0,0-1.3-6.2,17.2,17.2,0,0,0-3.3-5.1,15.1,15.1,0,0,0-4.7-3.6,14.7,14.7,0,0,0-5.8-1.5h-2.2l-2.2.5-.8.2V85.5c-.1-2.1-.1-4.3-.2-6.5s-.1-4.6-.2-7-.1-4.8-.2-7.3a2.2,2.2,0,0,0-1.7-1.9l-3.1-.4-3.1-.5-3.2-.4-3.3-.4h-.2a2,2,0,0,0-1.4.6,1.7,1.7,0,0,0-.6,1.5l.3,11.2-9.3-.5-.3-12.3a2,2,0,0,0-1.8-1.9l-1.5-.2h-1.5l-1.5-.2h-1.5l-2-.2-2.1-.2h-2.1l-2.1-.2h-.1a2.4,2.4,0,0,0-1.4.5,2.2,2.2,0,0,0-.6,1.5l.2,12.4-11-.7-.2-12.8a1.9,1.9,0,0,0-1.9-1.9l-3.8-.2-4-.2-4-.2-4.2-.2Z" fill="#8e8e8d"/></g><polygon points="43.9 20.6 107.9 20.6 107.9 180.5 43.9 205.1 43.9 20.6" fill="#c6c6c5" stroke="#8e8e8d" stroke-linecap="round" stroke-linejoin="round" stroke-width="2"/><polygon points="259.7 20.6 194.3 20.6 194.3 180.5 259.7 205.1 259.7 20.6" fill="#c6c6c5" stroke="#8e8e8d" stroke-linecap="round" stroke-linejoin="round" stroke-width="2"/><circle cx="260.7" cy="40.7" r="23.7" fill="#8f0000"/><text transform="translate(250.4 58.2)" font-size="51.95" fill="#fff" font-family="LinLibertineB, Linux Libertine">?</text></svg>