<svg xmlns="http://www.w3.org/2000/svg" viewBox="0 0 300 225"><path d="M227.8,188.7v-21c0-18.9-10.5-34.7-49.1-39h-.1c-.1-2.5-.2-4.9-.4-7.2,9.5-8.7,17-21.6,17-34,0-21.8,0-50.1-39.3-50.1s-39.5,28.2-39.5,50.1c0,12.1,7.7,24.5,17,33.2-.3,2.7-.4,5.4-.5,8.1h-.1c-39.3,4.3-51.7,20.2-51.7,39.1v20.9" fill="#ebeae4" stroke="#8e8e8d" stroke-linecap="round" stroke-miterlimit="10" stroke-width="6"/><path d="M227.8,188.7v-21c0-18.9-10.5-34.7-49.1-39H132.8c-39.3,4.3-51.7,20.2-51.7,39.1v20.9" fill="#ebeae4" stroke="#8e8e8d" stroke-linecap="round" stroke-linejoin="round" stroke-width="2"/><path d="M178.2,121.4c.3,3.4.5,6.9.5,10.7,0,7.3-13.7,26.7-22.9,26.7s-23-19.4-23-26.7a108.8,108.8,0,0,1,.6-11.4" fill="#ebeae4" stroke="#8e8e8d" stroke-linecap="round" stroke-linejoin="round" stroke-width="2"/><path d="M195.2,87.5c0,21.8-23.2,44.9-39.4,44.9-14.2-.1-39.4-23-39.4-44.9s.6-50.1,39.5-50.1S195.2,65.7,195.2,87.5Z" fill="#ebeae4" stroke="#8e8e8d" stroke-linecap="round" stroke-linejoin="round" stroke-width="2"/><circle cx="260.7" cy="40.7" r="23.7" fill="#8f0000"/><path d="M263.2,38.2H275v5.1H263.2V54.6h-5.1V43.3H246.3V38.2h11.8V26.9h5.1Z" fill="#fff"/></svg>