<svg xmlns="http://www.w3.org/2000/svg" viewBox="0 0 300 225"><rect x="22.1" y="19.1" width="259" height="185" fill="#ebeae4" stroke="#8e8e8d" stroke-linecap="round" stroke-miterlimit="10" stroke-width="4"/><line x1="92.4" y1="52.1" x2="192.1" y2="52.1" fill="#ebeae4" stroke="#8e8e8d" stroke-miterlimit="10" stroke-width="2"/><line x1="92.4" y1="62.1" x2="192.1" y2="62.1" fill="#ebeae4" stroke="#8e8e8d" stroke-miterlimit="10" stroke-width="2"/><line x1="92.4" y1="72.1" x2="137.4" y2="72.1" fill="#ebeae4" stroke="#8e8e8d" stroke-miterlimit="10" stroke-width="2"/><line x1="92.4" y1="102.1" x2="192.1" y2="102.1" fill="#ebeae4" stroke="#8e8e8d" stroke-miterlimit="10" stroke-width="2"/><line x1="92.4" y1="112.1" x2="192.1" y2="112.1" fill="#ebeae4" stroke="#8e8e8d" stroke-miterlimit="10" stroke-width="2"/><line x1="92.4" y1="122.1" x2="137.4" y2="122.1" fill="#ebeae4" stroke="#8e8e8d" stroke-miterlimit="10" stroke-width="2"/><line x1="92.4" y1="152.1" x2="192.1" y2="152.1" fill="#ebeae4" stroke="#8e8e8d" stroke-miterlimit="10" stroke-width="2"/><line x1="92.4" y1="162.1" x2="192.1" y2="162.1" fill="#ebeae4" stroke="#8e8e8d" stroke-miterlimit="10" stroke-width="2"/><line x1="92.4" y1="172.1" x2="137.4" y2="172.1" fill="#ebeae4" stroke="#8e8e8d" stroke-miterlimit="10" stroke-width="2"/><path d="M74.8,57.2c0,4.7-8.5,14.9-8.5,14.9s-8.5-10.2-8.5-14.9a8.5,8.5,0,0,1,17,0Z" fill="#fff" stroke="#8f1913" stroke-linecap="round" stroke-linejoin="round" stroke-width="3.46"/><path d="M74.8,107.2c0,4.7-8.5,14.9-8.5,14.9s-8.5-10.2-8.5-14.9a8.5,8.5,0,0,1,17,0Z" fill="#8f1913" stroke="#8f1913" stroke-linecap="round" stroke-linejoin="round" stroke-width="3.46"/><path d="M74.8,157.2c0,4.7-8.5,14.9-8.5,14.9s-8.5-10.2-8.5-14.9a8.5,8.5,0,0,1,17,0Z" fill="#fff" stroke="#8f1913" stroke-linecap="round" stroke-linejoin="round" stroke-width="3.46"/><line x1="66.3" y1="102.1" x2="66.3" y2="112.2" fill="none" stroke="#fff" stroke-linejoin="round" stroke-width="3.46"/><line x1="61.2" y1="107.2" x2="71.3" y2="107.2" fill="none" stroke="#fff" stroke-linejoin="round" stroke-width="3.46"/><g style="isolation:isolate"><rect x="211.3" y="47.2" width="43.9" height="29.52" fill="#c6c6c5"/></g><g style="isolation:isolate"><rect x="211.3" y="97.1" width="43.9" height="29.52" fill="#c6c6c5"/></g><g style="isolation:isolate"><rect x="211.3" y="147.3" width="43.9" height="29.52" fill="#c6c6c5"/></g></svg>