<svg xmlns="http://www.w3.org/2000/svg" xmlns:xlink="http://www.w3.org/1999/xlink" viewBox="0 0 300 225"><defs><clipPath id="a"><path d="M184.4,88.6l1.2-.4h.6l1.3-.4,1.3-.3.7-.2,1.3-.3,1.4-.4.7-.2,1.5-.4,1.5-.4.8-.2,1.5-.4-1,.3-1,.5-1,.5-.9.6-13.4,3.4.8-.5.9-.5.9-.4Z" fill="none"/></clipPath><clipPath id="b"><path d="M201.8,115.8l-14.4-.8-1.8-.2a8.5,8.5,0,0,1-1.7-.6,4.8,4.8,0,0,1-1.6-.8,5.6,5.6,0,0,1-1.5-1l13.5.3a6.6,6.6,0,0,0,1.7,1.2l1.8,1,2,.6Z" fill="none"/></clipPath><clipPath id="c"><path d="M176,139.8l-11.3-4.5,1.2-2.3a22.5,22.5,0,0,0,.8-2.4,23.8,23.8,0,0,0,.5-2.6,24.5,24.5,0,0,0,.2-2.7,19.3,19.3,0,0,0-1.4-6.4,17.5,17.5,0,0,0-3.4-5.1,15.3,15.3,0,0,0-11.2-4.6l9.1-.3a19.2,19.2,0,0,1,7.2,1.4,19.7,19.7,0,0,1,5.8,4.1,19.1,19.1,0,0,1,4,6,23.4,23.4,0,0,1,1.6,7.5c0,1.1-.1,2.2-.2,3.2a15.5,15.5,0,0,1-.6,3.1,16.1,16.1,0,0,1-.9,2.9C177,138,176.5,138.9,176,139.8Z" fill="none"/></clipPath><clipPath id="d"><path d="M120.1,84.1,117,88.4c0-2,0-4.1-.1-6.3s-.1-4.4-.1-6.7-.1-4.7-.1-7.1V60.9l2.9-9.6c.1,3,.1,6,.1,8.8s.1,5.7.1,8.5.1,5.4.1,8S120,81.7,120.1,84.1Z" fill="#8e8e8d" stroke="#8e8e8d" stroke-linecap="round" stroke-linejoin="round" stroke-width="2"/></clipPath><clipPath id="e"><path d="M123.4,143.6l-3.6-5.5c0-.1-.1-.6-.2-1.6s-.2-2.4-.4-4.3-.4-4.3-.6-7.2-.4-6.3-.6-10.3l3.3.9c.3,4.7.5,8.8.8,12.2s.4,6.4.6,8.7.4,4,.5,5.2S123.4,143.5,123.4,143.6Z" fill="#8e8e8d" stroke="#8e8e8d" stroke-linecap="round" stroke-linejoin="round" stroke-width="2"/></clipPath></defs><rect x="42.9" y="20.8" width="217.8" height="183.22" fill="#ebeae4" stroke="#8e8e8d" stroke-linecap="round" stroke-miterlimit="10" stroke-width="4"/><polyline points="260.7 170.8 260.7 204.1 42.9 204.1 42.9 170.8" fill="#fff" stroke="#8e8e8d" stroke-linecap="round" stroke-miterlimit="10" stroke-width="4"/><g style="isolation:isolate"><g style="isolation:isolate"><g clip-path="url(#a)"><g style="isolation:isolate"><path d="M194.3,86.8l-13.4,3.4.6-.4.6-.3.6-.3.7-.3,13.7-3.6-.8.3-.7.3-.7.5-.6.4" fill="#b6b6b6"/><path d="M197.1,85.3l-13.7,3.6h1l13.8-3.7h-1.1" fill="#bebebe"/></g></g></g><g style="isolation:isolate"><g clip-path="url(#b)"><g style="isolation:isolate"><path d="M201.8,115.8l-14.4-.8-1.8-.2a8.5,8.5,0,0,1-1.7-.6,4.8,4.8,0,0,1-1.6-.8,5.6,5.6,0,0,1-1.5-1l13.5.3a6.6,6.6,0,0,0,1.7,1.2l1.8,1,2,.6,2,.3" fill="#b6b6b6"/></g></g></g><polygon points="180.8 70.5 169.2 76.4 168.9 64.1 180.4 56.1 180.8 70.5" fill="#8e8e8d" stroke="#8e8e8d" stroke-linecap="round" stroke-linejoin="round" stroke-width="2"/><polygon points="152.1 68.7 144.3 75.2 144.1 62 151.8 53.2 152.1 68.7" fill="#8e8e8d" stroke="#8e8e8d" stroke-linecap="round" stroke-linejoin="round" stroke-width="2"/><g style="isolation:isolate"><g clip-path="url(#c)"><g style="isolation:isolate"><path d="M176,139.8l-11.3-4.5,1.2-2.3a22.5,22.5,0,0,0,.8-2.4,23.8,23.8,0,0,0,.5-2.6,24.5,24.5,0,0,0,.2-2.7,19.3,19.3,0,0,0-1.4-6.4,17.5,17.5,0,0,0-3.4-5.1,15.3,15.3,0,0,0-11.2-4.6l9.1-.3a19.2,19.2,0,0,1,7.2,1.4,19.7,19.7,0,0,1,5.8,4.1,19.1,19.1,0,0,1,4,6,23.4,23.4,0,0,1,1.6,7.5c0,1.1-.1,2.2-.2,3.2a15.5,15.5,0,0,1-.6,3.1,16.1,16.1,0,0,1-.9,2.9c-.4.9-.9,1.8-1.4,2.7" fill="#8e8e8d" stroke="#8e8e8d" stroke-linecap="round" stroke-linejoin="round" stroke-width="2"/></g></g></g><g style="isolation:isolate"><path d="M120.1,84.1,117,88.4c0-2,0-4.1-.1-6.3s-.1-4.4-.1-6.7-.1-4.7-.1-7.1V60.9l2.9-9.6c.1,3,.1,6,.1,8.8s.1,5.7.1,8.5.1,5.4.1,8S120,81.7,120.1,84.1Z" fill="#8e8e8d"/><g clip-path="url(#d)"><g style="isolation:isolate"><path d="M120.1,84.1,117,88.4c0-2,0-4.1-.1-6.3s-.1-4.4-.1-6.7-.1-4.7-.1-7.1V60.9l2.9-9.6c.1,3,.1,6,.1,8.8s.1,5.7.1,8.5.1,5.4.1,8,.1,5.1.2,7.5" fill="#b6b6b6"/></g></g><path d="M120.1,84.1,117,88.4c0-2,0-4.1-.1-6.3s-.1-4.4-.1-6.7-.1-4.7-.1-7.1V60.9l2.9-9.6c.1,3,.1,6,.1,8.8s.1,5.7.1,8.5.1,5.4.1,8S120,81.7,120.1,84.1Z" fill="none" stroke="#8e8e8d" stroke-linecap="round" stroke-linejoin="round" stroke-width="2"/></g><g style="isolation:isolate"><path d="M123.4,143.6l-3.6-5.5c0-.1-.1-.6-.2-1.6s-.2-2.4-.4-4.3-.4-4.3-.6-7.2-.4-6.3-.6-10.3l3.3.9c.3,4.7.5,8.8.8,12.2s.4,6.4.6,8.7.4,4,.5,5.2S123.4,143.5,123.4,143.6Z" fill="#8e8e8d"/><g clip-path="url(#e)"><g style="isolation:isolate"><path d="M123.4,143.6l-3.6-5.5c0-.1-.1-.6-.2-1.6s-.2-2.4-.4-4.3-.4-4.3-.6-7.2-.4-6.3-.6-10.3l3.3.9c.3,4.7.5,8.8.8,12.2s.4,6.4.6,8.7.4,4,.5,5.2.2,1.8.2,1.9" fill="#b6b6b6"/></g></g><path d="M123.4,143.6l-3.6-5.5c0-.1-.1-.6-.2-1.6s-.2-2.4-.4-4.3-.4-4.3-.6-7.2-.4-6.3-.6-10.3l3.3.9c.3,4.7.5,8.8.8,12.2s.4,6.4.6,8.7.4,4,.5,5.2S123.4,143.5,123.4,143.6Z" fill="none" stroke="#8e8e8d" stroke-linecap="round" stroke-linejoin="round" stroke-width="2"/></g><path d="M123.4,144.6a1.1,1.1,0,0,1-1-.9c0-.1-.1-.8-.2-1.9s-.3-2.9-.5-5.2-.4-5.7-.6-8.7-.5-6.9-.7-10.6a3.1,3.1,0,0,1-1,.5,13.1,13.1,0,0,1-2.7,1.2l-2.9.7a15.3,15.3,0,0,1-3,.3H110a21.1,21.1,0,0,1-7.4-1.4,20.3,20.3,0,0,1-11.4-10.6,19.2,19.2,0,0,1,.1-16A19.3,19.3,0,0,1,96,85.8a20.2,20.2,0,0,1,6.7-4.1,22.9,22.9,0,0,1,7.3-1.3h.8a20.6,20.6,0,0,1,2.6.3,12.2,12.2,0,0,1,2.6.6l2.4.8.7.3c-.1-1.9-.1-3.8-.2-5.8s-.1-5.3-.1-8-.1-5.6-.1-8.5,0-5.8-.1-8.8a1.5,1.5,0,0,1,.3-.7,1.1,1.1,0,0,1,.7-.3h.1l4.3.2,4.2.2,4.1.2,4,.2a1.1,1.1,0,0,1,1,1V66.8l13.7.9-.3-14.5a.9.9,0,0,1,.3-.7,1.1,1.1,0,0,1,.7-.3h.1l2.2.2,2.1.2h2.2l2,.2,4.7.5h1.6a1.1,1.1,0,0,1,.9,1l.3,14.2,11.9.7-.4-13.2a1.1,1.1,0,0,1,.3-.8.9.9,0,0,1,.7-.3.1.1,0,0,1,.1.1l3.4.4,3.3.5,3.3.4,3.2.5a1.1,1.1,0,0,1,.8,1q.1,4.1.3,7.8c.1,2.5.1,5,.2,7.4s.1,4.7.1,7,.1,3.3.1,4.8h.3l1.9-.8,2.1-.5h2.1a14.2,14.2,0,0,1,5.7,1.5,15.5,15.5,0,0,1,4.5,3.6,18.2,18.2,0,0,1,3.2,5.2,20.7,20.7,0,0,1,1.3,6.2,18.8,18.8,0,0,1-.8,6.3,16.1,16.1,0,0,1-2.7,5.2,13.7,13.7,0,0,1-4.3,3.7,12.8,12.8,0,0,1-5.6,1.6h-.5l-2-.2a9.4,9.4,0,0,1-2.4-.6,9.7,9.7,0,0,1-2.3-1.1l-.4-.2c-.1,3.2-.2,6.2-.2,9.1s-.2,5.4-.4,7.8-.2,3.6-.2,4.6a9.2,9.2,0,0,1-.2,1.7,1.1,1.1,0,0,1-.8.9l-4.2.5-4.3.5-4.4.5-4.5.4c0,.1,0,.1-.1.1a1,1,0,0,1-.8-.5,1.1,1.1,0,0,1,0-1.1c.4-.8.9-1.7,1.2-2.5s.7-1.9,1-2.8a25,25,0,0,0,.5-2.9c.1-1,.2-2,.2-3a19.8,19.8,0,0,0-1.6-7.2,18.1,18.1,0,0,0-3.7-5.7,15.6,15.6,0,0,0-5.5-3.8,16.2,16.2,0,0,0-6.5-1.4h-.3a17.6,17.6,0,0,0-7,1.7,18.2,18.2,0,0,0-5.8,4.3,21,21,0,0,0-4,6.4,23.5,23.5,0,0,0-1.4,7.9,17.3,17.3,0,0,0,.3,3.2,14.7,14.7,0,0,0,.8,3,13.9,13.9,0,0,0,1.2,2.8,20.7,20.7,0,0,0,1.5,2.5.9.9,0,0,1-.7,1.6l-5.3.4-5.4.3-5.6.3-5.6.3Z" fill="#fff"/><path d="M119.6,51.3l4.3.2,4.2.2,4.2.2,4,.2V67.7l15.7,1-.3-15.5,2.2.2,2.1.2h2.2l2.1.2,1.5.2h1.6l1.5.2h1.6l.3,15.1,13.9.9-.4-14.4,3.4.5,3.3.5,3.2.4,3.2.5q.1,4.1.3,7.8c.1,2.6.1,5,.2,7.4s.1,4.8.1,7,.1,4.5.2,6.6l1.6-1a6.7,6.7,0,0,1,1.8-.7l1.9-.5h2a13.4,13.4,0,0,1,5.2,1.4,15.4,15.4,0,0,1,4.3,3.4,16.6,16.6,0,0,1,2.9,4.8,16.4,16.4,0,0,1,1.3,5.9,19.8,19.8,0,0,1-.7,6,16.4,16.4,0,0,1-2.6,4.9,14.8,14.8,0,0,1-4,3.5,13,13,0,0,1-5.2,1.4h-.4l-1.9-.2-2.2-.5-2.1-1a13.3,13.3,0,0,1-1.9-1.4c-.1,4.3-.2,8-.2,11.1s-.3,5.7-.4,7.7-.2,3.6-.2,4.6a7.9,7.9,0,0,1-.2,1.7l-4.2.5-4.2.5-4.4.5-4.5.5c.5-.9,1-1.8,1.4-2.7a16.1,16.1,0,0,0,.9-2.9,15.5,15.5,0,0,0,.6-3.1c.1-1,.2-2.1.2-3.2a23.4,23.4,0,0,0-1.6-7.5,19.1,19.1,0,0,0-4-6,19.7,19.7,0,0,0-5.8-4.1,17.4,17.4,0,0,0-6.9-1.4h-.3a20.5,20.5,0,0,0-7.4,1.7,19.6,19.6,0,0,0-6.1,4.6,21.1,21.1,0,0,0-4.2,6.7,23.1,23.1,0,0,0-1.5,8.3,19.5,19.5,0,0,0,.3,3.4c.2,1.1.5,2.1.8,3.2a25.5,25.5,0,0,0,1.3,2.9,22.6,22.6,0,0,0,1.6,2.6l-5.3.4-5.4.3-5.5.3-5.7.3c0-.1-.1-.8-.2-1.9s-.3-2.9-.5-5.2-.4-5.2-.6-8.7-.5-7.5-.8-12.2L119,117l-2.6,1a12.8,12.8,0,0,1-2.8.7,13.6,13.6,0,0,1-2.9.3H110a20.2,20.2,0,0,1-7-1.3,18.7,18.7,0,0,1-6.5-4,18.4,18.4,0,0,1-4.3-21.3,20.1,20.1,0,0,1,4.5-6,20.7,20.7,0,0,1,6.4-3.9,22.7,22.7,0,0,1,6.9-1.2h.7l2.6.3,2.4.5,2.3.8,2.1,1.1c-.1-2.4-.1-4.9-.2-7.5s-.1-5.3-.1-8-.1-5.6-.1-8.5,0-5.8-.1-8.8m0-2a1.9,1.9,0,0,0-1.3.5,2.3,2.3,0,0,0-.7,1.5c.1,3,.1,6,.1,8.8s.1,5.7.1,8.5.1,5.4.1,8,.1,2.9.1,4.3l-1.7-.6a26.1,26.1,0,0,0-2.7-.6l-2.8-.3H110a21.8,21.8,0,0,0-7.6,1.4A22.2,22.2,0,0,0,95.3,85a21.5,21.5,0,0,0-4.9,6.7,20.2,20.2,0,0,0-1.9,8.4,22.1,22.1,0,0,0,1.7,8.4,21.9,21.9,0,0,0,4.9,6.8,22.2,22.2,0,0,0,7.2,4.4,21.9,21.9,0,0,0,7.7,1.4h.8a16.6,16.6,0,0,0,3.2-.3l3-.8,2.5-1c.2,3.2.4,6.2.6,9.1s.4,6,.6,8.6.4,3.7.5,5.3.2,1.8.2,1.9a2.1,2.1,0,0,0,2,1.8h.1l5.7-.3,5.5-.3,5.5-.3,5.3-.4a1.9,1.9,0,0,0,1.7-1.2,1.9,1.9,0,0,0-.3-2,17.6,17.6,0,0,1-1.4-2.3,15.9,15.9,0,0,1-1.2-2.7,24.6,24.6,0,0,1-.7-2.9,15.3,15.3,0,0,1-.3-3,18.9,18.9,0,0,1,1.4-7.5,17.3,17.3,0,0,1,3.8-6.2,16.6,16.6,0,0,1,5.5-4,16.8,16.8,0,0,1,6.5-1.6h.3a14.2,14.2,0,0,1,6.1,1.3,15.2,15.2,0,0,1,5.2,3.6,16.2,16.2,0,0,1,3.5,5.4,19.3,19.3,0,0,1,1.5,6.8,28.3,28.3,0,0,1-.2,2.9,15.1,15.1,0,0,1-.5,2.8,16.1,16.1,0,0,1-.9,2.6,10.8,10.8,0,0,1-1.2,2.4,2,2,0,0,0,0,2.1,2.1,2.1,0,0,0,1.7,1h.2l4.5-.4,4.4-.5,4.3-.5,4.2-.5a1.9,1.9,0,0,0,1.7-1.8c0-.1.1-.7.2-1.7s.2-2.9.2-4.7.3-5,.4-7.7.1-4.9.1-7.6l1.4.6a12.5,12.5,0,0,0,2.6.7l2.2.2h.5a14.6,14.6,0,0,0,10.7-5.7,18.1,18.1,0,0,0,2.9-5.5,21.2,21.2,0,0,0,.8-6.7,21,21,0,0,0-1.4-6.5,17.4,17.4,0,0,0-3.3-5.4,15.1,15.1,0,0,0-4.9-3.9,14.1,14.1,0,0,0-6-1.6h-2.4l-2.2.5-.9.4c0-1.1,0-2.2-.1-3.3s-.1-4.6-.1-7-.1-4.9-.2-7.4l-.3-7.9a2,2,0,0,0-1.7-1.9l-3.2-.4-3.2-.5-3.3-.5-3.5-.4h-.2a2,2,0,0,0-1.4.6,2,2,0,0,0-.6,1.5l.4,12.2-9.9-.6-.3-13.3a2,2,0,0,0-1.8-1.9l-1.6-.2-1.5-.2h-1.6l-1.6-.2h-2.1l-2.1-.2-2.1-.2-2.2-.2h-.2a2.4,2.4,0,0,0-1.4.5,2.2,2.2,0,0,0-.6,1.5l.3,13.4-11.7-.7V52.1a2.1,2.1,0,0,0-1.9-2l-4-.2-4.2-.2-4.2-.2-4.3-.2Z" fill="#8e8e8d"/></g><line x1="58.8" y1="183.1" x2="158.4" y2="183.1" fill="#ebeae4" stroke="#8e8e8d" stroke-miterlimit="10" stroke-width="2"/><line x1="58.8" y1="193.1" x2="103.8" y2="193.1" fill="#ebeae4" stroke="#8e8e8d" stroke-miterlimit="10" stroke-width="2"/><circle cx="260.7" cy="40.7" r="23.7" fill="#8f0000"/><text transform="translate(250.4 50.9)" font-size="44.28" fill="#fff" font-family="LinLibertineB, Linux Libertine">ยง</text></svg>