<svg xmlns="http://www.w3.org/2000/svg" xmlns:xlink="http://www.w3.org/1999/xlink" viewBox="0 0 620 440"><defs><filter id="a" name="dropshadow"><feGaussianBlur stdDeviation="5" in="SourceAlpha"/><feOffset dx="2" dy="2"/><feComponentTransfer><feFuncA slope="0.3" type="linear"/></feComponentTransfer><feMerge><feMergeNode/><feMergeNode in="SourceGraphic"/></feMerge></filter><clipPath id="b"><path d="M354.3,170.1l16.9.5h.8l.8.2.8.3.7.5-17-.5-.7-.5-.8-.3-.8-.2Z" fill="none"/></clipPath><clipPath id="c"><path d="M372.2,191.9l-17,2.1.9-.2.9-.4.8-.5.8-.7,16.9-2a2.1,2.1,0,0,1-.8.6l-.8.5-.8.4Z" fill="none"/></clipPath><clipPath id="d"><path d="M377.6,188.5l16.5-1.7a8.2,8.2,0,0,0-3.9,1.3,10.7,10.7,0,0,0-3,3,13.8,13.8,0,0,0-1.8,4.1,19.3,19.3,0,0,0-.6,4.9,14.6,14.6,0,0,0,.3,2.2,15.5,15.5,0,0,0,.4,2.1c.2.7.5,1.3.7,2l.9,1.8-16.6,4.6a20,20,0,0,1-1-2.1c-.2-.8-.5-1.5-.7-2.3s-.3-1.6-.5-2.4a19.5,19.5,0,0,1-.2-2.5,20.5,20.5,0,0,1,.5-5.6,15.9,15.9,0,0,1,1.9-4.6,12,12,0,0,1,3-3.3A8.5,8.5,0,0,1,377.6,188.5Z" fill="none"/></clipPath><clipPath id="e"><path d="M405.4,193.2l14.8-2.7c0,3.7-.1,6.9-.1,9.6s-.2,4.8-.3,6.5a35.3,35.3,0,0,1-.2,3.9,7.3,7.3,0,0,1-.1,1.3l-14.9,6.3c0-.1.1-.7.2-1.7s.1-2.4.2-4.4.1-4.6.2-7.7S405.3,197.5,405.4,193.2Z" fill="none"/></clipPath><clipPath id="f"><path d="M404.1,135.9l15.1,5.7c.1,2.5.2,4.8.3,7.1s.1,4.6.2,6.7.1,4.3.2,6.4.1,4,.1,5.9l-14.9-1.3c0-2.2-.1-4.5-.2-6.9s-.1-4.9-.2-7.4l-.3-7.8Q404.3,140.3,404.1,135.9Z" fill="none"/></clipPath><clipPath id="g"><path d="M416.3,162.8l14,1.9a15.3,15.3,0,0,1,4.6,1.4,15.7,15.7,0,0,1,3.8,3,17.3,17.3,0,0,1,2.7,4.3,14.7,14.7,0,0,1,1.2,5.2,18.1,18.1,0,0,1-.7,5.2,14,14,0,0,1-2.2,4.4,15.2,15.2,0,0,1-3.4,3.3,13.6,13.6,0,0,1-4.3,1.8l-13.7,3.4a15.4,15.4,0,0,0,4.7-2.2,17.1,17.1,0,0,0,3.8-3.8,18.5,18.5,0,0,0,2.5-5.3,17.6,17.6,0,0,0,.7-6.1,18,18,0,0,0-1.3-6.2,18.5,18.5,0,0,0-3-5.1,17.9,17.9,0,0,0-4.3-3.5A13.4,13.4,0,0,0,416.3,162.8Z" fill="none"/></clipPath></defs><path d="M32.5,229.8c7.9-2.4,15.8-4.8,23.9-6.4A145.2,145.2,0,0,1,81,220.3h6.2c2.1,0,4.1.2,6.2.3s4.1.4,6.2.6l6.1.8,24.1,3.7c16,2.5,31.9,5.2,47.7,7.6s31.7,4.7,47.5,6.1v.2a460.9,460.9,0,0,1-48.4-3.2c-16.1-1.8-32.2-4.2-48.2-6.7l-24-3.9c-4-.6-8-1.3-11.9-1.7l-3-.2-3-.2-6-.2a177.7,177.7,0,0,0-24.1,1.8c-8,1.2-15.9,2.9-23.9,4.7Z" fill="#9b9b9a"/><path d="M144.7,242.8c41.4-3.4,68.9-21.4,107.8-31.3,60.2-15.3,88.3,31.3,105.2,27.9" fill="#ebeae4"/><path d="M357.7,239.4a13.4,13.4,0,0,1-7.1-.7,35.4,35.4,0,0,1-6.6-3c-4.2-2.3-8.2-4.8-12.3-7.3a134.4,134.4,0,0,0-25.1-12.7,84.6,84.6,0,0,0-27.2-5.2,78.2,78.2,0,0,0-13.7.7c-2.3.2-4.6.7-6.9,1l-3.3.8a20.9,20.9,0,0,0-3.4.8c-9,2.3-17.9,5.2-26.6,8.2s-17.5,6.4-26.4,9.4a248.5,248.5,0,0,1-26.8,7.7,160.6,160.6,0,0,1-27.6,3.7v-.3a168.1,168.1,0,0,0,27.4-5.4,274.8,274.8,0,0,0,26.5-8.9c8.8-3.3,17.4-6.9,26.3-10.1a273.6,273.6,0,0,1,27-8.6A94.5,94.5,0,0,1,266,207c2.4-.3,4.8-.4,7.2-.5h7.2a74.8,74.8,0,0,1,14.2,2,91.2,91.2,0,0,1,13.7,4.4c8.9,3.6,17,8.6,24.8,14,3.9,2.6,7.7,5.4,11.7,7.8a40.2,40.2,0,0,0,6.1,3.3,13.4,13.4,0,0,0,6.8,1.1Z" fill="#9b9b9a"/><path d="M312.7,224.4c-12.5-2.8-24.7-5.9-36.8-6.1s-24.1,2.9-36,6.1v-.2a105.5,105.5,0,0,1,17.3-7.3,61.2,61.2,0,0,1,19-2.8,70.7,70.7,0,0,1,18.9,3.3,140.4,140.4,0,0,1,17.7,6.8Z" fill="#ccc"/><path d="M322.3,230.8c-11.5-2.3-22.8-4-33.9-4.2a138.6,138.6,0,0,0-33.3,3.5v-.2a87.1,87.1,0,0,1,16.4-5.3,77.5,77.5,0,0,1,17.3-1.7c11.6.3,23,3.3,33.6,7.7Z" fill="#ccc"/><path d="M331.9,237.1a301.3,301.3,0,0,0-31.1-2.2,238.5,238.5,0,0,0-30.5.8v-.2a97.7,97.7,0,0,1,30.9-3.7,111,111,0,0,1,30.8,5.1Z" fill="#ccc"/><path d="M341.5,243.4c-9.6.2-19,.1-28.4-.3s-18.5-1.1-27.7-1.8h0a202.5,202.5,0,0,1,28.1-.7,241.4,241.4,0,0,1,28,2.8Z" fill="#ccc"/><path d="M351,249.7a8.1,8.1,0,0,1-3.1,1l-3.2.5c-2.1.2-4.3.4-6.4.4-4.3.2-8.6,0-12.9-.2s-8.4-.8-12.6-1.5a57.3,57.3,0,0,1-12.2-3h0a104.2,104.2,0,0,0,12.5,1.6l12.7.9,12.6.7,6.3.2h3.2a8.1,8.1,0,0,0,3.1-.5Z" fill="#ccc"/><path d="M251.6,256c47-5.2,61.4-29.6,105.1-47.5,34.1-14,74.9.3,91.8,12.2,14.9,10.5,34.9,28.8,60.2,29.2" fill="#ebeae4"/><path d="M508.7,249.9a58.8,58.8,0,0,1-17.7-2.6,88.7,88.7,0,0,1-16.4-7.2,147.6,147.6,0,0,1-15-9.7l-7.2-5.1c-2.4-1.7-4.8-3.5-7.2-5a111.8,111.8,0,0,0-15.6-7.5,122.2,122.2,0,0,0-16.6-5.1,109.8,109.8,0,0,0-34.2-2.5c-2.9.3-5.7.8-8.5,1.3a83,83,0,0,0-8.2,2.2,65.8,65.8,0,0,0-8,3.1l-3.9,1.7-3.9,1.8a306.9,306.9,0,0,0-30.2,16.9c-5,3-10,6-15,8.8a141.3,141.3,0,0,1-15.8,7.4,115.3,115.3,0,0,1-33.7,7.6v-.2a124.9,124.9,0,0,0,33.4-9.4c10.6-4.6,20.3-11,30-17.3a270.6,270.6,0,0,1,30.4-17.7c2.7-1.4,5.4-2.5,8.1-3.7l4.1-1.7,4.2-1.5a76.3,76.3,0,0,1,17.6-3.5,106.3,106.3,0,0,1,35.5,3.2,110.4,110.4,0,0,1,16.8,5.6,96.1,96.1,0,0,1,15.9,8.3c4.9,3.4,9.4,7.1,14.1,10.6a158,158,0,0,0,14.3,9.9,86.4,86.4,0,0,0,15.6,7.6,58.5,58.5,0,0,0,17.1,3.5Z" fill="#9b9b9a"/><path d="M451.1,224.9a160.9,160.9,0,0,1,38.6-.8c12.8,1.2,25.3,3.4,37.8,5s25,2.8,37.4,3.4,24.9.4,37.4.2v.2a319,319,0,0,1-37.9,2.8,284.3,284.3,0,0,1-38-2.6c-12.6-1.6-25-4.1-37.5-5.9a216.8,216.8,0,0,0-37.8-2.1Z" fill="#9b9b9a"/><path d="M451.1,268c-9.6.5-19.2,1.4-28.7,2.8a270.7,270.7,0,0,0-28.2,5.7c-9.2,2.3-18.4,5.1-27.5,7.8s-18.3,5.2-27.7,7a122.2,122.2,0,0,1-28.3,1.9,131.4,131.4,0,0,1-27.9-4.8c-18.1-5.1-35.2-13.1-51.6-21.8h0c16.8,8.5,34.2,16.3,52.4,21.2a132.9,132.9,0,0,0,27.9,4.4,121.5,121.5,0,0,0,28.2-2.1c9.3-1.8,18.4-4.4,27.5-7s18.2-5.3,27.5-7.6a265.3,265.3,0,0,1,28-5.2,269.5,269.5,0,0,1,28.4-2.3Z" fill="#ccc"/><path d="M433.3,260.9c-8.3.7-16.6,1.6-24.7,3a246,246,0,0,0-24.1,5.2c-8,2.1-15.8,4.5-23.7,6.8A212.8,212.8,0,0,1,337,282a105.3,105.3,0,0,1-24.4,1.9,114,114,0,0,1-24.1-3.6c-15.7-4.1-30.6-10.5-44.9-17.7h0c14.7,6.9,29.9,13,45.7,16.8a121.5,121.5,0,0,0,24,3.2,109.5,109.5,0,0,0,24.2-2.1c7.9-1.5,15.8-3.7,23.6-6s15.7-4.6,23.6-6.6,16-3.5,24.1-4.7,16.3-1.9,24.5-2.3Z" fill="#ccc"/><path d="M415.4,253.9a250.1,250.1,0,0,0-40.7,7.8c-13.3,3.7-26.2,8.5-39.7,11.1a95.1,95.1,0,0,1-20.6,1.8,99.7,99.7,0,0,1-20.3-2.5c-13.3-2.9-25.9-7.8-38.1-13.4h0c6.4,2.5,12.7,5,19.2,7.1a162.9,162.9,0,0,0,19.7,5.2,100,100,0,0,0,40.3.1c6.7-1.3,13.2-3.2,19.8-5.1s13.1-3.9,19.8-5.6a223.1,223.1,0,0,1,40.6-6.5Z" fill="#ccc"/><path d="M397.5,246.8a253.2,253.2,0,0,0-32.6,7.6c-10.6,3.1-21.1,7-32,9.2l-4.2.7-4.1.5-2.1.3h-6.2a29.5,29.5,0,0,1-4.2-.1L308,265l-2.1-.2-2-.3-4.1-.5c-10.9-1.9-21.3-5.4-31.4-9.3h0c10.5,3.3,21.1,6.3,32,7.8l4,.5,4.1.3,4.1.2h4.1a71.7,71.7,0,0,0,8.1-.7l4.1-.5,4-.8c10.8-2.1,21.2-5.8,31.9-8.6a202.5,202.5,0,0,1,32.7-6.1Z" fill="#ccc"/><path d="M379.7,239.7c-8.4,2.1-16.5,4.6-24.6,7.4s-16,5.6-24.4,7.3a80.5,80.5,0,0,1-25.4,1.3,134.8,134.8,0,0,1-24.5-5h0a193.1,193.1,0,0,0,24.9,3.3,93.5,93.5,0,0,0,24.8-2c8.2-1.7,16.2-4.4,24.3-6.7a216.2,216.2,0,0,1,24.8-5.6Z" fill="#ccc"/><path d="M361.8,232.7c-5.5,2.4-11,4.8-16.5,7a112.7,112.7,0,0,1-17,5.6,88.1,88.1,0,0,1-17.6,2.1,127.4,127.4,0,0,1-17.5-.7h0c11.7-.7,23.4-1.4,34.7-4.1,5.7-1.3,11.3-3,16.9-4.8s11.3-3.6,17-5.2Z" fill="#ccc"/><path d="M344,225.6a30,30,0,0,1-8.5,6.9,46.2,46.2,0,0,1-10.1,3.8c-3.4,1-6.7,1.9-10,3s-6.5,2.3-9.8,3.5v-.2a65.4,65.4,0,0,1,9.1-5.6,50.9,50.9,0,0,1,10.1-3.7c3.4-1,6.7-1.8,9.9-3a47.4,47.4,0,0,0,9.2-4.8Z" fill="#ccc"/><path d="M442.3,225.6a93.2,93.2,0,0,0-11.3-3.7l-5.7-1.3-5.7-1a223.9,223.9,0,0,0-23-2.3,183.6,183.6,0,0,0-45.6,3.4v-.2c14.5-5.8,30.4-8,46.1-7.3a109.2,109.2,0,0,1,23.4,3.4,75.6,75.6,0,0,1,21.9,8.8Z" fill="#ccc"/><path d="M459.9,233.4a281.1,281.1,0,0,0-42.1-6.1,207.4,207.4,0,0,0-41.7.9V228a118.3,118.3,0,0,1,42.3-4.3,136.1,136.1,0,0,1,41.7,9.6Z" fill="#ccc"/><path d="M477.5,241.3c-13-1.4-25.8-2.9-38.5-4a370.5,370.5,0,0,0-37.9-1.5v-.2a154.8,154.8,0,0,1,38.5-1.4,234.9,234.9,0,0,1,38,6.9Z" fill="#ccc"/><path d="M495.2,249.1c-11.8-.2-23.5-.9-35-1.8s-22.9-2.1-34.1-4h0c11.5.2,23.1.6,34.6,1.6s23,2.3,34.5,4.2Z" fill="#ccc"/><path d="M512.8,257c-10.6.3-21,.5-31.5.1a100.5,100.5,0,0,1-15.5-1.5,63.3,63.3,0,0,1-14.7-4.8h.1a85.7,85.7,0,0,0,15,3.4c5.1.6,10.3.7,15.5.9,10.3.4,20.7.9,31.1,1.9Z" fill="#ccc"/><g filter="url(#a)"><g style="isolation:isolate"><g style="isolation:isolate"><g clip-path="url(#b)"><g style="isolation:isolate"><path d="M354.3,170.1l16.9.5h.8l.8.2.8.3.7.5-17-.5-.7-.5-.8-.3-.8-.2h-.7" fill="#b6b6b6"/></g></g></g><g style="isolation:isolate"><g clip-path="url(#c)"><g style="isolation:isolate"><path d="M358.6,192.2l16.9-2a2.1,2.1,0,0,1-.8.6l-.8.5-.8.4-.9.2-17,2.1.9-.2.9-.4.8-.5.8-.7" fill="#b6b6b6"/></g></g></g><polygon points="363.8 146.4 380.8 149.7 381.2 160 364.3 158 363.8 146.4" fill="#adadad"/><g style="isolation:isolate"><g clip-path="url(#d)"><g style="isolation:isolate"><path d="M377.6,188.5l16.5-1.7a8.2,8.2,0,0,0-3.9,1.3,10.7,10.7,0,0,0-3,3,13.8,13.8,0,0,0-1.8,4.1,19.3,19.3,0,0,0-.6,4.9,14.6,14.6,0,0,0,.3,2.2,15.5,15.5,0,0,0,.4,2.1c.2.7.5,1.3.7,2l.9,1.8-16.6,4.6a20,20,0,0,1-1-2.1c-.2-.8-.5-1.5-.7-2.3s-.3-1.6-.5-2.4a19.5,19.5,0,0,1-.2-2.5,20.5,20.5,0,0,1,.5-5.6,15.9,15.9,0,0,1,1.9-4.6,12,12,0,0,1,3-3.3,8.5,8.5,0,0,1,4.1-1.5" fill="#b6b6b6"/></g></g></g><polygon points="381.5 141.2 398 145.6 398.4 157.2 382.1 154.5 381.5 141.2" fill="#adadad"/><g style="isolation:isolate"><g clip-path="url(#e)"><g style="isolation:isolate"><path d="M405.4,193.2l14.8-2.7c0,3.7-.1,6.9-.1,9.6s-.2,4.8-.3,6.5a35.3,35.3,0,0,1-.2,3.9,7.3,7.3,0,0,1-.1,1.3l-14.9,6.3c0-.1.1-.7.2-1.7s.1-2.4.2-4.4.1-4.6.2-7.7.1-6.8.2-11.1" fill="#b6b6b6"/></g></g></g><g style="isolation:isolate"><g clip-path="url(#f)"><g style="isolation:isolate"><path d="M404.1,135.9l15.1,5.7c.1,2.5.2,4.8.3,7.1s.1,4.6.2,6.7.1,4.3.2,6.4.1,4,.1,5.9l-14.9-1.3c0-2.2-.1-4.5-.2-6.9s-.1-4.9-.2-7.4l-.3-7.8q-.1-4.1-.3-8.4" fill="#b6b6b6"/></g></g></g><g style="isolation:isolate"><g clip-path="url(#g)"><g style="isolation:isolate"><path d="M416.3,162.8l14,1.9a15.3,15.3,0,0,1,4.6,1.4,15.7,15.7,0,0,1,3.8,3,17.3,17.3,0,0,1,2.7,4.3,14.7,14.7,0,0,1,1.2,5.2,18.1,18.1,0,0,1-.7,5.2,14,14,0,0,1-2.2,4.4,15.2,15.2,0,0,1-3.4,3.3,13.6,13.6,0,0,1-4.3,1.8l-13.7,3.4a15.4,15.4,0,0,0,4.7-2.2,17.1,17.1,0,0,0,3.8-3.8,18.5,18.5,0,0,0,2.5-5.3,17.6,17.6,0,0,0,.7-6.1,18,18,0,0,0-1.3-6.2,18.5,18.5,0,0,0-3-5.1,17.9,17.9,0,0,0-4.3-3.5,13.4,13.4,0,0,0-5.1-1.7" fill="#b6b6b6"/></g></g></g><path d="M377.4,142.3l1-.3,1-.3,1.1-.3,1-.2.6,13.3,10.6-2.1-.6-13.9,2.9-.6,3-.7,3-.6,3.1-.7q.1,4.3.3,8.4l.3,7.8c.1,2.5.2,5,.2,7.4s.2,4.7.2,6.9a10.9,10.9,0,0,1,1.7-1.3,11.8,11.8,0,0,1,1.9-1.1l2-.8,2.2-.4a14,14,0,0,1,6.1.6,15.1,15.1,0,0,1,5.4,3.3,17.1,17.1,0,0,1,3.9,5.5,18.1,18.1,0,0,1,1.7,7.1,19.1,19.1,0,0,1-1,7.2,17,17,0,0,1-3.5,5.8,14,14,0,0,1-5.1,3.6,13.6,13.6,0,0,1-6,1.1,11.5,11.5,0,0,1-2.6-.3l-2.3-.8-2.2-1.2-1.9-1.5c-.1,4.3-.1,8-.2,11.1s-.1,5.7-.2,7.7-.2,3.4-.2,4.4-.2,1.6-.2,1.7l-3.9-.5-3.7-.5-3.7-.5-3.4-.5,1-2.1c.2-.8.5-1.6.7-2.4a20.2,20.2,0,0,0,.4-2.6,14,14,0,0,0,0-2.9,22.8,22.8,0,0,0-1.3-6.9,23.9,23.9,0,0,0-3.1-5.7,14.9,14.9,0,0,0-4.3-3.7,9.2,9.2,0,0,0-4.8-1.4,8.3,8.3,0,0,0-4.4,1.2,10.4,10.4,0,0,0-3.3,3.3,17.5,17.5,0,0,0-2.1,4.8,18.2,18.2,0,0,0-.6,5.8,19.5,19.5,0,0,0,.2,2.5c.2.8.3,1.6.5,2.4s.5,1.5.7,2.3a20,20,0,0,0,1,2.1l-2.8-.5-2.6-.5-2.5-.6-2.5-.5a10.3,10.3,0,0,0-.1-1.3c-.1-.7-.2-1.9-.3-3.4s-.3-3.4-.5-5.7-.4-5-.6-8.1a3.9,3.9,0,0,1-1,.8l-1,.6-1,.3h-1.2a4.5,4.5,0,0,1-2.8-1.1,7.9,7.9,0,0,1-2.3-2.5,13.8,13.8,0,0,1-1.6-3.7,20.2,20.2,0,0,1-.7-4.4,16.4,16.4,0,0,1,.4-4.5,10.8,10.8,0,0,1,1.3-3.7,7.3,7.3,0,0,1,2.1-2.7,4.9,4.9,0,0,1,2.7-1.3h1l1,.2.9.4.9.5c-.1-1.6-.2-3.3-.2-5.1s-.2-3.5-.3-5.4-.2-3.7-.2-5.7l-.3-6.1,1.8-.6,1.9-.7,1.9-.6,1.9-.6.5,11.6,8.3-1.6-.5-12.6,1.3-.4,1.3-.4,1.3-.3Z" fill="#fff" stroke="#c6c6c5" stroke-miterlimit="10"/></g></g><path d="M190.4,418.9c-.4-12.7-.8-20-.8-20,11.2,7.4,4.7,6.3,12.3,7.1s19.8-16,23.1-33.8a3.3,3.3,0,0,0-.9-2.7A43.8,43.8,0,0,1,229,362c3.5-4.1,3.8-8.4,3.9-15.9s-.5-15.5-.5-15.5L223.5,349a3.2,3.2,0,0,1-3.4-2.9c-.5-3.1,3.4-12.5-3.3-12.9,0,0-5.4,12.9-4.2,17.7a38.5,38.5,0,0,1,.8,13.1c-1.7-.2-3.1-.1-3.6.6a42.3,42.3,0,0,0-5.5,11.2c-6.5-11.2-9.8-25.5-23.3-42.6-2.4-3.1-6.3-4.6-16.6-6.4-.3-3.1.6-6.5,1.6-9.7,4.6,0,10.2-1,13.5-5,1.8-2.1,2.2-8.8,1.1-16.2l.2.9a17.6,17.6,0,0,1,3.1-5c2.3-2.7-2.2-3.1-7-8.9a41,41,0,0,0-6.7-10.2,25,25,0,0,0,.1-7.2c-.8-4.8-14.2-8.2-25.5-5.3-1.7.4-19.6,5.3-23.1,21.9a27.4,27.4,0,0,0,2.9,18.5c-5.4,2.5-9.6,5.8-11.4,12.1s3.9,10.9,4.2,19.5c.3,11.6-6.3,23.6-6.3,23.6a14.4,14.4,0,0,0,4.8-2.3l.4-.3c-.1.7-.3,1.3-.4,1.9-1.3,2.6-4.1,6.9-4.1,6.9l2.6-.3c-2.2,12.2-1.5,20.3,3.1,23.7a12.9,12.9,0,0,0,7.8,2.5c0,10.7,1,19.6,1,30.3m.6-98.3,1.4,6.4A18.5,18.5,0,0,1,126.9,319.9Zm1.9,8c3-3,5.6-9.3,5.9-15.7a18.9,18.9,0,0,0,6.8,3.4c1.8,4.6,1.4,7.5,0,10.2a53,53,0,0,0-11.6,5.2C129.5,330,129.1,328.9,128.8,327.9Z" fill="#ebeae4" stroke="#8e8e8d" stroke-linecap="round" stroke-miterlimit="10" stroke-width="6"/><polygon points="221.7 314 204.2 304.1 184.6 319.7 168.1 310.5 148.5 373.2 163.4 378.3 176.6 370 191.4 378.3 209.8 370.3 243.1 304.7 221.7 314" fill="#c6c6c5" stroke="#8e8e8d" stroke-linejoin="round" stroke-width="4"/><line x1="221.7" y1="314" x2="191.4" y2="378.3" fill="#c6c6c5" stroke="#8e8e8d" stroke-linecap="round" stroke-linejoin="round" stroke-width="2"/><line x1="204.2" y1="304.1" x2="176.6" y2="370" fill="#c6c6c5" stroke="#8e8e8d" stroke-linecap="round" stroke-linejoin="round" stroke-width="2"/><line x1="184.6" y1="319.7" x2="163.4" y2="378.3" fill="#c6c6c5" stroke="#8e8e8d" stroke-linecap="round" stroke-linejoin="round" stroke-width="2"/><path d="M176.1,281.9c5.1,6.8,10.3,7,7.8,9.9a17.6,17.6,0,0,0-3.1,5" fill="#ebeae4" stroke="#8e8e8d" stroke-linecap="round" stroke-miterlimit="10" stroke-width="2"/><path d="M216.8,333.2s-5.4,12.9-4.2,17.7a38.7,38.7,0,0,1,.1,17.1l9,6.1s3.4-7.5,7.3-12.1,3.8-8.4,3.9-15.9-.5-15.5-.5-15.5L223.5,349a3.2,3.2,0,0,1-3.4-2.9C219.6,343,223.5,333.6,216.8,333.2Z" fill="#ebeae4" stroke="#8e8e8d" stroke-linecap="round" stroke-miterlimit="10" stroke-width="2"/><path d="M138.1,330.7c3.8-5.1,6.6-8.1,2.8-16.7a61.2,61.2,0,0,0-8.9-14.5l34.5-3.1s1.3,14.8-.2,19.7-3.2,10.3-.7,14.6S138.1,330.7,138.1,330.7Z" fill="#ebeae4" stroke="#8e8e8d" stroke-miterlimit="10" stroke-width="2"/><path d="M133.7,301.7c-11.2-12.5-4.8-23.6,2.2-29.6s20.7-8.8,28.6-4.2c2.9,1.7,10.1,7.7,13.6,18.1s4,23,1.4,26.1c-6.2,7.5-20.2,4.4-21.4,4" fill="#ebeae4" stroke="#8e8e8d" stroke-linecap="round" stroke-miterlimit="10" stroke-width="2"/><path d="M190.4,418.9c-.4-12.7-.8-20-.8-20,11.2,7.4,4.7,6.3,12.3,7.1s19.8-16,23.1-33.8c.9-4.6-13.2-10.3-15.2-7.6a42.3,42.3,0,0,0-5.5,11.2c-6.5-11.2-9.8-25.5-23.3-42.6-2.7-3.4-7-4.9-19.5-6.9a111.1,111.1,0,0,0-16.4-1.3c-2.4,0-22.2,5.9-25.9,18-7,22.8-8.3,37.5-1.7,42.4a12.9,12.9,0,0,0,7.8,2.5c0,10.7,1,19.6,1,30.3" fill="#ebeae4" stroke="#8e8e8d" stroke-linecap="round" stroke-miterlimit="10" stroke-width="2"/><path d="M170.3,265.5c-.8-4.8-14.2-8.2-25.5-5.3-1.7.4-19.6,5.3-23.1,21.9-2.8,13.2,5.8,23.2,6.9,24.5s10.2,11.5,19,8.9c7-2.1,10.4-6.4,10.3-13s-6.2-7.9-1.2-9.6C169.1,288.6,171.3,271,170.3,265.5Z" fill="#ebeae4" stroke="#8e8e8d" stroke-miterlimit="10" stroke-width="2"/><path d="M126.3,299.9c-6.3,2.5-11.1,5.8-13.1,12.8s3.9,10.9,4.2,19.5c.3,11.6-6.3,23.6-6.3,23.6a14.4,14.4,0,0,0,4.8-2.3c2.5-1.9-4.1,8.5-4.1,8.5s16.1-1.1,20-11.4-5.2-24.7-4.9-30.7l1.7,8.2c4.2-4,7.6-14.4,5.4-22.7" fill="#ebeae4" stroke="#8e8e8d" stroke-linecap="round" stroke-miterlimit="10" stroke-width="2"/><path d="M368.7,412c0-2.8-.5-9.3-1.1-17.6a31.8,31.8,0,0,0,11.5-12.6c4-8,.8-11.1,1.3-32.2.1-1.9.1-3.6.2-5.2a7,7,0,0,0,1.5-3.2c.6-15.4.4-24.1-11.2-31.5.2-1.4.4-2.9.6-4.6a130.6,130.6,0,0,0,.9-28.9,4,4,0,0,0-1.4-2.6l1.7-2.7s4.7-10,4-12.3c-1.3-4.5-2-7.4-3.6-7.5a6.1,6.1,0,0,1-3.2-1.9s4.8-8.5,4.4-11.7a3,3,0,0,0-1.8-2.5s-5.8,7.8-9,12.8c-1,1.6-3.9,2.2-5.9,3.3s-3.2,8.7-2.5,12.3,1.1,5.6,1.7,8.8a2.6,2.6,0,0,0-1.9,2.3c.2,6.7.2,6.1-1.2,16a39.8,39.8,0,0,1-1.9,7.9,16.3,16.3,0,0,0-5.7,1.8h0l-2,1a3.4,3.4,0,0,1,2.1,1.9c-1.5-.8-3.1-1.2-4.5-3.4a20.7,20.7,0,0,1-1.9-3.4c5.3-3.5,5.8-7.3,7.8-10.3,5.7-8.7,3.6-24.7-7.4-32.9-9.5-7.2-15.4-6.8-24.6-5.2-21.4,3.5-22.3,18.8-21,28.7a55.7,55.7,0,0,1,5.5-1.7c-.2,1.2-.3,2.4-.5,3.8a61.7,61.7,0,0,0-.5,9,33.8,33.8,0,0,0,2.6,13.3c1.8,4.4,5.4,13.1,12.7,14.3a13.5,13.5,0,0,0,8.6-1.8,18.2,18.2,0,0,1,0,3.3c-.1.5-.1.9-.2,1.3a7.9,7.9,0,0,0-3.9,2l-6.5,4.8h.1c-3.5,2.7-5.6,4.1-6,4.7-7.2,10.8-6.1,17.4-12.6,35-1.9,4.9-2.9,9.2-3.2,9.1s3.2-9.1,3.2-9.1c-1.8-4.3-2.1-3.1-4.7-7-.1-.2-.3-.3-.5-.5a22,22,0,0,0,0-8.9c-1.4-6.8.3-18.6-2-18.6-5.9,0-2.5,11.4-7.3,12.9-1.4.4-4.3-2.7-10.2-15.4a43.3,43.3,0,0,0-1.3,15.9c.4,4.7,3.7,7.7,7.6,16.9-1.3,1-2,2.1-1.8,3.4,1.1,6.9.8,5.9,8.3,25.2,4.5,11.4,12.8,16.1,17.8,14.5l.9-.5c.9,6.2,3.3,11.1,6.5,12.5m32.3-119.5.2-.3v.8C339.6,295.8,339.5,295.7,339.5,295.5Z" fill="#ebeae4" stroke="#8e8e8d" stroke-linecap="round" stroke-miterlimit="10" stroke-width="6"/><path d="M286.2,359.3a2.2,2.2,0,0,1-1.9-1.2l-17.2-39.7a2.2,2.2,0,0,1,0-1.6,1.8,1.8,0,0,1,1-1.1l17.6-7.6.8-.2a2,2,0,0,1,1.8,1.2l17.3,39.7a2.2,2.2,0,0,1,0,1.6,2.2,2.2,0,0,1-1,1.1L287,359.1Z" fill="#c6c6c5"/><path d="M286.5,309.9l17.3,39.7-17.6,7.7-17.3-39.7,17.6-7.7m0-4a3.2,3.2,0,0,0-1.6.4l-17.6,7.6a4,4,0,0,0-2,5.3l17.2,39.7a4,4,0,0,0,3.7,2.4,3.2,3.2,0,0,0,1.6-.4l17.6-7.6a4.1,4.1,0,0,0,2.1-2.2,4.2,4.2,0,0,0-.1-3.1l-17.2-39.7a5,5,0,0,0-2.2-2.1,4,4,0,0,0-1.5-.3Z" fill="#8e8e8d"/><path d="M269.2,327.1a43.3,43.3,0,0,0-1.3,15.9c.5,5.1,4.3,8.2,8.6,19.3,1.8,4.7,11.2-.8,12-3.9a24.1,24.1,0,0,0,.2-10.2c-1.4-6.8.3-18.6-2-18.6-5.9,0-2.5,11.4-7.3,12.9C278,342.9,275.1,339.8,269.2,327.1Z" fill="#ebeae4" stroke="#8e8e8d" stroke-miterlimit="10" stroke-width="2"/><path d="M367.7,279l5-8.1s4.7-10,4-12.3c-1.3-4.5-2-7.4-3.6-7.5a6.1,6.1,0,0,1-3.2-1.9s4.8-8.5,4.4-11.7a3,3,0,0,0-1.8-2.5s-5.8,7.8-9,12.8c-1,1.6-3.9,2.2-5.9,3.3s-3.2,8.7-2.5,12.3,1.8,9,2.5,13.1" fill="#ebeae4" stroke="#8e8e8d" stroke-miterlimit="10" stroke-width="2"/><path d="M349.3,303.8a39.4,39.4,0,0,0,4.4-13.3c1.4-9.9,1.4-9.3,1.2-16-.2-4.7,17.1-4.5,17.5,1.7a130.6,130.6,0,0,1-.9,28.9c-1.4,10.9-2.2,13.8-2.6,19.7" fill="#ebeae4" stroke="#8e8e8d" stroke-miterlimit="10" stroke-width="2"/><path d="M307.2,415c-4.9-2.2-8-12.6-6.6-23.6s5-29.4,6.8-48.9l58.4-18.8c-3.2,21.4,2.7,78.2,2.9,88.3" fill="#ebeae4" stroke="#8e8e8d" stroke-miterlimit="10" stroke-width="2"/><path d="M348.2,304.7c-2-2.5-4.5-1.8-6.5-5-5.2-7.9-.6-8.1-2.8-9.8s-16.8,3.2-18.3,11.5c-1,5.1,3.1,7.5,2.4,15.4-.5,5.1-2.4,6.3-1.3,8.2,2.5,4.7,18.8,5.3,25.4-3.8C350.5,316.5,351.4,308.8,348.2,304.7Z" fill="#ebeae4" stroke="#8e8e8d" stroke-miterlimit="10" stroke-width="2"/><path d="M342.1,291.6c3.4-6.9,4.1-10.3.9-19.6-.8-2.3-4.5-11.8-14.5-14.7s-23.7,3.9-27.2,11.6c-.9,2.1-1.1,5.1-1.7,9.8a61.7,61.7,0,0,0-.5,9,33.8,33.8,0,0,0,2.6,13.3c1.8,4.4,5.4,13.1,12.7,14.3s11-3.1,14.4-5.8a25.6,25.6,0,0,0,4.6-4.7" fill="#ebeae4" stroke="#8e8e8d" stroke-linecap="round" stroke-miterlimit="10" stroke-width="2"/><path d="M368.7,314c0-9.9-3.9-13.7-11-15.3-3-.6-9.9.1-13.6,2.5,0,0,3.8,1.1,1.7,5.8-3.1,6.7-15.5,10.6-17.1,10.9-4.9.9-5.7-1.1-9.8,2.2-7.3,5.8-11.8,8.6-12.4,9.5-7.2,10.8-6.1,17.4-12.6,35-1.9,4.9-2.9,9.2-3.2,9.1s3.2-9.1,3.2-9.1c-1.8-4.3-2.1-3.1-4.7-7s-16.4.6-15.5,5.7c1.1,6.9.8,5.9,8.3,25.2,4.5,11.4,12.8,16.1,17.8,14.5s10-18.6,15.2-31c3.7-8.8,5.5-14.4,7.6-16.8" fill="#ebeae4" stroke="#8e8e8d" stroke-miterlimit="10" stroke-width="2"/><path d="M294.6,276.6c-1.3-9.9-.4-25.2,21-28.7,9.2-1.6,15.1-2,24.6,5.2,11,8.2,13.1,24.2,7.4,32.9-2,3-2.5,6.9-8,10.4,0,0,1.3-7-8.3-9.2-6-1.4-1.2-11,.8-15.8-4.7,3.3-5.7,4.9-17.5,3.6C309.3,274.4,304.2,272.9,294.6,276.6Z" fill="#ebeae4" stroke="#8e8e8d" stroke-miterlimit="10" stroke-width="2"/><path d="M305.7,292.8c-.4,2.9,3,3.7,3,3.7" fill="#ebeae4" stroke="#8e8e8d" stroke-linecap="round" stroke-miterlimit="10" stroke-width="2"/><path d="M318.9,320.1c7.1-4.6,17.1,1.7,19.5,1.2,7.5-1.6,13.5-6.9,14-10.8s-.7-8.1-6.3-10.3c0,0,4.9-2.7,8-1.5s10,6.1,10.3,10.1,4.3,32.4,4.3,32.4l-39.1,17.9s-.3-19.7-3-26.5-7.2-7.8-14.2-7.7Z" fill="#ebeae4" stroke="#8e8e8d" stroke-linecap="round" stroke-miterlimit="10" stroke-width="2"/><path d="M365.8,307.3c-6-1.3-11.2,1.8-18,6s-13.2,8-17.4,16.7c-3.1,6.3-2.2,10.4-.8,29.1,2.5,30.9,1.3,35.4,6.2,39.1,9.2,6.9,25-.3,26.8-1.2s11.7-5.5,16.5-15.2c4-8,.8-11.1,1.3-32.2.4-16.4,2.5-19.6-.5-27.2C378.8,319.8,374.7,309.4,365.8,307.3Z" fill="#ebeae4" stroke="#8e8e8d" stroke-miterlimit="10" stroke-width="2"/><path d="M334.5,332.2c23.2,6.6,15.5,25.5,22.2,25.4,8.5-.2,25.2-11,25.4-16.4.6-16,.4-24.8-12.6-32.4" fill="#ebeae4" stroke="#8e8e8d" stroke-linecap="round" stroke-miterlimit="10" stroke-width="2"/></svg>