<svg xmlns="http://www.w3.org/2000/svg" viewBox="0 0 300 225"><path d="M259.9,128.3a32.6,32.6,0,0,0-33.7-31.6,14,14,0,0,0-2.9,0A63.8,63.8,0,0,0,104.2,66.5a48.9,48.9,0,1,0-15.3,95.4H228.3A32.6,32.6,0,0,0,259.9,128.3Z" fill="#ebeae4" stroke="#8e8e8d" stroke-linecap="round" stroke-miterlimit="10" stroke-width="4"/><path d="M182.7,161.9h45.6a32.7,32.7,0,1,0-2.1-65.3,14,14,0,0,0-2.9,0" fill="#ebeae4" stroke="#8e8e8d" stroke-linecap="round" stroke-linejoin="round" stroke-width="2"/><path d="M104.2,66.5A63.8,63.8,0,0,1,223.3,98.1a59,59,0,0,1-2.3,17.2" fill="#ebeae4" stroke="#8e8e8d" stroke-linecap="round" stroke-linejoin="round" stroke-width="2"/><path d="M119.9,75.1a48.9,48.9,0,1,0-31,86.8h26.8" fill="#ebeae4" stroke="#8e8e8d" stroke-linecap="round" stroke-linejoin="round" stroke-width="2"/><polygon points="174.7 200.1 174.7 178.2 196.6 178.2 154.4 120.4 112.2 178.2 134.1 178.2 134.1 200.1 174.7 200.1" fill="#8f0000" stroke="#fff" stroke-miterlimit="10" stroke-width="3"/></svg>