<svg xmlns="http://www.w3.org/2000/svg" viewBox="0 0 300 225"><polyline points="23.4 204.3 23.4 19.3 282.4 19.3 282.4 204.3" fill="#ebeae4" stroke="#8e8e8d" stroke-linecap="round" stroke-miterlimit="10" stroke-width="4"/><rect x="77.8" y="44.5" width="196" height="159.77" fill="#fff"/><rect x="192.4" y="26.9" width="81.3" height="10.52" fill="#fff"/><circle cx="49.8" cy="47.3" r="17" fill="#fff"/><line x1="32.7" y1="89" x2="66.8" y2="89" fill="none" stroke="#fff" stroke-miterlimit="10" stroke-width="2"/><line x1="32.7" y1="82" x2="66.8" y2="82" fill="none" stroke="#fff" stroke-miterlimit="10" stroke-width="2"/><line x1="32.7" y1="95.7" x2="66.8" y2="95.7" fill="none" stroke="#fff" stroke-miterlimit="10" stroke-width="2"/><line x1="32.7" y1="102.5" x2="48.1" y2="102.5" fill="none" stroke="#fff" stroke-miterlimit="10" stroke-width="2"/><line x1="32.7" y1="124.5" x2="66.8" y2="124.5" fill="none" stroke="#fff" stroke-miterlimit="10" stroke-width="2"/><line x1="32.7" y1="117.5" x2="66.8" y2="117.5" fill="none" stroke="#fff" stroke-miterlimit="10" stroke-width="2"/><line x1="32.7" y1="131.3" x2="66.8" y2="131.3" fill="none" stroke="#fff" stroke-miterlimit="10" stroke-width="2"/><line x1="32.7" y1="138.1" x2="48.1" y2="138.1" fill="none" stroke="#fff" stroke-miterlimit="10" stroke-width="2"/><line x1="99.6" y1="89" x2="243.4" y2="89" fill="#ebeae4" stroke="#8e8e8d" stroke-linecap="round" stroke-linejoin="round" stroke-width="2"/><line x1="99.6" y1="82" x2="243.4" y2="82" fill="#ebeae4" stroke="#8e8e8d" stroke-linecap="round" stroke-linejoin="round" stroke-width="2"/><line x1="99.6" y1="95.7" x2="243.4" y2="95.7" fill="#ebeae4" stroke="#8e8e8d" stroke-linecap="round" stroke-linejoin="round" stroke-width="2"/><line x1="99.6" y1="102.5" x2="164.5" y2="102.5" fill="#ebeae4" stroke="#8e8e8d" stroke-linecap="round" stroke-linejoin="round" stroke-width="2"/><line x1="99.6" y1="173.6" x2="243.4" y2="173.6" fill="#ebeae4" stroke="#8e8e8d" stroke-linecap="round" stroke-linejoin="round" stroke-width="2"/><line x1="99.6" y1="166.6" x2="243.4" y2="166.6" fill="#ebeae4" stroke="#8e8e8d" stroke-linecap="round" stroke-linejoin="round" stroke-width="2"/><line x1="99.6" y1="180.4" x2="243.4" y2="180.4" fill="#ebeae4" stroke="#8e8e8d" stroke-linecap="round" stroke-linejoin="round" stroke-width="2"/><line x1="99.6" y1="187.2" x2="164.5" y2="187.2" fill="#ebeae4" stroke="#8e8e8d" stroke-linecap="round" stroke-linejoin="round" stroke-width="2"/><line x1="99.6" y1="138.3" x2="189.5" y2="138.3" fill="#ebeae4" stroke="#8e8e8d" stroke-linecap="round" stroke-linejoin="round" stroke-width="2"/><line x1="99.6" y1="131.3" x2="189.5" y2="131.3" fill="#ebeae4" stroke="#8e8e8d" stroke-linecap="round" stroke-linejoin="round" stroke-width="2"/><line x1="99.6" y1="124.3" x2="189.5" y2="124.3" fill="#ebeae4" stroke="#8e8e8d" stroke-linecap="round" stroke-linejoin="round" stroke-width="2"/><line x1="99.6" y1="117.3" x2="189.5" y2="117.3" fill="#ebeae4" stroke="#8e8e8d" stroke-linecap="round" stroke-linejoin="round" stroke-width="2"/><line x1="99.6" y1="145.1" x2="189.5" y2="145.1" fill="#ebeae4" stroke="#8e8e8d" stroke-linecap="round" stroke-linejoin="round" stroke-width="2"/><line x1="99.6" y1="151.8" x2="140.2" y2="151.8" fill="#ebeae4" stroke="#8e8e8d" stroke-linecap="round" stroke-linejoin="round" stroke-width="2"/><line x1="99.6" y1="64.4" x2="189.5" y2="64.4" fill="#ebeae4" stroke="#8e8e8d" stroke-linecap="round" stroke-miterlimit="10" stroke-width="4"/><rect x="199.6" y="117.3" width="43.9" height="29.88" fill="#8f0000" stroke="#fff" stroke-miterlimit="10" stroke-width="3"/><path d="M222.8,131.2h5.8v2.5h-5.8v5.5h-2.6v-5.5h-5.8v-2.5h5.8v-5.6h2.6Z" fill="#fff"/></svg>