<svg xmlns="http://www.w3.org/2000/svg" viewBox="0 0 300 300"><path d="M285.7,91.8c-3,.9-6.1.3-9-.4a79.3,79.3,0,0,1-8.6-3c-5.6-2.3-11.1-5-16.5-7.6-10.9-5.3-21.7-10.5-32.7-15A208.5,208.5,0,0,0,185,55a128.3,128.3,0,0,0-34.9-2.7,102.2,102.2,0,0,0-17.3,2.8,78.8,78.8,0,0,0-8.3,2.4l-8.3,3C105.3,64.7,95,70.3,84.9,76.3S64.8,88.8,53.7,93a112.7,112.7,0,0,1-16.9,5l-8.7,1.5-8.7,1v-.2l8.7-1.5c2.9-.6,5.8-1.2,8.7-2L41,95.6l2.1-.6,2.1-.8,4.2-1.5,4-1.7,2-.9,2-1,3.9-1.9c2.6-1.5,5.2-2.9,7.6-4.5,5.1-3,10-6.3,15-9.5s10.2-6.3,15.5-9.1l8.1-4,4.1-1.8c1.3-.6,2.7-1.3,4.1-1.8l4.2-1.6,4.3-1.6a79.6,79.6,0,0,1,8.7-2.5,109,109,0,0,1,17.9-2.7,124,124,0,0,1,36,3.3,193.6,193.6,0,0,1,34.1,11.8c10.9,4.8,21.5,10.4,32,16.1,5.2,2.8,10.5,5.6,15.9,8.1a58.5,58.5,0,0,0,8.2,3.3c2.8.9,5.8,1.6,8.6.9Z" fill="#9b9b9a"/><path d="M213.3,71.3c-20.8-3.5-41.6-5.1-62-3.5A169.7,169.7,0,0,0,92.7,82.9v-.2a124.1,124.1,0,0,1,28.1-13.1,134.4,134.4,0,0,1,30.8-6c20.9-1.6,41.9,1.5,61.8,7.5Z" fill="#ccc"/><path d="M226.2,77.6a398.6,398.6,0,0,0-63,2.5,331.8,331.8,0,0,0-60.5,12.7v-.2a204.6,204.6,0,0,1,60.6-16.3,233.2,233.2,0,0,1,63,1.1Z" fill="#ccc"/><path d="M239.1,83.9c-21.7,2.4-42.9,5.4-64,8.6s-41.8,6.5-62.5,10.1v-.2A511,511,0,0,1,175.1,89a455.3,455.3,0,0,1,64-5.3Z" fill="#ccc"/><path d="M252,90.2q-32.2,9-64.7,14.7a530,530,0,0,1-64.7,7.5h0c21.6-3,43.1-6.9,64.6-10.6s43.1-7.6,64.7-11.6Z" fill="#ccc"/><path d="M264.9,96.5a236.3,236.3,0,0,1-32.1,12.4,322.7,322.7,0,0,1-33.2,8.4c-11.1,2.1-22.3,3.7-33.5,4.7a208.3,208.3,0,0,1-33.5.3v-.2a271.2,271.2,0,0,0,33.7-2.3q16.6-2.1,33.3-5.4c11-2.1,22-4.6,32.9-7.6a303.7,303.7,0,0,0,32.3-10.4Z" fill="#ccc"/><path d="M277.8,102.8c-9.7,7-20.5,12.3-31.6,16.7a217.4,217.4,0,0,1-34,10.2,219.4,219.4,0,0,1-34.9,4.5,143.4,143.4,0,0,1-34.7-2.1h0a169.7,169.7,0,0,0,34.9.4,290.5,290.5,0,0,0,34.7-5.2,264,264,0,0,0,33.7-9.6,164.4,164.4,0,0,0,31.8-14.9Z" fill="#ccc"/><path d="M290.7,109.1c-8.8,8.9-19.6,15.6-30.8,20.9a168.3,168.3,0,0,1-35,12,179.4,179.4,0,0,1-36.4,4.5c-12.2.2-24.4-1-35.9-4.6h0c11.8,3,24.1,3.6,36.2,3.1a200.9,200.9,0,0,0,36.2-5,192.4,192.4,0,0,0,34.6-11.5c11.2-5,21.9-11.1,31-19.4Z" fill="#ccc"/><path d="M74,163.8c-.9,2.1-3.2,5.5-3.2,7.9s5.5,7.4,7.7,9.3c5.6,4.8,11.4,9.5,18,12.3a41.3,41.3,0,0,0,35.2-1.1A40.2,40.2,0,0,0,146,179.9c2.7-3.6,4.1-7.9,8.1-9.8,7.4-3.4,16.6-1.8,24.4-1.6,5.3.2,14.7,1.5,18.1-4.3,1.7-2.8,2.8-6.2,4.1-9.2s2.3-4.4,2.6-6.8c.6-4.2-2.2-9.1-4.6-12a21.5,21.5,0,0,0-12.6-7.3,12.6,12.6,0,0,0-7.4-4.6h0l-15.5-3.2L161,115a6.3,6.3,0,0,0-7.9-3.7l-39,11.2c-2.7.8-13.6,28-11.4,31a6.9,6.9,0,0,0,1.1,1.3c-5.3-1.2-10.6-2.3-16-1.7-2.9.2-7.7.4-10.1,2.8Zm38-32,4.8,13.3c-3.1-1.6-6.1-3.3-6.7-4.6S111,136.1,112,131.8Zm48.7,23.9c-4.1,1.7-5.4,5.7-8,9.3a40.9,40.9,0,0,1-48.3,14.7c-7-2.7-13.1-7.4-19-12.4,5.1.2,10.1,1.4,15.2,2.5s12.8,3.3,17.9-.3a5.5,5.5,0,0,0,1.9-2.1l.2-.3,2.8-6.4a6.8,6.8,0,0,0,6.9,1l3.6-1.6a4.4,4.4,0,0,0,2.7-4.4l15.6-6.6a12.3,12.3,0,0,0,4.9,2.3l12,2.4A23.9,23.9,0,0,0,160.7,155.7Zm23.6-1.5-4.8-.3a15.5,15.5,0,0,0,8.2-7.6l2.4,1.8a23.3,23.3,0,0,1,5,6.2C191.2,154.8,187,154.3,184.3,154.2Z" fill="#ebeae4" stroke="#8e8e8d" stroke-linecap="round" stroke-linejoin="round" stroke-width="6"/><path d="M203.3,148.2c.6-4.2-2.2-9.1-4.6-12-7.4-8.9-19.6-8.6-29.4-7.4-2.7.3-18.9,5.1-20.1.7.3,1.1-2.7,6-3.2,7.1s-3.4,5.7-3,7.2c.8,3.2,7.6,1.2,9.5.9,6.3-.9,12.6-2.2,19-2.2s13.4,1,18.6,5.6a23.3,23.3,0,0,1,5,6.2c3.2-.4,6.1-1.5,7.6-4.2Z" fill="#ebeae4" stroke="#8e8e8d" stroke-linecap="round" stroke-linejoin="round" stroke-width="2"/><path d="M129.2,158.8l35.6-15a6.5,6.5,0,0,0,3.8-8L161,115a6.3,6.3,0,0,0-7.9-3.7L116,122a6.6,6.6,0,0,0-4.6,8.3l9.1,25.1A6.5,6.5,0,0,0,129.2,158.8Z" fill="#c6c6c5" stroke="#8e8e8d" stroke-linejoin="round" stroke-width="2"/><path d="M159.7,150.5h-.2l-13.1-2.6c-6.8-1.4-11.1-8.7-9.6-16.3s6.7-11.5,12.9-11.5a8.3,8.3,0,0,1,2.2.3l13.1,2.6.7.4a1.1,1.1,0,0,1,.1.8l-5.1,25.6A1.2,1.2,0,0,1,159.7,150.5Z" fill="#c6c6c5"/><path d="M149.7,121l2,.2,13.1,2.7-5.1,25.6-13.1-2.7c-6.3-1.2-10.3-8-8.8-15.1s6.3-10.7,11.9-10.7m0-2c-6.6,0-12.5,5.2-13.9,12.3s3,16,10.4,17.5l13.1,2.6h.4a2.5,2.5,0,0,0,1.1-.4,2,2,0,0,0,.8-1.2l5.2-25.6a2.1,2.1,0,0,0-1.6-2.4l-13.1-2.6a9.9,9.9,0,0,0-2.4-.3Z" fill="#8e8e8d"/><path d="M172.6,155.5h-.2l-15.5-3.2a13.9,13.9,0,0,1-9.3-6.8,18.2,18.2,0,0,1-1.9-12.2c1.6-7.7,7.9-13.4,15.1-13.4a11.5,11.5,0,0,1,2.6.3l15.5,3.1a.7.7,0,0,1,.6.4,1.1,1.1,0,0,1,.2.8l-6.1,30.2c-.1.2-.2.5-.4.6Z" fill="#c6c6c5"/><path d="M160.8,120.9l2.4.2,15.5,3.2-6.1,30.2-15.5-3.1c-7.4-1.5-12.1-9.5-10.4-17.9s7.5-12.6,14.1-12.6m0-2c-7.6,0-14.4,6-16,14.2s3.4,18.5,11.9,20.2l15.5,3.1h.4a2.1,2.1,0,0,0,2-1.6l6.1-30.2a2.1,2.1,0,0,0-1.6-2.4l-15.5-3.1a13.3,13.3,0,0,0-2.8-.3Z" fill="#8e8e8d"/><path d="M175,155.7l-2.6-.2c-7.9-1.6-12.9-10.2-11.2-19s7.9-13.5,15.1-13.5a11.5,11.5,0,0,1,2.6.3c8,1.6,13,10.1,11.2,19S182.2,155.7,175,155.7Z" fill="#c6c6c5"/><path d="M176.3,124a9.9,9.9,0,0,1,2.4.3c7.4,1.5,12.1,9.4,10.4,17.8s-7.5,12.6-14.1,12.6a9.7,9.7,0,0,1-2.4-.2c-7.4-1.5-12.1-9.5-10.4-17.8s7.5-12.7,14.1-12.7m0-2h0c-7.6,0-14.4,6-16,14.3a18.5,18.5,0,0,0,2,12.9,14.8,14.8,0,0,0,9.9,7.2,13.3,13.3,0,0,0,2.8.3c7.7,0,14.4-6,16.1-14.2a18.5,18.5,0,0,0-2.1-12.9,14.4,14.4,0,0,0-9.9-7.3,13.3,13.3,0,0,0-2.8-.3Z" fill="#8e8e8d"/><path d="M172.2,151.7l-2.1-.2c-6.3-1.3-10.3-8-8.9-15s6.3-10.6,11.9-10.6a7.5,7.5,0,0,1,2.1.2c6.3,1.2,10.2,8,8.8,15S177.8,151.7,172.2,151.7Z" fill="#c6c6c5"/><path d="M173.1,126.9a6.2,6.2,0,0,1,1.9.2c5.7,1.1,9.4,7.3,8,13.8s-5.8,9.8-10.8,9.8l-1.9-.2c-5.8-1.2-9.4-7.4-8.1-13.8s5.8-9.8,10.9-9.8m0-2h0c-6.1,0-11.5,4.8-12.8,11.4s2.8,14.8,9.6,16.1a8.5,8.5,0,0,0,2.3.3c6.1,0,11.5-4.8,12.8-11.4a14.6,14.6,0,0,0-1.6-10.3,12.2,12.2,0,0,0-8-5.9,9,9,0,0,0-2.3-.2Z" fill="#8e8e8d"/><path d="M131.4,130.5h-.7a4.5,4.5,0,0,1,1-8.9h.7a4,4,0,0,1,2.7,1.9,5.2,5.2,0,0,1,.5,3.3A4.4,4.4,0,0,1,131.4,130.5Z" fill="#c6c6c5"/><path d="M131.7,122.6h.5a3.5,3.5,0,0,1-.8,6.9h-.5a3.4,3.4,0,0,1-2.4-4.1,3.5,3.5,0,0,1,3.2-2.8m0-2h0a5.3,5.3,0,0,0-5.1,4.4,5.5,5.5,0,0,0,.6,4,4.5,4.5,0,0,0,3.3,2.4h.9a5.5,5.5,0,0,0,5.2-4.4,6,6,0,0,0-.7-4,4.5,4.5,0,0,0-3.3-2.4Z" fill="#8e8e8d"/><path d="M129.7,135.9l6.7,18.6a4.4,4.4,0,0,1-2.5,5.6l-3.6,1.6a6.5,6.5,0,0,1-8.7-3.5l-10.2-27.9c-1.2-3.4,1.7-7.5,5.4-8.5" fill="#c6c6c5" stroke="#8e8e8d" stroke-linejoin="round" stroke-width="2"/><path d="M105.7,139c-2.8,3.1-.8,3.9,1.1-1.2Z" fill="none"/><path d="M107.7,134.9c.2-.6.4-1.4.6-2.2A10.4,10.4,0,0,0,107.7,134.9Z" fill="none"/><path d="M120.4,162.9l.2-.5-.2.4Z" fill="#ebeae4" stroke="#8e8e8d" stroke-linecap="round" stroke-miterlimit="10" stroke-width="2"/><path d="M120.8,162.1a80.1,80.1,0,0,0,5.2-10.6,4.3,4.3,0,0,0,.1-.5l-5.5,11.4Z" fill="#ebeae4" stroke="#8e8e8d" stroke-linecap="round" stroke-miterlimit="10" stroke-width="2"/><path d="M85.4,167.3c5.9,5,12,9.7,19,12.4A40.9,40.9,0,0,0,152.7,165c2.6-3.6,3.9-7.6,8-9.3,7.2-3.2,16-1.8,23.6-1.5,2.7.1,6.9.6,10.8.1s8.2-6.1,8.2-6.1c-.3,2.4-1.7,4.7-2.6,6.8s-2.4,6.4-4.1,9.2c-3.4,5.8-12.8,4.5-18.1,4.3-7.8-.2-17-1.8-24.4,1.6-4,1.9-5.4,6.2-8.1,9.8a40.2,40.2,0,0,1-14.3,12.3,41.3,41.3,0,0,1-35.2,1.1c-6.6-2.8-12.4-7.5-18-12.3-2.2-1.9-7.7-5.6-7.7-9.3s2.3-5.9,3.2-8,1.8-5.5,3.3-7.4A25.3,25.3,0,0,0,85.4,167.3Z" fill="#ebeae4" stroke="#8e8e8d" stroke-linecap="round" stroke-linejoin="round" stroke-width="2"/><path d="M113.5,123.4c-3.9,2.6-4.7,8.5-6.6,12.8s-7.5,12.8-4.2,17.3a6.9,6.9,0,0,0,1.1,1.3l6.6,1.5c3.9.8,13.1,2.4,15.9-2.5.6-2.3-.4-3.3-2.6-4.8s-12.5-6.1-13.6-8.5C110.1,140.5,112.1,124.3,113.5,123.4Z" fill="#ebeae4" stroke="#8e8e8d" stroke-linecap="round" stroke-linejoin="round" stroke-width="2"/><path d="M110.4,156.3l-6.6-1.5c-5.3-1.2-10.6-2.3-16-1.7-3.1.3-8.2.4-10.5,3.2v.3c-1.1,3.8,5.5,8.4,7.6,10.1l.6.6c5.1.2,10.1,1.4,15.2,2.5s12.8,3.3,17.9-.3a5.5,5.5,0,0,0,1.9-2.1l.2-.3,5.4-12.6C123.2,159.4,114.3,157.1,110.4,156.3Z" fill="#ebeae4" stroke="#8e8e8d" stroke-linecap="round" stroke-linejoin="round" stroke-width="2"/><path d="M30.7,144.7c2.9-2.1,14.9-9.8,22-13.5a1.4,1.4,0,0,1-.4-1.1c.4-10.3-6-11.3-8.1-19.5-2.8-11-1.2-19,2-24.2,5.6-8.9,17.4-13.6,32.8-6.8,8.5,3.8,9.8,12.2,10.5,20.4,1.9,5.7,4.5,7,2.5,8.7l-1.9,1.9c.1,6.1-.5,14.3-4.4,15a58.6,58.6,0,0,1-13.7.3l3.5,1.7a5.3,5.3,0,0,1,.7.9c8.2.7,16.8,2.5,21.9,6.7,9.1,7.5,4.8,14,13.3,20.2,8.5.3,14-5.9,26.5-1.7a8.6,8.6,0,0,0-3.3,1.1c10.1-.9,14.3-2.6,19.6,3.3,3.5,3.8,4,5.9,3.9,7.9l2.9-.4-8.8,31c4.8.2,9.6,1.3,10.8,3.2s2,13.1,1.1,14.1c-4.3,4.4-10.8,6.9-20,9.3a5.9,5.9,0,0,1,.4.8l16.5-3.4c7.2-2,19.8,3.5,19.8,3.5s6.4,4.3,2.6,9.3-6.8,9-15.2,9c-5.8,0-13.7-1.1-19.2-1.5a5.2,5.2,0,0,1-2,2.7c-8.7,6.2-46.6,18-46.6,18a178.4,178.4,0,0,1-38.3-9.5c-19.4-7.3-22-11.6-22.7-20.2-.3-2.9-.4-12.5-.5-24-11.7-3.2-12-.7-13.2-8C21.4,171.5,26.9,147.3,30.7,144.7Z" fill="#ebeae4" stroke="#8e8e8d" stroke-linecap="round" stroke-miterlimit="10" stroke-width="6"/><path d="M161,220.6c7.2-2,19.8,3.5,19.8,3.5s6.4,4.3,2.6,9.3-6.8,9-15.2,9-20.8-2.3-24.6-1.5-12.5-14.1-12.5-14.1Z" fill="#ebeae4" stroke="#8e8e8d" stroke-linecap="round" stroke-miterlimit="10" stroke-width="2"/><path d="M39,155.8s-.4,67.5.4,76.1,3.3,12.9,22.7,20.2a178.4,178.4,0,0,0,38.3,9.5s37.9-11.8,46.6-18c6.4-4.6-1.9-18.4-1.9-18.4S104.5,145,96.5,143.8" fill="#ebeae4" stroke="#8e8e8d" stroke-linecap="round" stroke-miterlimit="10" stroke-width="2"/><path d="M143.7,197c4.8-1.2,17.2-.5,19.3,2.8s2,13.1,1.1,14.1c-8,8.2-23.5,9.6-50.1,17-22.7,6.3-27.7-4.6-40.2-8.9Z" fill="#ebeae4" stroke="#8e8e8d" stroke-linecap="round" stroke-miterlimit="10" stroke-width="2"/><path d="M87.9,223.7h-.5L54,215.9a2.1,2.1,0,0,1-1.5-2,1.9,1.9,0,0,1,1.6-1.9l56.1-11.2h.8l35.7,7.2a2.1,2.1,0,0,1,1.6,2,2,2,0,0,1-1.6,2L88.3,223.6Z" fill="#c6c6c5"/><path d="M110.6,202.7l35.7,7.3L87.9,221.7l-33.4-7.8,56.1-11.2m0-4h-.8L53.7,210a4,4,0,0,0-.1,7.8L87,225.6h1.7L147,213.9a4,4,0,0,0,3.3-3.9,4.1,4.1,0,0,0-3.2-3.9l-35.7-7.3Z" fill="#8e8e8d"/><path d="M89.7,224.8a2,2,0,0,1-1.4-.6,2,2,0,0,1-.6-1.8l8.1-49.2a2.1,2.1,0,0,1,1.7-1.7l63.3-7.9h.2a2,2,0,0,1,2,2.5l-13,45.6a2.1,2.1,0,0,1-1.5,1.4L90.1,224.7Z" fill="#c6c6c5"/><path d="M161,165.6l-12.9,45.5L89.7,222.8l8.1-49.3,63.2-7.9m0-4h-.5l-63.2,8a3.9,3.9,0,0,0-3.5,3.3l-8.1,49.2a4.1,4.1,0,0,0,1.2,3.5,3.9,3.9,0,0,0,2.8,1.2h.8L148.9,215a4.1,4.1,0,0,0,3-2.8l13-45.5a3.8,3.8,0,0,0-.8-3.7,4.1,4.1,0,0,0-3.1-1.4Z" fill="#8e8e8d"/><path d="M51.5,163.3c-2.5,7.3-.8,10.2-4.2,20.2,7.3,9,27.4,5.7,36.8,13.2-10.2,2.1-9.4,14.7-9.4,14.7-11.9,1.6-22,.9-30-1.8-17.4-5.8-17.7-1.3-19-9.7-4.3-28.4,1.2-52.6,5-55.2s22.2-14.6,26.5-15.5c6.9-1.5,30.9-2.3,40.9,6s4.8,14,13.3,20.2c8.5.3,14-5.9,26.5-1.7-5.2.6-10.5,7-9.8,12.9l-30,3.2c-1.4-9.6-2.6-19.1-2.6-19.1" fill="#ebeae4" stroke="#8e8e8d" stroke-linecap="round" stroke-miterlimit="10" stroke-width="2"/><path d="M134.6,154.8c10.1-.9,14.3-2.6,19.6,3.3s3.7,7.5,3.7,11.2-6.7,7.7-6.7,7.7-6.7-11.6-11.5-12.8c-2.5-.7-11.6,2.4-11.6,2.4S127.8,155.4,134.6,154.8Z" fill="#ebeae4" stroke="#8e8e8d" stroke-linecap="round" stroke-miterlimit="10" stroke-width="2"/><path d="M82.3,197.3c7.1.5,9,1.5,9,1.5l-2.9,16s-10.3-.1-13.7-3.4S78.6,197,82.3,197.3Z" fill="#ebeae4" stroke="#8e8e8d" stroke-linecap="round" stroke-miterlimit="10" stroke-width="2"/><path d="M46.2,86.4c5.6-8.9,17.4-13.6,32.8-6.8,8.5,3.7,9.8,12.2,10.5,20.4,1.9,5.7,4.5,7,2.5,8.7l-1.9,1.9c.1,6.1-.5,14.3-4.4,15a58.6,58.6,0,0,1-13.7.3l3.5,1.7s5,4.7-4,6.8-19.4-1.4-19.2-4.3c.4-10.3-6-11.3-8.1-19.5C41.4,99.6,43,91.6,46.2,86.4Z" fill="#ebeae4" stroke="#8e8e8d" stroke-linecap="round" stroke-miterlimit="10" stroke-width="2"/></svg>