<svg xmlns="http://www.w3.org/2000/svg" xmlns:xlink="http://www.w3.org/1999/xlink" viewBox="0 0 1453 608"><defs><filter id="dropshadow" name="dropshadow"><feGaussianBlur stdDeviation="5" in="SourceAlpha"/><feOffset dx="2" dy="2"/><feComponentTransfer><feFuncA slope="0.3" type="linear"/></feComponentTransfer><feMerge><feMergeNode/><feMergeNode in="SourceGraphic"/></feMerge></filter><clipPath id="clip-path"><path d="M355.8,252.5l17,.6h.8l.8.2.7.3.7.4-16.9-.4-.8-.5-.7-.4-.8-.2Z" fill="none"/></clipPath><clipPath id="clip-path-2"><path d="M373.7,274.3l-16.9,2.1.9-.2.9-.3.8-.6.7-.7,16.9-1.9-.7.6-.8.5-.9.3Z" fill="none"/></clipPath><clipPath id="clip-path-3"><path d="M379.1,270.9l16.5-1.7a10.7,10.7,0,0,0-3.9,1.4,10,10,0,0,0-2.9,2.9,14,14,0,0,0-1.9,4.1,16.4,16.4,0,0,0-.5,5,18,18,0,0,0,.2,2.2,22.8,22.8,0,0,0,1.2,4,6.6,6.6,0,0,0,.9,1.9L372,295.3l-.9-2.2a18.7,18.7,0,0,1-.7-2.2,20.5,20.5,0,0,1-.5-2.4,21.1,21.1,0,0,1-.2-2.5,20.2,20.2,0,0,1,.5-5.6,13.5,13.5,0,0,1,1.9-4.6,9.6,9.6,0,0,1,3-3.3A8.7,8.7,0,0,1,379.1,270.9Z" fill="none"/></clipPath><clipPath id="clip-path-4"><path d="M406.9,275.6l14.9-2.6c0,3.7-.1,6.9-.2,9.5s-.1,4.9-.2,6.6-.2,3-.2,3.8a12.5,12.5,0,0,0-.1,1.4l-14.9,6.2a12.6,12.6,0,0,0,.1-1.6c.1-1,.2-2.5.2-4.5s.2-4.5.3-7.6S406.9,280,406.9,275.6Z" fill="none"/></clipPath><clipPath id="clip-path-5"><path d="M405.7,218.4l15,5.7.3,7.1.3,6.7c0,2.2.1,4.3.2,6.3s.1,4,.1,5.9l-14.9-1.2c-.1-2.3-.1-4.6-.2-6.9s-.1-4.9-.2-7.4l-.3-7.9C405.9,224,405.8,221.3,405.7,218.4Z" fill="none"/></clipPath><clipPath id="clip-path-6"><path d="M417.9,245.3l14,1.8a12,12,0,0,1,4.5,1.5,15.7,15.7,0,0,1,3.8,3,13.9,13.9,0,0,1,2.8,4.3,17.2,17.2,0,0,1,1.1,5.2,14.3,14.3,0,0,1-.6,5.1,13.2,13.2,0,0,1-2.3,4.4,13.3,13.3,0,0,1-3.4,3.3,12.8,12.8,0,0,1-4.3,1.9l-13.7,3.3a13.3,13.3,0,0,0,4.7-2.1,14.5,14.5,0,0,0,3.9-3.9,17.9,17.9,0,0,0,2.5-5.2,20.7,20.7,0,0,0,.7-6.2,21.4,21.4,0,0,0-1.3-6.2,16.9,16.9,0,0,0-3.1-5,14.8,14.8,0,0,0-4.3-3.6A14,14,0,0,0,417.9,245.3Z" fill="none"/></clipPath><clipPath id="clip-path-7"><path d="M822.4,192l2.7-.7,1.4-.4,2.9-.7,3-.8,1.5-.4,3-.8,3.2-.9,1.7-.4,3.3-.9,3.4-.9,1.8-.5,3.6-.9-2.4.7-2.3,1-2.3,1.2-2.1,1.4-30.4,7.8,1.8-1.2,2-1a9.5,9.5,0,0,1,2.1-.9Z" fill="none"/></clipPath><clipPath id="clip-path-8"><path d="M862,254l-32.9-1.7a25.7,25.7,0,0,1-4-.5,22.2,22.2,0,0,1-3.9-1.2l-3.7-1.9a40.5,40.5,0,0,1-3.4-2.3l30.8.7a38.9,38.9,0,0,0,3.9,2.8A27.4,27.4,0,0,0,853,252a32.2,32.2,0,0,0,4.4,1.4A23.2,23.2,0,0,0,862,254Z" fill="none"/></clipPath><clipPath id="clip-path-9"><path d="M803.3,308.7l-25.9-10.2a41.1,41.1,0,0,0,2.7-5.1,53.1,53.1,0,0,0,2-5.6,38.4,38.4,0,0,0,1.1-5.9,30.8,30.8,0,0,0,.3-6.1,40.3,40.3,0,0,0-3-14.5,38.5,38.5,0,0,0-7.8-11.8A35,35,0,0,0,747.1,239l20.7-.6a41.1,41.1,0,0,1,16.5,3.2,39.6,39.6,0,0,1,13.2,9.3,42.4,42.4,0,0,1,9,13.7,48.5,48.5,0,0,1,3.7,17.2q0,3.6-.3,7.2a49.6,49.6,0,0,1-1.3,6.9,46.7,46.7,0,0,1-2.3,6.6A59.2,59.2,0,0,1,803.3,308.7Z" fill="none"/></clipPath><clipPath id="clip-path-10"><path d="M675.9,181.9l-7,9.8q-.1-6.9-.3-14.4l-.3-15.3c0-5.2-.1-10.6-.1-16.1s-.1-11.2-.1-17l6.7-21.8c0,6.9.1,13.6.1,20.2s.2,12.9.3,19.2.2,12.3.3,18.2S675.7,176.3,675.9,181.9Z" fill="none"/></clipPath><clipPath id="clip-path-11"><path d="M683.4,317.4l-8.3-12.5c0-.3-.2-1.4-.4-3.7l-.9-9.8c-.4-4.4-.8-9.8-1.3-16.4s-.9-14.4-1.4-23.3l7.5,1.9c.6,10.7,1.2,20,1.7,27.9s1.1,14.5,1.6,19.7.8,9.1,1.1,11.8S683.4,317.1,683.4,317.4Z" fill="none"/></clipPath><clipPath id="clip-path-12"><path d="M1247.5,259h7.2c.1,0,.2,0,.2.1h.3l.2.2h-7c0-.1-.1-.1-.2-.2h-.7Z" fill="none"/></clipPath><clipPath id="clip-path-13"><path d="M1254.8,268.1l-6.9.4h.2l.3-.2.3-.2a.5.5,0,0,0,.2-.4l7-.4a.5.5,0,0,1-.2.4l-.3.2-.3.2Z" fill="none"/></clipPath><clipPath id="clip-path-14"><path d="M1254.2,266l7.4-.4a2.1,2.1,0,0,0-1.2.5,3,3,0,0,0-.9,1.3,4.8,4.8,0,0,0-.6,1.8,15.5,15.5,0,0,0-.1,2.2,2.8,2.8,0,0,0,.1.9c0,.3.1.6.1.9l.3.8a1.9,1.9,0,0,0,.2.7l-7.2.8-.3-.8a2.9,2.9,0,0,0-.2-.9c0-.3-.1-.6-.1-.9s-.1-.6-.1-.9a16.9,16.9,0,0,1,.1-2.3,10.5,10.5,0,0,1,.5-1.9,7.3,7.3,0,0,1,.9-1.3A1.6,1.6,0,0,1,1254.2,266Z" fill="none"/></clipPath><clipPath id="clip-path-15"><path d="M1260.6,267.4l7.8-.5c.1,1.5.1,2.7.1,3.8v4.1a3.5,3.5,0,0,1-.1.6l-7.7.8v-4.9C1260.7,270.2,1260.7,268.9,1260.6,267.4Z" fill="none"/></clipPath><clipPath id="clip-path-16"><path d="M1259.9,247.2l7.9.4c0,.9.1,1.9.1,2.8s.1,1.8.1,2.6a21.8,21.8,0,0,1,.1,2.5,18.5,18.5,0,0,1,.1,2.3h-7.8c0-.8-.1-1.6-.1-2.4s-.1-1.7-.1-2.6-.1-1.8-.1-2.8S1260,248.2,1259.9,247.2Z" fill="none"/></clipPath><clipPath id="clip-path-17"><path d="M1262.4,256.7h7.9a2,2,0,0,1,1.3.4,2.9,2.9,0,0,1,1.1,1.1,5.3,5.3,0,0,1,.8,1.7,7.8,7.8,0,0,1,.4,2.2,9.8,9.8,0,0,1-.8,4.1,3.6,3.6,0,0,1-1.1,1.3,2.1,2.1,0,0,1-1.3.5l-7.9.6a3.4,3.4,0,0,0,1.2-.6,4.5,4.5,0,0,0,1-1.3,5.9,5.9,0,0,0,.6-2,8.6,8.6,0,0,0,.2-2.3,13.7,13.7,0,0,0-.4-2.3,4.9,4.9,0,0,0-.8-1.8,4,4,0,0,0-1-1.2A1.9,1.9,0,0,0,1262.4,256.7Z" fill="none"/></clipPath></defs><g id="Ebene_6" data-name="Ebene 6"><path d="M34,312.2c7.9-2.4,15.9-4.7,23.9-6.4a146.3,146.3,0,0,1,24.6-3h6.3l6.2.3,6.1.6,6.1.8c8.1,1.1,16.1,2.4,24.1,3.6l47.8,7.7c15.8,2.4,31.6,4.7,47.5,6.1v.2a462.8,462.8,0,0,1-48.5-3.2C162,317,146,314.7,130,312.1l-24-3.8c-4.1-.7-8-1.3-12-1.7l-3-.3H88c-2-.2-4-.2-6-.2a161.6,161.6,0,0,0-24,1.8c-8,1.2-16,2.9-23.9,4.7Z" fill="#9b9b9a"/><path d="M146.3,325.2c41.3-3.3,68.8-21.3,107.7-31.2,60.2-15.3,88.3,31.2,105.3,27.9" fill="#ebeae4"/><path d="M359.3,321.9a14.2,14.2,0,0,1-7.1-.7,49.3,49.3,0,0,1-6.6-3c-4.2-2.3-8.2-4.9-12.3-7.3a138.4,138.4,0,0,0-25.2-12.7,86.9,86.9,0,0,0-27.1-5.3,91.2,91.2,0,0,0-13.8.7c-2.3.2-4.5.7-6.8,1.1l-3.4.7-3.3.8c-9,2.4-17.9,5.2-26.7,8.3s-17.5,6.4-26.3,9.4a250.2,250.2,0,0,1-26.9,7.7,160.6,160.6,0,0,1-27.5,3.6V325a181.9,181.9,0,0,0,27.4-5.4c9-2.5,17.8-5.6,26.5-8.9s17.4-6.9,26.2-10.2,17.9-6.2,27-8.5a114.3,114.3,0,0,1,14.2-2.6c2.3-.3,4.8-.3,7.1-.5H282a85.4,85.4,0,0,1,14.2,2.1,90.8,90.8,0,0,1,13.7,4.3,143.8,143.8,0,0,1,24.8,14c3.9,2.7,7.7,5.4,11.6,7.9a52.8,52.8,0,0,0,6.2,3.3,12.8,12.8,0,0,0,6.7,1Z" fill="#9b9b9a"/><path d="M314.2,306.9c-12.4-2.8-24.7-5.9-36.8-6.1s-24,2.9-35.9,6.1v-.2a107,107,0,0,1,17.4-7.4,57.9,57.9,0,0,1,19-2.7,71.3,71.3,0,0,1,18.9,3.2,139.6,139.6,0,0,1,17.6,6.9Z" fill="#ccc"/><path d="M323.8,313.2c-11.4-2.2-22.7-4-33.9-4.2a148.6,148.6,0,0,0-33.2,3.5v-.2A89.8,89.8,0,0,1,273,307a76.3,76.3,0,0,1,17.3-1.6c11.6.2,23,3.2,33.6,7.6Z" fill="#ccc"/><path d="M333.4,319.6a299.9,299.9,0,0,0-31-2.3,260,260,0,0,0-30.6.8h0a100.4,100.4,0,0,1,30.9-3.8,108.1,108.1,0,0,1,30.8,5.2Z" fill="#ccc"/><path d="M343,325.9c-9.5.1-19,.1-28.3-.3s-18.5-1.1-27.7-1.8v-.2a201.4,201.4,0,0,1,28-.6,262.6,262.6,0,0,1,28,2.7Z" fill="#ccc"/><path d="M352.6,332.2a10.3,10.3,0,0,1-3.1,1l-3.2.5-6.5.4c-4.3.1-8.6,0-12.8-.3s-8.5-.7-12.6-1.4a63.1,63.1,0,0,1-12.3-3h.1a87.1,87.1,0,0,0,12.5,1.5l12.6,1,12.7.7,6.3.2h3.2a9.9,9.9,0,0,0,3-.5Z" fill="#ccc"/><path d="M1152.4,316.6a18,18,0,0,1-7.3-.1l-3.6-.7-3.5-1c-4.7-1.3-9.3-2.9-13.9-4.4-9.2-3.2-18.3-6.3-27.5-8.9-18.4-5.3-37.3-8.6-56.1-7.8a109.1,109.1,0,0,0-14,1.6,129.1,129.1,0,0,0-13.7,3.1l-6.8,2-6.7,2.2c-4.4,1.6-8.7,3.3-13.1,5.2-8.6,3.7-17.4,7.7-26.6,10-2.3.7-4.6,1.2-6.9,1.7l-7,1.1-7,.8-7,.5v-.3l7.1-.9,7-1.2a125.3,125.3,0,0,0,13.7-3.6c9-2.9,17.4-7.2,26.1-11.3,4.4-2,8.8-3.9,13.3-5.6s9.1-3.3,13.7-4.6a115,115,0,0,1,28.6-4.9,140.6,140.6,0,0,1,29,2.1,204.7,204.7,0,0,1,28,7c9.2,3,18.1,6.5,27,10.1,4.5,1.7,8.9,3.5,13.4,5.1a58.2,58.2,0,0,0,6.8,2,18.5,18.5,0,0,0,7,.6Z" fill="#9b9b9a"/><path d="M1092.3,304.3c-15-1.1-29.8-2.7-44.3-2.8a140.9,140.9,0,0,0-21.6,1.6,144,144,0,0,0-21.2,4.8v-.2a100.8,100.8,0,0,1,20.9-7.8,93.1,93.1,0,0,1,22.3-2.6,150.3,150.3,0,0,1,22.3,2.1c7.3,1.2,14.6,2.8,21.8,4.7Z" fill="#ccc"/><path d="M1103,308.1c-15.7.1-31.2.1-46.5.9a324.7,324.7,0,0,0-45.1,5.4v-.2a152.6,152.6,0,0,1,45.4-9c15.5-.8,31,.5,46.4,2.7Z" fill="#ccc"/><path d="M1113.7,311.9c-32.7,3.6-64.6,6-96.2,8.9h0a318,318,0,0,1,47.7-7.6,435.8,435.8,0,0,1,48.5-1.4Z" fill="#ccc"/><path d="M1124.4,315.7a444,444,0,0,1-50.5,8.6,474.5,474.5,0,0,1-50.3,3v-.2c16.8-2,33.5-4.1,50.3-6l50.5-5.6Z" fill="#ccc"/><path d="M1135.1,319.5a235,235,0,0,1-26,7.7c-8.7,2-17.6,3.6-26.4,4.8s-17.7,1.9-26.6,2.3a230.4,230.4,0,0,1-26.3-.5v-.2c8.8-.1,17.7-.7,26.5-1.5s17.6-1.7,26.4-2.9,17.6-2.6,26.3-4.2,17.5-3.4,26.1-5.7Z" fill="#ccc"/><path d="M1145.9,323.3a137.1,137.1,0,0,1-26.6,10.4,215,215,0,0,1-55.7,8.3,150.5,150.5,0,0,1-27.7-1.7v-.2a199.8,199.8,0,0,0,27.9.1c9.3-.6,18.6-1.6,27.8-3s18.4-3.1,27.5-5.3a166.9,166.9,0,0,0,26.7-8.8Z" fill="#ccc"/><path d="M1156.6,327c-8.2,6-17.5,10.1-27,13.3a187.2,187.2,0,0,1-58.5,9.5,123.5,123.5,0,0,1-29.1-3.1h0a144.7,144.7,0,0,0,29.4,1.6,221.9,221.9,0,0,0,29.3-2.9,216.9,216.9,0,0,0,28.7-6.6c9.4-2.9,18.7-6.5,27.1-11.8Z" fill="#ccc"/><path d="M1009.5,365a144.2,144.2,0,0,1-34-3.9,197.7,197.7,0,0,1-32.7-10.5c-21.2-8.7-40.9-20.5-60-32.7l-7.1-4.5-7.3-4c-5-2.6-10-4.9-15.2-7.1a274.2,274.2,0,0,0-31.6-10.9,262.9,262.9,0,0,0-65.8-9.6,212.8,212.8,0,0,0-33,2.2,173.5,173.5,0,0,0-31.9,8.1L675.3,298l-15.5,6.2c-10.2,4.4-20.3,8.9-30.3,13.7s-20,9.6-30.3,14.1a235,235,0,0,1-31.5,11l-8.1,2.1-8.2,1.6-4,.8-4.2.7-8.1,1.3-16.5,2.1-16.5,1.5v-.3l16.6-2.3,16.5-2.8,8.2-1.6,4.1-.8,4.1-1,8.1-2,8-2.3a242.8,242.8,0,0,0,31-12.1c10.1-4.7,20-10,30.1-15l15.1-7.3,7.7-3.6,7.7-3.4,7.8-3.3,7.8-3.3,7.8-3.1c2.6-1,5.2-2.1,7.9-3,21.5-7.8,44.5-10.7,67.3-10.3a257.3,257.3,0,0,1,33.9,3.1,270.4,270.4,0,0,1,33.2,7.6A260.6,260.6,0,0,1,857,298c5.2,2.3,10.3,4.9,15.2,7.6l3.8,2.2,3.6,2.3,7.1,4.6c18.7,12.4,37.6,24.4,58.1,33.6s42.2,15.5,64.7,16.4Z" fill="#9b9b9a"/><path d="M253.2,338.5c46.9-5.2,61.3-29.7,105.1-47.6,34-13.9,74.9.3,91.8,12.3,14.8,10.4,34.9,28.7,60.1,29.2" fill="#ebeae4"/><path d="M510.2,332.4a58.7,58.7,0,0,1-17.6-2.7,77.1,77.1,0,0,1-16.4-7.2,166.1,166.1,0,0,1-15-9.6l-7.3-5.2c-2.3-1.7-4.7-3.4-7.2-4.9a89.5,89.5,0,0,0-15.6-7.5,118,118,0,0,0-16.6-5.1,106.5,106.5,0,0,0-34.2-2.5,81.3,81.3,0,0,0-8.4,1.3,58.4,58.4,0,0,0-8.2,2.2c-2.7.8-5.3,1.9-8,3l-4,1.7-3.9,1.9a309.4,309.4,0,0,0-30.2,16.9c-4.9,3-9.9,6-15,8.8a142.4,142.4,0,0,1-15.8,7.4,118.7,118.7,0,0,1-33.6,7.6v-.2a123.2,123.2,0,0,0,33.3-9.4c10.6-4.6,20.3-11,30.1-17.3A287.6,287.6,0,0,1,347,293.8l8-3.7,4.1-1.7,4.3-1.5a87.1,87.1,0,0,1,17.6-3.5,108.2,108.2,0,0,1,35.4,3.2,124.3,124.3,0,0,1,16.9,5.7,87.8,87.8,0,0,1,15.8,8.2c4.9,3.5,9.5,7.1,14.1,10.7s9.4,6.9,14.4,9.9a86.6,86.6,0,0,0,15.6,7.6,61.2,61.2,0,0,0,17,3.5Z" fill="#9b9b9a"/><path d="M452.7,307.4a160.8,160.8,0,0,1,38.6-.8c12.8,1.1,25.3,3.3,37.8,4.9s24.9,2.9,37.4,3.5,24.9.4,37.3.1v.3a320.5,320.5,0,0,1-37.9,2.8,284.3,284.3,0,0,1-38-2.6c-12.6-1.7-25.1-4.1-37.5-5.9a198.9,198.9,0,0,0-37.8-2.1Z" fill="#9b9b9a"/><path d="M864.8,315.1a118.6,118.6,0,0,0-21.6-8.6c-7.5-2.2-15-4-22.6-5.5a370.9,370.9,0,0,0-45.7-5.9,329,329,0,0,0-45.5-.1c-15.1,1.1-30.1,3.3-44.6,7.8v-.3c14.3-5.7,29.5-9,44.9-10.8a255.7,255.7,0,0,1,46.3-.7,284.3,284.3,0,0,1,45.9,7,220.1,220.1,0,0,1,22.3,6.8A103.6,103.6,0,0,1,865,315Z" fill="#ccc"/><path d="M884.8,325.5a86.8,86.8,0,0,0-10-4l-2.5-.9-2.5-.9-5.2-1.4-2.5-.8-2.6-.6-5.2-1.3-10.4-2.1a354.5,354.5,0,0,0-42-5.3,366.4,366.4,0,0,0-41.9-.5,238.3,238.3,0,0,0-41.3,5.4v-.2a194,194,0,0,1,41.5-8,278.7,278.7,0,0,1,84.7,5.9c3.4.9,6.9,1.7,10.3,2.7l5.1,1.5,2.6.8,2.5.9,5,1.8c1.7.6,3.3,1.4,5,2.1a104.8,104.8,0,0,1,9.5,4.7Z" fill="#ccc"/><path d="M904.8,335.8c-12.2-4.8-25-7.7-37.7-9.9a357.1,357.1,0,0,0-38.3-4.6c-12.8-.8-25.6-1.2-38.3-.9a341.7,341.7,0,0,0-37.9,3.1h0a234.3,234.3,0,0,1,38.2-5.4,288.5,288.5,0,0,1,77.2,5.6c12.6,2.8,25.2,6.4,36.9,12Z" fill="#ccc"/><path d="M924.8,346.1a216.8,216.8,0,0,0-34.4-7.9c-11.6-1.8-23.2-3-34.8-3.8a613,613,0,0,0-69.1-.5h0a369.9,369.9,0,0,1,69.8-1.9,290.3,290.3,0,0,1,34.8,4.4,173.9,173.9,0,0,1,33.8,9.7Z" fill="#ccc"/><path d="M944.8,356.4c-20.6-5.5-41.6-7.5-62.4-8.9s-41.5-1.9-61.9-3.2h0c20.8,0,41.6-.1,62.5,1.3a299.4,299.4,0,0,1,31.3,3.4,188.3,188.3,0,0,1,30.5,7.4Z" fill="#ccc"/><path d="M964.8,366.8a222.6,222.6,0,0,0-27.8-4.3c-9.3-1-18.6-1.4-27.9-1.9s-18.4-1.1-27.6-2a272,272,0,0,1-27.1-3.9h0c9.1,1.3,18.3,2.2,27.5,2.9s18.5,1,27.7,1.5,18.6,1.1,27.8,2.3a198.1,198.1,0,0,1,27.4,5.4Z" fill="#ccc"/><path d="M984.8,377.1a205.6,205.6,0,0,0-24.6-2.7c-8.2-.5-16.3-.6-24.5-.8a178.5,178.5,0,0,1-24.2-2.3,142,142,0,0,1-23.2-6.3h0a158.8,158.8,0,0,0,23.6,5.6,217.3,217.3,0,0,0,24.2,2c8.1.2,16.3.3,24.4,1a179.9,179.9,0,0,1,24.3,3.4Z" fill="#ccc"/><path d="M916.1,447.4c-44.4,5.5-88.9,9.5-133.3,9.9a611.7,611.7,0,0,1-66.3-3c-10.9-1.3-21.9-2.7-32.7-4.8l-4.1-.7-4-.9c-2.7-.6-5.4-1.1-8.1-1.8l-8-2-8-2.2c-10.5-3-20.9-6.6-31.2-10.6s-20.3-8.1-30.5-12a173,173,0,0,0-31.4-9c-1.3-.3-2.7-.4-4-.6l-4.1-.5-8.1-.7H526c-10.9.1-21.7.1-32.6-.3s-21.7-1.1-32.4-3.2-21.1-5.7-30-12a76.6,76.6,0,0,1-12.1-10.7,121.5,121.5,0,0,1-9.9-12.8h.1c6.1,9.1,13.4,17.5,22.5,23.6s19.6,9.7,30.3,11.7a224.5,224.5,0,0,0,32.7,2.9c11,.3,21.9.2,32.9.1,5.5,0,11-.1,16.5.2l4.1.3h2l2.1.3,4.1.5,4,.7,4.1.8,4,1,2,.4,2,.6,4,1.1,7.8,2.6,7.7,2.8c10.3,3.9,20.4,8.2,30.7,12.1s20.6,7.4,31.2,10.4,21.2,5.4,32.1,7.4c5.3,1,10.8,1.8,16.2,2.6l8.2,1c2.7.4,5.4.8,8.2,1a655.7,655.7,0,0,0,65.8,3c22-.1,44-1.2,66-2.8s43.9-3.9,65.8-6.4Z" fill="#ccc"/><path d="M887.9,433.4c-40,5.1-80.1,8.9-120.1,9.4a541.6,541.6,0,0,1-59.8-2.5,351.4,351.4,0,0,1-58.6-10.7c-9.6-2.7-19-5.9-28.3-9.3s-18.4-7.1-27.7-10.5a164.6,164.6,0,0,0-28.3-7.7l-3.7-.5-3.6-.4-7.3-.6H535.8c-9.8.1-19.6.1-29.4-.2s-19.6-1-29.2-2.9-19.1-5-27.2-10.6-14.7-12.8-20.2-20.9h.1c5.6,8.1,12.4,15.5,20.7,20.8s17.8,8.5,27.4,10.2a208.4,208.4,0,0,0,29.5,2.5c9.9.2,19.7.1,29.6,0,4.9-.1,9.9-.2,14.9,0l3.7.3h1.9l1.8.2,3.7.4,3.7.6a167.3,167.3,0,0,1,28.7,8c9.3,3.4,18.5,7.1,27.8,10.4s18.6,6.5,28.2,9.1c4.7,1.3,9.5,2.4,14.3,3.6s9.7,2.1,14.6,2.9,9.7,1.5,14.6,2.3l7.4.9,7.4.8a558.9,558.9,0,0,0,59.3,2.5c19.9,0,39.7-1.1,59.5-2.5s39.6-3.6,59.3-5.8Z" fill="#ccc"/><path d="M859.8,419.4c-35.7,4.8-71.4,8.3-107,8.9a474.8,474.8,0,0,1-53.4-1.9c-4.4-.4-8.8-.8-13.2-1.5-2.2-.3-4.4-.5-6.6-.9l-6.6-1.1c-8.7-1.5-17.4-3.3-25.9-5.6s-17-5-25.3-7.9-16.6-6.1-24.9-8.9a156.5,156.5,0,0,0-25.3-6.5l-6.5-.8-6.5-.4H532.4l-13.1-.2a174.7,174.7,0,0,1-26-2.5c-8.6-1.6-17-4.4-24.3-9.2s-13.4-11.2-18.4-18.3h.1c5.2,7,11.4,13.4,18.9,18a65,65,0,0,0,24.5,8.8,192.6,192.6,0,0,0,26.2,2c8.8.1,17.6,0,26.4-.2,4.4-.1,8.8-.2,13.3,0a117.9,117.9,0,0,1,13.2,1.3,158.8,158.8,0,0,1,25.7,6.6l25,8.9c8.3,2.9,16.7,5.5,25.2,7.7l6.4,1.6,6.4,1.5,6.5,1.3,6.5,1.1c8.6,1.6,17.4,2.6,26.2,3.5a516.6,516.6,0,0,0,52.8,2c35.4-.3,70.7-3.4,105.8-7.5Z" fill="#ccc"/><path d="M831.6,405.4c-31.3,4.4-62.6,7.7-93.9,8.4a405.8,405.8,0,0,1-46.8-1.3q-5.9-.5-11.7-1.2c-3.9-.4-7.7-1-11.6-1.6-7.7-1.3-15.3-2.8-22.8-4.7s-15-4.2-22.4-6.6-14.6-5-21.9-7.3a146.9,146.9,0,0,0-22.3-5.2l-5.7-.6-5.7-.4H555.3c-7.7.1-15.3.2-23-.1a146.5,146.5,0,0,1-22.9-2,60.4,60.4,0,0,1-21.5-7.8,61.7,61.7,0,0,1-16.5-15.7h.1a55.5,55.5,0,0,0,38.7,22.6,160.7,160.7,0,0,0,23,1.6c7.7.1,15.4-.1,23.1-.3,3.9-.1,7.8-.2,11.7-.1a89.3,89.3,0,0,1,11.6,1,134.9,134.9,0,0,1,22.8,5.3c7.4,2.3,14.7,4.8,22,7.2s14.8,4.6,22.3,6.4a303.1,303.1,0,0,0,45.6,7.4,448.7,448.7,0,0,0,46.4,1.6c31-.4,62-3.1,92.9-6.7Z" fill="#ccc"/><path d="M803.4,391.4c-26.9,4-53.8,7.1-80.8,8a387.2,387.2,0,0,1-40.3-.8l-5.1-.4-5-.5c-3.3-.3-6.7-.8-10-1.3-6.6-1-13.2-2.2-19.8-3.7s-12.9-3.3-19.3-5.2-12.7-4-19.1-5.7a127.2,127.2,0,0,0-19.3-4l-4.8-.5-4.9-.2h-9.9c-6.6.1-13.2.2-19.8,0a144.2,144.2,0,0,1-19.8-1.6,54.1,54.1,0,0,1-18.7-6.5,51.9,51.9,0,0,1-14.6-13h.1a53.7,53.7,0,0,0,15.1,12.6,56.3,56.3,0,0,0,18.8,5.8,163.1,163.1,0,0,0,19.8,1.1c6.6,0,13.3-.2,19.9-.5l10.1-.2c3.3.1,6.7.3,10,.7a133.6,133.6,0,0,1,19.8,4l19.2,5.6c6.4,1.9,12.8,3.7,19.2,5.1s13,2.7,19.6,3.7c3.3.4,6.6.9,9.9,1.2l9.9,1c13.2,1.1,26.6,1.3,39.9,1.1,26.6-.5,53.3-2.8,79.9-5.9Z" fill="#ccc"/><path d="M775.2,377.4c-22.5,3.5-45,6.4-67.7,7.5s-45.3,0-67.4-4.5l-8.3-1.8-8.1-2c-5.4-1.4-10.8-2.9-16.2-4.1-2.7-.6-5.3-1.3-8.1-1.7l-4-.6-4.1-.5-4.1-.3H574.8c-5.5.1-11.1.2-16.6.1a114.9,114.9,0,0,1-16.6-1.3,49.2,49.2,0,0,1-15.9-5A47.5,47.5,0,0,1,513,352.8v-.2a46.2,46.2,0,0,0,13.3,9.9,52.8,52.8,0,0,0,15.8,4.3,131.6,131.6,0,0,0,16.6.6c5.6,0,11.1-.3,16.7-.5,2.8-.2,5.6-.2,8.4-.2h4.3l4.2.3a80.5,80.5,0,0,1,8.4,1.1l2.1.3,2.1.4,4.1.9c5.5,1.2,10.9,2.7,16.3,4l8.2,2,8.1,1.8c21.8,4.3,44.2,5.5,66.5,4.9s44.7-2.7,67-5.1Z" fill="#ccc"/><path d="M747.1,363.4a508.4,508.4,0,0,1-54.7,7.1c-9.1.5-18.3.8-27.5.4a206.9,206.9,0,0,1-27.2-2.6c-9-1.4-17.9-3.5-26.6-5.1l-3.3-.5-3.3-.5-3.3-.4-3.3-.2-3.3-.2h-10q-6.7.3-13.5.3a122.4,122.4,0,0,1-13.5-.9,48.4,48.4,0,0,1-13-3.7,37.7,37.7,0,0,1-10.8-7.8h.1a40.2,40.2,0,0,0,11.3,7,43.9,43.9,0,0,0,13,2.9,99.7,99.7,0,0,0,13.4.2c4.4-.1,8.9-.4,13.4-.7l6.9-.3h3.4l3.4.2a20.6,20.6,0,0,1,3.5.2l3.4.3c2.3.2,4.5.6,6.8.9,9,1.5,17.8,3.5,26.7,4.9,17.7,2.8,35.7,3.4,53.8,2.8s36.1-2.4,54.1-4.4Z" fill="#ccc"/><path d="M718.9,349.4a369.3,369.3,0,0,1-41.7,6.7,210.6,210.6,0,0,1-42,.3c-7-.7-13.8-1.7-20.6-2.3l-5.1-.4-5-.2h-5.1l-5.1.2c-6.9.3-13.8.6-20.7-.2a42.4,42.4,0,0,1-10.1-2.3,36.1,36.1,0,0,1-9-5.1l.2-.2a32.5,32.5,0,0,0,9.3,4.2,41.7,41.7,0,0,0,10,1.5,157.4,157.4,0,0,0,20.5-1.1l5.2-.4h13.2l2.6.2c7,.5,13.8,1.4,20.7,2,27.4,2.7,55,.1,82.7-3.1Z" fill="#ccc"/><path d="M690.7,335.5a285.2,285.2,0,0,1-28.8,6.5,206.2,206.2,0,0,1-29.3,2.9l-14.4.3c-4.8.1-9.5.3-14.3.7a118.2,118.2,0,0,1-14.6.3,39.9,39.9,0,0,1-14-3.4v-.3a40,40,0,0,0,14.2,1.5,140.2,140.2,0,0,0,14.2-1.6,141.6,141.6,0,0,1,14.6-1.5l14.5-.6c9.7-.3,19.2-.8,28.9-1.8s19.2-2.1,28.9-3.3Z" fill="#ccc"/><path d="M662.6,321.5a180.7,180.7,0,0,1-32.5,13,135.7,135.7,0,0,1-34,5v-.3c11-3.4,22-6.4,32.9-9.5s22.1-6.2,33.5-8.5Z" fill="#ccc"/><path d="M452.7,350.5a275.2,275.2,0,0,0-28.8,2.8c-9.5,1.4-18.8,3.3-28.1,5.6s-18.4,5.1-27.5,7.8a267.3,267.3,0,0,1-27.7,7,123.1,123.1,0,0,1-28.4,1.9,130.4,130.4,0,0,1-27.8-4.7c-18.2-5.2-35.2-13.1-51.6-21.8h0c16.8,8.6,34.1,16.4,52.4,21.2a125.9,125.9,0,0,0,27.9,4.5,120.3,120.3,0,0,0,28.1-2.2c9.3-1.7,18.4-4.3,27.5-6.9s18.3-5.4,27.5-7.6,18.6-4,28-5.3,19-2,28.5-2.3Z" fill="#ccc"/><path d="M434.8,343.4c-8.3.6-16.5,1.6-24.6,2.9s-16.2,3.2-24.2,5.3-15.8,4.5-23.6,6.8a224.6,224.6,0,0,1-23.8,6.1,112,112,0,0,1-24.5,1.9,116.2,116.2,0,0,1-24.1-3.7c-15.7-4-30.5-10.4-44.8-17.6h0c14.7,6.9,29.8,13.1,45.6,16.8a115.6,115.6,0,0,0,24.1,3.3A108.1,108.1,0,0,0,339,363c8-1.6,15.8-3.7,23.7-6s15.6-4.6,23.6-6.6a244.5,244.5,0,0,1,24.1-4.8c8.1-1.1,16.2-1.9,24.4-2.3Z" fill="#ccc"/><path d="M417,336.3a253.6,253.6,0,0,0-40.8,7.9c-13.2,3.6-26.2,8.4-39.7,11.1a100.2,100.2,0,0,1-20.5,1.8,98,98,0,0,1-20.3-2.5c-13.3-2.9-26-7.9-38.1-13.5h0c6.3,2.6,12.6,5.1,19.1,7.2a173.3,173.3,0,0,0,19.7,5.2,100.5,100.5,0,0,0,40.4.1c6.6-1.4,13.2-3.2,19.8-5.1s13.1-3.9,19.7-5.6a233.8,233.8,0,0,1,40.6-6.6Z" fill="#ccc"/><path d="M399.1,329.3a253.2,253.2,0,0,0-32.6,7.6c-10.7,3.1-21.1,7-32.1,9.1l-4.1.8-4.1.5-2.1.2-2.1.2h-4.2a28.1,28.1,0,0,1-4.1-.1l-4.2-.2-2-.2-2.1-.3-4.1-.6c-10.8-1.9-21.2-5.4-31.3-9.2V337c10.5,3.4,21.1,6.4,31.9,7.9l4.1.4a28.5,28.5,0,0,0,4.1.4h8.2a73.6,73.6,0,0,0,8.1-.6l4.1-.5,4-.8c10.7-2.2,21.2-5.9,31.9-8.7a211.5,211.5,0,0,1,32.7-6Z" fill="#ccc"/><path d="M381.2,322.2c-8.3,2.1-16.5,4.6-24.5,7.3s-16.1,5.6-24.5,7.4a82.7,82.7,0,0,1-25.3,1.3,152,152,0,0,1-24.5-5h0a192.8,192.8,0,0,0,24.9,3.2,89.8,89.8,0,0,0,24.8-1.9c8.2-1.7,16.1-4.4,24.3-6.7a189.4,189.4,0,0,1,24.8-5.6Z" fill="#ccc"/><path d="M363.4,315.1c-5.5,2.5-11,4.9-16.5,7.1a112.4,112.4,0,0,1-17,5.5,89.3,89.3,0,0,1-17.7,2.2,167.6,167.6,0,0,1-17.4-.7h0c11.7-.7,23.4-1.5,34.7-4.1,5.7-1.3,11.2-3.1,16.8-4.9s11.3-3.5,17-5.1Z" fill="#ccc"/><path d="M345.5,308.1a31,31,0,0,1-8.4,6.9,50.5,50.5,0,0,1-10.2,3.8l-9.9,2.9-9.9,3.5h0a49.4,49.4,0,0,1,9.1-5.6,60.5,60.5,0,0,1,10-3.8c3.4-.9,6.8-1.7,10-2.9a45.4,45.4,0,0,0,9.2-4.9Z" fill="#ccc"/><path d="M443.8,308.1a77.3,77.3,0,0,0-11.2-3.7l-5.7-1.3-5.7-1a201.3,201.3,0,0,0-23-2.3,183.2,183.2,0,0,0-45.6,3.3v-.2c14.5-5.8,30.5-8,46.2-7.3a123.5,123.5,0,0,1,23.4,3.4,75.3,75.3,0,0,1,21.8,8.9Z" fill="#ccc"/><path d="M461.5,315.9a280.9,280.9,0,0,0-42.2-6.2,215.4,215.4,0,0,0-41.7,1v-.2a118.1,118.1,0,0,1,42.3-4.4,137.8,137.8,0,0,1,41.6,9.6Z" fill="#ccc"/><path d="M479.1,323.8c-13-1.4-25.8-2.9-38.5-4s-25.3-1.7-38-1.6h0a146.1,146.1,0,0,1,38.5-1.4,221,221,0,0,1,38,6.9Z" fill="#ccc"/><path d="M496.7,331.6c-11.8-.3-23.4-.9-34.9-1.8s-22.9-2.2-34.1-4v-.2c11.5.3,23,.7,34.6,1.6s23,2.4,34.5,4.3Z" fill="#ccc"/><path d="M514.4,339.5c-10.6.3-21.1.4-31.5.1a100.5,100.5,0,0,1-15.5-1.5,60.3,60.3,0,0,1-14.7-4.8h0a88.9,88.9,0,0,0,15.1,3.4c5.1.6,10.2.7,15.4.9,10.4.3,20.8.8,31.2,1.8Z" fill="#ccc"/></g><g id="Ebene_1" data-name="Ebene 1"><g filter="url(#dropshadow)"><g style="isolation:isolate"><g style="isolation:isolate"><g clip-path="url(#clip-path)"><g style="isolation:isolate"><path d="M355.8,252.5l17,.6h.8l.8.2.7.3.7.4-16.9-.4-.8-.5-.7-.4-.8-.2h-.8" fill="#b6b6b6"/></g></g></g><g style="isolation:isolate"><g clip-path="url(#clip-path-2)"><g style="isolation:isolate"><path d="M360.1,274.6l16.9-1.9-.7.6-.8.5-.9.3-.9.2-16.9,2.1.9-.2.9-.3.8-.6.7-.7" fill="#b6b6b6"/></g></g></g><polygon points="365.4 228.8 382.3 232.2 382.7 242.5 365.8 240.5 365.4 228.8" fill="#adadad"/><g style="isolation:isolate"><g clip-path="url(#clip-path-3)"><g style="isolation:isolate"><path d="M379.1,270.9l16.5-1.7a10.7,10.7,0,0,0-3.9,1.4,10,10,0,0,0-2.9,2.9,14,14,0,0,0-1.9,4.1,16.4,16.4,0,0,0-.5,5,18,18,0,0,0,.2,2.2,22.8,22.8,0,0,0,1.2,4,6.6,6.6,0,0,0,.9,1.9L372,295.3l-.9-2.2a18.7,18.7,0,0,1-.7-2.2,20.5,20.5,0,0,1-.5-2.4,21.1,21.1,0,0,1-.2-2.5,20.2,20.2,0,0,1,.5-5.6,13.5,13.5,0,0,1,1.9-4.6,9.6,9.6,0,0,1,3-3.3,8.7,8.7,0,0,1,4-1.6" fill="#b6b6b6"/></g></g></g><polygon points="383.1 223.6 399.5 228 400 239.6 383.6 237 383.1 223.6" fill="#adadad"/><g style="isolation:isolate"><g clip-path="url(#clip-path-4)"><g style="isolation:isolate"><path d="M406.9,275.6l14.9-2.6c0,3.7-.1,6.9-.2,9.5s-.1,4.9-.2,6.6-.2,3-.2,3.8a12.5,12.5,0,0,0-.1,1.4l-14.9,6.2a12.6,12.6,0,0,0,.1-1.6c.1-1,.2-2.5.2-4.5s.2-4.5.3-7.6.1-6.8.1-11.2" fill="#b6b6b6"/></g></g></g><g style="isolation:isolate"><g clip-path="url(#clip-path-5)"><g style="isolation:isolate"><path d="M405.7,218.4l15,5.7.3,7.1.3,6.7c0,2.2.1,4.3.2,6.3s.1,4,.1,5.9l-14.9-1.2c-.1-2.3-.1-4.6-.2-6.9s-.1-4.9-.2-7.4l-.3-7.9c-.1-2.7-.2-5.4-.3-8.3" fill="#b6b6b6"/></g></g></g><g style="isolation:isolate"><g clip-path="url(#clip-path-6)"><g style="isolation:isolate"><path d="M417.9,245.3l14,1.8a12,12,0,0,1,4.5,1.5,15.7,15.7,0,0,1,3.8,3,13.9,13.9,0,0,1,2.8,4.3,17.2,17.2,0,0,1,1.1,5.2,14.3,14.3,0,0,1-.6,5.1,13.2,13.2,0,0,1-2.3,4.4,13.3,13.3,0,0,1-3.4,3.3,12.8,12.8,0,0,1-4.3,1.9l-13.7,3.3a13.3,13.3,0,0,0,4.7-2.1,14.5,14.5,0,0,0,3.9-3.9,17.9,17.9,0,0,0,2.5-5.2,20.7,20.7,0,0,0,.7-6.2,21.4,21.4,0,0,0-1.3-6.2,16.9,16.9,0,0,0-3.1-5,14.8,14.8,0,0,0-4.3-3.6,14,14,0,0,0-5-1.6" fill="#b6b6b6"/></g></g></g><path d="M378.9,224.7l1.1-.2,1-.3,1-.3,1.1-.3.5,13.4,10.6-2.1-.6-13.9,2.9-.7,3-.6,3.1-.7,3.1-.6c.1,2.9.2,5.6.3,8.3l.3,7.9c.1,2.5.1,5,.2,7.4s.1,4.6.2,6.9l1.6-1.4,1.9-1,2-.8,2.2-.5a13.9,13.9,0,0,1,6.1.7,14.9,14.9,0,0,1,5.4,3.2,18.5,18.5,0,0,1,4,5.5,19,19,0,0,1,1.7,7.1,19.3,19.3,0,0,1-1.1,7.3,16.3,16.3,0,0,1-3.4,5.7,15.2,15.2,0,0,1-5.1,3.7,13.8,13.8,0,0,1-6.1,1.1l-2.5-.4a11.3,11.3,0,0,1-2.4-.8,8.8,8.8,0,0,1-2.1-1.2,9.5,9.5,0,0,1-2-1.5c0,4.4-.1,8.1-.1,11.2s-.2,5.6-.3,7.6-.1,3.5-.2,4.5a12.6,12.6,0,0,1-.1,1.6l-3.9-.5-3.8-.5-3.6-.5-3.5-.5a10.2,10.2,0,0,0,1-2.1,15.5,15.5,0,0,0,.7-2.3,12.6,12.6,0,0,0,.4-2.7,25.3,25.3,0,0,0,.1-2.8,22.3,22.3,0,0,0-1.4-6.9,17.4,17.4,0,0,0-3.1-5.7,13.7,13.7,0,0,0-4.2-3.8,10.2,10.2,0,0,0-4.8-1.3,8.3,8.3,0,0,0-4.4,1.2,10.7,10.7,0,0,0-3.4,3.3,13.4,13.4,0,0,0-2,4.7,18.8,18.8,0,0,0-.6,5.9,21.1,21.1,0,0,0,.2,2.5,20.5,20.5,0,0,0,.5,2.4,18.7,18.7,0,0,0,.7,2.2l.9,2.2-2.7-.5-2.6-.6-2.6-.5-2.4-.5c0-.1-.1-.5-.2-1.3s-.2-1.9-.3-3.4-.3-3.5-.5-5.8-.4-5-.6-8.1l-.9.9-1,.5-1.1.4H356a6.5,6.5,0,0,1-2.9-1.1,9.9,9.9,0,0,1-2.3-2.6,17,17,0,0,1-1.6-3.6,21.3,21.3,0,0,1-.6-4.5,16,16,0,0,1,.3-4.4,14.2,14.2,0,0,1,1.3-3.8,9.7,9.7,0,0,1,2.1-2.7,5.3,5.3,0,0,1,2.8-1.2h1l.9.2,1,.4.9.6c-.1-1.7-.2-3.3-.3-5.1s-.1-3.6-.2-5.4l-.3-5.7c-.1-2-.1-4-.2-6.1l1.8-.6,1.9-.7,1.8-.6,2-.7.4,11.7,8.4-1.7-.5-12.6,1.3-.3,1.3-.4,1.3-.4Z" fill="#fff" stroke="#c6c6c5" stroke-miterlimit="10"/></g></g><g filter="url(#dropshadow)"><g style="isolation:isolate"><g style="isolation:isolate"><g clip-path="url(#clip-path-7)"><g style="isolation:isolate"><path d="M844.8,188l-30.4,7.8,1.3-.9,1.4-.8,1.5-.7,1.5-.6,31.2-8.3-1.7.7-1.7.9-1.6.9-1.5,1" fill="#b6b6b6"/><path d="M851.3,184.5l-31.2,8.3.6-.2.5-.2.6-.2.6-.2,31.5-8.3-.7.2-.6.2-.7.2-.6.2" fill="#bebebe"/></g></g></g><g style="isolation:isolate"><g clip-path="url(#clip-path-8)"><g style="isolation:isolate"><path d="M862,254l-32.9-1.7a25.7,25.7,0,0,1-4-.5,22.2,22.2,0,0,1-3.9-1.2l-3.7-1.9a40.5,40.5,0,0,1-3.4-2.3l30.8.7a38.9,38.9,0,0,0,3.9,2.8A27.4,27.4,0,0,0,853,252a32.2,32.2,0,0,0,4.4,1.4,23.2,23.2,0,0,0,4.6.6" fill="#b6b6b6"/></g></g></g><polygon points="814.2 150.9 787.7 164.3 787 136.2 813.2 118.2 814.2 150.9" fill="#adadad"/><polygon points="748.8 146.8 731 161.5 730.5 131.5 748.1 111.5 748.8 146.8" fill="#adadad"/><g style="isolation:isolate"><g clip-path="url(#clip-path-9)"><g style="isolation:isolate"><path d="M803.3,308.7l-25.9-10.2a41.1,41.1,0,0,0,2.7-5.1,53.1,53.1,0,0,0,2-5.6,38.4,38.4,0,0,0,1.1-5.9,30.8,30.8,0,0,0,.3-6.1,40.3,40.3,0,0,0-3-14.5,38.5,38.5,0,0,0-7.8-11.8A35,35,0,0,0,747.1,239l20.7-.6a41.1,41.1,0,0,1,16.5,3.2,39.6,39.6,0,0,1,13.2,9.3,42.4,42.4,0,0,1,9,13.7,48.5,48.5,0,0,1,3.7,17.2q0,3.6-.3,7.2a49.6,49.6,0,0,1-1.3,6.9,46.7,46.7,0,0,1-2.3,6.6,59.2,59.2,0,0,1-3,6.2" fill="#b6b6b6"/></g></g></g><g style="isolation:isolate"><g clip-path="url(#clip-path-10)"><g style="isolation:isolate"><path d="M675.9,181.9l-7,9.8q-.1-6.9-.3-14.4l-.3-15.3c0-5.2-.1-10.6-.1-16.1s-.1-11.2-.1-17l6.7-21.8c0,6.9.1,13.6.1,20.2s.2,12.9.3,19.2.2,12.3.3,18.2.2,11.6.4,17.2" fill="#b6b6b6"/></g></g></g><g style="isolation:isolate"><g clip-path="url(#clip-path-11)"><g style="isolation:isolate"><path d="M683.4,317.4l-8.3-12.5c0-.3-.2-1.4-.4-3.7l-.9-9.8c-.4-4.4-.8-9.8-1.3-16.4s-.9-14.4-1.4-23.3l7.5,1.9c.6,10.7,1.2,20,1.7,27.9s1.1,14.5,1.6,19.7.8,9.1,1.1,11.8.4,4.1.4,4.4" fill="#b6b6b6"/></g></g></g><path d="M767.6,113.1l3.6.4,3.5.3,3.5.4,3.5.3.9,34.4,31.6,2-1-32.7,7.8,1,7.5,1.1,7.4,1,7.2,1.2c.2,6.1.4,12,.6,17.8s.3,11.4.5,16.8.2,10.8.4,15.9.1,10.2.2,15l3.8-2.3,4.1-1.7a29.8,29.8,0,0,1,4.3-.9l4.5-.3a28.9,28.9,0,0,1,11.9,3.2,33.7,33.7,0,0,1,9.7,7.6,37.8,37.8,0,0,1,6.7,11.1,40.2,40.2,0,0,1,2.9,13.5,42.4,42.4,0,0,1-1.6,13.5,36.6,36.6,0,0,1-5.8,11.3,31.1,31.1,0,0,1-9.2,7.8,26,26,0,0,1-11.8,3.3,30.4,30.4,0,0,1-5.2-.4,31.8,31.8,0,0,1-5.1-1.3,28.6,28.6,0,0,1-4.7-2.2,43.7,43.7,0,0,1-4.4-3.1q-.1,14.6-.6,25.2c-.2,7.1-.4,13-.7,17.6s-.4,8.1-.6,10.5a24.4,24.4,0,0,1-.3,3.8l-9.6,1.2-9.7,1.1-10,1.1-10.1,1.1a59.2,59.2,0,0,0,3-6.2,46.7,46.7,0,0,0,2.3-6.6,49.6,49.6,0,0,0,1.3-6.9q.3-3.6.3-7.2a48.5,48.5,0,0,0-3.7-17.2,42.4,42.4,0,0,0-9-13.7,39.6,39.6,0,0,0-13.2-9.3,41.1,41.1,0,0,0-16.5-3.2,39.8,39.8,0,0,0-16.7,4,44.2,44.2,0,0,0-14,10.3,50,50,0,0,0-12.2,41.9,42.1,42.1,0,0,0,1.8,7.2,45.1,45.1,0,0,0,2.9,6.7,46.7,46.7,0,0,0,3.8,6l-12.1.8L709,316l-12.7.7-12.9.7c0-.3-.2-1.7-.4-4.4s-.7-6.6-1.1-11.8-1-11.8-1.6-19.7-1.1-17.2-1.7-27.9a48.9,48.9,0,0,1-11.2,5.6,62.5,62.5,0,0,1-6.2,1.6,49,49,0,0,1-6.7.7,45.4,45.4,0,0,1-17.7-2.9,43.8,43.8,0,0,1-24.8-23,40,40,0,0,1-3.6-17.3,41.9,41.9,0,0,1,14.1-30.9,44.2,44.2,0,0,1,14.6-8.8,45.8,45.8,0,0,1,17.4-2.8,54.2,54.2,0,0,1,5.8.6,48.8,48.8,0,0,1,5.5,1.2,46,46,0,0,1,5.2,1.9,44.4,44.4,0,0,1,4.9,2.4c-.2-5.6-.3-11.3-.4-17.2s-.2-12-.3-18.2-.2-12.7-.3-19.2-.1-13.3-.1-20.2l9.8.4,9.6.5,9.3.5,9.2.5.4,35.6,35.7,2.2-.7-35.3,5,.4,4.9.4,4.8.4Z" fill="#fff" stroke="#c6c6c5" stroke-miterlimit="10"/></g></g></g><g id="Ebene_7" data-name="Ebene 7"><path d="M1342.7,342.1l-95.2-4.5h-.6l-87.2,16.2c-2.7.4-2.6,3.6,0,4l91.1,14.7a48.4,48.4,0,0,0,23-2l69.7-24.5C1345.9,345.3,1345.3,342.2,1342.7,342.1Z" fill="#ebeae4" stroke="#8e8e8d" stroke-linecap="round" stroke-miterlimit="10" stroke-width="2"/><path d="M1342.7,328.2l-95.2-4.1h-.6l-87.2,14.7c-2.7.5-2.6,3.4,0,3.8l91.1,13.3a52.5,52.5,0,0,0,23-1.8l69.7-22.3C1345.9,331.1,1345.3,328.3,1342.7,328.2Z" fill="#ebeae4" stroke="#8e8e8d" stroke-linecap="round" stroke-miterlimit="10" stroke-width="2"/><path d="M1284.5,334.4h-.2l-67-7.6a2,2,0,0,1-1.8-2V312.7a7.6,7.6,0,0,1,7.5-7.6h.2l35.2-1.5,44.9,1.6a6.6,6.6,0,0,1,6.3,6.5v14.2a1.9,1.9,0,0,1-1.5,1.9l-23,6.5Z" fill="#c6c6c5"/><path d="M1258.4,305.6l44.9,1.6a4.5,4.5,0,0,1,4.3,4.5v14.2l-23.1,6.5-67-7.6V312.7a5.6,5.6,0,0,1,5.5-5.6h.3l35.1-1.5m0-4h-.2l-35,1.5h-.2a9.6,9.6,0,0,0-9.5,9.6v12.1a3.9,3.9,0,0,0,3.5,4l67.1,7.6h1.5l23.1-6.6a3.9,3.9,0,0,0,2.9-3.8V311.7a8.5,8.5,0,0,0-8.2-8.5l-44.9-1.6Z" fill="#8e8e8d"/><path d="M1284.4,333.4l-67-7.6a1,1,0,0,1-.9-1V312.7a6.6,6.6,0,0,1,6.5-6.6h.3l55.9,2.1a6.5,6.5,0,0,1,6.3,6.5v17.7a1.1,1.1,0,0,1-.3.8l-.7.2Z" fill="#c6c6c5"/><path d="M1223,307.1h.3l55.9,2.1a5.5,5.5,0,0,1,5.3,5.5v17.7l-67-7.6V312.7a5.6,5.6,0,0,1,5.5-5.6m0-2h0a7.6,7.6,0,0,0-7.5,7.6v12.1a2,2,0,0,0,1.8,2l67,7.6h.2a2.4,2.4,0,0,0,1.4-.5,2,2,0,0,0,.6-1.5V314.7a7.4,7.4,0,0,0-7.3-7.5l-55.9-2.1Z" fill="#8e8e8d"/><path d="M1262.5,306.3c-3.7,0-5.6-.7-5.6-2.1V265.8a.9.9,0,0,1,1-1h9.3a1,1,0,0,1,1,1v38.4Q1268.2,306.3,1262.5,306.3Z" fill="#c6c6c5"/><path d="M1267.2,265.8v38.4c0,.7-2.3,1.1-4.7,1.1s-4.6-.4-4.6-1.1V265.8h9.3m0-2h-9.3a2,2,0,0,0-2,2v38.4c0,2.1,2.1,3.1,6.6,3.1s6.7-1,6.7-3.1V265.8a2,2,0,0,0-2-2Z" fill="#8e8e8d"/><path d="M1214.7,297.4a1.7,1.7,0,0,1-1.4-.7,2,2,0,0,1-.6-1.4l3.1-59.9a2,2,0,0,1,1.8-1.9l89.7-11h.3a1.6,1.6,0,0,1,1.3.6,1.8,1.8,0,0,1,.7,1.5l-3.1,71.9a2,2,0,0,1-2,1.9Z" fill="#c6c6c5"/><path d="M1307.6,224.5l-3.1,71.9-89.8-1,3.1-59.9,89.8-11m0-4h-.5l-89.8,10.9a4,4,0,0,0-3.5,3.8l-3.1,59.9a4.6,4.6,0,0,0,1.1,2.9,3.9,3.9,0,0,0,2.9,1.3l89.7,1h.1a4,4,0,0,0,4-3.8l3.1-71.9a4.4,4.4,0,0,0-1.3-3.1,4,4,0,0,0-2.7-1.1Z" fill="#8e8e8d"/><polygon points="1301.1 293.4 1217.4 293.4 1220.3 237.5 1304 227.5 1301.1 293.4" fill="#8f0000"/><g style="isolation:isolate"><g style="isolation:isolate"><g clip-path="url(#clip-path-12)"><g style="isolation:isolate"><path d="M1247.5,259h0" fill="#cecece"/><path d="M1247.7,259.1h7.5l.2.2h-7l-.2-.2a.1.1,0,0,1-.1-.1h-.4" fill="#d6d6d6"/></g></g></g><g style="isolation:isolate"><g clip-path="url(#clip-path-13)"><g style="isolation:isolate"><path d="M1248.9,267.7l7-.4a.5.5,0,0,1-.2.4l-.3.2-.3.2h-.3l-6.9.4h.2l.3-.2.3-.2a.5.5,0,0,0,.2-.4" fill="#b6b6b6"/></g></g></g><polygon points="1250 249.9 1257.2 250.2 1257.4 254.5 1250.3 254.4 1250 249.9" fill="#adadad"/><g style="isolation:isolate"><g clip-path="url(#clip-path-14)"><g style="isolation:isolate"><path d="M1254.2,266l7.4-.4a2.1,2.1,0,0,0-1.2.5,3,3,0,0,0-.9,1.3,4.8,4.8,0,0,0-.6,1.8,15.5,15.5,0,0,0-.1,2.2h0l-7.2.6h0a16.9,16.9,0,0,1,.1-2.3,10.5,10.5,0,0,1,.5-1.9,7.3,7.3,0,0,1,.9-1.3,1.6,1.6,0,0,1,1.1-.5" fill="#b6b6b6"/><path d="M1251.6,272.3l7.2-.6a.6.6,0,0,0,.1.4v.3a.8.8,0,0,0,.1.4v.3l-7.2.6v-.3c-.1-.1-.1-.2-.1-.4v-.7" fill="#bebebe"/><path d="M1251.8,273.7l7.2-.6v.3a441518864521.8,441518864521.8,0,0,1,.2.6.4.4,0,0,0,.1.3l-7.3.7v-.3a.4.4,0,0,1-.1-.3.4.4,0,0,1-.1-.3c0-.1-.1-.3-.1-.4" fill="#c6c6c6"/><path d="M1252.1,275l7.3-.7h.1l-7.2.8v-.2c-.1,0-.1,0-.1-.1h0a.1.1,0,0,0-.1-.1" fill="#cecece"/></g></g></g><polygon points="1254.6 248.4 1262.1 248.7 1262.3 253.5 1254.8 253.4 1254.6 248.4" fill="#adadad"/><g style="isolation:isolate"><g clip-path="url(#clip-path-15)"><g style="isolation:isolate"><path d="M1260.6,267.4l7.8-.5c.1,1.5.1,2.7.1,3.8v4.1a3.5,3.5,0,0,1-.1.6l-7.7.8v-4.9c0-1.1,0-2.4-.1-3.9" fill="#b6b6b6"/></g></g></g><g style="isolation:isolate"><g clip-path="url(#clip-path-16)"><g style="isolation:isolate"><path d="M1259.9,247.2l7.9.4c0,.9.1,1.9.1,2.8s.1,1.8.1,2.6a21.8,21.8,0,0,1,.1,2.5,18.5,18.5,0,0,1,.1,2.3h-7.8c0-.8-.1-1.6-.1-2.4s-.1-1.7-.1-2.6-.1-1.8-.1-2.8-.1-1.9-.2-2.9" fill="#b6b6b6"/></g></g></g><g style="isolation:isolate"><g clip-path="url(#clip-path-17)"><g style="isolation:isolate"><path d="M1262.4,256.7h0" fill="#cecece"/><path d="M1262.6,256.7h8.4l.5.2a1,1,0,0,1,.5.4.8.8,0,0,1,.4.4h-8l-.4-.5-.5-.4-.5-.2h-.4" fill="#d6d6d6"/><path d="M1264.4,257.9h8l.3.3.2.3c0,.1.1.2.2.3s.1.3.1.4h-8.1c0-.1-.1-.2-.1-.4s-.2-.2-.2-.3l-.2-.3-.2-.3" fill="#cecece"/><path d="M1265.1,259.2h8.1a.4.4,0,0,1,.1.3l.2.3a.4.4,0,0,0,.1.3v.3l-8.1.2a.4.4,0,0,0-.1-.3c0-.2,0-.3-.1-.4a441518864522,441518864522,0,0,0-.2-.6" fill="#c6c6c6"/><path d="M1265.5,260.5l8.1-.2a.4.4,0,0,1,.1.3.8.8,0,0,1,.1.4.4.4,0,0,0,.1.3v.4l-8.1.3c0-.2-.1-.3-.1-.4v-.4c0-.1-.1-.2-.1-.4a.4.4,0,0,0-.1-.3" fill="#bebebe"/><path d="M1265.8,262l8.1-.3h0a9.8,9.8,0,0,1-.8,4.1,3.6,3.6,0,0,1-1.1,1.3,2.1,2.1,0,0,1-1.3.5l-7.9.6a3.4,3.4,0,0,0,1.2-.6,4.5,4.5,0,0,0,1-1.3,5.9,5.9,0,0,0,.6-2,8.6,8.6,0,0,0,.2-2.3h0" fill="#b6b6b6"/></g></g></g><path d="M1253.7,248.7h.9l.2,5,2.6-.6-.2-5,.6-.2h.7l.7-.2h.7c.1,1,.1,2,.2,2.9s.1,1.9.1,2.8.1,1.7.1,2.6.1,1.6.1,2.4l.3-.4.5-.4.4-.3h.5a1.6,1.6,0,0,1,1.3.3,2.9,2.9,0,0,1,1.1,1.1,4.8,4.8,0,0,1,.9,1.9,15,15,0,0,1,.4,2.4,9.7,9.7,0,0,1-.2,2.4,6.6,6.6,0,0,1-.6,2,4.7,4.7,0,0,1-1.1,1.3,2.1,2.1,0,0,1-1.2.5h-.6l-.5-.3-.5-.3c-.2-.2-.3-.4-.5-.5.1,1.5.1,2.8.1,3.9v4.9h-3.5a2.4,2.4,0,0,0,.2-.8c.1-.3.1-.6.2-.9s.1-.6.1-1v-1a18.7,18.7,0,0,0-.4-2.5,7.6,7.6,0,0,0-.8-2,3.6,3.6,0,0,0-1.1-1.3,2.1,2.1,0,0,0-1.2-.5,1.6,1.6,0,0,0-1.1.5,7.3,7.3,0,0,0-.9,1.3,10.5,10.5,0,0,0-.5,1.9,16.9,16.9,0,0,0-.1,2.3c0,.3.1.6.1.9s.1.6.1.9a2.9,2.9,0,0,1,.2.9l.3.8h-.7l-.7-.2h-1.4v-.5a12.3,12.3,0,0,1-.2-1.3c0-.6-.1-1.4-.1-2.3s-.2-1.9-.3-3.2a.5.5,0,0,1-.2.4l-.3.2-.3.2h-.3a1.2,1.2,0,0,1-.8-.4,3.6,3.6,0,0,1-.7-1,5.3,5.3,0,0,1-.5-1.5,8.8,8.8,0,0,1-.2-1.7,10.7,10.7,0,0,1,0-1.8,7.5,7.5,0,0,1,.4-1.6,1.7,1.7,0,0,1,.6-1,1,1,0,0,1,.8-.5c.1-.1.1-.1.2,0h.3l.3.2c.1.1.2.1.2.2a14.1,14.1,0,0,0-.1-2,14.8,14.8,0,0,0-.1-2.1c0-.7-.1-1.5-.1-2.3s-.1-1.5-.1-2.3l.5-.3.5-.2.5-.2.5-.2.3,4.5,2.2-.5-.3-4.7.4-.2h1.1Z" fill="#fff" stroke="#c6c6c5" stroke-miterlimit="10"/></g></g><g id="Personen"><path d="M1207.1,422.9c0-4.8-17.7-8.7-39.7-8.7s-39.6,3.9-39.6,8.7h0v12.6c0,4.8,17.7,8.7,39.6,8.7s39.7-3.9,39.7-8.7V422.9Z" fill="#ebeae4" stroke="#8e8e8d" stroke-linecap="round" stroke-miterlimit="10" stroke-width="2"/><path d="M1139.4,429c-7.2-1.5-11.6-3.7-11.6-6.1,0-4.8,17.7-8.7,39.6-8.7s39.7,3.9,39.7,8.7" fill="#ebeae4" stroke="#8e8e8d" stroke-linecap="round" stroke-miterlimit="10" stroke-width="2"/><path d="M191.9,501.4c-.4-12.7-.7-20.1-.7-20.1,11.1,7.5,4.7,6.3,12.3,7.2s19.8-16,23.1-33.8a3.3,3.3,0,0,0-1-2.8,48.1,48.1,0,0,1,5-7.4c3.5-4.1,3.7-8.5,3.9-15.9s-.6-15.5-.6-15.5l-8.8,18.4a3.3,3.3,0,0,1-3.4-2.9c-.6-3.1,3.4-12.5-3.4-13,0,0-5.3,13-4.1,17.8a41.3,41.3,0,0,1,.8,13.1c-1.7-.3-3.1-.1-3.6.6a44.7,44.7,0,0,0-5.6,11.2c-6.4-11.2-9.7-25.6-23.2-42.7-2.5-3.1-6.4-4.5-16.6-6.3-.4-3.1.6-6.5,1.6-9.8,4.6,0,10.1-.9,13.5-4.9,1.7-2.2,2.1-8.8,1-16.2l.3.9a14,14,0,0,1,3.1-5c2.3-2.8-2.2-3.1-7-8.9a37.6,37.6,0,0,0-6.7-10.2,25.7,25.7,0,0,0,.1-7.3c-.9-4.8-14.2-8.1-25.6-5.3-1.7.5-19.6,5.4-23,22a27.5,27.5,0,0,0,2.8,18.5c-5.4,2.4-9.5,5.7-11.4,12.1s3.9,10.8,4.2,19.4c.4,11.7-6.2,23.7-6.2,23.7a13.6,13.6,0,0,0,4.8-2.4l.4-.2c-.2.6-.3,1.3-.5,1.9-1.3,2.5-4.1,6.9-4.1,6.9l2.7-.4c-2.3,12.3-1.5,20.4,3,23.7a12.8,12.8,0,0,0,7.9,2.6c0,10.7.9,19.6.9,30.3m.7-98.3,1.3,6.4A20.6,20.6,0,0,1,128.5,402.4Zm1.9,8c3-3,5.5-9.3,5.8-15.7a19.4,19.4,0,0,0,6.9,3.4c1.7,4.6,1.4,7.5,0,10.1a54.5,54.5,0,0,0-11.7,5.3C131.1,412.4,130.7,411.4,130.4,410.4Z" fill="#ebeae4" stroke="#8e8e8d" stroke-linecap="round" stroke-miterlimit="10" stroke-width="6"/><polygon points="223.3 396.4 205.7 386.5 186.1 402.2 169.6 393 150.1 455.7 164.9 460.8 178.2 452.4 193 460.8 211.3 452.8 244.7 387.1 223.3 396.4" fill="#c6c6c5" stroke="#8e8e8d" stroke-linejoin="round" stroke-width="4"/><line x1="223.3" y1="396.4" x2="193" y2="460.8" fill="#c6c6c5" stroke="#8e8e8d" stroke-linecap="round" stroke-linejoin="round" stroke-width="2"/><line x1="205.7" y1="386.5" x2="178.2" y2="452.4" fill="#c6c6c5" stroke="#8e8e8d" stroke-linecap="round" stroke-linejoin="round" stroke-width="2"/><line x1="186.1" y1="402.2" x2="164.9" y2="460.8" fill="#c6c6c5" stroke="#8e8e8d" stroke-linecap="round" stroke-linejoin="round" stroke-width="2"/><path d="M177.7,364.4c5.1,6.8,10.2,7,7.8,9.9a14,14,0,0,0-3.1,5" fill="#ebeae4" stroke="#8e8e8d" stroke-linecap="round" stroke-miterlimit="10" stroke-width="2"/><path d="M218.3,415.6s-5.3,13-4.1,17.8a38.8,38.8,0,0,1,.1,17.1l9,6.1s3.3-7.5,7.3-12.1,3.7-8.5,3.9-15.9-.6-15.5-.6-15.5l-8.8,18.4a3.3,3.3,0,0,1-3.4-2.9C221.1,425.5,225.1,416.1,218.3,415.6Z" fill="#ebeae4" stroke="#8e8e8d" stroke-linecap="round" stroke-miterlimit="10" stroke-width="2"/><path d="M139.7,413.1c3.8-5,6.5-8,2.7-16.7a63.7,63.7,0,0,0-8.8-14.4l34.4-3.1s1.4,14.8-.1,19.7-3.2,10.3-.7,14.5S139.7,413.1,139.7,413.1Z" fill="#ebeae4" stroke="#8e8e8d" stroke-miterlimit="10" stroke-width="2"/><path d="M135.3,384.2c-11.2-12.5-4.8-23.7,2.1-29.6s20.8-8.8,28.7-4.2c2.9,1.6,10,7.7,13.6,18s3.9,23.1,1.4,26.2c-6.2,7.4-20.2,4.3-21.4,4" fill="#ebeae4" stroke="#8e8e8d" stroke-linecap="round" stroke-miterlimit="10" stroke-width="2"/><path d="M191.9,501.4c-.4-12.7-.7-20.1-.7-20.1,11.1,7.5,4.7,6.3,12.3,7.2s19.8-16,23.1-33.8c.9-4.7-13.3-10.4-15.2-7.6a44.7,44.7,0,0,0-5.6,11.2c-6.4-11.2-9.7-25.6-23.2-42.7-2.7-3.3-7.1-4.8-19.6-6.8a106.9,106.9,0,0,0-16.4-1.4c-2.3,0-22.1,6-25.8,18.1-7,22.8-8.4,37.5-1.8,42.3a12.8,12.8,0,0,0,7.9,2.6c0,10.7.9,19.6.9,30.3" fill="#ebeae4" stroke="#8e8e8d" stroke-linecap="round" stroke-miterlimit="10" stroke-width="2"/><path d="M171.9,347.9c-.9-4.8-14.2-8.1-25.6-5.3-1.7.5-19.6,5.4-23,22-2.8,13.2,5.7,23.1,6.9,24.5s10.2,11.4,18.9,8.9c7.1-2.1,10.5-6.4,10.4-13s-6.3-8-1.2-9.7C170.7,371.1,172.9,353.4,171.9,347.9Z" fill="#ebeae4" stroke="#8e8e8d" stroke-miterlimit="10" stroke-width="2"/><path d="M127.9,382.3c-6.3,2.6-11.1,5.9-13.2,12.9s3.9,10.8,4.2,19.4c.4,11.7-6.2,23.7-6.2,23.7a13.6,13.6,0,0,0,4.8-2.4c2.5-1.8-4.2,8.6-4.2,8.6s16.2-1.1,20.1-11.5-5.2-24.6-4.9-30.6l1.7,8.1c4.2-4,7.6-14.3,5.3-22.6" fill="#ebeae4" stroke="#8e8e8d" stroke-linecap="round" stroke-miterlimit="10" stroke-width="2"/><path d="M1163.8,446l-1.5,15.3,64.4,3.3s5.9-27.9,10.6-61.7-7.8-28.7-14.4-28.8-32.2,2.8-39.8,4.7a8.3,8.3,0,0,1-2.2.3c-.7-3.4-1.6-7.3.4-12.2,3.7-8.7,2-15.6,2-15.6h0c3.9.5,7.7,1,10.6,1.1,10.2.7,25-2.9,37-10.3a6.3,6.3,0,0,0,3-4.5,18.2,18.2,0,0,0,6.7-2c3.9-1.8,4.6-3.8,11.3-7.8s10.5-2.7,9-7.8a49.4,49.4,0,0,0-17.5.7,54.8,54.8,0,0,0-15,6.1,4.1,4.1,0,0,0-3.5-.6,119,119,0,0,1-31,6.2l-3.1-1.2c6-3.4,9.8-2.5,8.3-7.4a49.4,49.4,0,0,0-17.5.7l-1.7.4a33.5,33.5,0,0,1-5.7-4.9c-2.8-3.1-6.6-5.6-12.8-7.1l-.8-6.6h0a27,27,0,0,0,4.1.6c8.2.5,8.5-3.1,10.9-13a17,17,0,0,1,4.1-2.6c2.9-1.3-.7-3.3-2.3-10a65.3,65.3,0,0,0-.4-10c2.5-2.3,4.1-4.8,3.3-7.7-1.5-5.3-7.6-12.7-22.5-14.1s-20.3,4.2-23.5,8.1c-4.8,5.8-8.8,6.7-11.1,19.4s-11,30.7-10.6,45.1a59.7,59.7,0,0,0,6.9,26.6c1,14.3,2.4,31.8,1.9,37.4a13.4,13.4,0,0,0,1.8,8,28.7,28.7,0,0,0,1,7.5,32,32,0,0,0,8.9,14.7c14.7,14.7,41,13.6,57.8,8.4l3-1.1" fill="#ebeae4" stroke="#8e8e8d" stroke-linecap="round" stroke-miterlimit="10" stroke-width="6"/><path d="M1257.3,345.3h-.6l-65.2-8.5a3.9,3.9,0,0,1-3.5-3.3,3.8,3.8,0,0,1,2-4.3l17.4-9.8a3.6,3.6,0,0,1,2-.6h.3l65.5,5a4.2,4.2,0,0,1,3.7,2.9,4.2,4.2,0,0,1-1.5,4.5l-17.6,13.3A4.4,4.4,0,0,1,1257.3,345.3Z" fill="#c6c6c5"/><path d="M1209.4,320.7h.2l65.5,5.1a2.1,2.1,0,0,1,1.1,3.8l-17.6,13.3a3.3,3.3,0,0,1-1.3.4h-.3l-65.3-8.6a2.1,2.1,0,0,1-.7-3.9l17.4-9.8a1.9,1.9,0,0,1,1-.3m0-4h0a6.4,6.4,0,0,0-3,.8l-17.4,9.8a6.1,6.1,0,0,0-3,6.5,6,6,0,0,0,5.2,4.9l65.3,8.5h.8a7.1,7.1,0,0,0,3.7-1.2l17.6-13.3a6.2,6.2,0,0,0,2.2-6.6,6.1,6.1,0,0,0-5.4-4.4l-65.5-5Z" fill="#8e8e8d"/><path d="M1177.2,280.5c1.5,7.3,5.5,9.4,2.5,10.8a13.6,13.6,0,0,0-4.3,2.9" fill="#ebeae4" stroke="#8e8e8d" stroke-linecap="round" stroke-miterlimit="10" stroke-width="2"/><path d="M1227.2,398.9c-5.4,6.9-17.1,19.8-36.3,25.8-16.8,5.2-43.1,6.3-57.8-8.4a32,32,0,0,1-8.9-14.7c-3.1-11.4,1.4-21.3,3-24.3,4.1-8.1,29.9-10.6,35.5-6s12.8,9.4,20.4,7.5,33.2-4.7,39.8-4.7,19.1-4.9,14.4,28.8-10.6,61.7-10.6,61.7l-64.4-3.3,1.5-15.3" fill="#ebeae4" stroke="#8e8e8d" stroke-linecap="round" stroke-miterlimit="10" stroke-width="2"/><path d="M1222.9,330.2c4.1-2.8,12.1-7.7,20.5-9.5a49.4,49.4,0,0,1,17.5-.7c1.5,5.1-2.6,4-9,7.8s-7.4,6-11.3,7.8-6.7,2.9-14.2,1.5" fill="#ebeae4" stroke="#8e8e8d" stroke-linecap="round" stroke-miterlimit="10" stroke-width="2"/><path d="M1161.1,334c4.1-2.8,12.1-7.7,20.5-9.5a49.4,49.4,0,0,1,17.5-.7c1.5,5.1-2.6,3.9-9,7.8s-7.4,6-11.3,7.8-6.7,2.9-14.2,1.5" fill="#ebeae4" stroke="#8e8e8d" stroke-linecap="round" stroke-miterlimit="10" stroke-width="2"/><path d="M1144.3,297.1a30.9,30.9,0,0,0,20.4,9.8c8.3.5,8.5-3.2,11-13.3,2.9-12,2-28.7-2.2-34.4s-20.1-10.9-32.6-4.6-13,21.4-10.3,30,5.4,16.1,4.9,20.7-1.2,12.7-1.2,12.7l28.2,3-1.9-14.7" fill="#ebeae4" stroke="#8e8e8d" stroke-linecap="round" stroke-miterlimit="10" stroke-width="2"/><path d="M1135.2,308c-13.9.5-17.3,14.5-16.6,28.4s3.5,42.3,2.8,49.7,5.5,17.2,21,21,35-13.7,38.4-20.7c2.5-5.3-3.1-10.8.5-19.5s2-15.6,2-15.6l-21.1-3.4s21.4,3.9,31.7,4.5,25-2.9,37-10.3c7.6-4.6-.8-17.7-6-15.9a119,119,0,0,1-31,6.2s-12.6-4.5-19.7-12.4c-5-5.5-13-9.1-32.3-8.6C1137.8,311.5,1135.2,308,1135.2,308Z" fill="#ebeae4" stroke="#8e8e8d" stroke-linecap="round" stroke-miterlimit="10" stroke-width="2"/><path d="M1180.3,263.6c-1.5-5.3-7.6-12.7-22.5-14.1s-20.3,4.2-23.5,8.1c-4.8,5.8-8.8,6.7-11.1,19.4s-11,30.7-10.6,45.1c.5,21.3,11.6,33.9,11.6,33.9a11.3,11.3,0,0,0,7.6-6.2s1.7,6,3.7,5c5.4-2.5,11.6-9.7,13.7-19.5,3.5-15.7,3.2-26,4.9-36.6s10.1-19.4,15.5-22.4S1181.8,268.9,1180.3,263.6Z" fill="#ebeae4" stroke="#8e8e8d" stroke-linecap="round" stroke-miterlimit="10" stroke-width="2"/><path d="M1381.6,366.2c-2.9-2.1-14.5-9.9-21.4-13.6a1.5,1.5,0,0,0,.4-1.1c-.4-10.2,5.8-11.2,7.8-19.5,2.7-10.9,1.2-18.9-1.9-24.1-5.4-8.9-16.9-13.7-31.9-6.8-8.2,3.7-9.4,12.2-10.2,20.4-1.8,5.6-4.3,7-2.4,8.7a16.9,16.9,0,0,1,1.9,1.9c-.1,6.1.4,14.3,4.2,14.9a52,52,0,0,0,13.4.4l-3.5,1.7-.7.9c-7.9.6-16.3,2.5-21.2,6.7-8.8,7.4-4.7,14-12.9,20.1-8.3.4-13.6-5.8-25.7-1.7a11.5,11.5,0,0,1,3.2,1.2c-9.8-.9-13.9-2.6-19.1,3.3-3.3,3.8-3.8,5.8-3.7,7.8l-2.9-.3,8.6,30.9c-4.6.3-9.3,1.3-10.5,3.2s-2,13.2-1,14.2c4.1,4.4,10.4,6.9,19.4,9.3a5.9,5.9,0,0,0-.4.8L1255,442c-7-1.9-19.1,3.6-19.1,3.6s-6.3,4.2-2.6,9.3,6.6,9,14.7,9c5.7,0,13.3-1.1,18.7-1.6a5.4,5.4,0,0,0,1.9,2.8c8.5,6.2,45.3,18,45.3,18a168.4,168.4,0,0,0,37.1-9.5c18.8-7.4,21.4-11.6,22.1-20.2.2-2.9.4-12.6.4-24,11.4-3.2,11.7-.7,12.8-8.1C1390.5,393,1385.2,368.8,1381.6,366.2Z" fill="#ebeae4" stroke="#8e8e8d" stroke-linecap="round" stroke-miterlimit="10" stroke-width="6"/><path d="M1255,442c-7-1.9-19.1,3.6-19.1,3.6s-6.3,4.2-2.6,9.3,6.6,9,14.7,9,20.3-2.3,23.9-1.6,12.2-14,12.2-14Z" fill="#ebeae4" stroke="#8e8e8d" stroke-linecap="round" stroke-miterlimit="10" stroke-width="2"/><path d="M1373.4,377.3s.4,67.5-.3,76.1-3.3,12.8-22.1,20.2a168.4,168.4,0,0,1-37.1,9.5s-36.8-11.8-45.3-18c-6.2-4.6,1.9-18.4,1.9-18.4s39.4-80.3,47.2-81.4" fill="#ebeae4" stroke="#8e8e8d" stroke-linecap="round" stroke-miterlimit="10" stroke-width="2"/><path d="M1271.8,418.5c-4.6-1.2-16.7-.5-18.7,2.7s-2,13.2-1,14.2c7.7,8.2,22.8,9.6,48.6,17,22,6.3,26.9-4.6,39-8.9Z" fill="#ebeae4" stroke="#8e8e8d" stroke-linecap="round" stroke-miterlimit="10" stroke-width="2"/><path d="M1326,445.1h-.4L1269,433.4a1.8,1.8,0,0,1-1.6-1.9,1.9,1.9,0,0,1,1.6-2l34.6-7.3h.8l54.4,11.2a2,2,0,0,1,1.6,2,1.9,1.9,0,0,1-1.5,1.9l-32.4,7.8Z" fill="#c6c6c5"/><path d="M1304,424.2l54.4,11.2-32.4,7.7-56.6-11.6,34.6-7.3m0-4h-.8l-34.7,7.3a4,4,0,0,0,.1,7.8l56.6,11.7h1.8l32.4-7.7a4,4,0,0,0,3-4,3.8,3.8,0,0,0-3.2-3.8l-54.4-11.2Z" fill="#8e8e8d"/><path d="M1324.3,446.2h-.4l-56.7-11.7a1.9,1.9,0,0,1-1.5-1.4l-12.6-45.5a2.2,2.2,0,0,1,.4-1.9,2,2,0,0,1,1.5-.6h.3l61.4,7.9a2.1,2.1,0,0,1,1.7,1.7l7.8,49.2a2,2,0,0,1-.6,1.8A1.9,1.9,0,0,1,1324.3,446.2Z" fill="#c6c6c5"/><path d="M1255,387.1l61.4,7.9,7.9,49.2-56.7-11.6L1255,387.1m0-4a4.3,4.3,0,0,0-3,1.3,3.8,3.8,0,0,0-.8,3.7l12.6,45.5a3.9,3.9,0,0,0,3,2.9l56.7,11.6h.8a4,4,0,0,0,3.9-4.6l-7.8-49.2a4.1,4.1,0,0,0-3.5-3.4l-61.4-7.9Z" fill="#8e8e8d"/><path d="M1361.3,384.8c2.5,7.3.8,10.1,4.1,20.1-7,9.1-26.6,5.8-35.7,13.3,9.9,2.1,9.2,14.7,9.2,14.7,11.5,1.5,21.2.9,29-1.8,16.9-5.8,17.2-1.3,18.4-9.8,4.2-28.3-1.1-52.5-4.7-55.1s-21.6-14.6-25.8-15.5c-6.7-1.5-30-2.3-39.7,6s-4.7,14-12.9,20.1c-8.3.4-13.6-5.8-25.7-1.7,5.1.7,10.2,7.1,9.5,13l29.1,3.2,2.6-19.2" fill="#ebeae4" stroke="#8e8e8d" stroke-linecap="round" stroke-miterlimit="10" stroke-width="2"/><path d="M1280.7,376.3c-9.8-.9-13.9-2.6-19.1,3.3s-3.5,7.4-3.5,11.2,6.5,7.7,6.5,7.7,6.5-11.6,11.1-12.9c2.5-.6,11.3,2.5,11.3,2.5S1287.3,376.9,1280.7,376.3Z" fill="#ebeae4" stroke="#8e8e8d" stroke-linecap="round" stroke-miterlimit="10" stroke-width="2"/><path d="M1331.5,418.8c-6.9.4-8.8,1.5-8.8,1.5l2.8,16s10-.1,13.4-3.4S1335,418.5,1331.5,418.8Z" fill="#ebeae4" stroke="#8e8e8d" stroke-linecap="round" stroke-miterlimit="10" stroke-width="2"/><path d="M1366.5,307.9c-5.4-8.9-16.9-13.7-31.9-6.8-8.2,3.7-9.4,12.2-10.2,20.4-1.8,5.6-4.3,7-2.4,8.7a16.9,16.9,0,0,1,1.9,1.9c-.1,6.1.4,14.3,4.2,14.9a52,52,0,0,0,13.4.4l-3.5,1.7s-4.8,4.6,4,6.8,18.7-1.4,18.6-4.4c-.4-10.2,5.8-11.2,7.8-19.5C1371.1,321.1,1369.6,313.1,1366.5,307.9Z" fill="#ebeae4" stroke="#8e8e8d" stroke-linecap="round" stroke-miterlimit="10" stroke-width="2"/><path d="M370.3,494.4c-.1-2.8-.6-9.2-1.2-17.6a31.6,31.6,0,0,0,11.6-12.5c4-8,.8-11.2,1.3-32.2,0-1.9.1-3.7.2-5.2a5.8,5.8,0,0,0,1.4-3.3c.6-15.3.4-24-11.1-31.5q.3-2,.6-4.5a137.2,137.2,0,0,0,.9-28.9,4,4,0,0,0-1.4-2.6l1.7-2.7s4.7-10,4-12.3c-1.3-4.5-2-7.4-3.7-7.6a6.3,6.3,0,0,1-3.2-1.8s4.8-8.5,4.5-11.7a3.3,3.3,0,0,0-1.8-2.6s-5.8,7.9-9,12.9c-1.1,1.6-4,2.2-5.9,3.2s-3.3,8.8-2.6,12.3,1.1,5.7,1.8,8.9c-1.2.5-2,1.3-2,2.3.3,6.7.2,6.1-1.1,15.9a40.6,40.6,0,0,1-2,8,16.2,16.2,0,0,0-5.6,1.8h0a9.3,9.3,0,0,0-2,1,3.4,3.4,0,0,1,2.1,1.9c-1.6-.9-3.1-1.2-4.6-3.4s-1.4-2.5-1.8-3.4c5.2-3.6,5.8-7.3,7.8-10.4,5.7-8.6,3.5-24.6-7.4-32.9s-15.5-6.7-24.7-5.2c-21.4,3.6-22.2,18.9-21,28.8a46.9,46.9,0,0,1,5.5-1.7c-.1,1.1-.3,2.4-.4,3.8a60.7,60.7,0,0,0-.6,9,38.4,38.4,0,0,0,2.6,13.3c1.8,4.3,5.4,13,12.8,14.3a13.1,13.1,0,0,0,8.5-1.8,18.2,18.2,0,0,1,0,3.3c0,.4-.1.9-.1,1.3a7.8,7.8,0,0,0-4,1.9l-6.4,4.9h.1c-3.5,2.6-5.7,4.1-6.1,4.6-7.2,10.8-6,17.4-12.6,35.1-1.8,4.9-2.9,9.1-3.1,9.1s3.1-9.1,3.1-9.1c-1.8-4.3-2.1-3.2-4.6-7.1l-.5-.4a24.3,24.3,0,0,0-.1-8.9c-1.3-6.8.3-18.6-1.9-18.6-5.9,0-2.5,11.4-7.4,12.8-1.3.4-4.2-2.7-10.1-15.3a42.8,42.8,0,0,0-1.4,15.9c.5,4.7,3.8,7.7,7.7,16.9a3.6,3.6,0,0,0-1.9,3.4c1.1,6.9.8,5.8,8.4,25.2,4.4,11.4,12.8,16,17.8,14.4l.8-.4c1,6.2,3.4,11.1,6.6,12.4M341.1,378v.4C341.2,378.3,341.1,378.1,341.1,378Z" fill="#ebeae4" stroke="#8e8e8d" stroke-linecap="round" stroke-miterlimit="10" stroke-width="6"/><path d="M287.7,441.7a1.9,1.9,0,0,1-1.8-1.2l-17.3-39.7a2,2,0,0,1,1.1-2.6l17.6-7.6a1.1,1.1,0,0,1,.8-.2h.7a2,2,0,0,1,1.1,1.1l17.2,39.7a1.6,1.6,0,0,1,.1,1.5,2,2,0,0,1-1.1,1.1l-17.6,7.7Z" fill="#c6c6c5"/><path d="M288.1,392.4l17.2,39.7-17.6,7.6L270.5,400l17.6-7.6m0-4a4.1,4.1,0,0,0-1.6.3l-17.6,7.7a3.9,3.9,0,0,0-2.1,5.2l17.3,39.7a3.9,3.9,0,0,0,3.6,2.4,4.1,4.1,0,0,0,1.6-.3l17.6-7.6a4.5,4.5,0,0,0,2.1-2.2,4.2,4.2,0,0,0,0-3.1l-17.3-39.7a3.8,3.8,0,0,0-2.2-2.1,3.5,3.5,0,0,0-1.4-.3Z" fill="#8e8e8d"/><path d="M270.8,409.6a42.8,42.8,0,0,0-1.4,15.9c.5,5.1,4.3,8.2,8.6,19.2,1.8,4.7,11.3-.7,12-3.8a24.3,24.3,0,0,0,.2-10.2c-1.3-6.8.3-18.6-1.9-18.6-5.9,0-2.5,11.4-7.4,12.8C279.6,425.3,276.7,422.2,270.8,409.6Z" fill="#ebeae4" stroke="#8e8e8d" stroke-miterlimit="10" stroke-width="2"/><path d="M369.2,361.5l5.1-8.1s4.7-10,4-12.3c-1.3-4.5-2-7.4-3.7-7.6a6.3,6.3,0,0,1-3.2-1.8s4.8-8.5,4.5-11.7a3.3,3.3,0,0,0-1.8-2.6s-5.8,7.9-9,12.9c-1.1,1.6-4,2.2-5.9,3.2s-3.3,8.8-2.6,12.3,1.8,9,2.6,13.2" fill="#ebeae4" stroke="#8e8e8d" stroke-miterlimit="10" stroke-width="2"/><path d="M350.8,386.3a37,37,0,0,0,4.5-13.4c1.3-9.8,1.4-9.2,1.1-15.9-.1-4.8,17.2-4.6,17.6,1.7a137.2,137.2,0,0,1-.9,28.9c-1.4,10.9-2.3,13.7-2.6,19.6" fill="#ebeae4" stroke="#8e8e8d" stroke-miterlimit="10" stroke-width="2"/><path d="M308.8,497.4c-5-2.1-8.1-12.6-6.7-23.5s5-29.4,6.9-49l58.4-18.8c-3.2,21.5,2.7,78.3,2.9,88.3" fill="#ebeae4" stroke="#8e8e8d" stroke-miterlimit="10" stroke-width="2"/><path d="M349.7,387.2c-2-2.5-4.4-1.8-6.5-5-5.1-8-.6-8.1-2.7-9.8s-16.9,3.2-18.4,11.5c-.9,5,3.1,7.4,2.4,15.4-.4,5-2.3,6.2-1.3,8.1,2.6,4.7,18.9,5.4,25.4-3.7C352,399,353,391.3,349.7,387.2Z" fill="#ebeae4" stroke="#8e8e8d" stroke-miterlimit="10" stroke-width="2"/><path d="M343.6,374.1c3.5-6.9,4.1-10.3.9-19.6-.8-2.4-4.5-11.8-14.5-14.7s-23.7,3.8-27.1,11.6c-.9,2.1-1.2,5.1-1.7,9.8a60.7,60.7,0,0,0-.6,9,38.4,38.4,0,0,0,2.6,13.3c1.8,4.3,5.4,13,12.8,14.3,5.8,1,10.9-3.1,14.4-5.8a30,30,0,0,0,4.6-4.8" fill="#ebeae4" stroke="#8e8e8d" stroke-linecap="round" stroke-miterlimit="10" stroke-width="2"/><path d="M370.3,396.4c0-9.8-3.9-13.6-11-15.2-3-.7-9.9.1-13.6,2.5,0,0,3.8,1,1.6,5.8-3,6.7-15.5,10.6-17,10.9-5,.8-5.8-1.1-9.9,2.1-7.3,5.9-11.8,8.7-12.4,9.5-7.2,10.8-6,17.4-12.6,35.1-1.8,4.9-2.9,9.1-3.1,9.1s3.1-9.1,3.1-9.1c-1.8-4.3-2.1-3.2-4.6-7.1s-16.4.7-15.6,5.8c1.1,6.9.8,5.8,8.4,25.2,4.4,11.4,12.8,16,17.8,14.4s10-18.5,15.2-30.9c3.6-8.8,5.4-14.5,7.6-16.9" fill="#ebeae4" stroke="#8e8e8d" stroke-miterlimit="10" stroke-width="2"/><path d="M296.1,359.1c-1.2-9.9-.4-25.2,21-28.8,9.2-1.5,15.1-2,24.7,5.2s13.1,24.3,7.4,32.9c-2,3.1-2.6,6.9-8,10.5,0,0,1.3-7-8.4-9.3-5.9-1.4-1.2-10.9.9-15.8-4.7,3.4-5.8,5-17.5,3.7C310.8,356.9,305.8,355.3,296.1,359.1Z" fill="#ebeae4" stroke="#8e8e8d" stroke-miterlimit="10" stroke-width="2"/><path d="M307.2,375.3c-.3,2.9,3.1,3.7,3.1,3.7" fill="#ebeae4" stroke="#8e8e8d" stroke-linecap="round" stroke-miterlimit="10" stroke-width="2"/><path d="M320.4,402.5c7.2-4.6,17.1,1.8,19.6,1.3,7.5-1.6,13.5-6.9,14-10.8s-.7-8.1-6.3-10.3c0,0,4.8-2.8,8-1.6s10,6.2,10.2,10.1,4.4,32.4,4.4,32.4l-39.1,17.9s-.3-19.6-3.1-26.5c-2.1-5.4-7.2-7.8-14.1-7.6Z" fill="#ebeae4" stroke="#8e8e8d" stroke-linecap="round" stroke-miterlimit="10" stroke-width="2"/><path d="M367.3,389.8c-6-1.4-11.1,1.8-17.9,5.9s-13.2,8.1-17.5,16.7c-3.1,6.3-2.2,10.4-.7,29.1,2.4,31,1.3,35.4,6.1,39.1,9.2,7,25.1-.3,26.9-1.1s11.7-5.5,16.5-15.2c4-8,.8-11.2,1.3-32.2.4-16.5,2.4-19.7-.6-27.3C380.4,402.2,376.3,391.8,367.3,389.8Z" fill="#ebeae4" stroke="#8e8e8d" stroke-miterlimit="10" stroke-width="2"/><path d="M336,414.6c23.3,6.7,15.6,25.5,22.3,25.4,8.4-.1,25.1-11,25.3-16.4.6-15.9.4-24.7-12.5-32.4" fill="#ebeae4" stroke="#8e8e8d" stroke-linecap="round" stroke-miterlimit="10" stroke-width="2"/><path d="M1109.8,491.2c-.9,2.1-3.2,5.5-3.2,7.9s5.5,7.5,7.8,9.4c5.5,4.8,11.3,9.4,17.9,12.2a41.6,41.6,0,0,0,35.3-1.1,40.9,40.9,0,0,0,14.3-12.3c2.6-3.6,4-7.9,8.1-9.8,7.3-3.4,16.6-1.8,24.3-1.6,5.3.2,14.7,1.6,18.2-4.3,1.6-2.8,2.7-6.2,4-9.2s2.3-4.4,2.6-6.7c.6-4.3-2.2-9.2-4.6-12.1a21.6,21.6,0,0,0-12.5-7.3,13.1,13.1,0,0,0-7.5-4.6h0l-15.4-3.1-2.3-6.2a6.4,6.4,0,0,0-7.9-3.7l-39,11.3c-2.7.7-13.6,27.9-11.4,31l1.1,1.2c-5.3-1.2-10.5-2.3-16-1.7-2.9.3-7.7.4-10.1,2.8Zm38-32,4.8,13.4c-3.1-1.7-6.1-3.4-6.7-4.6S1146.8,463.5,1147.8,459.2Zm48.7,23.9c-4.1,1.8-5.4,5.7-8,9.3a40.6,40.6,0,0,1-14.2,12.6,41.5,41.5,0,0,1-34.1,2.1c-7-2.6-13.1-7.4-18.9-12.4,5,.2,10,1.4,15.1,2.5s12.8,3.3,17.9-.3a5.2,5.2,0,0,0,1.9-2c.1-.2.1-.3.2-.4l2.8-6.4a6.6,6.6,0,0,0,6.9,1l3.6-1.5a4.6,4.6,0,0,0,2.7-4.5l15.6-6.5a13.7,13.7,0,0,0,4.9,2.2l12,2.4A26.4,26.4,0,0,0,1196.5,483.1Zm23.6-1.5-4.8-.3a15.2,15.2,0,0,0,8.2-7.6l2.4,1.8a23,23,0,0,1,5,6.2C1227.1,482.2,1222.8,481.7,1220.1,481.6Z" fill="#ebeae4" stroke="#8e8e8d" stroke-linecap="round" stroke-linejoin="round" stroke-width="6"/><path d="M1239.1,475.7c.6-4.3-2.2-9.2-4.6-12.1-7.3-8.9-19.5-8.6-29.4-7.4-2.7.4-18.9,5.1-20.1.7.3,1.1-2.7,6-3.2,7.1s-3.4,5.7-3,7.2c.8,3.2,7.6,1.3,9.6,1,6.3-1,12.5-2.2,18.9-2.3s13.4,1.1,18.6,5.6a23,23,0,0,1,5,6.2c3.2-.4,6.1-1.5,7.7-4.1C1238.5,477.8,1239.1,475.7,1239.1,475.7Z" fill="#ebeae4" stroke="#8e8e8d" stroke-linecap="round" stroke-linejoin="round" stroke-width="2"/><path d="M1165,486.2l35.6-15a6.3,6.3,0,0,0,3.8-7.9l-7.6-20.9a6.4,6.4,0,0,0-7.9-3.7l-37.1,10.7a6.6,6.6,0,0,0-4.6,8.3l9.1,25.1A6.5,6.5,0,0,0,1165,486.2Z" fill="#c6c6c5" stroke="#8e8e8d" stroke-linejoin="round" stroke-width="2"/><path d="M1195.5,477.9h-.2l-13.1-2.7a11.7,11.7,0,0,1-8-5.8,15,15,0,0,1-1.6-10.4c1.3-6.7,6.8-11.5,12.9-11.5a8.2,8.2,0,0,1,2.2.2l13.1,2.6a1.2,1.2,0,0,1,.7.5.8.8,0,0,1,.1.7l-5.1,25.6A1,1,0,0,1,1195.5,477.9Z" fill="#c6c6c5"/><path d="M1185.5,448.5a7.1,7.1,0,0,1,2,.2l13.1,2.6-5.1,25.6-13.1-2.7c-6.3-1.2-10.2-8-8.8-15s6.3-10.7,11.9-10.7m0-2c-6.6,0-12.4,5.1-13.9,12.3a15.8,15.8,0,0,0,1.8,11.1,12.8,12.8,0,0,0,8.6,6.3l13.1,2.6h.4a2,2,0,0,0,1.1-.3,2.2,2.2,0,0,0,.8-1.3l5.2-25.6a1.9,1.9,0,0,0-1.6-2.3l-13.1-2.7a9.7,9.7,0,0,0-2.4-.2Z" fill="#8e8e8d"/><path d="M1208.4,482.9h-.2l-15.5-3.1a14,14,0,0,1-9.2-6.8,17.2,17.2,0,0,1-1.9-12.2c1.5-7.8,7.9-13.5,15-13.5a10.9,10.9,0,0,1,2.6.3l15.5,3.1a1,1,0,0,1,.8,1.2l-6.1,30.2A1,1,0,0,1,1208.4,482.9Z" fill="#c6c6c5"/><path d="M1196.6,448.3a9.9,9.9,0,0,1,2.4.3l15.5,3.1-6.1,30.2-15.5-3.1c-7.4-1.5-12-9.5-10.4-17.8s7.6-12.7,14.1-12.7m0-2c-7.6,0-14.4,6-16,14.3s3.4,18.4,11.9,20.1l15.5,3.2h.4a2,2,0,0,0,1.1-.3,2,2,0,0,0,.9-1.3l6.1-30.2a2.1,2.1,0,0,0-1.6-2.4l-15.5-3.1a13.3,13.3,0,0,0-2.8-.3Z" fill="#8e8e8d"/><path d="M1210.9,483.2a12.4,12.4,0,0,1-2.7-.3,14,14,0,0,1-9.2-6.8,17.1,17.1,0,0,1-1.9-12.2c1.5-7.8,7.9-13.5,15-13.5a10.9,10.9,0,0,1,2.6.3c8,1.6,13,10.1,11.2,19S1218,483.2,1210.9,483.2Z" fill="#c6c6c5"/><path d="M1212.1,451.4a9.9,9.9,0,0,1,2.4.3c7.4,1.5,12.1,9.5,10.4,17.8s-7.5,12.7-14,12.7a10.7,10.7,0,0,1-2.5-.3c-7.4-1.5-12-9.5-10.4-17.8s7.6-12.7,14.1-12.7m0-2h0c-7.6,0-14.4,6-16,14.3a18.5,18.5,0,0,0,2,12.9,15.2,15.2,0,0,0,9.9,7.3,14.3,14.3,0,0,0,2.9.3c7.6,0,14.3-6,16-14.3a18.5,18.5,0,0,0-2-12.9,15.4,15.4,0,0,0-10-7.3,13.3,13.3,0,0,0-2.8-.3Z" fill="#8e8e8d"/><path d="M1208,479.1l-2.1-.2c-6.3-1.3-10.2-8-8.8-15s6.2-10.6,11.8-10.6l2.1.2c6.3,1.3,10.3,8,8.8,15S1213.6,479.1,1208,479.1Z" fill="#c6c6c5"/><path d="M1208.9,454.3l1.9.2c5.8,1.1,9.4,7.3,8.1,13.8s-5.9,9.8-10.9,9.8l-1.9-.2c-5.8-1.2-9.4-7.3-8.1-13.8s5.9-9.8,10.9-9.8m0-2h0c-6.1,0-11.5,4.8-12.8,11.4a14.6,14.6,0,0,0,1.6,10.3,12,12,0,0,0,8,5.9l2.3.2c6.1,0,11.5-4.8,12.8-11.4s-2.8-14.8-9.6-16.2l-2.3-.2Z" fill="#8e8e8d"/><path d="M1167.2,458h-.7a3.8,3.8,0,0,1-2.6-1.9,4.7,4.7,0,0,1,3.6-7h.8a4.3,4.3,0,0,1,3.1,5.2A4.5,4.5,0,0,1,1167.2,458Z" fill="#c6c6c5"/><path d="M1167.5,450h.6a3.3,3.3,0,0,1,2.3,4,3.4,3.4,0,0,1-3.2,2.9h-.5a3.3,3.3,0,0,1-2.4-4,3.5,3.5,0,0,1,3.2-2.9m0-2h0a5.4,5.4,0,0,0-5.1,4.5,5.3,5.3,0,0,0,3.9,6.4h.9a5.5,5.5,0,0,0,5.2-4.5,5.6,5.6,0,0,0-.7-4,4.8,4.8,0,0,0-3.2-2.4Z" fill="#8e8e8d"/><path d="M1165.6,463.3l6.6,18.7a4.5,4.5,0,0,1-2.5,5.6l-3.6,1.5a6.3,6.3,0,0,1-8.6-3.5l-10.3-27.9c-1.2-3.4,1.7-7.4,5.4-8.5" fill="#c6c6c5" stroke="#8e8e8d" stroke-linejoin="round" stroke-width="2"/><path d="M1141.5,466.4c-2.7,3.2-.8,3.9,1.1-1.2Z" fill="none"/><path d="M1143.6,462.4a22.5,22.5,0,0,1,.5-2.2A8.7,8.7,0,0,0,1143.6,462.4Z" fill="none"/><path d="M1156.2,490.4l.2-.5-.2.3Z" fill="#ebeae4" stroke="#8e8e8d" stroke-linecap="round" stroke-miterlimit="10" stroke-width="2"/><path d="M1156.6,489.5a85.3,85.3,0,0,0,5.2-10.5c.1-.2.1-.4.2-.6-1.9,3.8-3.7,7.7-5.6,11.5C1156.5,489.7,1156.6,489.6,1156.6,489.5Z" fill="#ebeae4" stroke="#8e8e8d" stroke-linecap="round" stroke-miterlimit="10" stroke-width="2"/><path d="M1121.3,494.7c5.8,5,11.9,9.8,18.9,12.4a41.5,41.5,0,0,0,34.1-2.1,40.6,40.6,0,0,0,14.2-12.6c2.6-3.6,3.9-7.5,8-9.3,7.2-3.1,16-1.8,23.6-1.5,2.7.1,7,.6,10.8.1s8.2-6,8.2-6c-.3,2.3-1.7,4.6-2.6,6.7s-2.4,6.5-4,9.2c-3.5,5.9-12.9,4.5-18.2,4.3-7.7-.2-17-1.8-24.3,1.6-4.1,1.9-5.5,6.2-8.1,9.8a40.9,40.9,0,0,1-14.3,12.3,41.6,41.6,0,0,1-35.3,1.1c-6.6-2.8-12.4-7.4-17.9-12.2-2.3-1.9-7.8-5.7-7.8-9.4s2.3-5.9,3.2-7.9,1.9-5.6,3.4-7.5A24.3,24.3,0,0,0,1121.3,494.7Z" fill="#ebeae4" stroke="#8e8e8d" stroke-linecap="round" stroke-linejoin="round" stroke-width="2"/><path d="M1149.3,450.8c-3.9,2.7-4.6,8.5-6.5,12.8s-7.6,12.8-4.3,17.4l1.1,1.2q3.3.9,6.6,1.5c3.9.8,13.1,2.5,15.9-2.4.6-2.4-.4-3.3-2.6-4.9s-12.5-6.1-13.6-8.4C1145.9,468,1147.9,451.7,1149.3,450.8Z" fill="#ebeae4" stroke="#8e8e8d" stroke-linecap="round" stroke-linejoin="round" stroke-width="2"/><path d="M1146.2,483.7q-3.3-.6-6.6-1.5c-5.3-1.2-10.5-2.3-16-1.7-3.1.3-8.2.4-10.4,3.2l-.2.3c-1.1,3.8,5.6,8.4,7.6,10.2l.7.5c5,.2,10,1.4,15.1,2.5s12.8,3.3,17.9-.3a5.2,5.2,0,0,0,1.9-2c.1-.2.1-.3.2-.4,1.9-4.3,5.4-12.4,5.4-12.6C1159.1,486.8,1150.1,484.5,1146.2,483.7Z" fill="#ebeae4" stroke="#8e8e8d" stroke-linecap="round" stroke-linejoin="round" stroke-width="2"/><path d="M961.7,490.3c1.3-11.5,7.6-30.6,6.6-57.1,11.1-10.9,24-26.1,23.9-36.9,0-9.2-4.4-19.9-10.1-29.5l.5-1.1c3.3-6.4,6.2-9.9,9.3-15.1,5.5-9,2.1-23.7-6.9-32.9-12.8-13.1-24.2-15.3-31.9-14s-15.2,2.5-17.5,6.7a11.9,11.9,0,0,0-.8,2l-3.6-2a6.3,6.3,0,0,0-2.2-.7h-.1l-12.3-.6a8.1,8.1,0,0,0-5,2.9l-.4-.2h-.4a.7.7,0,0,1-.1-.5v-.3a1.1,1.1,0,0,1-.1-.5c0-.1-.1-.3-.1-.4s-.1-.3-.1-.4a1.4,1.4,0,0,1-.2-.6l-.2-.2c0-.2-.1-.3-.2-.5l-.2-.2-.3-.3h-.1l-.5-.4L893,298.7l-.6-.3h-.5a19.2,19.2,0,0,0,0-4.8h0l-.3-1.2h0a3,3,0,0,0-.4-1v-.2a5.6,5.6,0,0,0-.5-.8.3.3,0,0,0-.1-.2l-.6-.7h-.1l-.9-.7-13.4-7.3-.5-.3h-.6a6.4,6.4,0,0,0-3.6.2c-4.8,1.6-10.8,7.5-15.3,15.7-3.4,6.3-5.3,12.6-5.4,17.4a16.9,16.9,0,0,0,.3,3.3,6.7,6.7,0,0,0,.8,2.5,6.4,6.4,0,0,0,1,1.3h.1a1.6,1.6,0,0,0,.8.6l13.4,7.4h0l.9.4h.1l.8.2a.7.7,0,0,0-.1.5c-.3,7.4-.2,11.7-1.4,18.1a2.5,2.5,0,0,0-2,1.3c-3,6.2-16.5,37.4-18.8,50.8s-4.5,23.9,9.1,26.4a239.4,239.4,0,0,0,35.9,3.9H889c-6.8,13.1-6.3,26.8-6.5,36.3-.4,18.9-.3,23.3-.3,23.3m-5.5-91.7s9.6-37.7,10.8-41.2c.4-1.1-1.3-2.6-3.8-4.1l4-4.7c2.9-3.4,5.4-10.8,6.1-12.6h2.5l.4-.2h.4l.3-.2.5-.2h0l.3.3.3.2v.2a7.7,7.7,0,0,0,3,10.5l3.9,2.2a6.9,6.9,0,0,0,3.4.9l7-.4c-1.9,8.2-2.6,16.4-1.4,20,1.9,5.5,7,8,11.7,9.1-.8,2.5-1.9,6.4-2.9,10.2a71.8,71.8,0,0,0-7.9,1.5C901.7,393.3,876.7,398.6,876.7,398.6Z" fill="#ebeae4" stroke="#8e8e8d" stroke-linecap="round" stroke-miterlimit="10" stroke-width="6"/><g style="isolation:isolate"><path d="M907.5,342.5a3.3,3.3,0,0,1-1.3-.4l-8.5-4.7a9.2,9.2,0,0,1-3.1.7,5.9,5.9,0,0,1-2.6-.7l-15.6-8.6a13.2,13.2,0,0,1-7.5,2.9,7.3,7.3,0,0,1-3.3-.8l-13.3-7.4c-3.1-1.7-4.5-5.7-4-11.3a45.9,45.9,0,0,1,5.6-16.6c5.6-10.2,13.4-17.1,19.4-17.1a7.3,7.3,0,0,1,3.3.8l13.4,7.4c2.9,1.6,4.3,5.2,4,10.2l15.6,8.6a6.4,6.4,0,0,1,3,4.8l8.6,4.7c2.1,1.2,1.3,4,1.1,5-1.3,5.2-10,22.5-14.8,22.5Z" fill="#c6c6c5"/><path d="M873.3,280.5a4.6,4.6,0,0,1,2.3.6l13.4,7.3h0c2.5,1.4,3.4,5.1,2.9,9.9l1.1.4,15.7,8.6c1.3.7,1.9,2.3,2.1,4.4l.8.3,8.6,4.8h0c2.8,1.5-9.4,23.7-12.7,23.7h-.3l-8.6-4.8a1.8,1.8,0,0,1-.7-.5,7.7,7.7,0,0,1-3.3,1,4.7,4.7,0,0,1-1.6-.4L877.4,327a1.6,1.6,0,0,1-.9-.7c-2.7,2.2-5.4,3.4-7.6,3.4a4.6,4.6,0,0,1-2.3-.6l-13.4-7.4c-4.8-2.6-3.8-13.9,2.4-25.1,5.3-9.6,12.6-16.1,17.7-16.1m0-4h0c-6.8,0-15.1,7.1-21.2,18.1a47.6,47.6,0,0,0-5.8,17.4c-.8,8.7,2.8,12,5,13.3l13.4,7.3a8.5,8.5,0,0,0,4.2,1.1,14.9,14.9,0,0,0,7.6-2.5l14.6,8a7.3,7.3,0,0,0,3.5.9,9.8,9.8,0,0,0,2.9-.5l7.8,4.3a4.3,4.3,0,0,0,2.2.6c2.1,0,4.7-.8,10.3-10.1,2.3-3.9,5.4-9.9,6.4-13.9s-.5-6.4-2-7.2l-7.8-4.3a7.7,7.7,0,0,0-3.8-5.2l-14.6-8c0-6.9-3-9.8-5.1-10.9l-13.3-7.3a9.2,9.2,0,0,0-4.3-1.1Z" fill="#8e8e8d"/></g><path d="M866.6,330.1h-.5l-13.4-7.4c-2.7-1.5-3.9-5.2-3.4-10.3a43.3,43.3,0,0,1,5.5-16.2c5.3-9.8,13-16.6,18.5-16.6a5.3,5.3,0,0,1,2.8.7l13.4,7.4a1,1,0,0,1,.5.6,1.7,1.7,0,0,1-.1.7l-22.4,40.7-.6.5Z" fill="#c6c6c5"/><path d="M873.3,280.5a4.6,4.6,0,0,1,2.3.6l13.4,7.3-22.4,40.7-13.4-7.4c-4.8-2.6-3.8-13.9,2.4-25.1,5.3-9.6,12.6-16.1,17.7-16.1m0-2c-6,0-13.8,6.9-19.4,17.1a45.9,45.9,0,0,0-5.6,16.6c-.5,5.6.9,9.6,4,11.3l13.3,7.4,1,.2h.5a1.6,1.6,0,0,0,1.2-.9l22.5-40.7a2,2,0,0,0,.1-1.5,1.9,1.9,0,0,0-.9-1.2l-13.4-7.4a7.3,7.3,0,0,0-3.3-.8Z" fill="#8e8e8d"/><path d="M868.9,330.7a5.3,5.3,0,0,1-2.8-.7c-5.4-3-4.5-14.7,2-26.6,5.4-9.7,13-16.5,18.6-16.5a5.5,5.5,0,0,1,2.8.7c2.7,1.5,3.9,5.1,3.4,10.3s-2.4,10.7-5.4,16.2C882.1,323.9,874.5,330.7,868.9,330.7Z" fill="#c6c6c5"/><path d="M886.7,287.9a4.6,4.6,0,0,1,2.3.5c4.9,2.7,3.8,14-2.4,25.2-5.3,9.6-12.6,16.1-17.7,16.1a4.6,4.6,0,0,1-2.3-.6c-4.9-2.7-3.8-13.9,2.4-25.2,5.3-9.6,12.6-16,17.7-16m0-2h0c-6,0-13.8,6.8-19.4,17.1a41.5,41.5,0,0,0-5.6,16.5c-.6,5.6.8,9.7,3.9,11.4a7.3,7.3,0,0,0,3.3.8c6,0,13.8-6.9,19.4-17.1,3.2-5.7,5.2-11.6,5.6-16.6s-.8-9.6-3.9-11.3a6.2,6.2,0,0,0-3.3-.8Z" fill="#8e8e8d"/><path d="M893,336.7l-.5-.2-15.6-8.6c-4-2.2-3.4-10.5,1.3-18.9s9.1-11.7,13.2-11.7a3.8,3.8,0,0,1,2.1.5l15.6,8.6a1,1,0,0,1,.4,1.4l-15.6,28.3A1,1,0,0,1,893,336.7Z" fill="#c6c6c5"/><path d="M891.4,298.3a2.9,2.9,0,0,1,1.6.4l15.7,8.6L893,335.7,877.4,327c-3.4-1.8-2.7-9.7,1.6-17.5s8.8-11.2,12.4-11.2m0-2c-4.4,0-10.1,4.9-14.1,12.2-5,9.1-5.4,17.8-.9,20.3l15.7,8.6a1.4,1.4,0,0,0,.9.3h.6a2.3,2.3,0,0,0,1.2-1l15.6-28.4a2,2,0,0,0-.8-2.7L894,296.9a5.8,5.8,0,0,0-2.6-.6Z" fill="#8e8e8d"/><path d="M894.7,337.1a4.3,4.3,0,0,1-2.2-.6c-2-1.1-2.9-3.7-2.5-7.5a31.2,31.2,0,0,1,3.8-11.4c3.9-7,9.2-11.7,13.2-11.7a4.6,4.6,0,0,1,2.1.5c2.1,1.1,3,3.8,2.6,7.5a30.6,30.6,0,0,1-3.8,11.4C904,332.4,898.7,337.1,894.7,337.1Z" fill="#c6c6c5"/><path d="M907,306.9a3.3,3.3,0,0,1,1.7.4c3.3,1.8,2.6,9.7-1.7,17.6s-8.8,11.2-12.3,11.2a4.7,4.7,0,0,1-1.7-.4c-3.4-1.9-2.6-9.8,1.7-17.6s8.8-11.2,12.3-11.2m0-2h0c-4.4,0-10,4.9-14.1,12.2-5,9.1-5.3,17.8-.8,20.3a5.3,5.3,0,0,0,2.6.7c4.3,0,10-5,14-12.3,5-9.1,5.4-17.8.9-20.3a5.5,5.5,0,0,0-2.6-.6Z" fill="#8e8e8d"/><path d="M907.2,341.4h-.5l-8.6-4.8c-1.7-.9-2.5-3.2-2.2-6.4a26.5,26.5,0,0,1,3.2-9.6c3.3-5.8,7.8-9.8,11.2-9.8a2.9,2.9,0,0,1,1.8.5l8.6,4.7a.9.9,0,0,1,.4,1.3l-13,23.7a.8.8,0,0,1-.6.4Z" fill="#c6c6c5"/><path d="M910.3,311.7a2.8,2.8,0,0,1,1.3.3l8.6,4.8-13,23.6-8.6-4.8c-2.8-1.5-2.2-8.1,1.4-14.6s7.3-9.3,10.3-9.3m0-2c-3.8,0-8.6,4.2-12,10.4a26,26,0,0,0-3.4,9.9c-.4,4.9,1.5,6.7,2.8,7.4l8.5,4.7,1,.3a2.1,2.1,0,0,0,1.8-1.1l13-23.6a2.5,2.5,0,0,0,.2-1.5,2.3,2.3,0,0,0-1-1.2l-8.6-4.7a4.6,4.6,0,0,0-2.3-.6Z" fill="#8e8e8d"/><path d="M908.6,341.7a4.1,4.1,0,0,1-1.9-.4c-1.7-1-2.5-3.3-2.2-6.5a25.4,25.4,0,0,1,3.2-9.5c3.3-5.9,7.8-9.9,11.2-9.9a3.7,3.7,0,0,1,1.8.5c1.7.9,2.5,3.2,2.2,6.4a24.7,24.7,0,0,1-3.2,9.6C916.5,337.8,912,341.7,908.6,341.7Z" fill="#c6c6c5"/><path d="M918.9,316.4a2,2,0,0,1,1.3.4c2.8,1.5,2.2,8.1-1.4,14.6s-7.3,9.3-10.2,9.3a3.2,3.2,0,0,1-1.4-.3c-2.8-1.6-2.2-8.1,1.4-14.6s7.3-9.4,10.3-9.4m0-2h0c-3.8,0-8.6,4.2-12,10.4a26.6,26.6,0,0,0-3.4,9.9c-.4,4.9,1.5,6.8,2.7,7.4a4.8,4.8,0,0,0,2.4.6c3.7,0,8.6-4.2,12-10.3s5.1-14.9.6-17.4a4.6,4.6,0,0,0-2.3-.6Z" fill="#8e8e8d"/><g style="isolation:isolate"><path d="M908.6,351.4a11.1,11.1,0,0,1-4.3-1.2l-3.9-2.1a9.7,9.7,0,0,1-3.8-13.2L909.2,312a9.6,9.6,0,0,1,7.1-4.9h.2l12.6.6a7.5,7.5,0,0,1,3,.9l6.1,3.4a7.9,7.9,0,0,1,3.1,10.7l-13.1,23.8a8,8,0,0,1-5.6,4h-1l-12.9.8Z" fill="#c6c6c5"/><path d="M916.6,309.1l12.3.6h.1a6.3,6.3,0,0,1,2.2.7l6,3.3a5.8,5.8,0,0,1,2.3,8l-13.1,23.9a5.8,5.8,0,0,1-4.1,2.9h-.8l-12.8.8a6.9,6.9,0,0,1-3.4-.9l-3.9-2.2a7.7,7.7,0,0,1-3-10.5L911,313a7.5,7.5,0,0,1,5.6-3.9m-.2-4h-.3a11.4,11.4,0,0,0-8.6,5.9l-12.6,22.9a11.6,11.6,0,0,0,4.6,15.9l3.9,2.2a12.9,12.9,0,0,0,5.1,1.4h.5l12.7-.8,1.3-.2a9.7,9.7,0,0,0,6.9-4.9L943,323.6a9.8,9.8,0,0,0,.9-7.5,10,10,0,0,0-4.8-5.9l-6-3.3a9.5,9.5,0,0,0-3.7-1.2h-.3l-12.3-.6Z" fill="#8e8e8d"/></g><path d="M952.3,446.9c3.4-1.7,40-32.3,39.9-50.6s-18-42.9-27.3-53c-5.7-6.1-11.7-14.1-22.5-17.8-4.4-1.6-16.1,10.9-16,20.1.2,15.2,22.2,20.3,22.7,35.5.3,8.4-6.1,15.3-10.6,19.3" fill="#ebeae4" stroke="#8e8e8d" stroke-linecap="round" stroke-miterlimit="10" stroke-width="2"/><path d="M883.2,304.2c-6.8,4.6-14.5,16.8-14.9,26s-.1,13.5-2.6,23c-1.1,4.2,10.8,8.4,10.8,8.4l11.2-13c3.4-3.9,6.2-13.1,6.2-13.1l-2.2-4.7s.5-11.3.5-15.2C892.3,306.8,883.2,304.2,883.2,304.2Z" fill="#ebeae4" stroke="#8e8e8d" stroke-linecap="round" stroke-miterlimit="10" stroke-width="2"/><path d="M961.7,315.7c-20-6.9-31,.8-39.3,15.2-4.5,7.9-7.6,6.6-8.9,11s1.6,5.1,2.5,5.8c-2.1,8.6-3,17.5-1.7,21.3,1.9,5.5,7,8,11.7,9.1-2.1,6.4-6.2,22.6-6.2,22.6s33.5,10,33.8,4.1c1.3-28.7,10.9-24.9,18.2-36.5C982.2,351.9,986.8,324.5,961.7,315.7Z" fill="#ebeae4" stroke="#8e8e8d" stroke-linecap="round" stroke-miterlimit="10" stroke-width="2"/><path d="M953.1,303.7c-9.1,1.6-15.2,2.5-17.5,6.7s.8,12.2,4.5,13.9c5.6,2.5,5,11.5,5.3,14.2.5,6.3,8.9,7.8,10.2,11.9s-4.9,4.6-6.2,13.6c-1,6.1,2.7,12.6,7.6,16.1,6.9,4.9,17.2,4.7,21.4-.1s-.1-5.7,4.2-14.3c3.3-6.4,6.2-9.9,9.3-15.1,5.5-9,2.1-23.7-6.9-32.9C972.2,304.6,960.8,302.4,953.1,303.7Z" fill="#ebeae4" stroke="#8e8e8d" stroke-linecap="round" stroke-miterlimit="10" stroke-width="2"/><path d="M961.7,490.3c1.7-14.5,11.2-47.2,4-77.3-2-8.5-16-21-23.5-22.7s-13.6-3.9-27-.5-38.5,8.8-38.5,8.8,9.6-37.7,10.8-41.2-20.3-12.9-22.6-7.8-16.5,37.4-18.8,50.8-4.5,23.9,9.1,26.4a244.8,244.8,0,0,0,50.6,4H889c-6.8,13.1-6.3,26.8-6.5,36.3-.4,18.9-.3,23.3-.3,23.3" fill="#ebeae4" stroke="#8e8e8d" stroke-linecap="round" stroke-miterlimit="10" stroke-width="2"/><path d="M742.5,331.3c-2.3-13.6-8.1-33.7-8.1-33.7s-4.2-7.9-14.8-3.7c-7.6,3-8.9,11.1-6.3,27.6,3.9,24.8,9.3,29.6,14.4,41.7" fill="#ebeae4" stroke="#8e8e8d" stroke-miterlimit="10" stroke-width="2"/><path d="M704.2,361.7a2.4,2.4,0,0,1-1.3-.5,2.7,2.7,0,0,1-.7-1.4l-4.1-68.1a2,2,0,0,1,1.9-2.1l30.1-1.9h.1a2,2,0,0,1,2,1.9l4.2,68.1a2.4,2.4,0,0,1-.5,1.4,2.1,2.1,0,0,1-1.4.7l-30.1,1.9Z" fill="#c6c6c5"/><path d="M730.2,289.7l4.2,68.1-30.2,1.9-4.1-68.1,30.1-1.9m0-4H730l-30.2,1.8a4.1,4.1,0,0,0-2.7,1.3,4,4,0,0,0-1,2.9l4.2,68.1a3.7,3.7,0,0,0,1.3,2.8,4.2,4.2,0,0,0,2.6,1h.3l30.1-1.9a4,4,0,0,0,3.8-4.2l-4.2-68.1a4,4,0,0,0-4-3.8Z" fill="#8e8e8d"/><path d="M703.7,483.7l4.8-43h0c14.5,2,33.1,4,39.1,2.6,15.8-3.8,11-15.2,10.2-29.8s-9.8-40.3-10.2-45.7c-.1-1.1-1.2-1.6-2.9-1.8a154.4,154.4,0,0,1,2.4-16.4c2.2-9.4-3.9-32.6-3.9-32.6s-7.5,1.2-6.6,7.7a56,56,0,0,1-.1,13.5s-3.4,9.9-3.8,13.5-1.8,9.5-1.8,9.5l-6,.4.5,8.2c-2.5,1-4.2,1.9-4.1,2.4.5,2,4,33.4,4,33.4l13.5,5.6s-23.9-8.4-30.3-15a46.3,46.3,0,0,0-14.6-9.3l.6-.7c.8-1.3.7-2.9,0-4.7a21.7,21.7,0,0,0,5.1-3c4-3.2,7.2-6.8,9.4-17,1.2-5.3.7-10.9-6.5-17.1,0,0-.6,0,3-4.4,6.7-8.1,8-11.3,5.8-15.8-.5-1.2-6.9,4.8-11.2,9.3-.8.9-1.6,1.7-2.3,2.6-.8-1.8-2.5-3.2-4.7-8.2a49.5,49.5,0,0,0-6.3-16.3c1.7-.7,3.3-1.4,4.2-2.7s1.3-4.7-.9-6.9-3.4-1.3-4.5-2.6-.8-3.4-1.6-5-3.9-2.7-6.2-2.4-4.7,1.1-7,.7c-4.1-.7-7-4.9-11.1-5.3s-7.5,4.5-11.3,7-8.7,1.4-13,4-6.1,4.7-8.8,7.5a14.1,14.1,0,0,0-3.3,4.4c-2.5,5.7,2.6,11.9,2.2,18.1-.3,4.1-3.1,8-2.4,12.1a15.7,15.7,0,0,0,2.1,5l5.4,9.2c1.3,2.3,4.8,1.9,6.3,4.5s.6,4.7-.4,7.1c1.1,0,7,.3,11.3.2,0,2.2-.5,4.8-2.2,9.2h0c-10.4,1.8-27.1,8.3-30.2,20.5s-4.4,20.8-3.9,33.1,6.4,45.8,6.4,45.8m27-97.4a4.8,4.8,0,0,1,.7-2A11.8,11.8,0,0,0,644.9,377.7Z" fill="#ebeae4" stroke="#8e8e8d" stroke-linecap="round" stroke-miterlimit="10" stroke-width="6"/><path d="M711.3,324.2c-.5-1.2-6.9,4.8-11.2,9.3-8.7,9.2-13.1,16.8-17.6,24.5s-3,8.4-7.7,14.8c-2.7,3.6,3.8,16.5,8.4,13.9,8.3-4.8,11.3-4.2,16.4-8.2s7.2-6.8,9.4-17c1.2-5.3.7-10.9-6.5-17.1,0,0-.6,0,3-4.4C712.2,331.9,713.5,328.7,711.3,324.2Z" fill="#ebeae4" stroke="#8e8e8d" stroke-miterlimit="10" stroke-width="2"/><path d="M743.2,317s-7.5,1.2-6.6,7.7a56,56,0,0,1-.1,13.5s-3.4,9.9-3.8,13.5-1.8,9.5-1.8,9.5l-6,.4.8,14.1,18.4-1.8s.8-14.9,3-24.3S743.2,317,743.2,317Z" fill="#ebeae4" stroke="#8e8e8d" stroke-miterlimit="10" stroke-width="2"/><path d="M648.6,396.3c3.8-4.6,23.4-23.4,28.1-26.4s21.8,10.5,17.8,16.3S675,418.5,675,418.5" fill="#ebeae4" stroke="#8e8e8d" stroke-linecap="round" stroke-miterlimit="10" stroke-width="2"/><path d="M698.4,339.7c.1-4.9-1.9-4.2-5.3-11.8-2.5-12.7-9.2-21.1-12.1-23.7-8.6-7.5-24.7-7.5-35.6-.5s-16.8,19.9-11.4,32.6,10.7,14.1,12,21.1,3.5,8-.4,18.3.9,23.8.9,23.8l36.6-6.1s-3.9-3.9-5.1-13,1.9-12.6,1.9-12.6a15.7,15.7,0,0,0,9.5-3.9c2.6-2.3,4.5-10.4,4.8-19.7C695.4,343.9,698.3,343,698.4,339.7Z" fill="#ebeae4" stroke="#8e8e8d" stroke-linecap="round" stroke-miterlimit="10" stroke-width="2"/><path d="M703.7,483.7l4.8-43-18.7-3.3c3.8,1.4,48,8.2,57.8,5.9,15.8-3.8,11-15.2,10.2-29.8s-9.8-40.3-10.2-45.7-26.7,2.4-26.3,4.4,4,33.4,4,33.4l13.5,5.6s-23.9-8.4-30.3-15-18.9-12.3-27.2-12.1-15.2,1.9-31-1.7c-8-1.8-4.7-6.7-4.7-6.7-10.4,1.8-27.1,8.3-30.2,20.5s-4.4,20.8-3.9,33.1,6.4,45.8,6.4,45.8" fill="#ebeae4" stroke="#8e8e8d" stroke-linecap="round" stroke-miterlimit="10" stroke-width="2"/><path d="M684,294.4c-1.1-2.1-3.9-2.7-6.2-2.4s-4.7,1.1-7,.7c-4.1-.7-7-4.9-11.1-5.3s-7.5,4.5-11.3,7-8.7,1.4-13,4-6.1,4.7-8.8,7.5a14.1,14.1,0,0,0-3.3,4.4c-2.5,5.7,2.6,11.9,2.2,18.1-.3,4.1-3.1,8-2.4,12.1a15.7,15.7,0,0,0,2.1,5l5.4,9.2c1.3,2.3,4.8,1.9,6.3,4.5s.6,4.7-.4,7.1c1.6.1,15.4.6,15.9-.4l3-6.3c1.1-1.1,2.6.8,3.8,1.9s4.4,1.9,6.7,1.2,4.1-2.4,6-3.9a29.4,29.4,0,0,1-1.6-10.6,4.2,4.2,0,0,1,.9-2.7,5.4,5.4,0,0,1,2-1c4.4-1.8,5.6-8.6,2.1-11.8-1.6-1.5-4-2.4-4.7-4.5s.9-4.4,2.8-5.3,4.3-.8,6.5-.7c-2.6-.1,2.2-7.9,2.8-8.5,2.3-1.9,6.5-2.4,8.3-4.8s1.3-4.7-.9-6.9-3.4-1.3-4.5-2.6S684.8,296,684,294.4Z" fill="#ebeae4" stroke="#8e8e8d" stroke-linecap="round" stroke-miterlimit="10" stroke-width="2"/></g></svg>