<svg xmlns="http://www.w3.org/2000/svg" viewBox="0 0 300 225"><path d="M69.8,172.1h-.6L16.1,154.4a2,2,0,0,1-1.2-2.6L51.1,43.1A2,2,0,0,1,53,41.7h.6l53.1,17.7a1.8,1.8,0,0,1,1.1,1,2,2,0,0,1,.1,1.5L71.7,170.8a1.6,1.6,0,0,1-1,1.1A1.5,1.5,0,0,1,69.8,172.1Z" fill="#c6c6c5"/><path d="M53,43.7l53,17.7L69.8,170.1l-53-17.6L53,43.7m0-4a4,4,0,0,0-3.8,2.8L13,151.2a4,4,0,0,0,2.5,5.1l53.1,17.6a2.5,2.5,0,0,0,1.2.2,3.7,3.7,0,0,0,1.8-.4,3.8,3.8,0,0,0,2-2.3L109.8,62.7a3.7,3.7,0,0,0-.2-3.1,4.1,4.1,0,0,0-2.3-2L54.2,39.9,53,39.7Z" fill="#8e8e8d"/><path d="M62.8,145.7c-1.6,3.4-5.3,9.1-5.3,13.1,0,6.2,9.2,12.4,12.9,15.6,9.2,7.9,18.8,15.7,29.8,20.3a68.7,68.7,0,0,0,58.6-1.8,67.6,67.6,0,0,0,23.8-20.5c4.4-6,6.7-13.1,13.5-16.2,12.2-5.7,27.6-3.1,40.4-2.7,8.9.3,24.4,2.6,30.2-7.1,2.8-4.7,4.6-10.3,6.8-15.3,1.5-3.5,3.8-7.4,4.3-11.3.9-7-3.7-15.2-7.7-20.1-5.6-6.8-13-10.3-20.8-12A21.1,21.1,0,0,0,236.9,80h0l-25.7-5.2-3.7-10.2c-1.9-5.1-7.6-7.8-13.2-6.2L129.4,77.1c-4.5,1.3-22.6,46.4-18.9,51.5a20,20,0,0,0,1.9,2.2c-8.8-2.1-17.6-3.9-26.6-3-4.9.5-12.8.7-16.8,4.7ZM126,92.5l8,22.2c-5.2-2.8-10.2-5.6-11.2-7.7C122.8,107,124.3,99.7,126,92.5Zm80.9,39.7c-6.8,2.9-8.9,9.5-13.3,15.5a70.2,70.2,0,0,1-23.5,21c-17.6,9.4-38.3,10.2-56.7,3.4-11.8-4.4-21.8-12.3-31.6-20.6,8.5.3,16.8,2.3,25.2,4.2s21.3,5.5,29.8-.5a9.3,9.3,0,0,0,3.1-3.5l.4-.6,4.6-10.6a11.2,11.2,0,0,0,11.6,1.7l5.9-2.6a7.5,7.5,0,0,0,4.5-7.4l25.9-10.9A19.8,19.8,0,0,0,201,125l19.9,4A44,44,0,0,0,206.9,132.2Zm39.2-2.5-8-.4a25.7,25.7,0,0,0,13.7-12.7,23.2,23.2,0,0,1,4,3,37.3,37.3,0,0,1,8.3,10.3C257.7,130.7,250.7,129.8,246.1,129.7Z" fill="#ebeae4" stroke="#8e8e8d" stroke-linecap="round" stroke-linejoin="round" stroke-width="6"/><path d="M277.8,119.8c.9-7-3.7-15.2-7.7-20.1-12.2-14.8-32.5-14.2-48.9-12.2-4.5.6-31.4,8.5-33.4,1.1.5,1.8-4.4,10-5.3,11.8s-5.7,9.6-5,12c1.4,5.3,12.7,2.1,15.9,1.6,10.5-1.6,20.9-3.6,31.5-3.7s22.2,1.7,30.9,9.3a37.3,37.3,0,0,1,8.3,10.3c5.3-.7,10.2-2.5,12.8-6.9C276.7,123.4,277.8,119.8,277.8,119.8Z" fill="#ebeae4" stroke="#8e8e8d" stroke-linecap="round" stroke-linejoin="round" stroke-width="2"/><path d="M154.6,137.4l59.2-24.9a10.8,10.8,0,0,0,6.3-13.3L207.5,64.6c-1.9-5.1-7.6-7.8-13.2-6.2L132.6,76.2c-6.1,1.8-9.6,8.1-7.6,13.7l15.2,41.8C142.2,137.2,148.8,139.8,154.6,137.4Z" fill="#c6c6c5" stroke="#8e8e8d" stroke-linejoin="round" stroke-width="2"/><path d="M205.2,122.9H205l-21.8-4.4a18.8,18.8,0,0,1-12.7-9.4,23.7,23.7,0,0,1-2.6-16.8c2.1-10.8,10.8-18.6,20.7-18.6a14.7,14.7,0,0,1,3.6.4L214,78.4a1,1,0,0,1,.7.4.9.9,0,0,1,.1.7L206.2,122a1,1,0,0,1-.4.7Z" fill="#c6c6c5"/><path d="M188.6,74.6a19.5,19.5,0,0,1,3.4.3l21.8,4.4-8.6,42.6-21.8-4.4c-10.4-2.1-16.9-13.4-14.6-25.1s10.6-17.8,19.8-17.8m0-2c-10.3,0-19.5,8.2-21.7,19.4a24.5,24.5,0,0,0,2.7,17.5,19.9,19.9,0,0,0,13.4,9.9l21.9,4.4h.3a2,2,0,0,0,2-1.7l8.6-42.5a2,2,0,0,0-1.6-2.3L192.4,73a15.8,15.8,0,0,0-3.8-.4Z" fill="#8e8e8d"/><path d="M226.8,131.2h-.2L200.8,126a22.6,22.6,0,0,1-15-11,28.2,28.2,0,0,1-3.1-19.8c2.6-12.7,12.8-21.8,24.4-21.8a19.9,19.9,0,0,1,4.2.4L237.1,79a1,1,0,0,1,.8,1.2l-10.2,50.2a.7.7,0,0,1-.4.6C227.2,131.2,227,131.2,226.8,131.2Z" fill="#c6c6c5"/><path d="M207.1,74.4a18.1,18.1,0,0,1,4,.4L236.9,80l-10.1,50.2L201,125c-12.3-2.5-20.1-15.7-17.3-29.6s12.5-21,23.4-21m0-2c-12,0-22.7,9.5-25.3,22.6-3,14.9,5.4,29.3,18.8,32l25.8,5.2h.4a2.3,2.3,0,0,0,1.1-.3,2.2,2.2,0,0,0,.8-1.3l10.2-50.2a2.1,2.1,0,0,0-1.6-2.4l-25.8-5.2a21.2,21.2,0,0,0-4.4-.4Z" fill="#8e8e8d"/><path d="M230.8,131.6a19.9,19.9,0,0,1-4.2-.4,22.6,22.6,0,0,1-15-11,28.2,28.2,0,0,1-3.1-19.8c2.6-12.7,12.8-21.8,24.3-21.8a20.2,20.2,0,0,1,4.3.4,22.5,22.5,0,0,1,15,11,28.1,28.1,0,0,1,3,19.8C252.6,122.4,242.4,131.6,230.8,131.6Z" fill="#c6c6c5"/><path d="M232.8,79.6a19,19,0,0,1,4.1.4c12.3,2.4,20.1,15.7,17.3,29.6-2.5,12.3-12.5,21-23.4,21a18.1,18.1,0,0,1-4-.4c-12.4-2.5-20.1-15.7-17.3-29.6,2.5-12.4,12.5-21,23.3-21m.1-2h-.1c-12,0-22.6,9.5-25.3,22.6-3,14.9,5.5,29.3,18.9,32a21.2,21.2,0,0,0,4.4.4c12,0,22.7-9.5,25.3-22.6,3-15-5.4-29.3-18.8-32a22.5,22.5,0,0,0-4.4-.4Z" fill="#8e8e8d"/><path d="M226,124.9a18.6,18.6,0,0,1-3.3-.4,17.7,17.7,0,0,1-11.8-8.6,22.4,22.4,0,0,1-2.4-15.5c2-9.9,10-17.1,19.1-17.1l3.3.3a17.8,17.8,0,0,1,11.8,8.7,22.2,22.2,0,0,1,2.4,15.5C243.1,117.7,235.1,124.9,226,124.9Z" fill="#c6c6c5"/><path d="M227.6,84.3a16.3,16.3,0,0,1,3.1.3c9.6,1.9,15.6,12.2,13.4,23s-9.7,16.3-18.1,16.3a11,11,0,0,1-3.1-.4c-9.6-1.9-15.6-12.2-13.4-22.9s9.7-16.3,18.1-16.3m0-2h0c-9.5,0-18,7.5-20.1,17.9s4.4,23.2,15,25.3a19.7,19.7,0,0,0,3.5.4c9.5,0,18-7.6,20.1-17.9a23.1,23.1,0,0,0-2.6-16.2,18.6,18.6,0,0,0-12.4-9.2,19.8,19.8,0,0,0-3.5-.3Z" fill="#8e8e8d"/><path d="M158.3,89.7h-1.1a5.3,5.3,0,0,1-3.9-2.9,7,7,0,0,1,5.4-10.5h1.1a5.8,5.8,0,0,1,4,2.8,7.2,7.2,0,0,1,.7,5A6.5,6.5,0,0,1,158.3,89.7Z" fill="#c6c6c5"/><path d="M158.7,77.2h.9c2.8.6,4.6,3.6,4,6.8a5.8,5.8,0,0,1-5.3,4.7h-.9c-2.8-.5-4.6-3.5-4-6.7a5.7,5.7,0,0,1,5.3-4.7m0-2h0A7.9,7.9,0,0,0,157,90.6h1.3a7.6,7.6,0,0,0,7.2-6.4,7.4,7.4,0,0,0-5.5-9Z" fill="#8e8e8d"/><path d="M155.5,99.3l11,31a7.5,7.5,0,0,1-4.1,9.3l-5.9,2.6c-5.9,2.4-12.5-.2-14.5-5.8L125,89.9c-2-5.6,2.9-12.3,9-14.1" fill="#c6c6c5" stroke="#8e8e8d" stroke-linejoin="round" stroke-width="2"/><path d="M115.5,104.5c-4.6,5.2-1.4,6.4,1.9-2A18,18,0,0,0,115.5,104.5Z" fill="none"/><path d="M118.9,97.7c.3-1.1.6-2.3.9-3.7C119.5,95.4,118.9,96.5,118.9,97.7Z" fill="none"/><path d="M139.9,144.2a5.9,5.9,0,0,1,.4-.8l-.4.6Z" fill="#ebeae4" stroke="#8e8e8d" stroke-linecap="round" stroke-miterlimit="10" stroke-width="2"/><path d="M140.6,142.8a135.2,135.2,0,0,0,8.6-17.5l.3-.9c-3.1,6.4-6.1,12.7-9.2,19Z" fill="#ebeae4" stroke="#8e8e8d" stroke-linecap="round" stroke-miterlimit="10" stroke-width="2"/><path d="M81.8,151.5c9.8,8.3,19.8,16.2,31.6,20.6,18.4,6.8,39.1,6,56.7-3.4a70.2,70.2,0,0,0,23.5-21c4.4-6,6.5-12.6,13.3-15.5,12-5.2,26.7-2.9,39.2-2.5,4.6.1,11.6,1,18,.2s13.7-10.1,13.7-10.1c-.5,3.9-2.8,7.8-4.3,11.3-2.2,5-4,10.6-6.8,15.3-5.8,9.7-21.3,7.4-30.2,7.1-12.8-.4-28.2-3-40.4,2.7-6.8,3.1-9.1,10.2-13.5,16.2a67.6,67.6,0,0,1-23.8,20.5,68.7,68.7,0,0,1-58.6,1.8c-11-4.6-20.6-12.4-29.8-20.3-3.7-3.2-12.9-9.4-12.9-15.6,0-4.1,3.8-9.8,5.3-13.2s3.1-9.3,5.6-12.4C68.4,133.2,71.3,143,81.8,151.5Z" fill="#ebeae4" stroke="#8e8e8d" stroke-linecap="round" stroke-linejoin="round" stroke-width="2"/><path d="M128.4,78.4c-6.4,4.5-7.7,14.2-10.8,21.4s-12.6,21.3-7.1,28.8a20,20,0,0,0,1.9,2.2l10.9,2.4c6.6,1.3,21.8,4.1,26.4-4.1,1-3.8-.6-5.5-4.3-8.1s-20.7-10.1-22.6-14C122.8,107,126.2,80,128.4,78.4Z" fill="#ebeae4" stroke="#8e8e8d" stroke-linecap="round" stroke-linejoin="round" stroke-width="2"/><path d="M123.3,133.2l-10.9-2.4c-8.8-2.1-17.6-3.9-26.6-3-5.1.5-13.7.7-17.4,5.4l-.3.5c-1.8,6.3,9.2,14,12.6,16.9l1.1.9c8.5.3,16.8,2.3,25.2,4.2s21.3,5.5,29.8-.5a9.3,9.3,0,0,0,3.1-3.5l.4-.6,9-20.9C144.7,138.4,129.9,134.5,123.3,133.2Z" fill="#ebeae4" stroke="#8e8e8d" stroke-linecap="round" stroke-linejoin="round" stroke-width="2"/><circle cx="260.6" cy="40.2" r="23.7" fill="#8f0000"/><path d="M264.1,47.2a6.1,6.1,0,0,0,.5,3.1,3.8,3.8,0,0,0,2.5.6,1.7,1.7,0,0,1,.1.8,1.5,1.5,0,0,1-.1.7H255.8a.8.8,0,0,1-.2-.7c0-.4,0-.6.2-.8a4.4,4.4,0,0,0,2.4-.6c.4-.4.5-1.4.5-3.1V39.3a3.7,3.7,0,0,0-.4-2.2,4.3,4.3,0,0,0-2.2-.7,2,2,0,0,1-.1-1.3c4.4-.6,6.8-.9,7.3-1.1s1,.2,1,.7a32.4,32.4,0,0,0-.2,4.3Zm-5.6-19.5a2.5,2.5,0,0,1,.8-1.8,2.9,2.9,0,0,1,2.1-.8,2.5,2.5,0,0,1,2,.9,3.2,3.2,0,0,1,.7,1.9,2.7,2.7,0,0,1-.8,1.7,3.2,3.2,0,0,1-2.1.8,2.4,2.4,0,0,1-1.9-.8A2.9,2.9,0,0,1,258.5,27.7Z" fill="#fff"/></svg>