<svg xmlns="http://www.w3.org/2000/svg" xmlns:xlink="http://www.w3.org/1999/xlink" viewBox="0 0 300 300"><defs><filter id="a" name="dropshadow"><feGaussianBlur stdDeviation="5" in="SourceAlpha"/><feOffset dx="2" dy="2"/><feComponentTransfer><feFuncA slope="0.3" type="linear"/></feComponentTransfer><feMerge><feMergeNode/><feMergeNode in="SourceGraphic"/></feMerge></filter><clipPath id="b"><path d="M148.9,58.1l18.9.6h.9l.9.2.8.4.8.4-18.9-.4-.8-.6-.9-.4-.8-.2Z" fill="none"/></clipPath><clipPath id="c"><path d="M168.9,82.4,150,84.7l1-.2.9-.4,1-.6.8-.8,18.9-2.2-.9.7-.9.6-.9.4Z" fill="none"/></clipPath><clipPath id="d"><path d="M174.9,78.6l18.4-1.9a11,11,0,0,0-4.4,1.5,12.9,12.9,0,0,0-3.3,3.3,13.7,13.7,0,0,0-2,4.6,16.3,16.3,0,0,0-.6,5.5,19.4,19.4,0,0,0,.2,2.4,15.5,15.5,0,0,0,.6,2.3,20.2,20.2,0,0,0,.7,2.3l1,2L167,105.7a13.3,13.3,0,0,1-1.1-2.4c-.3-.8-.5-1.6-.8-2.5a25.6,25.6,0,0,1-.5-2.7l-.3-2.7a32.1,32.1,0,0,1,.6-6.3A19.5,19.5,0,0,1,167,84a12.1,12.1,0,0,1,3.4-3.7A10.3,10.3,0,0,1,174.9,78.6Z" fill="none"/></clipPath><clipPath id="e"><path d="M205.9,83.8l16.5-2.9c0,4.1-.1,7.6-.1,10.6s-.2,5.4-.3,7.3-.2,3.3-.2,4.3-.1,1.5-.2,1.5l-16.5,7c0-.1,0-.7.1-1.8s.1-2.8.2-5,.2-5.1.3-8.6S205.8,88.6,205.9,83.8Z" fill="none"/></clipPath><clipPath id="f"><path d="M204.5,20l16.8,6.4.3,7.9q.2,3.9.3,7.5c0,2.4.1,4.7.2,7s.1,4.5.1,6.6L205.6,54c-.1-2.5-.1-5.1-.2-7.7s-.2-5.4-.2-8.2-.2-5.8-.4-8.8S204.6,23.2,204.5,20Z" fill="none"/></clipPath><clipPath id="g"><path d="M218.1,50l15.6,2a14.1,14.1,0,0,1,5,1.7A15.4,15.4,0,0,1,243,57a15,15,0,0,1,3,4.8,15.9,15.9,0,0,1,1.3,5.8,16.2,16.2,0,0,1-.7,5.8,15.2,15.2,0,0,1-2.5,4.9,14.5,14.5,0,0,1-3.8,3.6,13,13,0,0,1-4.8,2.1l-15.3,3.7a13.4,13.4,0,0,0,5.3-2.4,17.6,17.6,0,0,0,4.3-4.3,20.8,20.8,0,0,0,2.8-5.8,21.8,21.8,0,0,0,.8-6.9,26.5,26.5,0,0,0-1.5-6.9,18.7,18.7,0,0,0-3.4-5.6,16.2,16.2,0,0,0-4.8-3.9A13.8,13.8,0,0,0,218.1,50Z" fill="none"/></clipPath></defs><path d="M8.8,131c31.3-3.7,52-23.8,81.4-34.9C135.7,79,157,131,169.8,127.3" fill="#ebeae4"/><path d="M169.8,127.3a7.4,7.4,0,0,1-5.6-.9,30.8,30.8,0,0,1-4.8-3.2c-3-2.4-5.8-5.1-8.7-7.6-5.6-5.1-11.4-10-17.7-13.7a50.2,50.2,0,0,0-20.6-7.1A49.6,49.6,0,0,0,91.2,98c-13.9,5.2-26.7,12.8-40,19.6a143.9,143.9,0,0,1-20.6,8.9A86.3,86.3,0,0,1,8.8,131v-.2a93.7,93.7,0,0,0,21.4-6.2,185,185,0,0,0,19.9-10c6.5-3.7,12.9-7.6,19.6-11.2a149.4,149.4,0,0,1,20.7-9.5A49.1,49.1,0,0,1,113.5,91a50.6,50.6,0,0,1,21.6,8.4,107.6,107.6,0,0,1,17.2,15c2.7,2.7,5.2,5.5,8,8a23.8,23.8,0,0,0,4.3,3.4,6.7,6.7,0,0,0,5.1,1.3Z" fill="#9b9b9a"/><path d="M125.7,119.6c-4.7-1.7-9.4-3.4-14-4.7a52.7,52.7,0,0,0-13.9-2.4H94.4l-3.4.4-3.4.7c-1.1.3-2.3.5-3.4.9-4.5,1.4-8.9,3.2-13.4,5.1v-.2a64.4,64.4,0,0,1,12.5-7.9,26.7,26.7,0,0,1,3.6-1.4,24.7,24.7,0,0,1,3.6-1.1,34.3,34.3,0,0,1,7.8-.7,38.4,38.4,0,0,1,14.7,3.7,79.3,79.3,0,0,1,13,7.4Z" fill="#ccc"/><path d="M133,126.6c-8.7-2.6-17.2-4.6-25.6-4.8s-16.9,1.4-25.2,4h-.1a53.9,53.9,0,0,1,12.1-5.8,43.6,43.6,0,0,1,13.5-1.8,46.8,46.8,0,0,1,13.3,2.6,58.2,58.2,0,0,1,12.1,5.7Z" fill="#ccc"/><path d="M140.2,133.7a158.4,158.4,0,0,0-23.4-2.7,127.7,127.7,0,0,0-23.1,1.1h-.1a53.8,53.8,0,0,1,23.5-4.1,61.8,61.8,0,0,1,23.2,5.6Z" fill="#ccc"/><path d="M147.5,140.8c-7.3,0-14.4-.1-21.4-.5s-14-1.2-21-1.9h0a108.4,108.4,0,0,1,21.3-.6,150.7,150.7,0,0,1,21.1,2.9Z" fill="#ccc"/><path d="M154.7,147.8a4.6,4.6,0,0,1-2.2,1.1l-2.5.5a40.5,40.5,0,0,1-4.9.4,63.8,63.8,0,0,1-9.8-.3,60.1,60.1,0,0,1-9.6-1.6,32.9,32.9,0,0,1-9.1-3.2h.1a48.8,48.8,0,0,0,9.4,1.8l9.5,1.1c3.2.3,6.4.6,9.6.7l4.8.2h2.4a6,6,0,0,0,2.3-.6Z" fill="#ccc"/><path d="M55,149.3c42.6-5.3,55.7-29.7,95.5-47.6,30.9-13.9,68.1.3,83.4,12.2,13.5,10.5,31.7,28.8,54.7,29.3" fill="#ebeae4"/><path d="M288.6,143.2a50.8,50.8,0,0,1-16.3-2.8,75.8,75.8,0,0,1-14.9-7.2,140.8,140.8,0,0,1-13.4-9.5c-4.4-3.3-8.6-6.9-12.9-9.9a83.3,83.3,0,0,0-14.1-7.6c-2.4-1-4.9-2-7.4-2.8a74.9,74.9,0,0,0-7.7-2.3,85.7,85.7,0,0,0-31.4-2.6c-2.6.3-5.2.8-7.7,1.3a59.2,59.2,0,0,0-7.5,2.2l-3.7,1.4-3.6,1.7-3.6,1.7-3.5,1.9a283.4,283.4,0,0,0-27.2,16.7c-8.9,5.9-17.9,11.9-27.8,16.1A99,99,0,0,1,55,149.3V149a100.4,100.4,0,0,0,30.4-9.4c9.7-4.7,18.3-11,27.1-17.2a228.3,228.3,0,0,1,27.4-17.6c2.3-1.4,4.8-2.5,7.2-3.7l3.8-1.8,1.9-.8,2-.7A69.1,69.1,0,0,1,171,94.2a90.6,90.6,0,0,1,32.8,3.3,96.5,96.5,0,0,1,15.5,5.8,81,81,0,0,1,14.2,8.3c4.4,3.4,8.4,7,12.6,10.4a135.4,135.4,0,0,0,12.8,9.8,73.6,73.6,0,0,0,14.1,7.6,46,46,0,0,0,15.6,3.5Z" fill="#9b9b9a"/><path d="M248.7,164.6c-9.6.5-19.2,1.4-28.7,2.8a263.8,263.8,0,0,0-28.1,5.7c-9.3,2.3-18.4,5-27.6,7.7a265.5,265.5,0,0,1-27.6,7,112.9,112.9,0,0,1-28.4,1.9A131.3,131.3,0,0,1,80.4,185c-18.1-5.1-35.2-13.1-51.6-21.8h.1c16.8,8.5,34.1,16.3,52.4,21.2a130.9,130.9,0,0,0,27.9,4.4,120.6,120.6,0,0,0,28.1-2.1c9.3-1.8,18.4-4.4,27.5-7s18.2-5.3,27.5-7.6,18.6-4,28-5.3,18.9-1.9,28.4-2.3Z" fill="#ccc"/><path d="M230.9,157.5c-8.3.7-16.5,1.6-24.7,3a246,246,0,0,0-24.1,5.2c-8,2.1-15.8,4.5-23.7,6.8a212.8,212.8,0,0,1-23.8,6.1,110.6,110.6,0,0,1-24.4,1.9,115,115,0,0,1-24.1-3.6c-15.7-4.1-30.6-10.5-44.9-17.7h.1C56,166,71.1,172.2,86.9,176a121.5,121.5,0,0,0,24,3.2,109.5,109.5,0,0,0,24.2-2.1,239.8,239.8,0,0,0,23.6-6c7.9-2.3,15.7-4.6,23.6-6.6s16-3.6,24.1-4.7,16.3-1.9,24.5-2.3Z" fill="#ccc"/><path d="M213,150.5a243.7,243.7,0,0,0-40.7,7.8c-13.3,3.7-26.2,8.5-39.7,11.1a94.7,94.7,0,0,1-20.5,1.8,98,98,0,0,1-20.3-2.5c-13.3-2.9-26-7.9-38.2-13.4h.1c6.3,2.5,12.6,5,19.1,7.1a168,168,0,0,0,19.7,5.2,100.1,100.1,0,0,0,40.3.1c6.7-1.3,13.3-3.2,19.8-5.1s13.2-3.9,19.8-5.6a223.1,223.1,0,0,1,40.6-6.5Z" fill="#ccc"/><path d="M195.2,143.4a254.7,254.7,0,0,0-32.7,7.6c-10.6,3.1-21.1,7-32,9.2l-4.1.7-4.2.5-2.1.3h-6.2a29.5,29.5,0,0,1-4.2-.1l-4.1-.2-2.1-.2-2-.3-4.1-.6A166.8,166.8,0,0,1,66,151.3h.1c10.4,3.3,21,6.3,31.9,7.8l4.1.5,4,.3,4.1.2h4.1a56.6,56.6,0,0,0,8.2-.6l4-.5,4.1-.8c10.7-2.1,21.1-5.8,31.9-8.6a201.3,201.3,0,0,1,32.6-6.1Z" fill="#ccc"/><path d="M177.3,136.3c-8.3,2.1-16.5,4.6-24.6,7.3s-16,5.6-24.4,7.4a80.5,80.5,0,0,1-25.4,1.3,134.8,134.8,0,0,1-24.5-5h.1a206.9,206.9,0,0,0,24.9,3.3,94.2,94.2,0,0,0,24.8-2c8.1-1.7,16.1-4.4,24.3-6.7a189.4,189.4,0,0,1,24.8-5.6Z" fill="#ccc"/><path d="M159.4,129.3c-5.5,2.4-10.9,4.8-16.5,7a99.2,99.2,0,0,1-17,5.5,87.4,87.4,0,0,1-17.6,2.2,127.4,127.4,0,0,1-17.5-.7h0c11.8-.7,23.5-1.5,34.8-4.1,5.6-1.3,11.2-3,16.8-4.8s11.3-3.6,17-5.2Z" fill="#ccc"/><path d="M141.6,122.2a30,30,0,0,1-8.5,6.9,44.4,44.4,0,0,1-10.1,3.8c-3.4,1-6.7,1.9-10,3s-6.5,2.2-9.8,3.5v-.2a65.4,65.4,0,0,1,9.1-5.6,55.9,55.9,0,0,1,10.1-3.7c3.4-1,6.7-1.8,9.9-3a51.3,51.3,0,0,0,9.3-4.8Z" fill="#ccc"/><path d="M228.2,118.8l-5-2-5.1-1.6-5.2-1.3-5.2-1a162.9,162.9,0,0,0-20.9-2.3,152.6,152.6,0,0,0-41.5,3.3v-.2c13-5.8,27.7-8,42-7.3a103.7,103.7,0,0,1,21.4,3.4,66,66,0,0,1,19.7,8.9Z" fill="#ccc"/><path d="M244.3,126.7a233.1,233.1,0,0,0-38.3-6.2,177.9,177.9,0,0,0-37.9,1v-.2a98.7,98.7,0,0,1,38.6-4.4,113.9,113.9,0,0,1,37.7,9.6Z" fill="#ccc"/><path d="M260.3,134.5c-11.8-1.3-23.5-2.9-35-3.9a331.9,331.9,0,0,0-34.5-1.6v-.2a124.3,124.3,0,0,1,35-1.3,181.8,181.8,0,0,1,34.5,6.9Z" fill="#ccc"/><path d="M276.3,142.4c-10.7-.3-21.3-.9-31.7-1.8s-20.9-2.2-31-4v-.2c10.5.3,20.9.7,31.4,1.6s21,2.4,31.4,4.3Z" fill="#ccc"/><path d="M292.4,150.2c-9.7.4-19.2.5-28.7.2a85.6,85.6,0,0,1-14.2-1.5,56.4,56.4,0,0,1-13.2-4.8h0a65.1,65.1,0,0,0,13.7,3.3,129.9,129.9,0,0,0,14,1c9.4.3,18.9.8,28.4,1.8Z" fill="#ccc"/><g filter="url(#a)"><g style="isolation:isolate"><g style="isolation:isolate"><g clip-path="url(#b)"><g style="isolation:isolate"><path d="M148.9,58.1l18.9.6h.9l.9.2.8.4.8.4-18.9-.4-.8-.6-.9-.4-.8-.2h-.9" fill="#b6b6b6"/></g></g></g><g style="isolation:isolate"><g clip-path="url(#c)"><g style="isolation:isolate"><path d="M153.7,82.7l18.9-2.2-.9.7-.9.6-.9.4-1,.2L150,84.7l1-.2.9-.4,1-.6.8-.8" fill="#b6b6b6"/></g></g></g><polygon points="159.5 31.7 178.5 35.4 178.9 46.9 160.1 44.6 159.5 31.7" fill="#adadad"/><g style="isolation:isolate"><g clip-path="url(#d)"><g style="isolation:isolate"><path d="M174.9,78.6l18.4-1.9a11,11,0,0,0-4.4,1.5,12.9,12.9,0,0,0-3.3,3.3,13.7,13.7,0,0,0-2,4.6,16.3,16.3,0,0,0-.6,5.5,19.4,19.4,0,0,0,.2,2.4,15.5,15.5,0,0,0,.6,2.3,20.2,20.2,0,0,0,.7,2.3l1,2L167,105.7a13.3,13.3,0,0,1-1.1-2.4c-.3-.8-.5-1.6-.8-2.5a25.6,25.6,0,0,1-.5-2.7l-.3-2.7a32.1,32.1,0,0,1,.6-6.3A19.5,19.5,0,0,1,167,84a12.1,12.1,0,0,1,3.4-3.7,10.3,10.3,0,0,1,4.5-1.7" fill="#b6b6b6"/></g></g></g><polygon points="179.3 25.9 197.6 30.8 198.2 43.7 179.9 40.7 179.3 25.9" fill="#adadad"/><g style="isolation:isolate"><g clip-path="url(#e)"><g style="isolation:isolate"><path d="M205.9,83.8l16.5-2.9c0,4.1-.1,7.6-.1,10.6s-.2,5.4-.3,7.3-.2,3.3-.2,4.3-.1,1.5-.2,1.5l-16.5,7c0-.1,0-.7.1-1.8s.1-2.8.2-5,.2-5.1.3-8.6.1-7.6.2-12.4" fill="#b6b6b6"/></g></g></g><g style="isolation:isolate"><g clip-path="url(#f)"><g style="isolation:isolate"><path d="M204.5,20l16.8,6.4.3,7.9q.2,3.9.3,7.5c0,2.4.1,4.7.2,7s.1,4.5.1,6.6L205.6,54c-.1-2.5-.1-5.1-.2-7.7s-.2-5.4-.2-8.2-.2-5.8-.4-8.8-.2-6.1-.3-9.3" fill="#b6b6b6"/></g></g></g><g style="isolation:isolate"><g clip-path="url(#g)"><g style="isolation:isolate"><path d="M218.1,50l15.6,2a14.1,14.1,0,0,1,5,1.7A15.4,15.4,0,0,1,243,57a15,15,0,0,1,3,4.8,15.9,15.9,0,0,1,1.3,5.8,16.2,16.2,0,0,1-.7,5.8,15.2,15.2,0,0,1-2.5,4.9,14.5,14.5,0,0,1-3.8,3.6,13,13,0,0,1-4.8,2.1l-15.3,3.7a13.4,13.4,0,0,0,5.3-2.4,17.6,17.6,0,0,0,4.3-4.3,20.8,20.8,0,0,0,2.8-5.8,21.8,21.8,0,0,0,.8-6.9,26.5,26.5,0,0,0-1.5-6.9,18.7,18.7,0,0,0-3.4-5.6,16.2,16.2,0,0,0-4.8-3.9,13.8,13.8,0,0,0-5.6-1.9" fill="#b6b6b6"/></g></g></g><path d="M174.7,27.1l1.1-.3,1.2-.3,1.1-.3,1.2-.3.6,14.8,11.8-2.3-.6-15.5,3.2-.7,3.3-.7,3.4-.8,3.5-.7q.1,4.8.3,9.3c.2,3,.3,5.9.4,8.8s.1,5.5.2,8.2.1,5.2.2,7.7l1.9-1.5,2-1.2,2.3-.8a10.5,10.5,0,0,1,2.4-.6,15.4,15.4,0,0,1,6.8.8,17.3,17.3,0,0,1,6.1,3.6,19.5,19.5,0,0,1,4.4,6.1,22.9,22.9,0,0,1,1.9,7.9,21.5,21.5,0,0,1-1.2,8.1,18.1,18.1,0,0,1-3.9,6.4,15.9,15.9,0,0,1-5.6,4.1,15.5,15.5,0,0,1-6.8,1.2,12.6,12.6,0,0,1-2.8-.4,16,16,0,0,1-5.1-2.2,17.3,17.3,0,0,1-2.1-1.7c-.1,4.8-.1,9-.2,12.4s-.2,6.3-.3,8.6-.1,3.9-.2,5-.1,1.7-.1,1.8l-4.4-.6-4.2-.5-4-.6-3.9-.5a17.5,17.5,0,0,0,1.1-2.4,19.8,19.8,0,0,0,.8-2.6,26.8,26.8,0,0,0,.5-3c0-1,.1-2,0-3.1a24.5,24.5,0,0,0-1.5-7.7,21.9,21.9,0,0,0-3.5-6.4,15.1,15.1,0,0,0-4.7-4.1,11.6,11.6,0,0,0-5.3-1.6,9.7,9.7,0,0,0-5,1.4,11.5,11.5,0,0,0-3.7,3.6,17,17,0,0,0-2.3,5.3,27.3,27.3,0,0,0-.7,6.6l.3,2.7a25.6,25.6,0,0,0,.5,2.7c.3.9.5,1.7.8,2.5a13.3,13.3,0,0,0,1.1,2.4l-3.1-.5-2.9-.6-2.8-.6-2.8-.6a11.3,11.3,0,0,0-.1-1.4c-.1-.9-.2-2.2-.4-3.9s-.3-3.8-.5-6.3-.5-5.6-.7-9.1a4.1,4.1,0,0,1-1,.9l-1.2.7-1.2.4h-1.2a6.6,6.6,0,0,1-3.2-1.2,12.4,12.4,0,0,1-2.6-2.9,16.8,16.8,0,0,1-1.7-4.1,19.3,19.3,0,0,1-.8-4.9,20.3,20.3,0,0,1,.4-5,15,15,0,0,1,1.5-4.2,10,10,0,0,1,2.3-3,5.5,5.5,0,0,1,3.1-1.4h1.1l1.1.2,1,.4,1,.7-.3-5.7-.3-6c-.1-2.1-.1-4.2-.2-6.4l-.3-6.8,2-.7,2.1-.7,2.1-.7,2.1-.7.6,12.9,9.3-1.8-.6-14,1.5-.4,1.4-.5,1.5-.4Z" fill="#fff" stroke="#c6c6c5" stroke-miterlimit="10"/></g></g><path d="M156.1,272.1c-.1-2.8-.6-9.2-1.2-17.6A32.3,32.3,0,0,0,166.5,242c4-8,.7-11.2,1.3-32.2,0-1.9.1-3.7.1-5.2a6,6,0,0,0,1.5-3.3c.6-15.3.4-24-11.2-31.5.2-1.3.4-2.8.7-4.5a128.7,128.7,0,0,0,.8-28.9,3.5,3.5,0,0,0-1.3-2.6l1.7-2.7s4.6-10,4-12.3c-1.3-4.5-2-7.4-3.7-7.6a5.6,5.6,0,0,1-3.2-1.8s0-11-.4-14.2-2.6-2.5-2.6-2.5L150.8,108c-.3,1.8-3.9,2.2-5.8,3.2s-3.3,8.8-2.6,12.3,1.1,5.7,1.7,8.9a2.6,2.6,0,0,0-1.9,2.3c.3,6.7.2,6.1-1.1,15.9a38.9,38.9,0,0,1-2,8,16.3,16.3,0,0,0-5.7,1.8h0a8.5,8.5,0,0,0-1.9,1,3.3,3.3,0,0,1,2,1.9c-1.5-.9-3.1-1.2-4.5-3.4a25.8,25.8,0,0,1-1.9-3.4c5.3-3.6,5.9-7.3,7.9-10.4,5.7-8.6,3.5-24.6-7.4-32.9s-15.5-6.7-24.7-5.2c-21.4,3.6-22.3,18.9-21,28.8a37.6,37.6,0,0,1,5.5-1.7c-.1,1.1-.3,2.4-.5,3.8a61.7,61.7,0,0,0-.5,9A38.4,38.4,0,0,0,89,161.2c1.8,4.3,5.4,13,12.8,14.3a13.1,13.1,0,0,0,8.5-1.8,18.2,18.2,0,0,1,0,3.3,5.9,5.9,0,0,1-.2,1.3,7.6,7.6,0,0,0-3.9,1.9l-6.4,4.9h.1c-3.6,2.6-5.7,4.1-6.1,4.7-7.2,10.7-6.1,17.3-12.6,35-1.8,4.9-2.9,9.2-3.1,9.1s3.1-9.1,3.1-9.1c-1.8-4.3-2.1-3.2-4.6-7.1l-.5-.4a24.3,24.3,0,0,0-.1-8.9c-1.4-6.8.3-18.6-2-18.6-5.9,0-2.5,11.4-7.3,12.8-1.4.4-4.3-2.7-10.2-15.3a45.4,45.4,0,0,0-1.3,15.9c.5,4.7,3.7,7.7,7.6,16.9a3.7,3.7,0,0,0-1.8,3.4c1.1,6.9.8,5.8,8.3,25.2,4.5,11.4,12.9,16,17.8,14.4l.9-.4c1,6.2,3.4,11.1,6.5,12.4m32.3-119.4.2-.3v.7Z" fill="#ebeae4" stroke="#8e8e8d" stroke-linecap="round" stroke-miterlimit="10" stroke-width="6"/><path d="M73.5,219.4a1.8,1.8,0,0,1-1.8-1.2L54.4,178.5a2,2,0,0,1,0-1.5,2,2,0,0,1,1.1-1.1L73,168.3a1.3,1.3,0,0,1,.8-.2,2.1,2.1,0,0,1,1.9,1.2L92.9,209a2.6,2.6,0,0,1,.1,1.5,2,2,0,0,1-1.1,1.1l-17.6,7.7Z" fill="#c6c6c5"/><path d="M73.8,170.1l17.3,39.7-17.6,7.6L56.3,177.7l17.5-7.6m0-4a4.5,4.5,0,0,0-1.6.3l-17.5,7.7a3.9,3.9,0,0,0-2.1,5.2L69.8,219a4.1,4.1,0,0,0,5.3,2.1l17.6-7.6a4.1,4.1,0,0,0,2.1-2.2,4.2,4.2,0,0,0,0-3.1L77.5,168.5a3.8,3.8,0,0,0-2.2-2.1,4,4,0,0,0-1.5-.3Z" fill="#8e8e8d"/><path d="M56.5,187.3a45.4,45.4,0,0,0-1.3,15.9c.5,5.1,4.3,8.2,8.6,19.2,1.8,4.7,11.3-.7,12-3.8a24.3,24.3,0,0,0,.2-10.2c-1.4-6.8.3-18.6-2-18.6-5.9,0-2.5,11.4-7.3,12.8C65.3,203,62.4,199.9,56.5,187.3Z" fill="#ebeae4" stroke="#8e8e8d" stroke-miterlimit="10" stroke-width="2"/><path d="M155,139.2l5.1-8.1s4.6-10,4-12.3c-1.3-4.5-2-7.4-3.7-7.6a5.6,5.6,0,0,1-3.2-1.8s0-11-.4-14.2-3-3.9-3-3.9-1.5,7.9-3,16.7c-.3,1.9-3.9,2.2-5.8,3.2s-3.3,8.8-2.6,12.3,1.8,9,2.6,13.2" fill="#ebeae4" stroke="#8e8e8d" stroke-miterlimit="10" stroke-width="2"/><path d="M136.6,164a39,39,0,0,0,4.5-13.4c1.3-9.8,1.4-9.2,1.1-15.9-.1-4.8,17.2-4.6,17.5,1.7a128.7,128.7,0,0,1-.8,28.9c-1.4,10.9-2.3,13.7-2.6,19.6" fill="#ebeae4" stroke="#8e8e8d" stroke-miterlimit="10" stroke-width="2"/><path d="M94.5,275.1c-4.9-2.1-8-12.6-6.6-23.5s5-29.4,6.8-49l58.5-18.8c-3.2,21.5,2.7,78.3,2.9,88.3" fill="#ebeae4" stroke="#8e8e8d" stroke-miterlimit="10" stroke-width="2"/><path d="M135.5,164.9c-2-2.5-4.4-1.8-6.5-5-5.2-8-.6-8.1-2.8-9.8s-16.8,3.2-18.3,11.5c-.9,5,3.1,7.4,2.4,15.4-.5,5-2.3,6.2-1.3,8.1,2.6,4.7,18.9,5.4,25.4-3.7C137.8,176.7,138.7,169,135.5,164.9Z" fill="#ebeae4" stroke="#8e8e8d" stroke-miterlimit="10" stroke-width="2"/><path d="M129.4,151.8c3.4-6.9,4.1-10.3.9-19.6-.8-2.3-4.5-11.8-14.5-14.7s-23.7,3.8-27.1,11.6c-.9,2.1-1.2,5.1-1.8,9.8a61.7,61.7,0,0,0-.5,9A38.4,38.4,0,0,0,89,161.2c1.8,4.3,5.4,13,12.8,14.3,5.7,1,10.9-3.1,14.3-5.8a26.7,26.7,0,0,0,4.7-4.8" fill="#ebeae4" stroke="#8e8e8d" stroke-linecap="round" stroke-miterlimit="10" stroke-width="2"/><path d="M156.1,174.1c0-9.8-3.9-13.6-11-15.2-3.1-.6-9.9.1-13.6,2.5,0,0,3.8,1,1.6,5.8-3,6.7-15.5,10.6-17.1,10.9-4.9.8-5.7-1.1-9.8,2.1-7.3,5.9-11.8,8.7-12.4,9.6-7.2,10.7-6.1,17.3-12.6,35-1.8,4.9-2.9,9.2-3.1,9.1s3.1-9.1,3.1-9.1c-1.8-4.3-2.1-3.2-4.6-7.1s-16.4.7-15.6,5.8c1.1,6.9.8,5.8,8.3,25.2,4.5,11.4,12.9,16,17.8,14.4s10-18.5,15.2-30.9c3.7-8.8,5.5-14.5,7.6-16.9" fill="#ebeae4" stroke="#8e8e8d" stroke-miterlimit="10" stroke-width="2"/><path d="M81.9,136.8c-1.3-9.9-.4-25.2,21-28.8,9.2-1.5,15.1-2,24.7,5.2s13.1,24.3,7.4,32.9c-2,3.1-2.6,6.9-8,10.5,0,0,1.3-7-8.4-9.3-5.9-1.4-1.2-10.9.9-15.8-4.7,3.4-5.8,5-17.5,3.7C96.6,134.6,91.6,133,81.9,136.8Z" fill="#ebeae4" stroke="#8e8e8d" stroke-miterlimit="10" stroke-width="2"/><path d="M93,153c-.4,2.9,3.1,3.7,3.1,3.7" fill="#ebeae4" stroke="#8e8e8d" stroke-linecap="round" stroke-miterlimit="10" stroke-width="2"/><path d="M106.2,180.2c7.2-4.6,17.1,1.8,19.5,1.3,7.5-1.6,13.5-6.9,14.1-10.8s-.7-8.1-6.4-10.3c0,0,4.9-2.8,8-1.6s10,6.2,10.3,10.2,4.4,32.4,4.4,32.4L117,219.2s-.4-19.6-3.1-26.5c-2.2-5.4-7.2-7.8-14.1-7.6Z" fill="#ebeae4" stroke="#8e8e8d" stroke-linecap="round" stroke-miterlimit="10" stroke-width="2"/><path d="M153.1,167.5c-6-1.4-11.2,1.8-18,5.9s-13.1,8.1-17.4,16.7c-3.1,6.3-2.2,10.4-.7,29.1,2.4,31,1.2,35.4,6.1,39.1,9.2,7,25.1-.3,26.9-1.1s11.6-5.5,16.5-15.2c4-8,.7-11.2,1.3-32.2.3-16.5,2.4-19.7-.6-27.3C166.2,179.9,162,169.5,153.1,167.5Z" fill="#ebeae4" stroke="#8e8e8d" stroke-miterlimit="10" stroke-width="2"/><path d="M121.8,192.3c23.3,6.7,15.6,25.5,22.2,25.4,8.5-.1,25.2-11,25.4-16.3.6-16,.4-24.8-12.6-32.4" fill="#ebeae4" stroke="#8e8e8d" stroke-linecap="round" stroke-miterlimit="10" stroke-width="2"/></svg>