<svg xmlns="http://www.w3.org/2000/svg" xmlns:xlink="http://www.w3.org/1999/xlink" viewBox="0 0 300 225"><defs><symbol id="a" viewBox="0 0 13.9 20.6"><path d="M13.9,6.9c0,2.9-3.8,9.7-5.8,13.1a1.3,1.3,0,0,1-2.3,0C3.8,16.6,0,9.8,0,6.9a7,7,0,0,1,13.9,0Z" fill="#8f0000"/></symbol></defs><path d="M149.3,165.2a2.5,2.5,0,0,1-2.4-2.5,10.9,10.9,0,0,0-1.5-4.5,11.9,11.9,0,0,1-1.8-5.3,10.9,10.9,0,0,0-1.1-3.8c-1-2.3-2.1-4.8-.6-7.9s1.1-7.1-2.4-11.2a4.1,4.1,0,0,1-.7-3.9,2.9,2.9,0,0,0,.2-.9c.1-1.1,0-1.4-.1-1.5s-.2-.1-.5-.1h-1.1a2.8,2.8,0,0,1-2.7-1.9c-.2-.5-.4-.5-.5-.5a4.9,4.9,0,0,0-1.6.5h-.2a13.5,13.5,0,0,1-5.9,1.4,9.5,9.5,0,0,1-7.8-3.5l-1.2-1.4c-2-2.5-4.4-5.6-2.7-10.2a10.2,10.2,0,0,0,.3-3.1c0-2,0-4.1,1.7-6.1l.8-.9a7.5,7.5,0,0,1,2.3-2.4,4.4,4.4,0,0,0,2-2.8c.4-1,1.3-3.8,3.9-4.6h-.3a4,4,0,0,1-2.6-2,4.3,4.3,0,0,1,.2-3.5c.3-.8.6-1.5.4-2a1.4,1.4,0,0,1,.1-1.1c.4-.6,1.2-.6,2-.6h2.2l1.2.2h.7s.1,0,.1-.2a2.5,2.5,0,0,0,.2-1.9,1.9,1.9,0,0,0-1.2-.9,1.9,1.9,0,0,1-1-1,1.2,1.2,0,0,1-.1-1,1.7,1.7,0,0,1,1.1-.9c3.3-.5,5.3-1.9,6.5-4.2.2-.5.8-.8,1.7-.8h1.5s.1-.3-.3-1.1a2,2,0,0,1,.2-1.9h-.1a1.7,1.7,0,0,1-1.2-.5,7.4,7.4,0,0,1-1.6-3.2,2.3,2.3,0,0,1,1.5-2.8c2.7-1.2,4.4-3.5,6.3-5.9l1.2-1.6.8-.7c.1,0,.2,0,.2-.1h.1l.3-.2,3.3-.9h.2l.8-.2a6.5,6.5,0,0,1,2-.5,2.7,2.7,0,0,1,1.7.6,7.6,7.6,0,0,0,3.7,1.5,12.8,12.8,0,0,1,4,1.4,2.9,2.9,0,0,1,.8,1v-.3a.1.1,0,0,0-.1-.1c0-.1-.1-.2-.1-.3a1.4,1.4,0,0,1,0-.9,1,1,0,0,1,.8-.5h.7l.7.2a3.5,3.5,0,0,1,1,1.1c.1.1.1.2.2.4l.3-.2.6-.5a2.6,2.6,0,0,1,1.9-.9l1.2.3a4.9,4.9,0,0,1,1.9-.7h0a.9.9,0,0,1-.3-1.2,1.1,1.1,0,0,1,.9-.5h.2l.7.2.9.2h.4a10.8,10.8,0,0,1,1.9.3,3.4,3.4,0,0,1,.1-2.6,2.2,2.2,0,0,1,2-1.3l1,.2.7.6h0a1.5,1.5,0,0,1,.8-.4,1.4,1.4,0,0,1,1,.5,2,2,0,0,1,1.3-.4,2.5,2.5,0,0,1,.2-.7c.3-.6,1.1-.8,1.9-.9a1.3,1.3,0,0,1,.4-1,7,7,0,0,1,4.2-1.8h.9c.9-.1,1-.2,1.1-.7s1.3-1.1,1.8-1.1h.6a7.8,7.8,0,0,0,3.1.7l2.1.2c.8.1,2.4.5,2.4,2v.3h.5a5.7,5.7,0,0,1,1.8.3h.9a12,12,0,0,0,2.4-.4,10.9,10.9,0,0,1,2.6-.5A4,4,0,0,1,213,44a2.8,2.8,0,0,0,2.1,1,5.9,5.9,0,0,0,2.2-.5l1.4-.4a18.6,18.6,0,0,1,5.4-.6h3.2a22,22,0,0,1,3.7.5,14,14,0,0,0,3.4.5,5.5,5.5,0,0,0,2.6-.6h1.1l.3-.3h.1l.7-.2,2.5-.2a28.1,28.1,0,0,1,8.6,1.6h2.2a3.9,3.9,0,0,1,2.9,1.7l.6.7a1,1,0,0,1,.4.9,1,1,0,0,1-.5.8,3.2,3.2,0,0,1-1.4.3l-1.3-.2h-.5l-1.2-.2.6.2a3.5,3.5,0,0,1,1.5.7.5.5,0,0,1,.4.2,1,1,0,0,1,.6.9.9.9,0,0,1-.5.8l-.5.3h-.2a4.5,4.5,0,0,1-2.5,2.7c-.5.3-1,.5-1.1.8s-.2.3-.2.3l.9.6a4.8,4.8,0,0,1,1.6,1.2h.2a.1.1,0,0,0,.1.1,1.1,1.1,0,0,1,.7.9l.3.9,1.1,3.5a3.8,3.8,0,0,1,.1,1v.3a1,1,0,0,1-.4.9l-.6.2H253l-1-.4-1.1-1-1.7-1.3c-3.1-1.8-3.4-4.8-3.6-7.4h-1l-.9-.4c-.2-.2-.3-.2-.4-.2s0,.6.1.7a.8.8,0,0,0,.4.4c0,.1.1.2.2.3a1,1,0,0,1,.3,1,1.1,1.1,0,0,1-.8.7H243l-1.1.2h-.7l-1-.2a4.5,4.5,0,0,0-3.4,1.7,3.3,3.3,0,0,0-.7,2.7,2.5,2.5,0,0,0,1.3.5l1.1-.2,1.1.2h.1a1.1,1.1,0,0,1,1-.6h.3c1.3.1,4.3,4,4.6,4.5s1.4,2.2,1.3,2.7v.4a1.6,1.6,0,0,1-.6.8h-1.1a14.1,14.1,0,0,1-.2,5c0,.4-.5,1.7-1.5,1.7H243a1,1,0,0,0-.7.2,3.1,3.1,0,0,0-.1,1.1,3.8,3.8,0,0,1-.2,2.1.2.2,0,0,0,.2.2l.4.4.7.6c1,.9,2.9,2.6.9,5.1a1.2,1.2,0,0,1-1.1.5c-1.1,0-1.6-.4-1.7-1a4,4,0,0,0-1.5-2.4,7.1,7.1,0,0,1-1.8-2.3H238l-.8.4-.3.2a1.6,1.6,0,0,1,1.2.6,1.5,1.5,0,0,1,.5,1.1,1.4,1.4,0,0,1-.8,1c0,.1,0,.1-.1.1s-.4,1.3.8,2.2a8.3,8.3,0,0,1,1.5,1.7,4.1,4.1,0,0,0,.5.9,5.6,5.6,0,0,1,1.2,4.4,7.6,7.6,0,0,0-.3,1.6c-.5,2.4-1,5.4-5,6.1-.6.1-1.3.9-1.9,1.6l-.3.3a1.8,1.8,0,0,1-1.3.8,1.3,1.3,0,0,1-1.2-.9c-.1-.2-.1-.3-.2-.4h-.1c-1.1,1.3-1.1,1.6-.5,2.3l.9.9c.6.7,1.3,1.4,1.8,2.1a6.4,6.4,0,0,1,1.2,5.2,6.2,6.2,0,0,1-3.4,3.9h-.5c-1.3,0-3.2-3-3.3-3.1a2.6,2.6,0,0,0-1.4-1,1.3,1.3,0,0,1-.1.6c-.2.9-.4,1.4-.1,2a8.6,8.6,0,0,0,2.1,2.7c1.3,1.4,2.9,3,2.9,5.6,0,.1.1.2.1.4v.3a1.2,1.2,0,0,1-.3,1l-.7.2h-.3l-.8-.3a4.7,4.7,0,0,1-3-3,9.3,9.3,0,0,0-.5-1,22.7,22.7,0,0,1-2.6-7.7,27.2,27.2,0,0,0-1.3-5.1,2.6,2.6,0,0,1-1.8.7h-.1a1.2,1.2,0,0,1-.9-.5,2.5,2.5,0,0,1-.6-1.7c.1-1.4-.7-2.2-1.9-3.4l-1.3-1.5-.4.2c-2.1.6-3.2,2.2-4.5,4a13.9,13.9,0,0,1-2.9,3.5,7.2,7.2,0,0,0,0,2.1v2a2.7,2.7,0,0,1-.2,1.2l-.3.5c-.3,1-.9,2.4-2.5,2.4h0c-1.4,0-1.8-1.4-2-2.1a2.5,2.5,0,0,1-.2-.7A24,24,0,0,1,201,113a34.2,34.2,0,0,1-3.4-8.9h-.8a6.8,6.8,0,0,1-2.1-1,1.8,1.8,0,0,1-.6-1,.6.6,0,0,1,.1-.4l-.3-.3c-1-1.6-2.4-2-4.3-2h-4.3c.9.4,2.3,1.2,1.9,3A10.8,10.8,0,0,1,182,109l-2.6,1.5a45.9,45.9,0,0,1-4.9,2.6,4.8,4.8,0,0,1-1.4.5,1.6,1.6,0,0,0,1,.3h0a9.8,9.8,0,0,0,2.2-.5l1.7-.6h.7a1.9,1.9,0,0,1,1.4.5,2.6,2.6,0,0,1,.2,2.1c-1.2,5.1-4.2,8.6-7.1,11.3-4.6,4.4-4.9,4.8-3.1,11,.6,2.2,1.9,6.7-3.1,8.7-2.5,1-2.5,2.4-2.2,3.4a4.5,4.5,0,0,1-2.2,5.3c-.5.3-.7,1-.9,1.9a21.8,21.8,0,0,1-.9,2.3c-2.7,4.4-6.9,5.3-11.2,5.9Zm15.5-65a26.1,26.1,0,0,1,2.2,5.1,11.5,11.5,0,0,0,2.4,3.3l.6.7a40.8,40.8,0,0,0-4.8-8.6,1.8,1.8,0,0,1-.5-.7Zm13.6-2,.9.3,1.3.3c.1,0,.5,0,.9-.9h-.2a5.3,5.3,0,0,1-3.3-1l-.3-.3-.8-.7a13,13,0,0,0,1,1.5,2.2,2.2,0,0,0,.5.8ZM140.2,85.6c.6,0,1.7.3,1.8,2.2s1.4,2.6,3.5,3.2a10.5,10.5,0,0,1,2.9,1.2c.5-1.9,1.6-2.3,2.5-2.3a5.7,5.7,0,0,1,2.5.8l.7.3a9.7,9.7,0,0,0,4.1.7h3.5c.4-.2.4-1.6.5-2.2a4.9,4.9,0,0,1,.1-1.2h-3.9c-1.7,0-4.1-.4-4.7-4.1a3.5,3.5,0,0,1-.1-.6H153a2.4,2.4,0,0,1,.1,2.6,1.7,1.7,0,0,0-.2.5.7.7,0,0,1-.2.7.8.8,0,0,1-.6.4h-.9c-1.1-.2-1.4-1.2-1.6-1.7s-.1-.2-.1-.3a8.2,8.2,0,0,1-1.2-2,.9.9,0,0,1-.7.3h-.2c0,.8-.1,1.1-.4,1.4a.9.9,0,0,1-.7.3,1.3,1.3,0,0,1-1.1-.7,2.7,2.7,0,0,0-.7-.8,18,18,0,0,1-2-1.9c-.9-1-1.7-2-2.7-2h-.2c-4.4.7-6.5,2.2-7.3,5.3a3.1,3.1,0,0,1-1.3,1.7l.6-.2a11.1,11.1,0,0,1,4-.9,5.5,5.5,0,0,1,1.8.2h0a3,3,0,0,0,1.1-.4A4.8,4.8,0,0,1,140.2,85.6Zm35.1-.9c.2.3,1,.5,1.4.7h.9c-.7-2-1.3-3.9-2.8-5.3a3,3,0,0,1-1.2-2.5,1.9,1.9,0,0,1,.7-1.2,6.7,6.7,0,0,0-1.4.9c-.3.3-.5.4-.2,1.2a3.6,3.6,0,0,0,1.1,1.5C174.8,80.9,176.1,82.3,175.3,84.7Zm59.2-3.2.8.2h.1a.9.9,0,0,1-.4-.6h-.1A2.1,2.1,0,0,0,234.5,81.5Zm-88.6-.9.9.7a2.2,2.2,0,0,0-.9-.7Zm15-.5a6.5,6.5,0,0,1,3.6,1h1.7l-.2-.2a2.2,2.2,0,0,1-1-.9c-.5-.9-1.3-1-2.6-1a5.5,5.5,0,0,1-4.1-1.5c-.1-.1-.2-.1-.2-.2a1.9,1.9,0,0,0-.2.7,4.3,4.3,0,0,1-1.2,2.2c-.2.1-.3.2-.1.5s.4.5.6.5h.1A10.2,10.2,0,0,1,160.9,80.1Zm-14.1-17a3.7,3.7,0,0,1-1.3,3.4l-.6.4h.3a2.8,2.8,0,0,1,1.6-.6,2,2,0,0,1,1.1.3v-.6a2.8,2.8,0,0,1,.8-2.3.3.3,0,0,1-.1-.2,1.7,1.7,0,0,1,.2-1.1l.2-.2a3.5,3.5,0,0,1-1.1-1,2.4,2.4,0,0,1-.4-2.1h-.2a2.2,2.2,0,0,0-.7.8c0,.2.1.4.5.6s1,.8.8,1.6S147.1,63,146.8,63.1ZM142,66.7l-.3-.5v.4Z" fill="#ebeae4"/><path d="M193.5,40.9h.1c1.7,1,3.7.6,5.5,1s1.6.3,1.6,1-.7,1.1-1.1,1.6l-1,1.1c.4-.1,1-.1,1.2-.4a3.4,3.4,0,0,1,2.4-1l1.6.2,1.1.2c1.7,0,3.5-.9,5-.9a3,3,0,0,1,2.3,1,4,4,0,0,0,2.9,1.3c1.4,0,2.6-.7,3.8-1a21.4,21.4,0,0,1,5.2-.5h3.2c2.4,0,4.7,1,7.1,1a7,7,0,0,0,3.1-.7h.1c.3,0,.7.4,1.1.5l1,.2-.6-.6-.3-.3.5-.2,2.4-.2a26.4,26.4,0,0,1,8.3,1.5l.7.2,1.3-.2h.5c1.4,0,2,1.4,2.9,2.2a1.5,1.5,0,0,1-.9.2,10.1,10.1,0,0,1-1.7-.3l-3.2-.5c.6,1.1.9,2.4,2.4,2.5a4.8,4.8,0,0,1,1.6.8c-.4.2-1.1.4-1.1.7-.4,2.1-2.7,2.2-3.6,3.4s1.5,2.2,2.4,3.3l.8.6h0c.5,1.5,1,3,1.4,4.6a3.7,3.7,0,0,1,.1,1.1l-1-.4a33.6,33.6,0,0,0-2.9-2.4c-2.7-1.6-2.9-4.2-3.1-6.9a3.5,3.5,0,0,0-.6-1.7,4.6,4.6,0,0,0-.7-.7,2.7,2.7,0,0,1,0,.9,3.6,3.6,0,0,1-.2,1c-.2-.1-.6-.1-.8-.3a1.3,1.3,0,0,0-1-.4,1.1,1.1,0,0,0-.7.3,1.4,1.4,0,0,0,0,2l.7.8-1.4.3h-.4l-1.3-.2c-3,0-5.8,2.8-5.1,5.7.2.6,1.5,1.2,2.3,1.2h.3l.8-.2a4.9,4.9,0,0,1,1.6.5h.8c-.1-.2-.1-.5-.2-.6s-.2-.4,0-.4h.2c.8.1,5.1,5.2,5,6a4.3,4.3,0,0,0-.1.5c-.1-.1-.3-.2-.4-.4l-2.3-2.8a4.1,4.1,0,0,0-1.1-.7c.2.4.2,1,.4,1.3,2.2,2.4,2,5.3,1.5,8.1,0,.3-.3.9-.5.9H243c-2.8,0-1.3,2.7-2,4s.4,1.2.9,1.7,3.3,2.2,1.5,4.4h-1c-.2-2.3-2.6-3.1-3.4-5a1,1,0,0,0-1-.7,2.2,2.2,0,0,0-1.4.6l-.7.4c-.1-.3-.3-.5-.2-.8s0-.9-.5-.9h0a1.1,1.1,0,0,0-.8.7,17.1,17.1,0,0,0-1.3,2.3,7.9,7.9,0,0,0,2.2.6,1.9,1.9,0,0,0,1-.3h.3c.3,0,.7.1.8.3s-.2.6-.4.9c-1.9,2.8,1.3,3.3,2.1,4.9s2,3,1.6,4.6-.3,6.3-4.4,7c-1.1.2-2,1.4-2.8,2.3l-.6.4q-.2,0-.3-.3c-.2-.7-.5-1.2-1-1.2s-.5.2-.9.6-1.9,2.1-.6,3.5a25.2,25.2,0,0,1,2.7,3c2,2.9,1.3,6-1.8,7.6h-.1c-.4,0-1.8-1.7-2.5-2.7s-2-1.2-3-1.8c.1,1.4-1,2.9-.3,4.4s4.8,4.3,4.9,7.9a2.9,2.9,0,0,0,.2.9l-.8-.2c-1.8-.6-2.1-2.3-3-3.7-2.4-4-2.1-8.7-3.9-12.8-.1-.4-.3-.9-.6-.9a1,1,0,0,0-.7.6,2.2,2.2,0,0,1-1.3.6h0c-.3,0-.7-.7-.6-1.1.2-3-2.7-4.2-3.9-6.4-.1-.3-.3-.4-.4-.4s-.3,1-.6,1.1c-4,1-4.8,5.4-7.7,7.6-.8.7-.3,3-.4,4.6a4.5,4.5,0,0,1-.1,1.1c-.5.9-.8,2.3-1.9,2.3h0c-.9,0-.9-1.4-1.3-2.2-1.8-3.9-4-7.7-4.6-12.2l-.3-.6c-.1.2-.1.5-.2.6a1.8,1.8,0,0,1-.8.5H197a5.3,5.3,0,0,1-1.7-.8c-.4-.3.1-.5.2-.8s.1-.5-.2-.5h-.5c-1.4-2.1-3.2-2.4-5.2-2.4h-2.9a5.1,5.1,0,0,1-3.7-1.5c-.8-.7-3,.2-4.4-1.1l-1-.9c-.3-.8-.6-1.6-1.6-1.6h0l-.7.3a16.8,16.8,0,0,0,.7,2.4,19.4,19.4,0,0,0,1.5,2.4c.1.2.1.4.2.4a15.7,15.7,0,0,0,2.9.8c.7,0,1.3-.3,1.8-1.5s.4-.2.5-.3c-.2,2.5,3.9,2.1,3.3,4.2a9.4,9.4,0,0,1-4.7,5.9c-2.5,1.4-4.8,2.9-7.4,4.1a3,3,0,0,1-1.3.4c-.7,0-1-.6-1.2-1.6-1.4-6-5.7-10.4-8.6-15.5h-1.7a4.7,4.7,0,0,1,.6.9c1,3.2,3.3,5.8,4.2,9.1s3.7,4.4,4.7,6.7,2.1,2.7,3.3,2.7,2.7-.8,4.1-1.1h.5c1,0,.8.8.6,1.4-1,4.4-3.5,7.7-6.8,10.8s-5.3,5.2-3.4,12c.7,2.3,1.6,5.9-2.4,7.5-1.7.6-3.6,1.9-2.9,4.6s0,3-1.8,4.1-1.2,3-2.1,4.6c-2.5,4.1-6.4,4.8-10.5,5.4h-.1a1.5,1.5,0,0,1-1.4-1.5c-.1-3.7-3.2-6.2-3.3-9.8s-3.9-7-1.8-11.2.6-8.7-2.5-12.3c-1.2-1.4-.4-2.8-.3-4.2s0-2.6-1.6-2.6h-1.1c-.8,0-1.3-.3-1.8-1.3a1.4,1.4,0,0,0-1.4-1.1,4.9,4.9,0,0,0-2.3.8,12.2,12.2,0,0,1-5.4,1.2,8.4,8.4,0,0,1-7-3.1c-2.2-3-5.6-5.8-3.8-10.6,1-2.8-.5-6.2,1.9-8.9.9-1.1,1.5-2.4,2.8-3.1a5.9,5.9,0,0,0,2.5-3.4c.6-1.9,1.8-4.2,4.6-4.2h.8c2.6,0,4.9-1.7,7.4-1.7a3.9,3.9,0,0,1,1.5.2h.3c.9,0,2-.9,2.8-.9s.8.3.8,1.3c.5,4.9,5.3,3.3,7.4,5.6h0l.9-.3c.2-1.8.8-2.3,1.6-2.3a9.4,9.4,0,0,1,2.8,1,11.9,11.9,0,0,0,4.5.8h3.6c1.5-.1,1.3-2.7,1.5-4.2s-.7-1.2-1.9-1.3h-3c-1.7,0-3.3-.5-3.7-3.2s.8-1,1.4-1.2l.7-.4-.6-.2h-.1c-1.3.5-2.7-.2-4,.8s-.3.8,0,1-.3,1.9-.2,2.8h-.5c-.9-.2-.7-1.2-1.1-1.7s-1.6-4.4-4-5.5a3.5,3.5,0,0,1-1.8-1.8c-.1-.4-.8-.6-1.2-.7h-.1a1,1,0,0,0-.7.6c-.3.6.1.9.5,1.3a12.9,12.9,0,0,0,4.2,3.5,1,1,0,0,1,.4.5h-1.2c0,1.3,0,1.7-.1,1.7s-.5-.9-1.2-1.3-3.1-4.1-5.3-4.1h-.4c-3.5.6-7,1.8-8.1,6.1-.3,1.3-2.4,1.9-4,1.9a3.9,3.9,0,0,1-1.6-.2c-4.5-1.5-.5-4.6-1.4-6.8-.1-.4.5-.4,1.2-.4h2.2l1.9.3c.4,0,.8-.2,1.1-.9s.4-3.3-1.7-4.1c-.2,0-.3-.3-.5-.6s.2-.3.4-.3c3.1-.5,5.7-1.8,7.2-4.8l.8-.2h.6c1.6,0,2.4-.6,1.6-2.6s.9-1.6,1.3-2.4h.4a17.9,17.9,0,0,1-.2,2.4c-.3.5,0,.6.2.6l3.6.5h.1c.8,0,1.5-.8,2.3-.8s.7.2,1.1.7h0a2.2,2.2,0,0,0,.9-.8c.4-.9-.3-2.9,1.1-2.9l1.2.3.2-.5a2.4,2.4,0,0,0-1-.5l-.7-.3c-.1-.4.2-.4.6-.5a23.3,23.3,0,0,0,2.5-.7l2.2-.3c-.1-.1-.1-.3-.2-.3l-1.7-.2h-.5l-1.8.3a2.2,2.2,0,0,1-1.9-1c-1-1.6.2-2.6,1.4-3.5a12.5,12.5,0,0,0,.8-1.2l-1-.5h-.4a1,1,0,0,0-1.1.7c-.1,1.2-1.1,1.6-1.8,2.2s-1.7,1.9-.2,3-.9.4-.8,1.4a2.9,2.9,0,0,1-.8,3,2.5,2.5,0,0,1-1.5.7c-.9,0-1-1.4-1.4-2.3s-.7-1.4-1.1-1.4-.8.3-1.3.9a1.9,1.9,0,0,1-1.4.7c-.2,0-.4,0-.5-.2a5.6,5.6,0,0,1-1.3-2.8c-.2-.6,0-1.2.9-1.6,3.6-1.5,5.6-4.9,7.9-7.8l.8-.6h0l3.4-.9h-.1c0-.1,0-.1.1-.2s1.8-.7,2.7-.7a1.4,1.4,0,0,1,1,.4c2.3,1.9,5.5,1.4,7.8,2.9a1.5,1.5,0,0,1,.6,1,1.6,1.6,0,0,1-.8.8h-1.8l-2.5-.2c1.3.5,1,2.3,2.5,2.6h1c-.2-.2-.4-.3-.5-.5s0-.3,0-.5a1.2,1.2,0,0,0,.9.4c1.1,0,1.5-2,2.8-2h.5c.4,0-.4-1.1-.3-1.7a1.9,1.9,0,0,0-.3-.8h.6a.1.1,0,0,1,.1.1,1.2,1.2,0,0,1,.7.7c.2.3.3,1,.5,1a.1.1,0,0,0,.1.1,3.1,3.1,0,0,0,1.2-.5c.7-.3,1.3-1.3,2.1-1.3s.7.1,1.2.7a3.1,3.1,0,0,1,2.6-1.1h1.6c-.1-.1,0-.4-.2-.5L172,50a11.6,11.6,0,0,0,1.8.4h.4a10.1,10.1,0,0,1,3.5,1l1.4.4L178,50.6a2.7,2.7,0,0,1-.9-3.2,1.2,1.2,0,0,1,1.1-.7h.4a8.2,8.2,0,0,1,1.8,1.9c.7,1.2,1.4,2.4,2,3.6s-.2.8-.2,1.2a.5.5,0,0,0,.3.4h0c.6,0,1.4-3.2,1.1-3.2h-.4c-1.4,0-1.5-1.9-2.7-2.2.3-.1-.1-1.5.2-1.5s.4.3.9.9a1.6,1.6,0,0,1,1.4-.8,8,8,0,0,1,2.1.5v-.4c-.6-.3-1.4-.7-1-1.3s1.2-.4,1.9-.5-.3-.7.2-1.2,2.5-1.3,3.8-1.6,2.3.1,2.7-1.4.5-.4.8-.4M177.1,86.5h1.2c.4,0,.7-.1.5-.8-.8-2.3-1.5-4.6-3.4-6.4s-1.4-1.9.4-2.5.5-.8.2-1a2.4,2.4,0,0,0-1.3-.4,5.1,5.1,0,0,0-2.5,1.1,1.9,1.9,0,0,0-.5,2.3c.7,2,3.7,2.8,2.6,5.8-.4,1.2,1.6,1.6,2.8,2M157.2,82h.5a6.6,6.6,0,0,1,3.2-.8,5.3,5.3,0,0,1,3.4,1.1c1.2-.4,2.5,0,3-1s-1.1-1.3-1.5-2c-1.5-2.6-4.6-.4-6.8-2.6-.5-.5-.8-.6-1.1-.6s-.9,2.6-1.8,3.2a1.4,1.4,0,0,0-.4,1.9,1.8,1.8,0,0,0,1.5.9m23.2-33.4h0m13.1-9.7h0a2.9,2.9,0,0,0-2.7,1.7h-1.2a7.5,7.5,0,0,0-4.8,2.1,1.8,1.8,0,0,0-.5.8,3.1,3.1,0,0,0-2,1.4v.2h-.4a2,2,0,0,0-1.1-.3l-.7.2-.3-.2a2.4,2.4,0,0,0-1.5-.4,3.1,3.1,0,0,0-2.9,2,3.3,3.3,0,0,0-.4,1.7h-1.1l-.6-.2-.8-.2H172a1.9,1.9,0,0,0-1.8,1.1,1.5,1.5,0,0,0-.2.9l-.6.3a2,2,0,0,0-1.1-.2,3.5,3.5,0,0,0-2.5,1.1l-1-.9a2.7,2.7,0,0,0-1.2-.3h-.8a2,2,0,0,0-1.5.9,10.9,10.9,0,0,0-3.6-1.2,8.1,8.1,0,0,1-3.3-1.2,3.5,3.5,0,0,0-2.3-.9,7.8,7.8,0,0,0-2.3.5l-.6.2h-.3l-3.4.9-.7.3h-.1a4.8,4.8,0,0,0-1.1.8l-1.2,1.7c-1.8,2.3-3.4,4.5-5.9,5.6a3.4,3.4,0,0,0-2.1,4,8.7,8.7,0,0,0,1.8,3.6l.8.5a2.3,2.3,0,0,0,.2,1.4h-.3a2.6,2.6,0,0,0-2.6,1.3c-1,2.1-2.8,3.2-5.7,3.7a3.3,3.3,0,0,0-1.9,1.4,2.5,2.5,0,0,0,.1,1.9h0a3.2,3.2,0,0,0,1.6,1.4l.6.4v.6l-1.3-.2h-2.2c-.7,0-2.1,0-2.8,1a2.2,2.2,0,0,0-.2,2.1c0,.2-.3.8-.4,1.2s-1,2.7-.2,4.3a4.6,4.6,0,0,0,1.6,1.8,8.7,8.7,0,0,0-2.6,4.2,4.7,4.7,0,0,1-1.6,2.3,7.2,7.2,0,0,0-2.6,2.6l-.7.9c-2,2.2-2,4.7-2,6.7a8.3,8.3,0,0,1-.3,2.8c-1.9,5.1.9,8.6,3,11.1l1,1.4a10.6,10.6,0,0,0,8.7,3.9,13.6,13.6,0,0,0,6.3-1.5h.3l.8-.4a3.7,3.7,0,0,0,3.5,2.4h.7v.5c0,.2-.1.5-.1.8a5.2,5.2,0,0,0,.8,4.8c3.3,3.7,3.9,6.8,2.3,10.1s-.5,6.4.5,8.7a8.4,8.4,0,0,1,1.1,3.4,12.4,12.4,0,0,0,1.9,5.7c.7,1.5,1.4,2.7,1.4,4.1a3.6,3.6,0,0,0,3.4,3.5h.4c4.4-.6,9-1.6,11.9-6.4a8.7,8.7,0,0,0,1-2.5,7.2,7.2,0,0,1,.5-1.4,5.4,5.4,0,0,0,2.7-6.3c-.2-.6-.4-1.5,1.6-2.3,5.8-2.3,4.2-7.8,3.6-9.8-1.6-5.7-1.5-5.8,2.9-10.1s6.2-6.4,7.4-11.7h0a3.5,3.5,0,0,0-.4-2.9,2.7,2.7,0,0,0-1.7-.9l.7-.5,2.6-1.4a11,11,0,0,0,5.6-7.2,2.5,2.5,0,0,0-.1-2.1h1.6c1.9,0,2.8.3,3.5,1.5h0v.2a2.6,2.6,0,0,0,1,1.7,7.4,7.4,0,0,0,2.4,1.1h.3a37,37,0,0,0,3.3,8.2,16.3,16.3,0,0,0,1.1,2.3c0,.1.1.4.1.5s.8,2.9,3,2.9h.1c2.1,0,3-2,3.4-3l.2-.5a3.4,3.4,0,0,0,.3-1.6v-2.1a7.6,7.6,0,0,1-.1-1.5,15.4,15.4,0,0,0,2.9-3.4c1.3-1.9,2.1-3.1,3.7-3.6l.9,1c1.2,1.1,1.6,1.7,1.6,2.6a3.5,3.5,0,0,0,.9,2.5,2,2,0,0,0,1.5.8h.2l1.2-.2a23.4,23.4,0,0,1,.9,3.8c.6,2.6,1.1,5.4,2.7,8l.5.9a6,6,0,0,0,3.6,3.6l.6.2h.8a1.9,1.9,0,0,0,1.3-.5,2,2,0,0,0,.7-1.9c-.1-.1-.1-.2-.1-.4v-.2c-.1-2.9-1.8-4.7-3.2-6.2a8,8,0,0,1-1.9-2.4.4.4,0,0,1,0-.5c.9,1.3,2.5,3.4,4,3.4l1-.2a6.8,6.8,0,0,0,2.6-10.5,15,15,0,0,0-2-2.3l-.4-.3h.8a3,3,0,0,0,2.1-1.1l.2-.3a7.9,7.9,0,0,1,1.4-1.3c4.7-.9,5.3-4.5,5.7-7l.3-1.5c.6-2-.5-3.8-1.2-5.1a4.1,4.1,0,0,1-.5-.9,7.1,7.1,0,0,0-1.8-2l-.7-.5v-.2a3.8,3.8,0,0,0,.8-.9c.8.8,1.1,1.1,1.1,1.6s.4,2,2.7,2a2.3,2.3,0,0,0,1.9-.9c2.6-3.3-.1-5.6-1.1-6.5l-.6-.5c0-.1-.1-.1-.2-.2a3.7,3.7,0,0,0,.1-1.8v-.2h.2c1.7,0,2.4-1.8,2.5-2.5a16.3,16.3,0,0,0,.3-4h.3a2.4,2.4,0,0,0,1.3-1.5v-.2c0-.1.1-.2.1-.4s-.2-1.7-1.5-3.4-3.8-4.7-5.3-4.9h-.4a2,2,0,0,0-1.5.6h-.7l-1.2.2H237a2.3,2.3,0,0,1,.6-1.5,3.3,3.3,0,0,1,2.6-1.3h.8l.9.2,1.3-.2h.4a2.2,2.2,0,0,0,1.3-.8,7.9,7.9,0,0,0,3.8,5.6l1.6,1.2,1.1,1,1.2.6h.2l.8.2a1.9,1.9,0,0,0,1.2-.4,2.1,2.1,0,0,0,.8-1.7v-.3a3.4,3.4,0,0,0-.2-1.3c-.3-1.2-.7-2.3-1-3.4l-.3-.7a2,2,0,0,0-1.2-1.8h-.2a5.3,5.3,0,0,0-1.5-1.1h.1a5.8,5.8,0,0,0,2.9-2.9l.4-.2a2.2,2.2,0,0,0,1-1.8c0-.2-.1-.3-.1-.5l.9-.4a2,2,0,0,0,1-1.6,2.3,2.3,0,0,0-.7-1.7l-.6-.5a4.5,4.5,0,0,0-3.6-2.1h-1.9a29.9,29.9,0,0,0-8.9-1.6l-2.7.2-.9.3h-.5l-1,.2a4.2,4.2,0,0,1-2.2.5,19.9,19.9,0,0,1-3.2-.4,15.9,15.9,0,0,0-3.9-.6h-3.2a21.2,21.2,0,0,0-5.7.6l-1.4.5a8.1,8.1,0,0,1-1.9.4,1.5,1.5,0,0,1-1.4-.7,5.3,5.3,0,0,0-3.8-1.6,14.7,14.7,0,0,0-2.9.5,9.5,9.5,0,0,1-2.1.4h-.6l-1.7-.3c-.4-1.8-2.4-2.2-3.1-2.3l-2.2-.2a6.1,6.1,0,0,1-2.8-.6l-1-.2ZM137.4,68.2Zm105.4,9.3Zm-84.5,2,.3-.7.7.4-1,.3Zm-24.9,6.1c.7-2.4,2.6-3.6,6.3-4.2h.1c.5,0,1.3.9,2,1.6a11.1,11.1,0,0,0,2.2,2.1l.3.5a2.5,2.5,0,0,0,2,1.2,1.8,1.8,0,0,0,1.4-.6,1,1,0,0,0,.4-.5,1.8,1.8,0,0,1,.5.7h.1a3,3,0,0,0,2.3,2.3h1.2a2.2,2.2,0,0,0,1.3-.8,2,2,0,0,0,.4-.8,5.4,5.4,0,0,0,4.5,2h2.8v.2c0,.4-.1.9-.1,1.3h-2.9a10.8,10.8,0,0,1-3.8-.6l-.6-.3a6.6,6.6,0,0,0-2.9-.9,3.3,3.3,0,0,0-3,1.9,9.7,9.7,0,0,0-2.2-.8c-1.9-.5-2.5-.7-2.7-2.3s-2.4-3.1-2.8-3.1a4.7,4.7,0,0,0-2.1.6l-.7.3a5,5,0,0,0-1.8-.2,7.8,7.8,0,0,0-2.2.3Z" fill="#8e8e8d"/><path d="M77.1,187c-2.1,0-3.4-1.4-4.7-2.7L72,184a4.4,4.4,0,0,1-.9-2.3c-.1-.8-.1-1-.7-1.2s-1-.6-.9-1.1.1-.8.9-1h.2a7.2,7.2,0,0,0-1.3-2.8,10.9,10.9,0,0,1-1.5-3.5l-.3-2.4c-.8-5.6-1.6-11.4-2.1-17.1-.2-3.2-1.1-4.7-3.4-5.6s-4.1-3.9-5.2-6.2a14.7,14.7,0,0,0-1-2.2l-.6-1.1a4.5,4.5,0,0,0-1.5-2.1,3,3,0,0,1-1-3.2,7.3,7.3,0,0,0,.7-3c.3-1.9.5-4.1,2.7-5.8.7-.6.6-2.3-.3-4.6h0a3.8,3.8,0,0,1-1.9.5h0a5.7,5.7,0,0,1-5.2-4.3c-.2-1.5-1.5-2-3.1-2.7a1,1,0,0,1-.8-.4c-1.2-1.4-3.1-1.9-5-2.5s-5.1-1.5-6.7-4.2a.3.3,0,0,0-.1-.2c-.3-.4-.8-.9-.5-1.5.7-2.3-.1-4.2-1.2-6.3v.6c0,.1.1.2.1.3a2,2,0,0,1-.3,2.3,1,1,0,0,1-.7.4h-.1c-.3-.1-.6-.2-.7-.5s-.3-.3-.4-.4a3.1,3.1,0,0,1-.9-1.7,1.9,1.9,0,0,1-.1-.8c-.1-1.1-.2-1.6-.9-1.9a1.3,1.3,0,0,1-.5-.7,1,1,0,0,1,.2-.9c.4-.4.4-.7.1-1.6a3.8,3.8,0,0,1-.3-2.4,3.6,3.6,0,0,0-.7-3.5c-1.6-2.3-.9-5.8.2-8.1a35.1,35.1,0,0,1,3.9-6.1L31.8,70a2.1,2.1,0,0,1,1.6-.8h.7l-.2-.3a5.7,5.7,0,0,1-.2-4.4c0-.2.1-.5.1-.7a.8.8,0,0,1-.2-.5,1.7,1.7,0,0,1,.4-1.3h0a4.1,4.1,0,0,0,.8-3.4,4.3,4.3,0,0,0-2.3-2.5A2.9,2.9,0,0,1,31.4,55h0l-.3.4a2.1,2.1,0,0,1-1.5.5h-.5a1.9,1.9,0,0,1-1.3.7,1.2,1.2,0,0,1-1.2-.8l-.7.3a22.2,22.2,0,0,1-9.4,3.1h-.2l-.9-.2h-.1a.9.9,0,0,1-.6-.9,1,1,0,0,1,.7-.9h.1l.5-.2,1.3-.3,2.4-.7a1.6,1.6,0,0,1-.6-.9,4.5,4.5,0,0,1,1.2-3.2,6.7,6.7,0,0,1,4.9-2.5h.5a1,1,0,0,1-.4-.5,1.1,1.1,0,0,1,.2-.8.3.3,0,0,1,.1-.2,1.7,1.7,0,0,1,.9-1,5.7,5.7,0,0,1,2.5-.8,3.1,3.1,0,0,1,1.3.3h0a2.2,2.2,0,0,1,2-2.2,11.1,11.1,0,0,0,2.9-.7,11.7,11.7,0,0,1,3.6-.8,5.8,5.8,0,0,1,1.9.3,12.8,12.8,0,0,0,2.3.6c2,.4,4.4.9,5.8,3.4a6.3,6.3,0,0,1,3.9-1.3,10.9,10.9,0,0,1,3.3.7,1.5,1.5,0,0,0,1,.2,3.7,3.7,0,0,1,2.3.9h.2a1.7,1.7,0,0,1,1.6.7,1.3,1.3,0,0,1,.2.8h.6a1.8,1.8,0,0,1,1.3.5,4,4,0,0,1,2.7-1.2h0a.9.9,0,0,1,.8.5,2.4,2.4,0,0,0,1.7,1.2,1.6,1.6,0,0,0,.9-.3,2.1,2.1,0,0,1,1.2-.5,1.1,1.1,0,0,1,1.1.8,2.4,2.4,0,0,0,.8-1.5,4,4,0,0,1,1.9-2.6h.4a2.2,2.2,0,0,0,.9-.8,3.8,3.8,0,0,1,2.7-1.5h.8l.7.3h.3a1.8,1.8,0,0,1,.7.8,1.2,1.2,0,0,1-.4,1h-.2a2,2,0,0,1-.9.6c-1.7.4-2.5,1.1-2.7,2.3v.3a1.3,1.3,0,0,1,.9.9,1.3,1.3,0,0,1,.4-.6,3.6,3.6,0,0,1,2-.8,2.2,2.2,0,0,1,1.5.6,1.8,1.8,0,0,1,.5,1.3,1.9,1.9,0,0,1-.9,1.3h-.2a3.7,3.7,0,0,1-3.5,2.2l.7,1.4a1.2,1.2,0,0,1-.2,1.1c-.1.1-.1.2-.2.2a2.8,2.8,0,0,1,1.3-.3,4.2,4.2,0,0,1,2.2.8l.6.4a3.2,3.2,0,0,1,1.7,1.9,2.1,2.1,0,0,1-.2,1.5h.9l.3-.4a1.6,1.6,0,0,1,1.3-1,1,1,0,0,1,1,.6,4.9,4.9,0,0,1,.4,4.4v.3h0l.2.2a1.7,1.7,0,0,1,.6.8l.6.8a3.2,3.2,0,0,1,1.2,2.5,2.7,2.7,0,0,1-1.2,1.7c-.1.4-.1.6.5,1.3a3.4,3.4,0,0,1,.9,2.2,2.3,2.3,0,0,1-.5,1.7,1.2,1.2,0,0,1-1,.4l-.9-.2h-.8a.8.8,0,0,1-.6-.4v-.3h0c-1-.7-1.7-1.2-1.7-2.1a1,1,0,0,1,.2-.9H80.9a1.5,1.5,0,0,1-.2,1.5,1.4,1.4,0,0,1-.8.7h0v.8h.4a1.5,1.5,0,0,1,1.1.6,1.2,1.2,0,0,1,.4.8,1.1,1.1,0,0,1-.3.8h-.2l-.5.4-2.9,1.3h-.5a1.5,1.5,0,0,1-1.2-.5.9.9,0,0,1-.3-.6c-.9.2-2,.6-2.2,1a6,6,0,0,1-3.3,2.7c-1.1.5-1.7.8-2.1,1.6a1,1,0,0,1-.5.4c-.2.5-.5,1.2-1.3,1.2h-.2c-.1,3-2.5,4.3-4.3,5.3l-.9.5c-1.8,1-1.8,2.2-1.8,4.4v.9a3.4,3.4,0,0,1-1,3.1,1.2,1.2,0,0,1-.9.3,1.2,1.2,0,0,1-1.3-.9c-.1-.3-.1-.5-.2-.8a11,11,0,0,1-.4-2.7,2.7,2.7,0,0,0,0-.9L54,93.8a4.5,4.5,0,0,0-1.9-.5h-.3a.9.9,0,0,0-.1.5l-.3.4a.9.9,0,0,1-.7.3h-.2L48,94.2a5.9,5.9,0,0,0-3.2.9c-.8.5-2.4,4.1-2.6,7.1s.1,2.2.4,2.5a2.5,2.5,0,0,0,1.3.3,2.2,2.2,0,0,0,2.1-1.1,3.3,3.3,0,0,1,3.2-2.5,2.9,2.9,0,0,1,1.7.5,1.4,1.4,0,0,1,.7,1.1c.2,1.2-.8,2.6-1.4,3.4a2.5,2.5,0,0,0-.6,1.5H51a2.5,2.5,0,0,1,2.1.9,2.9,2.9,0,0,1,.3,2.7c0,.2-.1.4-.1.6a5.9,5.9,0,0,0-.4,2.5c.1.9.4,1.4.9,1.4l.8-.2a3.5,3.5,0,0,1,1.4-.3,2.1,2.1,0,0,1,1.7.8c.1.2.2.2.3.3a1.6,1.6,0,0,0,.3-.6,3.6,3.6,0,0,1,2.8-2.5,2.6,2.6,0,0,0,1.3-.7.9.9,0,0,1,.8-.4h.4a1.2,1.2,0,0,1,.5.5.9.9,0,0,1,.6-.3h.2l.6.2.5.5.9.7H67a4.7,4.7,0,0,0,1.9.6h1.9a8.5,8.5,0,0,1,2.3.3.7.7,0,0,1,.5.4,5.7,5.7,0,0,1,.8,1.3c1.2,1.8,2.1,3.3,4.4,3.3h.1c2.4,0,3.4,1.8,4.4,3.4v.2a3.3,3.3,0,0,1,.2,3.3h.8a7.6,7.6,0,0,1,4.9,2.1c.1.1.4.2,1.1.2h1.3a5.6,5.6,0,0,1,3.8,1.9,5.7,5.7,0,0,0,2,1.3,1.8,1.8,0,0,1,1.3,1.3,4.1,4.1,0,0,1-.4,3.4c-2.6,3.4-3.1,7.3-3.5,11.8s-3,4.5-4.9,5.3a2.6,2.6,0,0,0-2,3.3,3.9,3.9,0,0,1-2,4.5v.2c0,1.7-.3,3-1.2,3.8a3,3,0,0,1-2.1,1,3,3,0,0,1,.3,2.1c-.3,1.6-1.7,2.6-3.7,2.6h.1c0,.4.2,1.2-.7,1.5s-.7.4-.3,1.8.7,2.5-.4,3.5a4,4,0,0,1,1.3,1.3,3.7,3.7,0,0,1-.3,3.1c-.1.2-.1.4-.2.6a.8.8,0,0,0,.2.4,1.9,1.9,0,0,1-.3,2.7l-.5.2ZM63.4,75.9c0,.2.1.4.1.6l.4-.5Zm-1.5-2.5h0c-.1-.3-.1-.4-.2-.5a1.5,1.5,0,0,0-.8.4h0ZM70,67.1v.2a9.4,9.4,0,0,1,2.4-2.8l.6-.6a11.7,11.7,0,0,0,2.3-3.8c.4-.8.7-1.6,1.2-2.4a3.1,3.1,0,0,1,.7-.9H74.6a2.4,2.4,0,0,1-1.9-.7l-.3-.5a11.1,11.1,0,0,1-3.1,1.5l-1.8.8c-2.6,1.3-2.6,2.3-2.2,3.2a4.8,4.8,0,0,0,2.8,2.2,2.8,2.8,0,0,1,2,1.4A2.2,2.2,0,0,1,70,67.1Z" fill="#ebeae4"/><path d="M38.8,43.5a3.9,3.9,0,0,1,1.5.2c2.7,1.1,6.5.6,7.9,4.2h.7a5.7,5.7,0,0,1,3.8-1.5,6.5,6.5,0,0,1,2.9.7c1,.4,2.3,0,3.2.9s2.2-.4,1.2,1.4.4.4.8.4h1.1c.6,0,.9.4.9,1.3,1-.7,1.6-2,3.1-2a3.1,3.1,0,0,0,2.5,1.7,3,3,0,0,0,1.5-.5l.6-.3c.4,0,.1,1,.6,1h.1c2.6-.5,1.7-3.6,3.6-4.4h0c1.4-.3,1.9-2.3,3.5-2.3h.5l1,.3c-.3.2-.5.5-.8.5s-3.1,1.2-3.4,3.2c0,.4-1.2,1.4,0,1.4h.6c.1,0,.3.1.3.2s.4,1.4.7,1.4,1.1-1.2,1.3-1.4a2.8,2.8,0,0,1,1.4-.6,1.3,1.3,0,0,1,.8.3c.7.8-.6,1-.8,1.5-.9,2.3-3.2,1.3-4.7,2.2a4.1,4.1,0,0,1,1.9,2.2c0,.1-.2.4-.3.4h0l-2.2.2a1.6,1.6,0,0,1-1.2-.4c-.7-.8,1.5-1.1,1.5-2.2a2.8,2.8,0,0,0-2.1.9c-1.5,1.4-3.8,2-5.8,2.9s-3.6,2.3-2.6,4.5a5.2,5.2,0,0,0,3.5,2.8c2.2.6,1.3,1.6.9,2.8l.5.4c-.7.5-.8,1.1-.1,1.5h.5c.5,0,.9-.5,1.1-1s1.8-2.6,3-3.8,2.4-4.2,3.6-6.4a1.7,1.7,0,0,1,1.5-1,5.8,5.8,0,0,1,2.4,1.1,1.6,1.6,0,0,1,.7,2.6c-.1.2.3,1,.4,1h.1a13.8,13.8,0,0,0,2-.3c.6-.1.9-1.3,1.2-1.3h.2a4.3,4.3,0,0,1,.3,3.5c-.6,1.3.4,1.4.7,2.1s3.2,2.4.6,4.1h.1c-1,1.7,1.2,2.5,1.2,4s-.2,1.1-.5,1.1l-1.2-.3h-.2a3.3,3.3,0,0,0-.3-.6c-2-1.5-2-1.5.3-3.9l.5-.4c-3.1,2-6.9.2-10,2l-1,.7h1.2l1.8-.4h.1a.9.9,0,0,1,.5.4c.1.1-.1.4-.2.6h-.7c-.2,0-.3.1-.3.4s-.2,2.4,1.5,2.4h.1l.4.4-.5.4-2.7,1.3h-.7c-.2-.3.4-1.3-.2-1.3h-.2c-1.4.3-3.3.8-3.7,1.8s-4.3,2-5.4,4.2h-.1c-.3,0-.5,1.2-.8,1.2s-.2-.3-.4-1h-.3c-.3.1-.7.4-.6.6.8,3.8-2.3,4.9-4.6,6.2s-2.3,3.6-2.3,5.8.2,2-.7,2.7h-.5a12.8,12.8,0,0,1-.6-3.2c.1-.8-.1-1.8-.5-1.9s-2.5-1-3.9-1l-1.1.2c-.2.1-.2.6-.3,1h0L48,93.2a7.6,7.6,0,0,0-3.7,1c-1.9,1.2-4.5,9.4-2.3,11.2a2.6,2.6,0,0,0,1.9.6,3.2,3.2,0,0,0,3.1-1.8,2.3,2.3,0,0,1,2.2-1.8,2.1,2.1,0,0,1,1.2.3c.8.6-.3,2.2-1,3s-.7,2.2-1.1,3.2l2.1.2H51c1.5,0,1.8.9,1.4,2.4a13.3,13.3,0,0,0-.5,3.4c.2,1.3.7,2.3,1.9,2.3l1.2-.3,1-.2a1,1,0,0,1,.9.5c.5.5.8.7,1.2.7s1-.9,1.2-1.4c.6-2.1,2.9-1.5,3.9-2.9a12.3,12.3,0,0,1-.2,1.9c0,.5-.6,1.2.1,1.4h.1c.5,0,.2-.8.4-1.1a8,8,0,0,1,1.3-1.9,9.3,9.3,0,0,0,1.5,1.3,7.8,7.8,0,0,0,2.5.7h1.9a6.9,6.9,0,0,1,2,.3c1.5,2.2,2.5,5,6,5H79c1.8,0,2.6,1.6,3.5,3.1s-.5,3.1-1,4.6a5.5,5.5,0,0,1,2.9-.8,6.7,6.7,0,0,1,4.3,1.9,2.9,2.9,0,0,0,1.7.4h1.3c2.4,0,3.4,2.6,5.6,3.2s.9,2.2.3,3.1c-2.8,3.7-3.3,8-3.7,12.3-.2,2.8-2.1,3.6-4.3,4.4s-3,2.1-2.6,4.5a2.8,2.8,0,0,1-1.6,3.5c-.3.1-.5.7-.5,1,0,2.6-.9,3.8-2.9,3.8l-1.6-.2-.4-.2h0l.4.2c.8.8,1.8,1.7,1.5,3s-1.5,1.8-2.8,1.8-.9.4-.9,1,.2.7.1.7c-3.2,1.2,1.2,4.6-1.7,5.9-.1.1.1.9.2,1,2.6.8,1.4,2.7.9,4s1.3,1.7.2,2.6h-.8c-1.9,0-3-1.3-4.3-2.7s-.1-3.1-2.1-3.7,1.1,0,.9-1.3-2.5-4.1-2.8-6.4c-.9-6.4-1.9-12.9-2.4-19.4-.2-3.1-1.1-5.2-4-6.5s-4.1-5-5.8-7.9c-.7-1.2-1-2.6-2.3-3.5a2.1,2.1,0,0,1-.7-1.9c1.5-2.7,0-6.1,3.1-8.6,1.6-1.2.7-4.2-.2-6.3h-.4l-.8.2a2.3,2.3,0,0,1-1.4.4,4.6,4.6,0,0,1-4.2-3.5c-.4-2-2.1-2.8-3.8-3.4h-.4c-3.1-3.6-8.9-2.3-11.5-6.6-.2-.3-.7-.7-.6-.9,1.7-5.1-3.6-8.5-2.9-13.3,0-.2-.3-.5-.5-.7s-.6.5-.7.8c-.5,2.5,1.1,4.7,1,7.2,0,.6.7,1.3.1,2s-1.1-1.1-1.1-1.7,0-2.8-1.5-3.5c1.3-1.5-.4-3,0-4.4a4.8,4.8,0,0,0-.9-4.4c-1.3-1.9-.7-4.9.3-7s3.6-5.5,5.4-8.2l.8-.4h.9c1.2,0,.8-1.3.5-1.8s-.1-3.3.1-4.9h0c-.6-.4-.2-.7,0-1,1.9-3,1.1-5.9-1.9-7.4-.6-.3-.9-1.1-1.5-1.5s-1.1-.2-1.6-.3.7.3.7.5-.5,1-1,1h-.9c-.2.1-.6.7-.9.7s-.4-.2-.4-.9-.1-.2-.2-.2h0a9.8,9.8,0,0,0-1.8.8,22.6,22.6,0,0,1-9.1,2.9h0l-.6-.2.6-.2c1.3-.4,2.7-.7,4-1.2a15.1,15.1,0,0,0,1.7-1L20.4,55c-.1,0-.3-.1-.3-.2-.3-2,2.6-4.6,5.1-4.6h.3a4.1,4.1,0,0,0,1.6-.2,2.3,2.3,0,0,0,1-.7l-.9-.3-.9-.5c.2-.3.3-.8.6-.9a5.8,5.8,0,0,1,2.1-.7l.9.2.9.3c.3,0,.5-.2.5-1a1.3,1.3,0,0,1,1-1.4c2.3-.1,4.4-1.5,6.5-1.5m36,3.1h0M59.1,72.8H59c-.3,0-.8.5-1.1.8l1.3.2,3,.7c-.3,1-1.4.5-2,.9s-1.5,2.1-1.8,3.4.1.5.2.5h0c1.3-.1.8-1.6,1.6-2s1.6-1.5,2-1.5l.2.2c.2,1.4.4,2,.8,2s.8-.5,1.5-1.3a.1.1,0,0,1,.1-.1h.6c.3,0,.5-.1.4-.6s-.9-1-1.6-1.1-1.6-.3-1.3-1.7-.6-1.5-1.1-1.5-1.9,1-2.7,1M38.8,41.5h0a12.3,12.3,0,0,0-3.9.8,7.7,7.7,0,0,1-2.7.7,3.3,3.3,0,0,0-2.7,2H29a6.3,6.3,0,0,0-3,.9,3.2,3.2,0,0,0-1.3,1.4c0,.1-.1.1-.1.2a1.6,1.6,0,0,0-.3.9,8.5,8.5,0,0,0-4.8,2.8,4.7,4.7,0,0,0-1.3,4h0l-1.2.3-1.2.4-.6.2H15A2,2,0,0,0,13.7,58a2.2,2.2,0,0,0,1.2,1.9H15a3.1,3.1,0,0,0,1.3.3h.3A23.6,23.6,0,0,0,26.3,57a1.8,1.8,0,0,0,1.5.6,2.9,2.9,0,0,0,1.7-.7h.1a3.3,3.3,0,0,0,1.7-.4l.8.5c.6.4,1.5.9,1.7,1.8a3.5,3.5,0,0,1-.6,2.7h0a2.5,2.5,0,0,0-.6,2.1,1.7,1.7,0,0,0,.2.5.4.4,0,0,0-.1.3,6.3,6.3,0,0,0-.1,3.9A3.1,3.1,0,0,0,31,69.4c-.5.7-1,1.5-1.6,2.2a33.7,33.7,0,0,0-4,6.3c-1.3,2.7-2,6.5-.1,9.1a2.5,2.5,0,0,1,.5,2.7,6.7,6.7,0,0,0,.3,2.9,1.9,1.9,0,0,1,.2.7,2.1,2.1,0,0,0-.5,1.7,2.2,2.2,0,0,0,1.1,1.4c.2.1.2.1.3,1.1a2.8,2.8,0,0,0,.1.9,4.2,4.2,0,0,0,1.1,2.2c.1.1.3.2.3.3a2.6,2.6,0,0,0,1.6.9h.1a1.6,1.6,0,0,0,1.3-.6,4,4,0,0,1-.2,1.9,2.5,2.5,0,0,0,.7,2.5.1.1,0,0,0,.1.1c1.8,3,4.7,3.9,7.2,4.7s3.5,1,4.5,2.2a2.8,2.8,0,0,0,1.3.7c1.7.7,2.3,1.1,2.5,1.9a6.5,6.5,0,0,0,6.1,5.1,2.7,2.7,0,0,0,1.3-.2c.6,1.9.3,2.5.3,2.5-2.6,2-2.8,4.5-3,6.5a14.3,14.3,0,0,1-.6,2.6,3.7,3.7,0,0,0,1.3,4.5,4.3,4.3,0,0,1,1.1,1.8l.6,1.1a10.2,10.2,0,0,1,1,2.1c1.2,2.5,2.4,5.3,5.7,6.7s2.6,1.9,2.8,4.7c.5,5.8,1.3,11.6,2.1,17.2l.3,2.4a9.3,9.3,0,0,0,1.7,3.9c.3.6.7,1.1.9,1.6a2.2,2.2,0,0,0-.9,1.7,2,2,0,0,0,1.6,2.1v.4a5,5,0,0,0,1.2,2.8l.4.3c1.3,1.4,2.8,3,5.4,3h1.2a3.1,3.1,0,0,0,1-.5,2.8,2.8,0,0,0,.5-3.8v-.2a4.9,4.9,0,0,0,.3-4l-.8-1a5.5,5.5,0,0,0,0-3.6c-.1-.1-.1-.4-.2-.6a1.8,1.8,0,0,0,1.2-1.6,4.2,4.2,0,0,0,3.6-3.2,4.8,4.8,0,0,0,0-1.7,4.8,4.8,0,0,0,1.5-1,5.3,5.3,0,0,0,1.5-4.1,5,5,0,0,0,2.1-5.3c-.2-1.1-.1-1.7,1.3-2.2s5.2-2,5.6-6.1.9-8.1,3.3-11.3a5.1,5.1,0,0,0,.5-4.3,2.5,2.5,0,0,0-1.9-1.9,5.1,5.1,0,0,1-1.6-1.2,6.6,6.6,0,0,0-4.5-2.1H89.9a8.7,8.7,0,0,0-5-2.3,4.6,4.6,0,0,0-.7-2.8V123c-.9-1.6-2.3-3.9-5.1-3.9h-.2c-1.7,0-2.3-.9-3.5-2.9l-.8-1.3a2,2,0,0,0-1.2-.8,10.1,10.1,0,0,0-2.5-.3H68.9a6.5,6.5,0,0,1-1.5-.5h-.1l-.6-.4-.6-.5a1.8,1.8,0,0,0-1.2-.5h-.5l-.5-.3h-.7a2.1,2.1,0,0,0-1.6.8l-.8.4a5,5,0,0,0-3.2,2.4,3,3,0,0,0-1.6-.5,3.9,3.9,0,0,0-1.8.4H54a4.3,4.3,0,0,1-.1-.5,5.6,5.6,0,0,1,.3-2.1c.1-.2.1-.5.2-.7a4.5,4.5,0,0,0-.5-3.6,3.6,3.6,0,0,0-2.9-1.2h-.1c.9-1,1.9-2.6,1.7-4.1a2.3,2.3,0,0,0-1.2-1.8,3.8,3.8,0,0,0-2.2-.7,4.5,4.5,0,0,0-4.2,3.2,1.4,1.4,0,0,1-1.1.4h-.6c-.8-1.3.9-6.9,2.1-8a5.6,5.6,0,0,1,2.6-.7l2.4.3h.3a2.4,2.4,0,0,0,1.4-.5,1.6,1.6,0,0,0,.4-.7l1.2.4.8.3h0a13.6,13.6,0,0,0,.4,3,1.9,1.9,0,0,1,.2.7,2.2,2.2,0,0,0,2.3,1.7,2,2,0,0,0,1.5-.6,4,4,0,0,0,1.4-3.8v-.9c0-2.1,0-2.8,1.3-3.5l.8-.5c1.7-.9,4.3-2.3,4.8-5.3a2,2,0,0,0,1.4-1.3,1.3,1.3,0,0,0,.6-.7c.2-.4.7-.7,1.6-1a7.1,7.1,0,0,0,3.7-3.1l.8-.4h.1a2.9,2.9,0,0,0,2,.8,1.5,1.5,0,0,0,.9-.2l2.9-1.3.8-.6h.1a2.4,2.4,0,0,0,.7-1.6,2.2,2.2,0,0,0-.6-1.5h0l-.8-.6v-.2h0a3.8,3.8,0,0,0,.5-1.1h1.2c.1,1.2.9,1.9,1.8,2.7a.1.1,0,0,1,.1.1,2.1,2.1,0,0,0,1.3,1h.7l1.2.2a2.4,2.4,0,0,0,1.7-.7,3.4,3.4,0,0,0,.8-2.4,4.8,4.8,0,0,0-1.1-2.8l-.2-.3a3.7,3.7,0,0,0,1.1-2,4,4,0,0,0-1.5-3.3l-.4-.5a2.2,2.2,0,0,0-.5-.8,6,6,0,0,0-.7-5.1,2.2,2.2,0,0,0-1.8-1,2,2,0,0,0-1.4.5,3.9,3.9,0,0,0-2.2-2.3l-.5-.3a4.7,4.7,0,0,0-2.6-1c0-.2,0-.3-.1-.4v-.2a4.4,4.4,0,0,0,2.8-2.3,2.8,2.8,0,0,0,1.3-2,2.9,2.9,0,0,0-3-3,3.9,3.9,0,0,0-1.9.6c.2-.3.7-.5,1.5-.7a2.6,2.6,0,0,0,1.4-.9H81a1.9,1.9,0,0,0,.7-2,1.8,1.8,0,0,0-1.3-1.5h-.3l-.7-.2-1.1-.2a4.4,4.4,0,0,0-3.4,1.9c-.2.1-.4.4-.5.5h-.5A4.8,4.8,0,0,0,71.5,48c0,.1-.1.1-.1.2a2,2,0,0,0-.9-.2,2.9,2.9,0,0,0-1.8.7h-.3c-.1,0-.5-.2-.8-.8a2.2,2.2,0,0,0-1.7-.9h0a4.2,4.2,0,0,0-2.7,1,2,2,0,0,0-1.1-.3.4.4,0,0,0-.1-.3,2.4,2.4,0,0,0-2.3-1.2,5.1,5.1,0,0,0-2.6-.9h-.7a10.7,10.7,0,0,0-3.7-.8,7.4,7.4,0,0,0-3.6.9c-1.6-2.1-4.1-2.6-5.9-3L41,41.9a5.1,5.1,0,0,0-2.2-.4Zm-9.5,5.1ZM71,64.5a3.8,3.8,0,0,0-2.6-1.8,4.8,4.8,0,0,1-2.2-1.6c-.1-.4-.4-.9,1.7-2l1.8-.8,2.4-1a3.7,3.7,0,0,0,2.5.8h.7l-.8,1.7a9.9,9.9,0,0,1-2.1,3.5l-.6.6-.8.7Z" fill="#8e8e8d"/><path d="M256.5,174.3a6.9,6.9,0,0,1-4.1-1.3c-1.1-.8-1.2-2.4-1.3-4v-.6h-.6a1.8,1.8,0,0,1-1-.4,2.7,2.7,0,0,1-.4-1.9v-.3a.8.8,0,0,0-.9-.9,14.1,14.1,0,0,0-6.8,1.4,17,17,0,0,1-6.3,1.4H234a1.8,1.8,0,0,1-1.5-.8,2.5,2.5,0,0,1,.2-2.5c1.3-2,1.1-4.3,1-6.8V157c-.2-2.7,3-7,5.6-7.6h.5c2.2-.5,3.9-.9,4.9-3.3s2.8-3.8,5.6-4.1h.1a1.9,1.9,0,0,1,1.5.9,10.7,10.7,0,0,1,2.8-2.8,2.9,2.9,0,0,1,1.7-.6,2.4,2.4,0,0,1,1.1.3h.4l1.7.4.6.2a.9.9,0,0,1,.6.6,1.1,1.1,0,0,1,0,.8l-.4.7a10.9,10.9,0,0,0-.8,1.5,1.1,1.1,0,0,0-.2.5h.1l1.1.9a4.1,4.1,0,0,0,1,.9l.5.2a1.9,1.9,0,0,0,.3-.9l.3-.9a13.2,13.2,0,0,0,.9-3c.2-.6.3-1.2.5-1.7a1.6,1.6,0,0,1,.6-.9h.1a1.1,1.1,0,0,1,.7-.3h0a1.1,1.1,0,0,1,.8.3c.1.2.5.5.5,1a8.2,8.2,0,0,0,.7,3c.5,1.8,1.1,3.7.4,5.8,1.6,1.5,2,3.4,2.4,5.2a9.8,9.8,0,0,0,.9,2.9c.7,1.3-.3,3.2-1.3,5a2.5,2.5,0,0,0-.4.7c-1.6,3.2-4.1,5.6-6.6,7.9-.6.7-1.3,1.3-2,2a6,6,0,0,1-4.4,1.7Z" fill="#ebeae4"/><path d="M265.5,139.8l.3.3c.1,2.9,2.1,5.6,1.2,8.6-.1.2-.2.6-.1.6,2.5,2.1,2.1,5.5,3.4,8.1s-.9,3.3-1.7,4.9c-2,3.8-5.4,6.5-8.4,9.6a5.3,5.3,0,0,1-3.7,1.4,6.3,6.3,0,0,1-3.5-1.1c-1-.7-.8-3.1-1-4.7s.1-.7-.1-.7h-.3a2.4,2.4,0,0,1-1.1.6c-.6,0-.4-1.1-.4-1.6a1.8,1.8,0,0,0-1.9-1.9h0a14.6,14.6,0,0,0-7.3,1.5c-2,1-4.5,1.1-6.8,1.3H234c-.7,0-1.1-.7-.4-1.8s1.2-5.3,1.1-8.1,2.6-6,4.8-6.5,4.8-.9,6.1-4c.5-.9,2.5-3.3,4.8-3.5h0c.7,0,.8,1.2,1.6,1.2l.5-.2a8.3,8.3,0,0,1,2.8-3.1,1.9,1.9,0,0,1,1.1-.4c.5,0,.9.4,1.4.4l2.1.6a15.5,15.5,0,0,0-1.2,2.2c-.3.6-.6,1.2.2,1.8s1.4,1.4,2.2,1.9l1,.3c1.1,0,1.2-1.6,1.5-2.4a26.4,26.4,0,0,0,1.4-4.8c.1-.3.4-.4.5-.6m0-2a2,2,0,0,0-1.4.6h0a2.4,2.4,0,0,0-1,1.3,13.6,13.6,0,0,0-.4,1.7,21.3,21.3,0,0,1-.9,3,1.4,1.4,0,0,0-.2.6l-.3-.3-.7-.6a7.5,7.5,0,0,1,.7-1.2l.3-.7a1.7,1.7,0,0,0,.1-1.7,2,2,0,0,0-1.3-1.2h-.5l-1.8-.5h-.2a2.7,2.7,0,0,0-1.5-.4,4.3,4.3,0,0,0-2.3.8,11.2,11.2,0,0,0-2.3,2.1,2.1,2.1,0,0,0-1.4-.4h-.3c-3.1.3-5.7,3.3-6.3,4.7s-1.9,2.2-4.2,2.7h-.5c-3.1.7-6.6,5.4-6.4,8.6v.7c.1,2.4.3,4.6-.8,6.3a3.5,3.5,0,0,0-.3,3.4,2.7,2.7,0,0,0,2.4,1.4h1.1a15.5,15.5,0,0,0,6.7-1.4,13.2,13.2,0,0,1,6.3-1.3h0a3.7,3.7,0,0,0,.7,2.7,3.1,3.1,0,0,0,1.4.7c.1,1.6.3,3.4,1.6,4.3a8.2,8.2,0,0,0,4.7,1.5,7.5,7.5,0,0,0,5.2-2l1.9-2c2.5-2.4,5.1-4.8,6.8-8.1l.4-.8c1-1.9,2.2-4,1.3-5.9a9.6,9.6,0,0,1-.8-2.7,11.4,11.4,0,0,0-2.3-5.2,10.7,10.7,0,0,0-.6-5.7,10.7,10.7,0,0,1-.6-2.9,2.2,2.2,0,0,0-.8-1.6,2,2,0,0,0-1.4-.6Z" fill="#8e8e8d"/><path d="M100.6,62.1H100c-4-1-3.7-4.8-3.5-6.1v-.6c.1-1.7.3-3.7,3-4.5h-.1l-.5-.4a1.2,1.2,0,0,1-.2-1,1.1,1.1,0,0,1,.6-.7.1.1,0,0,0,.1-.1c0-.1,0-.1-.1-.2a2.9,2.9,0,0,1-.3-2.1,1.6,1.6,0,0,0,.1-1.5,2.2,2.2,0,0,0-1.5-.4l-1.5.2h-.5a1.9,1.9,0,0,1-1.8-1.3l-.2-.2a1.2,1.2,0,0,1-.2-1l.3-.4c-.1-.1-.1-.2-.2-.4a1.6,1.6,0,0,1,.4-1.1,1.7,1.7,0,0,1,1.2-.4h.2l2.8-1a60.1,60.1,0,0,0,5.9-2.3,4.7,4.7,0,0,1,1.7-.4,7.6,7.6,0,0,1,1.6.3l1.2.2h.4a33.7,33.7,0,0,1,8.1-1.2h1.3l2.6.4,2.3.4c.4,0,.7.4.8.5a1.1,1.1,0,0,1,.3.8h0a6.4,6.4,0,0,1,2-.3h1a1.9,1.9,0,0,1,1,.5.1.1,0,0,1,.1.1.8.8,0,0,1,.4.9,1,1,0,0,1-.5.8.1.1,0,0,0-.1.1,2,2,0,0,1-1,.3h-.5c-.6,0-1,.4-1.6,1.2l-1,1.1.3.4h0a.7.7,0,0,1,.1.9,1,1,0,0,1-.7.7c-.5,0-.6.1-.8,1.3s-.4,2.7-2.1,3.2a1.7,1.7,0,0,1,0,1.4.3.3,0,0,0-.1.2,1,1,0,0,1-.5.6h-.5c-.1.3-.2.5-.5.6l-.2.2a3.4,3.4,0,0,1-1.2.6,29.8,29.8,0,0,0-6.2,2,32.4,32.4,0,0,1-4.7,1.6,4.1,4.1,0,0,0-2,1.7,6.6,6.6,0,0,1-1.4,1.5l-.6.8A2.9,2.9,0,0,1,100.6,62.1ZM99.5,50.9Z" fill="#ebeae4"/><path d="M117,36.3h1.2c1.6.1,3.2.7,4.9.8.1,0,.1.1.2.2l-.5.3h-3.5l-1.2.3h1.2c0,.1.1.1.2.1l.9-.2a.5.5,0,0,1,.6.4h0a.1.1,0,0,0,.1.1c.3,0,1.1-.5,1.3-.5s.2.2-.3,1.2h.7a8.8,8.8,0,0,1,3.5-1h.9c.2,0,.4.2.6.4s-.4.3-.6.3h-.5c-1.9,0-2.4,2.2-3.8,2.9s-.1.7.3.9.3.4.4.6c-2.6.3-.5,4.2-3.4,4.7h-.1c-.4,0-.9-.4-1.2-.4s-.3.1-.4.4,1,.9,1.6,1.4-.2.5-.3.7l-1.5-.5-.6-.4c0,.9-.8,1.1-1.4,1.4h1.2l1.3.3a3.9,3.9,0,0,1-1.1.6c-3.8.7-7.2,2.6-10.9,3.6-1.9.6-2.5,2.4-3.8,3.4s-1.2,2.5-2.4,2.5h-.4c-2.4-.7-3-2.4-2.7-5.1s0-3.6,2.4-4.3a1,1,0,0,0,0-1.8c-.1,0-.2-.2-.3-.3,2-.6,0-1.8.4-3s-.6-3.2-2.4-3.2l-1.7.2h-.3c-.8,0-.9-.7-1.2-1.2l1.4-.2.9-.2h-.8c-.5-.2-1.3-.4-1.4-.7s.3-.4.6-.4h.6a91.4,91.4,0,0,0,8.7-3.3l1.3-.3c.9,0,1.8.5,2.8.5h.7a29.5,29.5,0,0,1,7.8-1.2m0-2h0a34.5,34.5,0,0,0-8.3,1.2h-.2l-1-.2a8.4,8.4,0,0,0-1.8-.3,4.6,4.6,0,0,0-2.1.5,58.3,58.3,0,0,1-5.8,2.3,13.4,13.4,0,0,0-2.6.9h-.1a2.4,2.4,0,0,0-1.9.7,2.2,2.2,0,0,0-.6,1.9v.2c-.1,0-.1.1-.1.2a2.2,2.2,0,0,0,.3,1.9h.1a2.9,2.9,0,0,0,2.7,1.8h2.6a.8.8,0,0,1-.1.4,3.5,3.5,0,0,0,.1,2.3,4.1,4.1,0,0,0-.5.9,1.9,1.9,0,0,0,.1,1.3c-2,1.3-2.2,3.3-2.3,4.9v.5q-.6,6,4.2,7.2h.9a3.8,3.8,0,0,0,3.3-2.4l.4-.5a8,8,0,0,0,1.5-1.7c.6-.8,1-1.2,1.5-1.3s3.3-1.1,4.8-1.7a26.1,26.1,0,0,1,6-1.9,3.4,3.4,0,0,0,1.6-.8h.2l.5-.6h.4a2.4,2.4,0,0,0,1-1.2h0a3,3,0,0,0,.3-1.2,4.8,4.8,0,0,0,1.9-3.6c0-.2.1-.4.1-.6a2.4,2.4,0,0,0,1.4-1.2,2,2,0,0,0-.1-1.7l.4-.6c.5-.6.7-.8.9-.8h.5a2.1,2.1,0,0,0,1.5-.5h.1A2.2,2.2,0,0,0,129,37h-.1a2.6,2.6,0,0,0-1.4-.7H125l-.2-.3a2.4,2.4,0,0,0-1.6-.9l-2.2-.3-2.6-.5Z" fill="#8e8e8d"/><path d="M85,59.1a3.3,3.3,0,0,1-3.1-2.5.4.4,0,0,0-.1-.3H79.7l-.7-.4a1.9,1.9,0,0,1-.2-.7,1.3,1.3,0,0,1,.6-1.3h.2a2.9,2.9,0,0,1,1.3-.5h.8c.6,0,1-.3,1.6-.9l1-.8a2.2,2.2,0,0,1-.8-1.5V50h-.2a3,3,0,0,1-1.3.2,9.9,9.9,0,0,1-2.4-.3l-1.4-.3a.8.8,0,0,1-.6-.4.7.7,0,0,1-.2-.7v-.6a3.3,3.3,0,0,1,.5-1.8,5,5,0,0,1,4.2-2l2.2.2h.5a.8.8,0,0,1,.7.4.8.8,0,0,1,.1.8h.8a1.9,1.9,0,0,1,1.7.7,2.1,2.1,0,0,1,.4.6,1.9,1.9,0,0,1,1.2.9,1.6,1.6,0,0,1,1.2,1h0a1,1,0,0,1,.4.5,1,1,0,0,1,0,.9c-.1,0-.1.1-.1.2a3.3,3.3,0,0,1-.6.8l.5.3a6,6,0,0,1,.8.8l.3.3a1,1,0,0,1-.1,1.5l-.4.4L90,55.8h-.5a1,1,0,0,1-.6-.2,2.7,2.7,0,0,1-.7,1.8,1.4,1.4,0,0,1-1.3.7h-.3v.2a1.6,1.6,0,0,1-1.4.7Z" fill="#ebeae4"/><path d="M82.1,45.1l2.6.3c-.4,1.2.3,1.3,1.1,1.3h.6c.7,0,1.3.1,1.1,1.1S88.9,48,89,49h.5c.5,0,.5.8.9.9l-.6,1c-1,.8.1,1.2.7,1.6a9.4,9.4,0,0,1,1,1,14.9,14.9,0,0,1-2,1.5h0c-.2,0-.6-.4-.8-.7s-.3-.5-.6-.5l-.3.2a.7.7,0,0,0-.2,1.2c.6.6.3,1.2-.1,1.8a.9.9,0,0,1-.6.3c-.3,0-.6-.3-.9-.4h-.7c-.3.4,1.1,1.2-.1,1.3H85a2.1,2.1,0,0,1-2.1-1.8c-.3-.8-.7-1-1.3-1H79.8c0-.2,0-.5.1-.5a2.4,2.4,0,0,1,1-.5h.8c1.5,0,2.2-1.3,3.4-2s.5-1.4.1-1.4-.3-2-1.6-2H82a22.5,22.5,0,0,1-3.6-.6,5.8,5.8,0,0,1,.3-1.9,3.7,3.7,0,0,1,3.4-1.6M81,47.2h0a4.3,4.3,0,0,1,.1-.5l1-.9-.2-.2h0l-.9,1a.8.8,0,0,1-.2.5H81m1.1-4.1h0a5.7,5.7,0,0,0-5,2.5,3.8,3.8,0,0,0-.7,2.3v.4a1.9,1.9,0,0,0,.4,1.5,1.8,1.8,0,0,0,1.3.8l1.3.3a20.6,20.6,0,0,0,2.6.3h.7c.1.1.2.2.2.3l-.2.3a2.8,2.8,0,0,1-1,.6h-.8a3.8,3.8,0,0,0-1.8.6h-.2a2.3,2.3,0,0,0-1.1,2.1h0a2.1,2.1,0,0,0,1.9,2.2h1.4A4.3,4.3,0,0,0,85,60.1h.3a2.6,2.6,0,0,0,1.9-.9A2.8,2.8,0,0,0,89,58.1a2.5,2.5,0,0,0,.7-1.2c.3-.1.6-.1.8-.3l1.8-1.2.4-.4a1.6,1.6,0,0,0,.8-1.4,1.7,1.7,0,0,0-.6-1.6l-.2-.3-.7-.6c0-.1.1-.1.1-.2h0a1.7,1.7,0,0,0,.1-1.8,2.2,2.2,0,0,0-.5-.8A3.1,3.1,0,0,0,90.3,47a3.1,3.1,0,0,0-1.1-.8l-.3-.5a3.1,3.1,0,0,0-2.3-1l-.3-.5a1.8,1.8,0,0,0-1.4-.8h-.5l-2.3-.2Z" fill="#8e8e8d"/><path d="M272.9,140.1a4.2,4.2,0,0,1-3.2-1.3,4.4,4.4,0,0,1-1-1.5l-.4-.8-.3.2a2.9,2.9,0,0,1-2.5,1.6,4.9,4.9,0,0,1-2.1-.8l-.7-.5a1,1,0,0,1-.7.2h-.4a1.6,1.6,0,0,1-.6-.8v-.2a1.2,1.2,0,0,1,.4-1.4.7.7,0,0,0,.4-.6.5.5,0,0,0-.3-.5l-.4-.4a5,5,0,0,0-2.8-1.4h-.6a1.3,1.3,0,0,1-1.3-.8v-.2a2.6,2.6,0,0,1-.2-1.5h-.1c-.6-.5-1.4-1.4-.9-2.2a3.1,3.1,0,0,1,1-1h.2a.7.7,0,0,1,.6-.2h.2a2.8,2.8,0,0,1,2.8,2.8,2.8,2.8,0,0,1,2.3-1.3,5.2,5.2,0,0,1,2.1.6l.9.4c2.3,1.1,4.6,2.2,6.2,4.6a3.6,3.6,0,0,1,.4,1.9c0,.6,0,.8.2,1a2.5,2.5,0,0,1,.5.8c0,.1,0,.2.1.2a5.7,5.7,0,0,0,.8,1.3l.3.5a.9.9,0,0,1,0,1,1.1,1.1,0,0,1-.9.5Z" fill="#ebeae4"/><path d="M257,126.8c1.5.1,2,.8,2,2a3.1,3.1,0,0,0,.5,1.2c.4-.2.9-.3,1.1-.6s1.1-1.1,1.7-1.1a3.7,3.7,0,0,1,1.6.5c2.5,1.2,5.1,2.2,6.8,4.7.6.9-.2,2.1.7,3a2.5,2.5,0,0,1,.4.9,16.3,16.3,0,0,1,1.1,1.7,3.1,3.1,0,0,1-2.5-1c-.7-.7-1.2-2.8-2.1-2.8s-.6.3-1.1.9a2.3,2.3,0,0,1-1.7,1.1c-1,0-1.9-1.3-2.8-1.3a1.1,1.1,0,0,0-.7.3,5.6,5.6,0,0,0-.1-.7,1.6,1.6,0,0,0,.2-2.7c-1.1-.9-2.2-2-3.8-2h-.9c-.1-.3-.3-1-.2-1,1.6-1.2-.1-.9-.5-1.2s-.7-.9-.6-1,.7-.6.9-.8m0-2a1.9,1.9,0,0,0-1.2.4h-.1a4,4,0,0,0-1.4,1.3c-.6,1-.3,2.1.9,3.2a4.6,4.6,0,0,0,.2,1.4v.2a2.2,2.2,0,0,0,2.2,1.5h.6c.6,0,1.2.4,2.1,1.2h.1a2.5,2.5,0,0,0-.5,2.3h0a1.8,1.8,0,0,0,1.3,1.6l.7.2h.7a.1.1,0,0,1,.1.1,4.8,4.8,0,0,0,2.7,1,3.7,3.7,0,0,0,2.6-1,5.1,5.1,0,0,0,.9,1.3,5.4,5.4,0,0,0,3.9,1.5h0a2.1,2.1,0,0,0,1.8-1,2,2,0,0,0-.1-2l-.3-.6-.7-1.1h-.1a4.1,4.1,0,0,0-.6-1.1v-.3a4.2,4.2,0,0,0-.6-2.5c-1.7-2.7-4.3-3.9-6.6-5l-.9-.4a5.3,5.3,0,0,0-2.5-.7,4.1,4.1,0,0,0-1.8.5,3.5,3.5,0,0,0-3.2-2Z" fill="#8e8e8d"/><path d="M240.5,131.7c-1.3,0-5-1-5.6-2.5l-.9-2.4-.4-1.3a1.1,1.1,0,0,1,.4-1.2l1.1-.7a17,17,0,0,0,2.2-1.5l.5-.4a12.6,12.6,0,0,0,2.9-3.2,1.5,1.5,0,0,1,1.3-.9,2.3,2.3,0,0,1,1.1.3h.1a3,3,0,0,1,2,1.8,2.8,2.8,0,0,1-1,2.3.1.1,0,0,0-.1.1h0c1.2,2.6,0,4.6-1,6.4a11.3,11.3,0,0,0-.9,2,1.6,1.6,0,0,1-1.7,1Z" fill="#ebeae4"/><path d="M242,118.6l.8.3c2.5,1.1,1,2,.2,3s.1.6.2.8c1.4,3.1-1.2,5.2-2,7.7,0,.2-.3.3-.7.3s-4.3-1.1-4.6-1.9a30.1,30.1,0,0,1-1.3-3.6c1.1-.8,2.3-1.5,3.3-2.3a15.2,15.2,0,0,0,3.7-3.9c.1-.3.3-.4.4-.4m0-2a2.5,2.5,0,0,0-2.2,1.5,10.2,10.2,0,0,1-2.7,2.8l-.5.4-2,1.5-1.2.7a2,2,0,0,0-.7,2.3l.4,1.2.9,2.5c.8,2.2,5.2,3.2,6.5,3.2a2.6,2.6,0,0,0,2.6-1.6,10.7,10.7,0,0,1,.9-1.9c1-1.7,2.2-3.9,1.2-6.8a3,3,0,0,0,.9-2.8,3.6,3.6,0,0,0-2.5-2.5h-.1a3.3,3.3,0,0,0-1.5-.4Z" fill="#8e8e8d"/><path d="M84.9,43.7a2.7,2.7,0,0,1-1.9-.8,1,1,0,0,1-.2-.9.8.8,0,0,1,.5-.7l.6-.4a3.5,3.5,0,0,1,1.5-.7,1.4,1.4,0,0,1,.2-.6,1,1,0,0,1,.5-.4h2.1v-.4a1.4,1.4,0,0,1,.2-.7c.1-1.7.8-2,3-2.4a44.8,44.8,0,0,1,6.8-.6l3.8.2a5.2,5.2,0,0,1,1.3.6l.4.2a1.1,1.1,0,0,1,0,1.8l-.4.2-1,.4-3.6,1.2a31,31,0,0,0-7.9,3.1,4.9,4.9,0,0,1-2.7.8H84.9Z" fill="#ebeae4"/><path d="M98.2,36.1l3.6.2a6.1,6.1,0,0,1,1.4.7l-1.2.6c-4,1.4-8.2,2.2-11.7,4.3a4.6,4.6,0,0,1-2.2.7H86l-1.1.2a1.3,1.3,0,0,1-1.1-.5c.6-.4,1.3-1,1.9-1h.7c.8,0-.2-.8,0-1h1.8c.6,0,1-.2,1-1.5s.2-.1.2-.2,0-1.4,2.1-1.8a37.9,37.9,0,0,1,6.7-.6m0-2h0a37.6,37.6,0,0,0-7,.7c-2.1.3-3.5.7-3.8,3,0,.1-.1.2-.1.3h-.4l-1.2.2a1.6,1.6,0,0,0-.9.7.8.8,0,0,0-.2.4l-1.3.7c-.2.1-.3.3-.5.3a2.1,2.1,0,0,0-1,1.4,2,2,0,0,0,.5,1.7,3.2,3.2,0,0,0,2.6,1.2l1.1-.2h2.1a5.5,5.5,0,0,0,3.2-1,41.1,41.1,0,0,1,7.7-3l3.6-1.1,1.2-.5.3-.2a2,2,0,0,0,0-3.6l-.3-.2a5.6,5.6,0,0,0-1.7-.6,24.7,24.7,0,0,0-3.9-.3Z" fill="#8e8e8d"/><path d="M173.2,155.2h-.7c-2-.3-2-1.9-2.1-2.8a2.8,2.8,0,0,0-.1-1,.9.9,0,0,1,.1-1.1,4.1,4.1,0,0,0,.7-2.7,6.4,6.4,0,0,1,.8-3,9.1,9.1,0,0,1,2.4-2.4,10.3,10.3,0,0,0,2.3-2.4,1.2,1.2,0,0,1,.9-.5s1.3,0,1.5,1,.1.5.2.7a4.6,4.6,0,0,1,.2,2.6c-.5,1.8-1.2,3.5-1.8,5.3a30.1,30.1,0,0,0-1.1,3.2c-.5,1.3-1.1,3.2-3.3,3.2Z" fill="#ebeae4"/><path d="M177.5,140.2l.5.2c.2.9.7,2,.5,2.8-.9,2.8-2,5.6-3,8.4s-.9,2.6-2.3,2.6h-.5c-1.9-.4-.9-2.1-1.5-3.4,1.4-1.6.5-4.2,1.5-5.7s3.6-2.9,4.8-4.9h0m0-2a1.9,1.9,0,0,0-1.7,1,13.9,13.9,0,0,1-2.1,2.1,11.1,11.1,0,0,0-2.6,2.7,5.5,5.5,0,0,0-.9,3.4,4.2,4.2,0,0,1-.5,2.1,1.8,1.8,0,0,0-.3,2.2v.7c.1.9.2,3.2,2.9,3.7h.9c2.9,0,3.8-2.6,4.2-3.9s.8-2.1,1.1-3.2,1.3-3.5,1.9-5.4a6.4,6.4,0,0,0-.2-3.1,1.4,1.4,0,0,1-.2-.6,2.5,2.5,0,0,0-2.5-1.8Z" fill="#8e8e8d"/><path d="M67.5,50.3l-1.6-.2a.9.9,0,0,1-.7-.3h-.9l-1.3.3c-1.8,0-3.3-1.1-3.4-2.4a1.4,1.4,0,0,1,.4-1.1c0-.1.1-.1.2-.2h-.7a2.2,2.2,0,0,1-1.6-1.1,1,1,0,0,1-.2-.9,2.6,2.6,0,0,1,1.1-1.3l1.2-.6a6,6,0,0,1,3.2-1.2,5.1,5.1,0,0,1,2.3.7l2.4,1.8.3.3.5-.3,1.7-.6.6-.2h.8a1,1,0,0,1,.5.6c.3,1-.2,1.8-1.3,2.4h-.3v.5a2.2,2.2,0,0,1-.5,2.1A4,4,0,0,1,67.5,50.3Z" fill="#ebeae4"/><path d="M63.2,42.6a2.9,2.9,0,0,1,1.7.6c1.2.7,2.3,1.7,3.4,2.5h0l.8-.7,2.2-.7c.3.9-.6,1.1-1,1.4s0,2-.8,2.8a2.9,2.9,0,0,1-2,.8l-1.6-.2h0a1.1,1.1,0,0,0-.9-.3c-.7,0-1.4.4-2,.4h-.1c-1.2,0-2.3-.7-2.3-1.5s.2-.4.6-.4h1.4l.7-.2c-.1-.1-.1-.2-.2-.2l-1.6-.5c.8-.5.8-1.7,2-1.7h0c.3,0,.5-.2.8-.4h-.9l-3.9,1.3h0c-.2,0-.6-.4-.8-.7s.2-.6.5-.7,2.6-1.7,4-1.7m0-2v0a7.1,7.1,0,0,0-3.7,1.3l-1.1.6a2.8,2.8,0,0,0-1.6,1.9,1.9,1.9,0,0,0,.3,1.8,3.9,3.9,0,0,0,1.5,1.3v.3c.1,1.9,2,3.4,4.3,3.4a5.7,5.7,0,0,0,1.6-.3h.3a1.7,1.7,0,0,0,1,.3l1.7.2a4.9,4.9,0,0,0,3.4-1.4,3.3,3.3,0,0,0,.8-2.8,2.7,2.7,0,0,0,1.5-3.4,1.7,1.7,0,0,0-1-1.2,1.5,1.5,0,0,0-.9-.2h-.6l-.7.2-1.7.6L66,41.5a4.9,4.9,0,0,0-2.8-.9Z" fill="#8e8e8d"/><path d="M230.5,133.9a2.7,2.7,0,0,1-2-1.3h-.1a30.4,30.4,0,0,1-4.1-7.2l-.3-.4a4.4,4.4,0,0,0-1.3-1.5l-.7-.7-.3-.3a2.2,2.2,0,0,1-1.2-2.3,1.5,1.5,0,0,1,.5-.7h1.5a3.6,3.6,0,0,1,2,.8l2,1.8c2.2,2,4.5,4,5.9,7a3,3,0,0,1,.3,1.2.4.4,0,0,1,.1.3v.9a2.3,2.3,0,0,1-1.4,2.3l-.9.2Z" fill="#ebeae4"/><path d="M221.5,120.3c.8.2,1.8.1,2.4.6,2.7,2.7,5.9,4.9,7.6,8.5a11.1,11.1,0,0,1,.3,1.3c-.1,1,.1,1.7-.8,2.1h-.5c-.6,0-.9-.6-1.3-1a45.9,45.9,0,0,1-4.3-7.4,8.6,8.6,0,0,0-2.2-2.5c-.5-.5-1.3-.8-1.2-1.7m0-2a2,2,0,0,0-1.1.3,1.9,1.9,0,0,0-.9,1.4,3.7,3.7,0,0,0,1.5,3.2l.3.2.8.7c.4.5.9.9,1,1.2l.3.5a33.6,33.6,0,0,0,4.2,7.3v.2a3.8,3.8,0,0,0,2.8,1.6l1.2-.2a3.5,3.5,0,0,0,2.1-3.2V131a2.2,2.2,0,0,0-.1-.8V130c-.1-.3-.2-.9-.4-1.4-1.4-3.2-3.8-5.3-6.1-7.3l-2-1.8a4.9,4.9,0,0,0-2.6-1.1h-1.1Z" fill="#8e8e8d"/><path d="M128.2,73.7h-.7a.9.9,0,0,1-.5-1.1c0-.4.4-.7.8-.8h.1a1.7,1.7,0,0,0,.1-.8,3.4,3.4,0,0,1,.6-2.2l-.8-1.3a2.5,2.5,0,0,1,.1-3.6,3.8,3.8,0,0,1,1.1-.8h.8l.7.2a1.1,1.1,0,0,1,.3.7,2.1,2.1,0,0,1,1,2.5,5.4,5.4,0,0,0,1.1,1.9,5.7,5.7,0,0,1,.8,1.3l.3.2.3.2a2.1,2.1,0,0,1,.3.7,1.1,1.1,0,0,1-.3.8.4.4,0,0,0-.1.3,2.3,2.3,0,0,1-1.8,1.6l-2.8.4-1.3.2Z" fill="#ebeae4"/><path d="M129.8,63.7h0m0,0c-.3.9,1.5.6,1.1,2.2s1.2,2.6,2,3.9a4.5,4.5,0,0,0,.7.7c-.5.4-.3,1.5-1.3,1.6l-4.1.6H128c2-.4-.1-3.2,2-3.6-.5-.7-.9-1.6-1.4-2.3a1.6,1.6,0,0,1,0-2.4,4.5,4.5,0,0,1,1.2-.6m0-2h-.1l-.8.2h-.3a3.9,3.9,0,0,0-1.5,1,3.7,3.7,0,0,0-.1,4.9,4.3,4.3,0,0,1,.4.7,4.8,4.8,0,0,0-.4,2.2h0a1.8,1.8,0,0,0-1,1.4,2,2,0,0,0,1,2l.2.2,1,.2h.3l1.3-.2,2.8-.4a2.9,2.9,0,0,0,2.5-2.4h.1a2.8,2.8,0,0,0,.4-1.3,2.1,2.1,0,0,0-.7-1.4l-.3-.3h-.1a5.7,5.7,0,0,0-.8-1.3,6.6,6.6,0,0,1-.8-1.3,2.9,2.9,0,0,0-1.2-3,2,2,0,0,0-1.9-1.4Zm0,4Z" fill="#8e8e8d"/><path d="M128.2,73.7h-.5a1,1,0,0,1,.5-1.9h.4a1.1,1.1,0,0,1,.6,1.1,1,1,0,0,1-1,.8Z" fill="#ebeae4"/><path d="M128.2,72.7h0m0-2a2.2,2.2,0,0,0-1.8,1,2.1,2.1,0,0,0,.8,2.8l1,.2a1.9,1.9,0,0,0,1.9-1.5,1.9,1.9,0,0,0-.9-2.2l-1-.3Z" fill="#8e8e8d"/><path d="M250.8,87.2h-.2a.9.9,0,0,1-.7-.6c-.1-.3-.2-.3-.3-.3l-.8.2a2.8,2.8,0,0,1-1.3.4,1.6,1.6,0,0,1-1.5-2.3,4,4,0,0,1,2.8-1.6,3.1,3.1,0,0,1,.1-1.3h0l.3-.4.6-.2h.2a2,2,0,0,0-.3-1.8c0-.1-.1-.1-.1-.2a2,2,0,0,1-.5-1.4,1.6,1.6,0,0,1,.7-1.1l.9-.3a2,2,0,0,1,1.8,1.3,50,50,0,0,1,2.2,5.8,1.6,1.6,0,0,1-.2,1.5,2.1,2.1,0,0,1-1.7.7h-.5a1.1,1.1,0,0,1-.3.8l-.5.5A.8.8,0,0,1,250.8,87.2Z" fill="#ebeae4"/><path d="M250.7,77.3a1.1,1.1,0,0,1,.9.7c.8,1.9,1.6,3.8,2.2,5.7s-.3.9-1,.9h-.2c-.7,0-1.3.2-1.3,1.1h0l-.5.4a1.2,1.2,0,0,0-1.2-.9c-.7,0-1.5.6-2.1.6a.7.7,0,0,1-.6-.4c-.4-.6,1.1-1.4,2.1-1.5s.5-1.3.8-1.9h.4a.6.6,0,0,0,.6-.5,2.6,2.6,0,0,0-.2-2.9c-.3-.4-.9-.9-.3-1.4h.4m0-2h0a3,3,0,0,0-1.5.5,2.5,2.5,0,0,0-1.1,1.7,2.9,2.9,0,0,0,.7,2.3h.1c.1.2.2.3.2.5l-.6.3-.5.6h0a4.4,4.4,0,0,0-.2,1,4.5,4.5,0,0,0-2.7,2,2.9,2.9,0,0,0,.1,2.4,2.9,2.9,0,0,0,2.3,1.3,7.1,7.1,0,0,0,1.7-.4h0a2.4,2.4,0,0,0,1.2.7h.4a1.9,1.9,0,0,0,1.4-.5h.1l.4-.4a.9.9,0,0,0,.4-.6,2.7,2.7,0,0,0,2.2-1.2,2.5,2.5,0,0,0,.4-2.4c-.6-1.7-1.3-3.5-2.2-5.8a3.3,3.3,0,0,0-2.8-1.9Z" fill="#8e8e8d"/><path d="M245,133.7a1.2,1.2,0,0,1-1.3-1c0-.3-.1-.6-.1-.9a10.9,10.9,0,0,1-.3-2.6,4.3,4.3,0,0,1,.4-1.7,1.9,1.9,0,0,0,.3-.9c.3-2.3,1.7-2.7,2.5-2.7l1.2.2h.8l.8-.4.4-.2h.5a.7.7,0,0,1,.6.2,1,1,0,0,1,.4.9,1.2,1.2,0,0,1-.3.9,2.7,2.7,0,0,1-1.8,1.3.9.9,0,0,1-.1,1c0,.1,0,.1-.1.2l-.5.7-.3.2h0v.4a2.8,2.8,0,0,1,.2,2v.3c0,.7-.7.9-1,1h-1l-.6.8Z" fill="#ebeae4"/><path d="M250.2,124.5a1.1,1.1,0,0,1-.1.5,2,2,0,0,1-1.7.9h-2.2a.8.8,0,0,0-.7.4,1.5,1.5,0,0,0,.3,1.1c.1.3.3.3.5.3s.8-.3,1.2-.3h.7l-.5.7a1.4,1.4,0,0,0-.4,1.9c.3.4.1,1.1.1,1.6s-.5.2-.7.3a5.8,5.8,0,0,1-.5-1.4l-.3-.6-.3.6c-.2.8.3,1.7-.5,2.3h-.4a20.9,20.9,0,0,1-.4-3.4c0-.9.6-1.7.7-2.5s.6-1.8,1.5-1.8l.9.2h1.4a8.4,8.4,0,0,0,1.4-.6m0-2a1.5,1.5,0,0,0-.9.2l-.5.2-.5.3H248a4,4,0,0,0-1.5-.3c-.7,0-3.1.3-3.5,3.5a1.9,1.9,0,0,1-.2.7,5.9,5.9,0,0,0-.5,2,13.6,13.6,0,0,0,.3,2.9c0,.3.1.6.1.9a2.2,2.2,0,0,0,2.3,1.8,2.8,2.8,0,0,0,1.3-.4l.5-.6h.8a2.3,2.3,0,0,0,1.7-1.9v-.3a4.2,4.2,0,0,0-.1-2.2l.5-.7h0a3.6,3.6,0,0,0,.4-.9,4.3,4.3,0,0,0,1.6-1.4,3.8,3.8,0,0,0,.4-1.4h0a2.1,2.1,0,0,0-.8-1.9,2.7,2.7,0,0,0-1.2-.3Zm0,4Z" fill="#8e8e8d"/><path d="M267.1,185.6a2.1,2.1,0,0,1-1.9-1.3,1.3,1.3,0,0,1-.2-1.3,1.7,1.7,0,0,1,1.3-1h.1l3.5-1.6c1.9-.9,3.7-1.6,5.1-3l.7-.2a.9.9,0,0,1,.7.3l.2.3c1.2,2.2-.7,3.2-1.5,3.5l-.4.3-3.7,2.2-2.6,1.5a2,2,0,0,1-1.3.4Z" fill="#ebeae4"/><path d="M275.7,178.1h0c.9,1.7-.7,2-1.5,2.5s-4.2,2.5-6.3,3.7a1.3,1.3,0,0,1-.8.3c-.5,0-.8-.4-1.1-.8s.5-.8.9-1c2.9-1.7,6.2-2.4,8.8-4.7m0-2a2.1,2.1,0,0,0-1.3.5,19.5,19.5,0,0,1-4.9,2.8L266,181h0a2.8,2.8,0,0,0-1.9,1.6,2.5,2.5,0,0,0,.2,2.2,3.4,3.4,0,0,0,2.8,1.8,4.1,4.1,0,0,0,1.8-.5l2.6-1.6,3.7-2.2.4-.2c3-1.5,2.5-3.7,1.9-4.9l-.3-.5a2.2,2.2,0,0,0-1.5-.6Z" fill="#8e8e8d"/><path d="M119.7,59.2h-.4a2.3,2.3,0,0,1-2.1-1.4,6.7,6.7,0,0,0-.6-1.2l-.3-.5a.9.9,0,0,1,0-1,1,1,0,0,1,.8-.5l2-.2,2.3-.2a4.1,4.1,0,0,1,2.4.7,2.7,2.7,0,0,1,1,2.2c-.3.9-1.3,1.1-2.1,1.3l-.8.2a3.5,3.5,0,0,1-1.6.6h-.6Z" fill="#ebeae4"/><path d="M121.4,55.1a2.3,2.3,0,0,1,1.7.5c2.1,1.8-1,1.5-1.8,2.1a3,3,0,0,1-1.6.5c-.7-.1-1.2-.2-1.5-.9a17.4,17.4,0,0,0-1.1-1.8c1.4,0,3-.4,4.3-.4m0-2-2.5.2-1.8.2a2.1,2.1,0,0,0-1.7,1,2.1,2.1,0,0,0,0,1.9l.3.6a4.1,4.1,0,0,1,.6,1.1,3.4,3.4,0,0,0,2.8,2h1.4a4.5,4.5,0,0,0,1.9-.7h.5c.9-.2,2.4-.5,2.8-2.1a3.1,3.1,0,0,0-1.3-3.1,4,4,0,0,0-3-1Z" fill="#8e8e8d"/><path d="M170.3,50.7h-.6a2.3,2.3,0,0,1-1.7-.5h-.3a2.1,2.1,0,0,1-1.7-2.2v-.5c.7-1.9,1.6-4.5,4.6-4.6a3.8,3.8,0,0,0,1.2-.5,3.9,3.9,0,0,1,1.7-.6,1.4,1.4,0,0,1,1.3,1,1.9,1.9,0,0,1,0,1.3A2.9,2.9,0,0,1,173,45a2.8,2.8,0,0,0-1.2.4,6,6,0,0,1-.8.8,3.1,3.1,0,0,0-1,1.2c0,.1,0,.4.8,1.1a1.1,1.1,0,0,1,.5,1,1.4,1.4,0,0,1-.3.9A1.1,1.1,0,0,1,170.3,50.7Z" fill="#ebeae4"/><path d="M173.6,42.6c.2,0,.3.1.4.3s-2,.9-2.9,1.8-3.5,2.5-.9,4.6c.1,0,.1.2.1.4s-1.2,0-1.6-.3-1.8-.3-1.7-1.5,1.3-4.1,3.7-4.2,2.2-1.1,2.9-1.1m0-2a4.1,4.1,0,0,0-2.2.7c-.2.1-.6.4-.8.4-3.6.1-4.8,3.4-5.4,5.3v.2a1.3,1.3,0,0,0-.1.6,2.9,2.9,0,0,0,2.4,3.1.1.1,0,0,0,.1.1,3.8,3.8,0,0,0,2.1.6h.7a2,2,0,0,0,1.4-.6,2.3,2.3,0,0,0,.6-1.6,2.2,2.2,0,0,0-.8-1.8q-.3-.2-.3-.3l.5-.5.8-.7.7-.3a3.5,3.5,0,0,0,2.5-1.5,2.6,2.6,0,0,0,.2-2.1,2.4,2.4,0,0,0-2.3-1.7Z" fill="#8e8e8d"/><path d="M144.4,44.6l-.6-.2-.9-.5c-1.2-.7-2.9-1.6-2.6-3.3s.4-1.5,2.2-1.5a7.1,7.1,0,0,1,2.1.3h.4a7.4,7.4,0,0,1,2.8,1.4l.9.6a2.3,2.3,0,0,1,.5.5h.1a1.6,1.6,0,0,1,.3.9,1.1,1.1,0,0,1-.6.7l-.7.3h-.9a3.4,3.4,0,0,0-1.5-.7c-.2,0-.4.4-.6.7a.9.9,0,0,1-.6.6Z" fill="#ebeae4"/><path d="M142.5,40.1a14.3,14.3,0,0,1,2.3.3,12.8,12.8,0,0,1,3.4,1.9l.4.4-.7.3a4.7,4.7,0,0,0-2-.8c-.6,0-1.1.4-1.5,1.4-1.2-.8-3.4-1.5-3.2-2.8s.6-.7,1.3-.7m.8,1.9h0m-.8-3.9a2.9,2.9,0,0,0-3.2,2.4c-.4,2.4,1.8,3.5,3.1,4.3l.9.4a1.5,1.5,0,0,0,1.1.4h.6a2.2,2.2,0,0,0,1.2-1.1l.6.3a2,2,0,0,0,1.1.3,1.1,1.1,0,0,0,.8-.2h.2l.5-.3a2.1,2.1,0,0,0,1.2-1.4,2.4,2.4,0,0,0-.5-1.8H150a1.9,1.9,0,0,0-.8-.7l-.8-.6a7.9,7.9,0,0,0-3.2-1.5h-.4a14.3,14.3,0,0,0-2.3-.3Z" fill="#8e8e8d"/><path d="M238.6,137.4h-.2l-1.7-.5-4.9-1.4a2.1,2.1,0,0,1-1.3-1.1,1.7,1.7,0,0,1,.2-1.4,2.5,2.5,0,0,1,1.7-.8h.6a10.6,10.6,0,0,0,4,.9h1.6c.9.1,1.2,1,1.6,1.7v.4c.5.8-.3,1.3-.7,1.6l-.4.2A.7.7,0,0,1,238.6,137.4Z" fill="#ebeae4"/><path d="M232.4,133.2h.2c1.9,1,3.9.9,5.9,1.1.4.1.7,1,.9,1.6l-.8.5-6.5-1.9c-.4-.1-.9-.4-.5-.9a1,1,0,0,1,.8-.4m0-2a3.3,3.3,0,0,0-2.5,1.2,2.4,2.4,0,0,0-.3,2.3,3.1,3.1,0,0,0,1.9,1.8l4.9,1.4,1.7.4h.5a2,2,0,0,0,1.1-.3l.4-.3c1.6-1,1.5-2.1,1.1-2.8v-.4c-.4-.8-.9-2.1-2.3-2.3h-1.7a8.7,8.7,0,0,1-3.7-.8l-1-.2Z" fill="#8e8e8d"/><path d="M86.9,76a.9.9,0,0,1-.8-.4h0a.9.9,0,0,1,.1-1.3.2.2,0,0,1,.2-.2H87a.9.9,0,0,1,.8.5h0a.9.9,0,0,1-.4,1.2Z" fill="#ebeae4"/><path d="M86.9,75h0m0-2a1.5,1.5,0,0,0-.9.2.5.5,0,0,0-.4.3,1.8,1.8,0,0,0-.3,2.7,2.1,2.1,0,0,0,1.6.8,1.5,1.5,0,0,0,1.1-.4,2,2,0,0,0,.7-2.5v-.2a1.9,1.9,0,0,0-1.4-.9Z" fill="#8e8e8d"/><path d="M60.4,106h-.5a12.4,12.4,0,0,1-1.8-1.4,5.1,5.1,0,0,0-2.5-1.7H53.2a.8.8,0,0,1-.7-.4.8.8,0,0,1-.2-.9,2.4,2.4,0,0,1,2.4-1.7h.8a7.9,7.9,0,0,1,4.9,2.1l1.9,1.2a1.3,1.3,0,0,1,.6,1.3,1.1,1.1,0,0,1-.6,1l-1.2.4-.3.2Z" fill="#ebeae4"/><path d="M55.5,100.8c2.6,0,4.2,2.1,6.3,3.2.1.1.1.5.1.5l-1.5.5c-1.6-.9-2.6-2.8-4.6-3.2H54.7l-1.5.2c.3-.9,1-1,1.7-1h.6m0-2h-.9a3.4,3.4,0,0,0-3.3,2.4,2,2,0,0,0,1.9,2.6h2.2c.7.1,1.2.6,2,1.4a10.4,10.4,0,0,0,2,1.5,1.9,1.9,0,0,0,1,.3h1.1l1.2-.5a2,2,0,0,0,1.2-1.9,2.3,2.3,0,0,0-1.2-2.2L61,101.1c-1.4-1-3.1-2.3-5.5-2.3Z" fill="#8e8e8d"/><path d="M277.3,180.3H277a1.5,1.5,0,0,1-.9-.4,1.6,1.6,0,0,1-.2-1h.1a1.7,1.7,0,0,1,.3-.7l2.9-4.2.6-.9v-.2c.1-.6.3-2.2.3-2.2a1,1,0,0,1,.7-.7h.3l.7.2a1.6,1.6,0,0,1,.5.6,2.7,2.7,0,0,1,0,2.5h0a1.2,1.2,0,0,1,.1,1h.4a1.1,1.1,0,0,1,.7.3,1.1,1.1,0,0,1,.3.8,1.6,1.6,0,0,1-.4.7l-1.1.8-4.3,3.2A1.1,1.1,0,0,1,277.3,180.3Z" fill="#ebeae4"/><path d="M281.2,170.8c.1.1.3.1.3.3s0,1.6-.6,2.3h0c.3.2.9,0,.6.8s-.1,1.1.3,1.1h1.1l-5.4,4c0,.1-.1.1-.2.1h-.4c.1-.2.1-.5.2-.6l3.7-5.3h0v-.5a15.5,15.5,0,0,0,.4-2.1m0-2h-.7a2,2,0,0,0-1.2,1.5v.6l-.3,1.6h0l-.5.7-3,4.1-.4,1.1h0a1.7,1.7,0,0,0,.3,1.7,2.4,2.4,0,0,0,1.5.9h.5a3.4,3.4,0,0,0,1.4-.4l4.3-3.3,1.1-.8a2.5,2.5,0,0,0,.8-1.4,2.3,2.3,0,0,0-.6-1.6l-.8-.5c0-.1,0-.1-.1-.1a3.2,3.2,0,0,0-.1-3,2.2,2.2,0,0,0-.8-1h0a2.1,2.1,0,0,0-1.3-.5Z" fill="#8e8e8d"/><path d="M84.5,45.5h-1l-2.6-.3c-.5,0-.8-.4-1.1-.6s0-.1-.1-.2a.9.9,0,0,1-.3-.9.8.8,0,0,1,.2-.4,1.4,1.4,0,0,1-.5-1.4,1.8,1.8,0,0,1,1.1-1H81a2.5,2.5,0,0,1,2.4,1.8h2l1-.2a1.6,1.6,0,0,1,1.7,1.6,1.9,1.9,0,0,1-.5,1.3,2,2,0,0,1-1.4.5H84.5Z" fill="#ebeae4"/><path d="M81,41.5a1.4,1.4,0,0,1,1.4,1.2c.1.5.6.6,1,.6h1.3c.6,0,1.3-.3,1.7-.3s.7.2.7.6-.4.8-.9.8H84.6L81,44.1c-.2,0-.4-.3-.6-.5,1.5-.6-1.3-1.6.1-2H81m0-2-1.1.2a2.2,2.2,0,0,0-1.7,1.6,2.1,2.1,0,0,0,.2,1.8v.2a2,2,0,0,0,.7,1.8h0a3.3,3.3,0,0,0,1.7.9l2.6.3h2.8a2.9,2.9,0,0,0,2.1-.8A2.7,2.7,0,0,0,86.4,41l-1.2.2H84a3.4,3.4,0,0,0-3-1.8Z" fill="#8e8e8d"/><path d="M249.9,120.5a1.3,1.3,0,0,1-1.2-.6l-.3-.5c-.6-.8-.8-1-1.2-1h-.4a.9.9,0,0,1-.8-.4.9.9,0,0,1-.1-1,2.8,2.8,0,0,1,2.4-1.7l.2-.2a2.2,2.2,0,0,1,1.5-.8,1.7,1.7,0,0,1,1.3.8,3.5,3.5,0,0,1,.1,4.4,1.8,1.8,0,0,1-1.5,1Z" fill="#ebeae4"/><path d="M250,115.3c.1,0,.3.1.5.4a2.2,2.2,0,0,1,0,3.2h0c-.1.5-.4.6-.6.6h-.4c-.6-.9-1-2-2.3-2h-.4a1.9,1.9,0,0,1,1.7-1.1c.5,0,.9-1,1.5-1m.5,3.6c0-.2-.1-.4-.1-.6h-.1c.1.2.1.4.2.6" fill="#8e8e8d"/><path d="M245,110.8a.7.7,0,0,1-.6-.2l-.4-.3a2.9,2.9,0,0,1-1.4-1.5,18.3,18.3,0,0,1-.2-3.3V105c-.1-.8.7-1.1,1-1.2h.8a2.9,2.9,0,0,1,1.9,1.2,3.1,3.1,0,0,1,.4,2.4l-.2.6a1.5,1.5,0,0,0-.1,1.1,1.3,1.3,0,0,1-.2,1.3h-.1a.8.8,0,0,1-.7.5Z" fill="#ebeae4"/><path d="M244.1,104.6c1.4.3,1.6,1.3,1.4,2.4s-.6,1.5-.2,2.3a3.3,3.3,0,0,1-.3.6c-.5-.5-1.3-.8-1.4-1.3a15.1,15.1,0,0,1-.2-3.7c0-.1.4-.2.7-.3m0-2-.9.2h-.1c-1.2.5-1.8,1.2-1.7,2.2v.5a13.8,13.8,0,0,0,.3,3.5,3.4,3.4,0,0,0,1.7,2.1c.1.1.3.2.3.3a2.4,2.4,0,0,0,1.3.5h.4a2.1,2.1,0,0,0,1.4-1h0a2.2,2.2,0,0,0,.3-2.2c.1-.1.1-.4.2-.5s.1-.5.1-.7a3.8,3.8,0,0,0-.4-3.2,4,4,0,0,0-2.6-1.6Z" fill="#8e8e8d"/><path d="M84.8,41.6a1.8,1.8,0,0,1-1.6-.9c-.4-.6-.1-1.6.1-2.2a2.1,2.1,0,0,1,1.3-1.3l.5-.2a3.3,3.3,0,0,1,1.5-.5,2.1,2.1,0,0,1,1.7.9,2.7,2.7,0,0,1,.8,2.2c-.3.8-1.1,1-1.6,1.2h-.4l-.5.2-.5.2A2.8,2.8,0,0,1,84.8,41.6Z" fill="#ebeae4"/><path d="M86.6,37.5c.3,0,.6.2,1,.6,1.5,1.9-.6,1.5-1.2,2.1a9.4,9.4,0,0,1-1.6.4,1,1,0,0,1-.8-.4,2.4,2.4,0,0,1,.8-2c.6-.1,1.1-.7,1.8-.7m0-2a4.3,4.3,0,0,0-2,.6l-.3.2a2.8,2.8,0,0,0-1.9,1.8,3.3,3.3,0,0,0,0,3.2,2.8,2.8,0,0,0,2.4,1.3,3.9,3.9,0,0,0,1.7-.4h.3a1.9,1.9,0,0,0,.8-.3h.2A2.7,2.7,0,0,0,90,39.9a3.1,3.1,0,0,0-.9-3.1,3.4,3.4,0,0,0-2.5-1.3Z" fill="#8e8e8d"/><path d="M86.4,41.2a.9.9,0,0,1-.9-.8.8.8,0,0,1,.3-1,.9.9,0,0,1,.6-.3l.5.2a1,1,0,0,1,.5,1.1c0,.2-.1.3-.3.5l-.3.2Z" fill="#ebeae4"/><path d="M86.4,40.2h0m0,0h0m0-2h-.8l-.4.3a.2.2,0,0,0-.2.2,1.8,1.8,0,0,0-.3,2.4,2.1,2.1,0,0,0,1.7,1h.7a1.8,1.8,0,0,0,.9-.8,1.5,1.5,0,0,0,.4-1.1,1.9,1.9,0,0,0-2-2Zm0,4Z" fill="#8e8e8d"/><path d="M68.7,44.3a2.4,2.4,0,0,1-1.6-.9c-.1-.1-.1-.2-.3-.3s-.5-.5-.3-1.2a1.3,1.3,0,0,1,.9-.9l.6-.2a3.8,3.8,0,0,1,1.6-.5,2.4,2.4,0,0,1,1.4.5l.3.2h.1a2.1,2.1,0,0,1,1.6-.8,1.2,1.2,0,0,1,.8.4,3.4,3.4,0,0,1,.8,1.6,1.4,1.4,0,0,1-.1.9,3.2,3.2,0,0,1-1.4.8l-2.9.4H68.7Z" fill="#ebeae4"/><path d="M73,41.1h.1a2.3,2.3,0,0,1,.6,1.2c0,.1-.5.4-.7.4l-4.1.5h-.2c-.5,0-.8-.6-1.2-.9s0-.4,0-.4,1.4-.7,2.1-.7a1.3,1.3,0,0,1,.8.3,1.9,1.9,0,0,0,1,.5c.3,0,.5-.2.8-.6a1.2,1.2,0,0,1,.8-.4m0-2h0a3.8,3.8,0,0,0-1.8.6,3.2,3.2,0,0,0-1.6-.4,4,4,0,0,0-2.1.6l-.3.2a2,2,0,0,0-1.7,1.5,2.3,2.3,0,0,0,.7,2.3l.2.2a3.2,3.2,0,0,0,2.3,1.2h1.6l3-.4a3.4,3.4,0,0,0,2-1.3,2.2,2.2,0,0,0,.3-1.6,3.8,3.8,0,0,0-1-2,2.1,2.1,0,0,0-1.6-.8Z" fill="#8e8e8d"/><path d="M125,72.2a1.8,1.8,0,0,1-1.4-.9,1.4,1.4,0,0,1-.2-1l.3-.6c.4-1.3,1-3.1,3.3-3.3h.3a1.9,1.9,0,0,1,1,.4,2.9,2.9,0,0,1,.3,1.6,3.3,3.3,0,0,1-.4,2.2,4.4,4.4,0,0,1-3,1.7Z" fill="#ebeae4"/><path d="M127.3,67.3c.3,0,.3.2.3,1.1s-.9,2.5-2.6,2.8h0c-.2,0-.7-.4-.6-.5s.8-3.1,2.7-3.3h.2m0-2h-.4c-2.9.3-3.7,2.7-4.2,4a.8.8,0,0,1-.2.5,2.2,2.2,0,0,0,.3,2,2.7,2.7,0,0,0,2.2,1.3h.4a5.8,5.8,0,0,0,3.7-2.2,4.1,4.1,0,0,0,.5-2.7,2.9,2.9,0,0,0-.6-2.2,2.3,2.3,0,0,0-1.7-.8Z" fill="#8e8e8d"/><path d="M249.6,77.5l-.4-.2h-.3l-.2-.2-.3-.2a3.1,3.1,0,0,1-.7-2.5c0-.7,0-.8-.2-.9l-.4-.5a1,1,0,0,1,.9-1.4h.4l.9.3,2.8,1.2c.7.3.8,1.3.8,1.4a1,1,0,0,1-.3.9h0a1.7,1.7,0,0,1-1.7,1.2h-.3v.2a1.1,1.1,0,0,1-.9.6Z" fill="#ebeae4"/><path d="M248,72.5h.1l3.5,1.5c.2.1.4.6.3.7s-.2,1-1,1h-.2a8.3,8.3,0,0,0-1.5.4c0,.1.1.1.2.2h.2l-.2-.2-.2-.2c-1.1-1,.1-2.7-1.2-3.6h0m0-2a2,2,0,0,0-1.4.6,2.1,2.1,0,0,0-.5,2.1h0a2.4,2.4,0,0,0,.6.8v.3a3.7,3.7,0,0,0,1.1,3.2v.2l.5.4h.3l.9.3h0a2.1,2.1,0,0,0,1.6-.8,2.6,2.6,0,0,0,2.3-1.7,2.3,2.3,0,0,0,.4-1.6,2.7,2.7,0,0,0-1.4-2.2L249.7,71l-.9-.4H248Z" fill="#8e8e8d"/><path d="M253.6,179.9a2,2,0,0,1-1.6-.7,1.5,1.5,0,0,1-.1-1.3c0-.2.1-.4.1-.7a2.7,2.7,0,0,1,1.8-2.4h.5a4.7,4.7,0,0,1,1.6.4l.6.2a1.2,1.2,0,0,1,.6.6,1.1,1.1,0,0,1,0,.8,7.6,7.6,0,0,1-2.9,3h-.6Z" fill="#ebeae4"/><path d="M254.3,175.8a8.2,8.2,0,0,1,1.9.6,5.5,5.5,0,0,1-2.5,2.5h-.1c-.6,0-.9-.3-.8-.7s.1-2.1,1.2-2.4h.3m0-2h-.7a3.4,3.4,0,0,0-2.6,3.2.6.6,0,0,1-.1.4,2.7,2.7,0,0,0,.3,2.3,2.9,2.9,0,0,0,2.4,1.1h.2l.9-.2a7.9,7.9,0,0,0,3.3-3.5,2.2,2.2,0,0,0,0-1.6,1.6,1.6,0,0,0-1.3-1.1l-.5-.2a5.3,5.3,0,0,0-1.9-.5Z" fill="#8e8e8d"/><path d="M187.8,41.1a4.8,4.8,0,0,1-1.8-.6,2,2,0,0,0-.8-.4h-.9a.9.9,0,0,1-.6-.6.3.3,0,0,0-.1-.2,1.9,1.9,0,0,1-.1-1.5,2.2,2.2,0,0,1,1.9-1.3,1.9,1.9,0,0,1,1,.3l.8.4a1.4,1.4,0,0,0,1,.5h.5c.7,0,1,.5,1.3.9s.2.2.2.3a1,1,0,0,1,.2.9,1,1,0,0,1-.7.7l-1.3.4h-.6Z" fill="#ebeae4"/><path d="M185.4,37.6l.5.2c.8.4,1.4,1,2.3,1h.5c.2,0,.5.5.7.8l-1.3.5h-.3c-.9,0-1.6-1-2.6-1l-.5.2a1.3,1.3,0,0,1-.3-1,1.1,1.1,0,0,1,1-.7m0-2h0a3.2,3.2,0,0,0-2.8,1.8,2.7,2.7,0,0,0,.1,2.4.1.1,0,0,0,.1.1,1.9,1.9,0,0,0,1.1,1.2l.7.2h.9a4.4,4.4,0,0,0,2.3.8h.9l1.3-.5a1.7,1.7,0,0,0,1.4-1.3,2,2,0,0,0-.4-1.8l-.2-.2a2.3,2.3,0,0,0-2.1-1.4h-.5l-.5-.3-.8-.5a2.8,2.8,0,0,0-1.5-.4Z" fill="#8e8e8d"/><path d="M77.9,186.9h-.4c-.3-.2-.5-.4-.5-.7a.8.8,0,0,1,.1-.7h0l.3-.3h.5a1,1,0,0,1,1,.8.9.9,0,0,1-.3,1Z" fill="#ebeae4"/><path d="M78,185.9h0m0-2h-.4l-1,.5-.2.3a1.8,1.8,0,0,0-.4,1.6,1.9,1.9,0,0,0,1.1,1.4c.2.2.5.2.9.2a1.5,1.5,0,0,0,1.1-.4,1.8,1.8,0,0,0,.8-2h0a1.9,1.9,0,0,0-1.9-1.6Z" fill="#8e8e8d"/><path d="M80.2,189.9h-.7c-1.8-.5-2.2-2.2-2.5-3.4v-.3a1,1,0,0,1,.3-1l.7-.2h.4l.4.2,3.9,2a1.1,1.1,0,0,1,.6,1.3,1.2,1.2,0,0,1-.8.9l-.7.2-1.6.3Z" fill="#ebeae4"/><path d="M78,185.9l4.2,2.2c.1,0,.1.3,0,.3a7.3,7.3,0,0,1-2,.5h-.4c-1.4-.4-1.6-1.8-1.8-3m0-2a2.8,2.8,0,0,0-1.3.4,2.1,2.1,0,0,0-.7,2.1v.2c.2,1.2.7,3.5,3.1,4.2h1a9.5,9.5,0,0,0,1.9-.3l.6-.2a2.1,2.1,0,0,0,1.5-1.8,2.2,2.2,0,0,0-1-2.3l-3.8-1.9-.6-.3-.8-.2Z" fill="#8e8e8d"/><path d="M73.3,47.8a1.9,1.9,0,0,1-1.7-1,2,2,0,0,1-.1-1.7,1.2,1.2,0,0,1,.6-.6c.3,0,.6-.3.9-.5a4.9,4.9,0,0,1,2.1-.8,2,2,0,0,1,1.1.3,1.5,1.5,0,0,1,.7.9,3.7,3.7,0,0,1-.8,2.2,1,1,0,0,0-.4.5,1.1,1.1,0,0,1-.9.5H73.3Z" fill="#ebeae4"/><path d="M75.1,44.2l.6.2c.6.4-.5,1.5-.9,2.2h-.2l-1.3.2a1.1,1.1,0,0,1-.9-.5c-.1-.2-.1-.8,0-.8s1.8-1.3,2.7-1.3m0-2a4.7,4.7,0,0,0-2.6,1l-.7.4a2.2,2.2,0,0,0-1.3,1.2,2.9,2.9,0,0,0,.2,2.4,2.8,2.8,0,0,0,2.6,1.6h1.5a2.2,2.2,0,0,0,1.8-1c0-.1.2-.3.3-.5a3.5,3.5,0,0,0,.9-2.9,2.1,2.1,0,0,0-1.1-1.5,3,3,0,0,0-1.6-.5Z" fill="#8e8e8d"/><path d="M63.9,107.7l-1.5-.3h-.3l-.5-.2A.9.9,0,0,1,61,106a1,1,0,0,1,.7-.7.3.3,0,0,1-.1-.2,1.1,1.1,0,0,1,.8-1.1h1.8c1,0,3.4,0,3.7,1.8a1.2,1.2,0,0,1-.3,1.2,2.5,2.5,0,0,1-2.1.6H63.9Z" fill="#ebeae4"/><path d="M64.2,105c1.5,0,2.6.2,2.7,1s-1.7.5-2.6.7h-.4l-1.6-.3h0c.9,0,.6-1.4.3-1.4h1.6m-1.6,0h0m-.6,1.3h0m2.2-3.3v0h-2a1.9,1.9,0,0,0-1.6,1.7,1.8,1.8,0,0,0-.6.9,2.1,2.1,0,0,0,1.3,2.5h.6c0,.1.1.1.2.1a4.8,4.8,0,0,0,1.8.3h1.6a3.4,3.4,0,0,0,2.9-1,2.5,2.5,0,0,0,.5-1.9c-.4-2.7-3.7-2.7-4.7-2.7Z" fill="#8e8e8d"/><path d="M207.7,120.7h-.3c-1.5-.2-1.6-1.5-1.7-2.1s0-.4-.1-.5a.9.9,0,0,1-.1-1.1l.8-1.5a1,1,0,0,1,.8-.5h.1a1,1,0,0,1,.8.5l.5.7a6.9,6.9,0,0,1,1,1.9,2.2,2.2,0,0,1-.2,1.8,2.1,2.1,0,0,1-1.6.8Z" fill="#ebeae4"/><path d="M207.2,116a14.9,14.9,0,0,1,1.4,2.4,1,1,0,0,1-.9,1.3h-.1c-1.3-.2-.6-1.5-1.2-2.2l.8-1.5m0-2h-.1a1.8,1.8,0,0,0-1.7,1.1l-.8,1.4a2.2,2.2,0,0,0,.1,2.1h0c.2,1.8,1.1,2.8,2.6,3h.4a2.9,2.9,0,0,0,2.4-1.2,3.2,3.2,0,0,0,.4-2.7,9.1,9.1,0,0,0-1.2-2.2,2.1,2.1,0,0,1-.4-.6,2.1,2.1,0,0,0-1.7-1Z" fill="#8e8e8d"/><path d="M144.5,87.6h-.4a5.7,5.7,0,0,1-1.3-.8l-.4-.2a1,1,0,0,1-.4-1,.8.8,0,0,1,.7-.8h.3a3.5,3.5,0,0,1,1.1-.3h.3a1.4,1.4,0,0,1,1.2.5,1.6,1.6,0,0,1,.4,1.4.7.7,0,0,1-.3.6h-.1a1.4,1.4,0,0,1-1.1.7Z" fill="#ebeae4"/><path d="M144.4,85.3c.4,0,.7.1.6.8l-.5.5h0l-1.6-.9a3.8,3.8,0,0,1,1.3-.4h.2m0-2H144l-1.3.3h-.3a2,2,0,0,0-1.4,1.7,1.8,1.8,0,0,0,.9,1.9l.3.3,1.5.8.8.2a2.6,2.6,0,0,0,1.9-1h0a1.7,1.7,0,0,0,.6-1.2,2.6,2.6,0,0,0-.7-2.2,2.4,2.4,0,0,0-1.9-.8Z" fill="#8e8e8d"/><path d="M72.8,117.1a1,1,0,0,1-.8-.5.9.9,0,0,1,0-1.2,1.2,1.2,0,0,1,.8-.4l.6.2a1,1,0,0,1,.3,1.3,1,1,0,0,1-.9.6Z" fill="#ebeae4"/><path d="M72.8,116h0m0,0h0m0-2h0a1.6,1.6,0,0,0-1.3.6h-.1a.1.1,0,0,1-.1.1h0a2,2,0,0,0-.2,2.4.1.1,0,0,0,.1.1,1.6,1.6,0,0,0,.9.7h.7a2.1,2.1,0,0,0,1.8-1.1,3,3,0,0,0,.2-1,2,2,0,0,0-2-2Zm0,4Z" fill="#8e8e8d"/><path d="M72.8,117l-.5-.2a1,1,0,0,1-.4-1.2l.2-.4c.2-.3.4-.5.7-.5H73l.6.2.5.7a1.9,1.9,0,0,1-.2.8l-.3.3A.9.9,0,0,1,72.8,117Z" fill="#ebeae4"/><path d="M73,115.6h.1l-.3.3a.5.5,0,0,0,.2-.4m0-2h-.5a2.1,2.1,0,0,0-1.3,1v.4a2,2,0,0,0,.6,2.6l1.1.3a2,2,0,0,0,1.6-.7h0l.2-.2a1.8,1.8,0,0,0,.5-1.6,2,2,0,0,0-.9-1.3h0a2.8,2.8,0,0,0-1.2-.4Z" fill="#8e8e8d"/><path d="M86.8,76a.7.7,0,0,1-.7-.4.9.9,0,0,1,0-1.3h.1l.7-.2h0a.8.8,0,0,1,.7.3,1.3,1.3,0,0,1,.3.8c-.1.3-.2.6-.5.7Z" fill="#ebeae4"/><path d="M86.9,75h0m0-2a2.4,2.4,0,0,0-1.4.5h0a2,2,0,0,0,2.4,3.1H88a1.9,1.9,0,0,0,.7-.8,2,2,0,0,0-.3-2.1A1.7,1.7,0,0,0,87,73Z" fill="#8e8e8d"/><path d="M249.8,82h0Z" fill="#ebeae4"/><path d="M249.8,82h0" fill="#8e8e8d"/><path d="M249.8,81.9h0Z" fill="#ebeae4"/><path d="M249.8,81.9h0m0-2-.9.2a2.1,2.1,0,0,0-1.1,1.9h0a2.1,2.1,0,0,0,2,1.9h0a1.9,1.9,0,0,0,2-1.9h0a1.7,1.7,0,0,0-.8-1.7,1.6,1.6,0,0,0-1.2-.4Z" fill="#8e8e8d"/><use width="13.9" height="20.63" transform="translate(139.7 53.7)" xlink:href="#a"/><use width="13.9" height="20.63" transform="translate(49.9 55.1)" xlink:href="#a"/><use width="13.9" height="20.63" transform="translate(232.5 107.4)" xlink:href="#a"/><use width="13.9" height="20.63" transform="translate(196.5 86.6)" xlink:href="#a"/><use width="13.9" height="20.63" transform="translate(249.2 151.8)" xlink:href="#a"/><use width="13.9" height="20.63" transform="translate(136.5 102.5)" xlink:href="#a"/><use width="13.9" height="20.63" transform="translate(75.3 136.4)" xlink:href="#a"/><use width="13.9" height="20.63" transform="translate(119.1 49.7)" xlink:href="#a"/></svg>